<svg width="198" height="36" viewBox="0 0 198 36" fill="none" xmlns="http://www.w3.org/2000/svg">
<path opacity="0.736" fill-rule="evenodd" clip-rule="evenodd" d="M12.7386 0.0435652C17.0926 -0.324713 18.7998 1.64193 17.8606 5.94357C17.5972 7.28959 16.9629 8.42041 15.9581 9.33607C15.3728 9.53274 14.7874 9.53274 14.202 9.33607C13.7013 9.00177 13.5549 8.55927 13.763 8.00857C15.0055 6.97716 15.8835 5.69883 16.3972 4.17357C16.5441 1.7684 15.4222 0.834224 13.0313 1.37107C11.0958 2.26848 9.97394 3.79266 9.66545 5.94357C9.27501 8.21504 9.5677 10.3784 10.5435 12.4336C10.8851 12.7777 11.2263 13.1219 11.5679 13.4661C5.51901 15.2934 3.12879 19.2758 4.39716 25.4136C5.8741 27.4384 7.77653 27.9792 10.1045 27.0361C14.7221 24.9377 17.3077 21.3488 17.8606 16.2686C18.7105 15.7592 19.6372 15.5625 20.6411 15.6786C20.6422 16.786 20.5934 17.8678 20.4947 18.9236C21.8255 16.894 23.5328 15.2714 25.6167 14.0561C26.7338 13.7542 27.7582 13.9017 28.6898 14.4986C29.1769 16.0599 29.2743 17.6332 28.9825 19.2186C30.4225 16.6966 32.5202 15.7625 35.2752 16.4161C35.7084 17.0789 35.9036 17.8164 35.8606 18.6286C35.6217 20.4815 35.2313 22.3007 34.6898 24.0861C34.559 24.8528 34.8517 25.2953 35.5679 25.4136C36.9063 24.7976 37.9307 23.8141 38.6411 22.4636C39.6795 19.6823 40.9477 17.0273 42.4459 14.4986C43.2192 13.7526 44.1458 13.4576 45.2264 13.6136C45.2738 14.2116 45.225 14.8016 45.0801 15.3836C44.2995 16.7603 43.5192 18.1368 42.7386 19.5136C42.1585 20.677 41.8173 21.9063 41.7142 23.2011C41.7227 24.9997 42.6008 25.5897 44.3484 24.9711C45.9886 23.9082 47.2082 22.4822 48.0069 20.6936C49.9375 13.6567 52.9617 7.16666 57.0801 1.22357C58.7727 -0.587469 59.8459 -0.292469 60.2996 2.10857C60.3002 4.27469 59.8123 6.33969 58.8362 8.30357C56.8676 12.6401 54.2335 16.4751 50.9337 19.8086C50.4189 21.4904 50.4189 23.1621 50.9337 24.8236C51.4629 25.3829 52.0972 25.5304 52.8362 25.2661C53.5679 24.5286 54.2996 23.7911 55.0313 23.0536C56.1376 20.298 57.3573 17.594 58.6898 14.9411C59.7049 14.6221 60.5829 14.8188 61.324 15.5311C59.7561 17.9105 59.0244 20.5163 59.1289 23.3486C60.5431 23.6265 61.7138 23.1347 62.6411 21.8736C63.9707 20.4714 64.751 18.7997 64.9825 16.8586C65.7277 16.0663 66.6546 15.7713 67.763 15.9736C67.1179 19.1625 66.3862 22.3093 65.5679 25.4136C67.7955 24.1516 69.4053 22.3323 70.3972 19.9561C70.8259 19.7788 71.1186 19.9263 71.2752 20.3986C69.9169 23.5377 67.6729 25.7994 64.5435 27.1836C63.5153 30.1321 61.9541 32.7381 59.8606 35.0011C58.3875 36.0309 56.9727 35.9819 55.6167 34.8536C54.9991 32.8774 55.5356 31.2549 57.2264 29.9861C58.7645 28.94 60.3742 28.006 62.0557 27.1836C62.7523 25.7693 63.1424 24.2943 63.2264 22.7586C61.8365 25.2053 59.8366 25.9428 57.2264 24.9711C56.6449 24.582 56.3033 24.0412 56.202 23.3486C55.2438 24.9044 53.9267 26.0354 52.2508 26.7411C49.4165 27.4258 47.9042 26.2947 47.7142 23.3486C45.7547 26.4573 43.1206 27.3423 39.8118 26.0036C39.5191 25.4136 39.2264 24.8236 38.9337 24.2336C37.5567 26.3298 35.6542 27.1656 33.2264 26.7411C32.6899 26.5936 32.3484 26.2493 32.202 25.7086C32.0068 24.5286 32.0068 23.3486 32.202 22.1686C33.2575 17.1949 32.2819 16.8016 29.2752 20.9886C28.0758 22.6438 27.0514 24.4138 26.202 26.2986C25.5207 26.6596 24.8378 26.6596 24.1533 26.2986C24.0558 26.1018 23.958 25.9053 23.8606 25.7086C24.7615 23.0837 25.542 20.4287 26.202 17.7436C25.9837 17.3789 25.8862 16.9854 25.9094 16.5636C25.2786 16.5258 24.6933 16.6733 24.1533 17.0061C21.1699 19.8289 18.8771 23.1229 17.2752 26.8886C16.6673 26.7361 16.0819 26.5393 15.5191 26.2986C15.4298 25.6918 15.4298 25.1018 15.5191 24.5286C11.9519 28.9444 7.61041 29.9769 2.49472 27.6261C-0.311114 24.7678 -0.750138 21.5721 1.17765 18.0386C3.00519 15.3248 5.49299 13.604 8.64106 12.8761C5.3902 8.79383 5.68289 4.95883 9.51911 1.37107C10.559 0.745429 11.6323 0.302929 12.7386 0.0435652ZM58.3972 3.58357C58.7229 4.01025 58.7718 4.50193 58.5435 5.05857C57.0766 9.29562 54.93 13.1306 52.1045 16.5636C53.4906 11.9005 55.5883 7.57385 58.3972 3.58357ZM60.7386 28.9536C60.995 28.9149 61.1902 29.0132 61.324 29.2486C60.5308 30.8982 59.555 32.4225 58.3972 33.8211C57.448 34.5226 56.9601 34.2768 56.9337 33.0836C56.9563 32.5529 57.1026 32.0611 57.3728 31.6086C58.4654 30.6513 59.5872 29.7663 60.7386 28.9536Z" fill="#161921"/>
<path opacity="0.74" fill-rule="evenodd" clip-rule="evenodd" d="M95.8609 0.0433506C97.043 -0.0857414 97.921 0.356759 98.495 1.37085C95.1918 8.63989 93.4846 16.2607 93.373 24.2334C93.4825 24.5036 93.6289 24.7496 93.8121 24.9709C94.4817 25.0942 95.0671 24.8974 95.5682 24.3809C96.1395 23.769 96.676 23.1298 97.1779 22.4634C98.241 20.4264 99.0701 18.3121 99.6657 16.1209C100.426 15.894 101.158 15.9432 101.861 16.2684C101.892 17.3531 101.892 18.4345 101.861 19.5134C103.214 17.1386 105.214 15.762 107.861 15.3834C109.457 15.1781 110.384 15.8664 110.641 17.4484C110.837 18.3334 110.837 19.2184 110.641 20.1034C109.884 21.6031 109.493 23.1767 109.471 24.8234C110.175 25.4499 110.907 25.4007 111.666 24.6759C112.237 24.064 112.774 23.4248 113.275 22.7584C114.697 19.3484 116.794 16.4477 119.568 14.0559C121.207 12.9036 122.963 12.6086 124.836 13.1709C125.049 13.5835 125.196 14.026 125.275 14.4984C126.709 10.2314 128.465 6.10141 130.544 2.10835C131.048 1.15698 131.78 0.468623 132.739 0.0433506C133.356 0.124564 133.746 0.468741 133.91 1.07585C131.926 5.89415 129.828 10.6633 127.617 15.3834C126.283 18.3997 125.698 21.5465 125.861 24.8234C126.636 25.1077 127.367 24.9602 128.056 24.3809C128.788 23.6434 129.519 22.9059 130.251 22.1684C131.222 18.8797 133.027 16.1756 135.666 14.0559C137.416 12.8007 139.269 12.5549 141.227 13.3184C142.291 15.8561 141.706 17.9702 139.471 19.6609C137.545 21.0736 135.399 21.9093 133.032 22.1684C132.704 25.3296 134.07 26.5588 137.129 25.8559C140.22 24.4124 142.415 22.1017 143.715 18.9234C144.366 17.5433 144.903 16.1176 145.324 14.6459C144.711 12.6819 145.394 11.551 147.373 11.2534C147.264 12.1728 147.264 13.0578 147.373 13.9084C148.635 14.6388 149.659 15.6222 150.446 16.8584C150.641 17.9401 150.641 19.0216 150.446 20.1034C149.829 21.4471 149.292 22.8238 148.836 24.2334C149.297 25.0278 149.98 25.2735 150.885 24.9709C152.746 24.0805 153.965 22.6548 154.544 20.6934C157.613 18.6366 159.516 15.785 160.251 12.1384C161.016 11.327 161.699 11.3762 162.3 12.2859C161.971 13.2914 161.923 14.3239 162.154 15.3834C163.217 18.0366 163.851 20.7901 164.056 23.6434C165.013 23.1221 165.842 22.4339 166.544 21.5784C167.178 19.7511 168.202 18.2272 169.617 17.0059C170.3 16.9076 170.983 16.8091 171.666 16.7109C172.431 13.4713 174.334 12.4388 177.373 13.6134C177.871 14.3214 178.115 15.108 178.105 15.9734C177.753 18.2525 177.07 20.416 176.056 22.4634C177.672 22.5583 178.99 21.9683 180.007 20.6934C180.489 19.4018 180.831 18.0743 181.032 16.7109C181.15 16.4321 181.345 16.2353 181.617 16.1209C182.378 15.894 183.109 15.9432 183.812 16.2684C183.825 17.472 183.728 18.652 183.519 19.8084C184.641 18.2841 185.958 16.9566 187.471 15.8259C188.703 15.3734 189.971 15.275 191.275 15.5309C192.292 16.2878 192.78 17.3203 192.739 18.6284C192.37 20.4329 191.882 22.2029 191.275 23.9384C191.243 24.4912 191.438 24.9337 191.861 25.2659C192.695 25.2151 193.427 24.8708 194.056 24.2334C195.092 22.8831 196.019 21.4574 196.836 19.9559C197.256 19.8762 197.548 20.0727 197.715 20.5459C196.767 23.2696 195.011 25.2364 192.446 26.4459C189.471 26.9866 188.251 25.7576 188.788 22.7584C189.445 21.2429 189.641 19.6697 189.373 18.0384C187.714 17.5917 186.348 18.0835 185.275 19.5134C183.649 21.6447 182.137 23.8572 180.739 26.1509C178.212 26.2919 177.724 25.3086 179.275 23.2009C179.178 23.1516 179.08 23.1026 178.983 23.0534C177.747 23.664 176.479 23.7625 175.178 23.3484C173.997 24.6844 172.631 25.8151 171.08 26.7409C168.125 27.5385 166.515 26.4075 166.251 23.3484C165.459 24.067 164.532 24.5095 163.471 24.6759C161.961 27.3757 159.717 28.2607 156.739 27.3309C155.376 26.6984 154.449 25.6659 153.958 24.2334C152.595 25.7809 150.888 26.6659 148.836 26.8884C146.302 26.4677 145.473 24.9927 146.349 22.4634C147.095 21.0096 147.631 19.4853 147.958 17.8909C147.973 16.6905 147.437 15.8547 146.349 15.3834C145.267 18.4481 143.804 21.2999 141.958 23.9384C139.466 26.7954 136.392 27.8279 132.739 27.0359C131.464 26.3913 130.635 25.3588 130.251 23.9384C128.947 25.5508 127.289 26.5341 125.275 26.8884C124.109 26.7945 123.329 26.2045 122.934 25.1184C122.787 24.0148 122.787 22.933 122.934 21.8734C122.105 22.9059 121.275 23.9384 120.446 24.9709C119.618 25.8048 118.642 26.3948 117.519 26.7409C115.388 27.2149 114.071 26.3792 113.568 24.2334C112.024 26.3585 110.024 26.9975 107.568 26.1509C106.759 25.2673 106.515 24.2348 106.836 23.0534C107.201 21.8309 107.542 20.6016 107.861 19.3659C107.47 17.6858 106.495 17.2923 104.934 18.1859C102.461 20.5205 100.412 23.1755 98.7877 26.1509C97.8072 26.4252 96.978 26.1795 96.2999 25.4134C94.9295 26.8951 93.3198 27.2391 91.4706 26.4459C90.4904 25.1549 90.0025 23.6799 90.0072 22.0209C90.2346 20.3013 90.4298 18.5806 90.5926 16.8584C89.3282 16.6622 88.0597 16.4654 86.7877 16.2684C86.4154 16.2889 86.0741 16.3873 85.7633 16.5634C83.6899 20.7285 81.5923 24.8585 79.4706 28.9534C79.086 28.7135 78.7445 28.4185 78.4462 28.0684C78.251 27.1834 78.251 26.2984 78.4462 25.4134C79.7536 22.1872 81.3634 19.1387 83.2755 16.2684C81.7055 16.0161 80.1447 15.7211 78.5926 15.3834C78.9417 14.7855 79.4296 14.343 80.056 14.0559C81.6049 13.5649 83.166 13.4666 84.7389 13.7609C86.8366 10.86 88.9339 7.95917 91.0316 5.05835C92.5041 3.23024 94.1138 1.55859 95.8609 0.0433506ZM94.3974 3.28835C94.0998 5.03201 93.5633 6.80201 92.7877 8.59835C92.0665 10.7193 91.53 12.8827 91.1779 15.0884C89.7739 14.9805 88.4083 14.6855 87.0804 14.2034C89.1833 10.3179 91.6222 6.67958 94.3974 3.28835ZM122.495 14.2034C123.488 14.0741 124.366 14.3199 125.129 14.9409C123.888 18.623 121.839 21.7698 118.983 24.3809C118.319 24.8405 117.636 24.8894 116.934 24.5284C116.501 22.5368 116.842 20.6683 117.958 18.9234C119.018 16.8681 120.53 15.2948 122.495 14.2034ZM138.593 14.2034C139.241 14.1369 139.729 14.3827 140.056 14.9409C138.835 17.8419 136.738 19.8579 133.763 20.9883C134.509 18.1192 136.119 15.8575 138.593 14.2034ZM175.178 14.4984C175.565 14.4482 175.906 14.5466 176.202 14.7934C176.687 17.1507 176.151 19.2157 174.593 20.9883C173.267 18.6596 173.462 16.4964 175.178 14.4984ZM159.666 16.8584C159.984 16.8938 160.179 17.0905 160.251 17.4484C160.847 19.3785 161.091 21.345 160.983 23.3484C160.327 23.5475 159.692 23.4 159.08 22.9059C158.288 22.2064 157.606 21.4199 157.032 20.5459C158.094 19.4293 158.972 18.2003 159.666 16.8584ZM171.373 17.4484C171.624 19.383 172.405 21.1037 173.715 22.6109C172.827 23.8044 171.706 24.6405 170.349 25.1184C169.961 25.0431 169.668 24.8464 169.471 24.5284C169.296 21.9562 169.93 19.5962 171.373 17.4484ZM156.154 21.8734C157.441 23.0672 158.904 24.0505 160.544 24.8234C159.252 26.3886 157.935 26.3886 156.593 24.8234C156.242 23.8717 156.095 22.8884 156.154 21.8734Z" fill="#161921"/>
</svg>
