<svg width="57" height="63" viewBox="0 0 57 63" fill="none" xmlns="http://www.w3.org/2000/svg">
<g clip-path="url(#clip0_278_591)">
<path d="M38.9681 10.9617C38.9923 10.8345 39.1469 10.7593 39.2944 10.7355C39.4419 10.7118 39.5946 10.7146 39.729 10.6603C39.9045 10.5902 40.0885 10.4245 40.251 10.515C40.3286 10.558 40.3946 10.6575 40.4794 10.6281C40.529 10.61 40.5446 10.5568 40.5727 10.5178C40.6699 10.3906 40.9094 10.4364 41.0497 10.3437C41.2533 10.2091 41.1463 9.86646 41.376 9.76412C41.5065 9.88795 41.6461 10.0152 41.8242 10.0836C42.0024 10.152 42.234 10.1464 42.3691 10.027C42.5192 9.89248 42.5283 9.64595 42.7273 9.5747C42.8001 9.55421 42.8771 9.54746 42.9531 9.55491C43.3641 9.56821 43.7753 9.53533 44.1766 9.45709C44.743 9.34401 45.0046 9.08504 45.1365 8.59764C45.1543 8.55121 45.1543 8.50102 45.1365 8.45459C45.1213 8.43215 45.1047 8.41044 45.0869 8.38956C44.9394 8.17583 45.2781 7.80548 45.372 7.62341C45.5312 7.31299 45.5534 6.95846 45.5462 6.62317C45.5417 6.41 45.5267 6.18949 45.6148 5.98989C45.6376 5.94863 45.653 5.90458 45.6604 5.85927C45.6593 5.81014 45.6475 5.76163 45.6258 5.71622C45.4255 5.17285 45.4751 4.56501 45.3289 4.00919C45.2885 3.85483 45.2239 3.70612 45.171 3.55685C45.019 3.11977 44.9955 2.6974 44.7443 2.28634C44.4931 1.87527 44.1087 1.65249 43.7655 1.32511C43.3812 0.955317 43.0171 0.590047 42.495 0.360484C42.0748 0.174458 41.6069 0.0924702 41.1404 0.0489322C40.4748 -0.0132649 39.9554 -0.0143943 39.3218 0.198772C39.0738 0.282455 38.8252 0.368402 38.5864 0.468482C38.0487 0.699742 37.6683 1.04748 37.2076 1.3613C36.6745 1.72487 36.1466 2.10031 35.622 2.47632C35.3689 2.66764 35.0988 2.84139 34.8142 2.99594C34.5134 3.14917 34.1727 3.23512 33.8856 3.39627C33.6677 3.51784 33.4093 3.60095 33.2331 3.76775C33.216 3.78112 33.2039 3.79866 33.1985 3.81808C33.1907 3.86275 33.2461 3.89441 33.2938 3.9142C33.5893 4.02961 33.8575 4.19162 34.0846 4.39199C34.3119 4.59487 34.453 4.85863 34.4846 5.14005C34.3933 4.94893 34.2236 4.79401 34.0442 4.65774C33.712 4.40725 33.3114 4.25176 32.9134 4.09684C32.5316 3.94813 32.1799 3.7491 31.7871 3.63149C31.1103 3.42273 30.3996 3.30822 29.6814 3.29223C29.3585 3.28012 29.035 3.28958 28.7137 3.32051C28.379 3.36348 28.0331 3.55742 27.7251 3.67729C27.4315 3.79037 27.1215 3.90911 26.8012 3.88424C26.7237 3.87034 26.6437 3.87149 26.5669 3.88762C26.5053 3.91734 26.4458 3.95019 26.3888 3.98601C26.1734 4.08157 25.9385 3.96283 25.7141 3.98601C25.4896 4.00919 25.3604 4.14942 25.1888 4.28456C25.1601 4.31329 25.1214 4.33314 25.0785 4.3411C25.0307 4.34024 24.9847 4.32528 24.948 4.29869C24.7796 4.202 24.5728 4.10984 24.3849 4.17317C24.2544 4.21727 24.1565 4.33092 24.0168 4.34619C23.7558 4.37559 23.6129 4.05556 23.3552 4.00693C23.1451 3.96452 22.841 4.06347 22.6224 4.07309C22.3203 4.08527 22.0176 4.07163 21.7186 4.03238C21.5881 4.01485 21.4498 3.9894 21.3526 3.91137C21.2397 3.82147 21.2005 3.67672 21.085 3.58964C20.8005 3.37535 20.411 3.62583 20.0899 3.49465C19.9196 3.42511 19.7585 3.32503 19.5679 3.31146C19.1921 3.2894 18.9382 3.62131 18.6322 3.81186C18.1878 4.08948 17.5653 4.081 17.1314 4.36937C17.0303 4.43609 16.9356 4.539 16.967 4.6453C16.6583 4.7663 16.2753 4.62664 15.9366 4.6142C15.5004 4.59788 15.0633 4.61813 14.6316 4.6747C13.6528 4.80305 12.7308 5.00435 11.7363 5.05128C11.1627 5.07842 10.5924 5.13779 10.0215 5.18811C9.73502 5.21355 9.44922 5.2373 9.16211 5.2537C9.06162 5.25992 8.51872 5.36679 8.46456 5.31929C8.45099 5.30444 8.43836 5.28896 8.42671 5.27292C8.35689 5.19546 8.2166 5.23335 8.11546 5.27745C8.05615 5.29889 8.00326 5.33176 7.96081 5.37357C7.94026 5.39503 7.92859 5.42182 7.92764 5.44969C7.9267 5.47756 7.93653 5.5049 7.95559 5.52737C7.69849 5.68512 7.36375 5.64046 7.05706 5.70265C6.78692 5.7592 6.53504 5.87228 6.26294 5.91412C5.81727 5.98763 5.44011 5.82818 5.07273 5.63141C4.70536 5.43464 4.30667 5.14514 3.87861 5.32494C3.85616 5.3325 3.837 5.34594 3.8238 5.3634C3.80357 5.39732 3.82967 5.43747 3.85578 5.46857C4.08024 5.73545 4.37192 6.05604 4.76409 6.12728C3.84327 6.09612 2.94354 5.87928 2.13637 5.49401C1.94714 5.40297 1.69722 5.30572 1.53605 5.43011C1.48868 5.47325 1.45781 5.52799 1.44765 5.58688C1.4375 5.64577 1.44854 5.70594 1.47928 5.7592C1.54393 5.86442 1.63905 5.95327 1.7553 6.01703C2.04176 6.19514 2.41761 6.22058 2.72365 6.37099C2.98466 6.49821 3.32788 6.77018 3.62674 6.80863C3.94126 6.84877 4.41434 6.65257 4.68644 6.53043C4.51402 6.74407 4.27008 6.90669 3.98759 6.99635C3.61434 7.12187 3.15627 7.13036 2.76149 7.18464C2.48516 7.22801 2.206 7.25653 1.92561 7.27002C1.47536 7.28415 1.02708 7.22139 0.582058 7.15693L0.125291 7.09247C-0.141592 7.05516 0.116808 7.45604 0.170968 7.5239C0.356937 7.75629 0.64209 7.74441 0.948777 7.77325C1.19116 7.79593 1.43004 7.84104 1.66133 7.90782C1.36117 7.89651 1.11778 7.90782 0.821535 7.86485C0.634181 7.83877 0.449251 7.80098 0.268194 7.75176C0.176188 7.95645 0.315828 8.19562 0.523331 8.32115C0.800654 8.49078 1.12757 8.49813 1.44143 8.57164C2.06133 8.71582 2.6982 8.82607 3.34289 8.82098C3.91124 8.81646 4.49329 8.65927 5.05446 8.68868C5.3353 8.71086 5.61315 8.75553 5.88447 8.82212L6.35756 8.92446C6.47566 9.02794 6.43194 9.12293 6.47892 9.26372C6.49887 9.3087 6.50002 9.3583 6.48219 9.40394C6.45476 9.43419 6.41912 9.45809 6.37844 9.47349L6.01759 9.69571C5.94202 9.73616 5.87567 9.78829 5.82183 9.8495C5.60911 10.1226 5.75658 10.5625 6.14353 10.6377C6.31863 10.6632 6.49836 10.6494 6.66555 10.5976C6.72973 10.5849 6.7892 10.5585 6.83847 10.5207C6.90372 10.4602 6.91677 10.3674 6.94548 10.286C6.99401 10.1486 7.1011 10.0323 7.24499 9.96089C7.78985 9.69175 8.12525 9.26994 8.61007 8.92503C8.8104 8.78254 9.01855 8.631 9.16211 8.44215C9.22736 8.35564 9.31871 8.2352 9.32458 8.12833C9.32981 8.04182 9.23062 7.94796 9.29065 7.86598C9.31194 7.83968 9.34354 7.82099 9.37956 7.81339C9.41558 7.8058 9.45356 7.80982 9.48641 7.8247C9.50855 7.84016 9.53346 7.85239 9.56015 7.86089C9.59386 7.86233 9.62703 7.85308 9.65346 7.83488L9.95166 7.67543C9.95726 7.63928 9.95348 7.60252 9.94061 7.56779C9.92774 7.53307 9.90611 7.50127 9.87727 7.4747C10.8561 7.1705 11.8238 7.28924 12.8319 7.41533C13.5882 7.50976 14.3327 7.64829 15.0857 7.77155C15.3685 7.82114 15.6551 7.85307 15.9431 7.86711C16.0971 7.87276 16.2609 7.82922 16.3999 7.90216C16.5794 7.99546 16.6028 8.21089 16.7555 8.33755C17.0485 8.58125 17.5223 8.6768 17.9131 8.69773C18.2433 8.71582 18.5728 8.73278 18.903 8.73052C19.1333 8.73052 19.4074 8.57898 19.6136 8.61121C19.6848 8.62883 19.7513 8.65842 19.8094 8.69829C20.3001 8.981 20.9454 8.93068 21.519 8.81873C21.5835 8.8023 21.6508 8.7956 21.718 8.79893C21.8116 8.81523 21.8993 8.85072 21.9738 8.90241C22.5343 9.22583 23.0831 9.38924 23.7265 9.5436C23.8067 9.56339 23.8955 9.58714 23.9385 9.64934C24.0318 9.78391 23.8426 9.93205 23.6821 10.0022C23.4498 9.89748 23.192 9.84235 22.9302 9.84137C22.6684 9.84039 22.41 9.89357 22.1767 9.99651C22.0905 10.0437 21.9981 10.0816 21.9014 10.1096C21.7356 10.1447 21.5555 10.0977 21.395 10.1464C21.2762 10.1825 21.1803 10.2674 21.057 10.2888C20.7346 10.3454 20.4802 9.94958 20.1578 10.0061C19.9705 10.0384 19.8642 10.2108 19.8152 10.3703C19.7663 10.5297 19.7441 10.7056 19.6195 10.8316C19.5105 10.9447 19.3435 10.9934 19.1979 11.0669C18.8932 11.2218 18.6557 11.5888 18.5552 11.8749C18.5252 11.9585 18.505 12.0535 18.4247 12.1078C18.1983 12.2627 17.8178 12.3402 17.5444 12.4199C16.8802 12.6127 16.3268 13.0329 15.6593 13.2178C15.6402 13.1816 15.6082 13.1517 15.568 13.1325C15.5278 13.1133 15.4816 13.1057 15.4361 13.1109C15.3456 13.1229 15.2586 13.1497 15.1797 13.19C14.9107 13.3045 14.6255 13.388 14.3314 13.4383C14.0998 13.4784 13.8048 13.4337 13.6554 13.6209C13.2939 13.2494 12.6688 13.1443 12.2851 12.7903C12.0795 12.6009 11.9588 12.3555 11.8433 12.1157C11.6978 11.8132 11.5823 11.4983 11.3807 11.2195C11.2946 11.1019 11.1641 10.9199 10.9892 10.8905C10.8535 10.8673 10.5324 10.9724 10.5546 11.1217C10.5686 11.1726 10.5973 11.2195 10.6381 11.258C10.8802 11.535 11.0844 11.8025 11.2058 12.1384C11.2639 12.3001 11.4955 12.619 11.2711 12.7535C11.1969 12.7904 11.1137 12.8115 11.0283 12.8152C10.6583 12.3894 10.2296 12.0043 9.80223 11.6204C9.65637 11.4842 9.50216 11.3549 9.34025 11.2331C9.23824 11.1491 9.11201 11.0905 8.97483 11.0635C8.8365 11.0448 8.67598 11.098 8.62573 11.2116C8.5794 11.3168 8.63943 11.4378 8.72753 11.5192C9.03617 11.8093 9.34938 11.9789 9.57581 12.3447C9.60491 12.3985 9.64033 12.4494 9.68152 12.4968C9.79701 12.6161 9.97776 12.6608 10.0933 12.7795C10.2064 12.9101 10.3039 13.0503 10.3843 13.198L10.214 13.3732L9.01464 12.7846C8.56766 12.5653 8.11676 12.3436 7.73634 12.0445C7.68906 11.9998 7.62927 11.9665 7.56277 11.9478C7.4153 11.9201 7.28479 12.0558 7.27501 12.1864C7.26065 12.3674 7.39964 12.5325 7.56081 12.6478C7.72198 12.7632 7.91317 12.8463 8.06652 12.9701C8.2427 13.112 8.35363 13.3094 8.57157 13.4077C8.92394 13.5644 9.25868 13.7374 9.60256 13.9014C9.71023 13.9528 9.81985 14.0144 9.86683 14.1157C9.91381 14.2169 9.86683 14.352 9.74612 14.3763C9.3944 14.4476 9.05118 14.4182 8.69033 14.4329C8.58292 14.4408 8.47483 14.4385 8.36798 14.4261C8.2572 14.404 8.14821 14.3757 8.04172 14.3413C7.76636 14.2649 7.37093 14.1468 7.07599 14.2401C6.57485 14.3989 6.90307 14.8196 7.31089 14.8524C7.58234 14.8745 7.86228 14.9751 8.13308 15.0464C8.43063 15.1244 8.72035 15.1165 9.00485 15.2092C9.27434 15.2963 9.49555 15.2917 9.78788 15.2901C10.085 15.2902 10.3784 15.3465 10.6478 15.4551C10.9172 15.5637 11.1559 15.722 11.3474 15.9188C11.2982 15.7507 11.2223 15.5893 11.1216 15.4393C11.2939 15.6395 11.4707 15.851 11.5099 16.098C11.551 16.3564 11.4335 16.6132 11.2978 16.8461C11.1621 17.0791 11.0042 17.3098 10.9546 17.567C10.905 17.8243 10.9944 18.1234 11.2541 18.2557C11.3507 18.3049 11.3846 18.3518 11.4897 18.319C11.6593 18.2665 11.6482 18.0612 11.6489 17.9046C11.6499 17.7752 11.6806 17.6472 11.7393 17.5282C11.798 17.4091 11.8835 17.3014 11.9908 17.2114C12.0998 17.1209 12.229 17.0502 12.334 16.9564C12.4965 16.8116 12.595 16.6171 12.7497 16.4701C12.9043 16.3231 13.7122 15.8724 13.8851 16.0777C13.9458 16.1506 13.9751 16.2518 14.0697 16.288C14.1173 16.3033 14.1688 16.3068 14.2185 16.2982C14.5728 16.2569 14.8743 16.0472 15.2234 15.9804C15.4192 15.9431 15.6254 15.9522 15.8244 15.9239C16.0234 15.8956 16.2303 15.8216 16.3288 15.6694C16.3745 15.5988 16.394 15.5145 16.4593 15.4563C16.5215 15.4101 16.5963 15.3783 16.6766 15.3641C17.8599 15.0672 19.0793 14.8915 20.3098 14.8405C20.4651 14.9203 20.6302 14.9966 20.7862 15.0758C21.0054 15.1888 21.2312 15.3019 21.4824 15.3392C21.7337 15.3766 22.0182 15.3245 22.1767 15.1515C22.242 15.0803 22.2824 14.9938 22.3412 14.918C22.3671 14.8782 22.4035 14.8441 22.4473 14.8186C22.4912 14.7931 22.5413 14.7768 22.5937 14.771C22.6811 14.771 22.764 14.8117 22.8514 14.8089C22.9911 14.8038 23.0857 14.689 23.1653 14.5895C23.3676 14.3373 23.3082 13.872 23.4263 13.5615C23.5744 13.1657 23.7969 12.7993 24.0181 12.4346C23.9411 12.7053 23.8639 12.9763 23.7865 13.2477C23.6253 13.8132 23.4602 14.3944 23.5118 14.9779C23.5431 15.3483 23.6221 15.7396 23.6553 16.1088C23.6769 16.2694 23.6769 16.4316 23.6553 16.5922C23.6123 16.8376 23.4726 17.0615 23.3865 17.2985C23.1177 18.0414 23.3976 18.8562 23.2299 19.6218C22.9806 20.7617 23.2123 21.8213 23.2253 22.9816C23.2305 23.4678 23.2736 23.949 23.1601 24.424C23.1441 24.4726 23.1399 24.5235 23.1477 24.5736C23.1554 24.6237 23.175 24.6719 23.2051 24.7152C23.3239 24.8554 23.6201 24.8684 23.7989 24.9068C24.0756 24.9634 24.362 25.0092 24.6361 25.0816C24.7792 25.1248 24.925 25.1614 25.0726 25.1913C25.5411 25.2693 26.0638 25.1347 26.4808 25.3354C26.8123 25.4949 26.9767 25.755 27.1529 26.0462C27.2149 26.1377 27.2547 26.2393 27.2697 26.3447C27.2847 26.5279 27.1705 26.7055 27.1842 26.8892C27.2025 27.125 27.4263 27.3139 27.483 27.5457C27.5398 27.7775 27.4243 28.058 27.5861 28.2559C27.6697 28.3582 27.8152 28.4176 27.883 28.529C27.9842 28.6947 27.8739 28.905 27.9418 29.0837C28.022 29.2929 28.3033 29.376 28.5082 29.5066C28.6763 29.6149 28.8013 29.7659 28.8657 29.9386C28.9539 30.1594 29.0934 30.3622 29.2755 30.5346C29.376 30.6341 29.7721 30.8953 29.5529 31.0519C29.6931 31.3346 30.2374 31.2747 30.4285 31.5348C30.4683 31.6037 30.503 31.6747 30.5323 31.7474C30.6452 31.956 30.9062 32.0669 31.1476 32.1619C31.0439 32.2552 31.1881 32.4061 31.3316 32.4446C31.4752 32.483 31.6579 32.4932 31.7232 32.6091C31.7584 32.6696 31.7525 32.7465 31.8021 32.7991C31.8517 32.8517 31.9326 32.8607 32.0024 32.8845C32.1851 32.945 32.3013 33.0976 32.405 33.2418L33.3186 34.5095C33.2979 34.721 33.3334 34.9338 33.4223 35.1315L35.4876 39.7488C35.5646 39.9184 35.3349 40.0315 35.4817 40.1661C35.7538 40.4159 35.9155 40.7408 35.9385 41.0838C35.9554 41.3489 36.1251 41.5858 36.2895 41.8098C36.3026 41.8278 36.2523 41.8437 36.2628 41.8245C35.9613 41.8476 35.8576 42.0891 35.7636 42.3379C35.6696 42.5867 35.5678 42.8739 35.2951 42.9819C34.9205 43.1295 34.805 43.5349 34.5434 43.8091C34.1825 44.1863 33.5554 44.2982 33.2109 44.6889C33.0419 44.88 32.9499 45.0723 32.7346 45.243C32.5192 45.4138 32.2667 45.5733 32.0768 45.7774C31.954 45.9202 31.8449 46.0715 31.7506 46.2297C31.2853 46.9433 30.7254 47.606 30.1675 48.2653C30.0801 48.3693 29.9816 48.4795 29.8413 48.514L30.0011 48.4089C29.8739 48.5389 29.7245 48.4954 29.5444 48.5559C29.2181 48.6622 29.0622 48.9698 28.8266 49.1914C28.5121 49.49 28.0468 49.6381 27.7134 49.9203C27.5751 50.0367 27.4622 50.1741 27.3277 50.294C27.1624 50.4335 26.9826 50.5595 26.7907 50.6706C26.3555 50.9403 25.9183 51.2111 25.4419 51.4226C25.1927 51.5329 24.9258 51.6318 24.7372 51.8116C24.5486 51.9914 24.4645 52.2838 24.6341 52.4771C24.2063 52.367 23.8056 52.1893 23.4524 51.953C23.3764 51.8926 23.2835 51.8505 23.1829 51.8308C22.8012 51.793 22.4651 52.3963 22.3013 52.6224C22.0188 53.0228 21.827 53.4649 21.6488 53.906C21.3323 54.6857 21.2306 55.5101 20.9643 56.3051C20.6885 57.1293 20.3241 57.9293 19.8759 58.6946C19.7774 58.8642 19.671 59.0338 19.5053 59.156C19.4224 59.2176 19.3245 59.2662 19.2612 59.3437C19.1457 59.4845 19.1764 59.6739 19.1738 59.8469C19.1666 60.3852 18.7979 60.8647 18.4436 61.3057L17.9151 61.9656C17.7774 62.1352 17.6351 62.3224 17.6351 62.531C17.6351 62.8991 18.0064 62.8584 18.3216 62.8855L19.4844 62.9856C19.733 63.0065 20.0064 63.0235 20.212 62.9048C20.4462 62.7707 20.5265 62.5089 20.6903 62.3122C21.008 61.9294 21.5973 61.8225 22.0841 61.6116C23.055 61.1898 23.6834 60.2981 24.6837 59.9306C24.6746 60.0493 24.5532 60.1325 24.4579 60.219C24.3627 60.3055 24.2961 60.4519 24.3927 60.5356C24.4893 60.6193 24.6615 60.5577 24.7718 60.4824C24.9671 60.3577 25.1339 60.2026 25.2638 60.025C25.363 59.8752 25.3943 59.6626 25.6553 59.6609C25.8263 59.6609 25.9816 59.8271 25.9092 59.9617C25.8844 60.0086 25.8387 60.0454 25.8139 60.0923C25.8011 60.1213 25.7957 60.1523 25.7981 60.1833C25.8004 60.2142 25.8103 60.2444 25.8273 60.2717C25.8443 60.299 25.8678 60.3228 25.8964 60.3415C25.9249 60.3602 25.9577 60.3734 25.9927 60.3801C26.0648 60.3875 26.1374 60.37 26.1948 60.3314C26.2522 60.2928 26.2898 60.2361 26.2994 60.1737C26.3111 60.081 26.2824 59.9532 26.3842 59.9232C26.4227 59.9161 26.4628 59.9187 26.4997 59.9306C27.1842 60.0833 27.9685 59.7406 28.2334 59.1724C28.4334 59.1007 28.6265 59.0154 28.8109 58.9174C28.567 58.8996 28.3228 58.948 28.1121 59.0559C28.061 59.0901 27.9991 59.1098 27.9346 59.1124C27.8693 59.1085 27.8204 59.0683 27.7597 59.0531C27.6625 59.0299 27.564 59.074 27.4746 59.1169L26.672 59.5043C26.5695 59.554 26.4475 59.6049 26.3405 59.5608C26.2928 59.5378 26.2514 59.5062 26.2191 59.4681L25.9535 59.1978C26.1362 59.1364 26.3163 59.0696 26.4938 58.9977C26.6485 58.936 26.8064 58.8665 26.9101 58.75C27.0139 58.6335 27.0465 58.456 26.9395 58.3412C26.8423 58.2366 26.653 58.2015 26.5995 58.076C26.546 57.9505 26.653 57.8306 26.7535 57.7367C26.9532 57.549 27.1901 57.3873 27.3852 57.1979C27.5594 57.0283 27.637 56.9197 27.8909 57.108C28.1101 57.2703 28.3365 57.4325 28.6008 57.5332C28.8651 57.6338 29.177 57.6666 29.4419 57.5665C29.5 57.5457 29.5534 57.5162 29.5998 57.4795C29.6369 57.4465 29.6712 57.4111 29.7023 57.3737C29.9268 57.1272 30.2843 57.0124 30.5891 56.8507C30.9349 56.6675 31.299 56.4934 31.56 56.2174C31.7388 56.028 31.8589 55.8024 32.0272 55.6056C32.2289 55.3699 32.4957 55.1821 32.7326 54.9718C33.0837 54.6591 33.3682 54.2967 33.6507 53.9359C34.005 53.4836 34.4872 53.1364 34.8481 52.692C35.7231 51.6132 36.6445 50.5643 37.5013 49.4645C37.6905 49.222 37.8817 48.9771 38.129 48.7775C38.6021 48.3953 39.2507 48.2025 39.7094 47.8073C40.1127 47.4601 40.3371 46.984 40.7228 46.6199C41.0406 46.3219 41.4536 46.1138 41.7949 45.8362C42.4513 45.3018 42.8043 44.5357 42.9381 43.7622C43.2918 41.7193 42.7508 39.4813 42.2693 37.4814C41.8963 35.9324 41.4071 34.4061 40.805 32.9122C40.3561 31.7989 39.9796 30.7189 39.7407 29.562C39.7359 29.4956 39.7031 29.4331 39.6487 29.3862C39.5469 29.3161 39.3982 29.3715 39.2879 29.4308C38.5498 29.8248 37.8917 30.3215 37.3401 30.901C38.1088 30.0924 38.6752 29.2459 39.6076 28.5431C40.5029 27.8674 41.5058 27.3105 42.6438 27.0091C43.7479 26.7173 44.7365 26.265 45.7942 25.8703C46.5805 25.5774 47.387 25.2721 47.9912 24.7463C48.2836 24.4918 48.3058 24.1136 48.373 23.7596C48.3908 23.622 48.424 23.4862 48.4722 23.3542C48.5603 23.1484 48.7332 22.9804 48.9067 22.8182C49.3896 22.3613 49.894 21.8909 50.5544 21.6534C49.7126 22.445 48.8578 23.2581 48.3756 24.251C48.5127 24.0507 48.7017 23.8808 48.9276 23.7548C49.1536 23.6288 49.4102 23.5501 49.6774 23.5249C49.2254 23.7051 48.841 23.9917 48.5681 24.3522C48.1726 24.8718 48.3841 25.2354 48.5596 25.8031C48.771 26.4816 48.9831 27.1708 49.0111 27.8748C49.0183 28.041 49.0111 28.214 48.9309 28.3639C48.8591 28.4968 48.7306 28.6053 48.681 28.7455C48.6196 28.9231 48.696 29.1114 48.7638 29.2867C49.0136 29.931 49.162 30.6016 49.2049 31.2804C49.218 31.4913 49.2898 31.8277 49.173 32.0278C49.0275 32.2778 48.6346 32.327 48.4696 32.5565C48.4358 32.6102 48.4149 32.6693 48.4082 32.7301C48.3302 33.1686 48.3713 33.6168 48.5283 34.0391C48.6314 34.3139 48.8735 34.7244 48.709 35.0161C48.5537 35.2921 48.063 35.3056 48.097 35.7026C48.1081 35.8264 48.1857 35.9485 48.1537 36.0701C48.1152 36.2165 47.9377 36.2963 47.7792 36.3579L47.0307 36.6519C46.8089 36.7373 46.5544 36.8611 46.5361 37.0709C46.5352 37.1516 46.5545 37.2315 46.5929 37.305C47.1032 38.4839 48.0852 39.4361 48.9368 40.4352C49.3629 40.935 49.725 41.4711 50.0904 42.0043C50.4043 42.4623 50.8141 42.8213 51.1462 43.2663C51.9292 44.3163 52.908 45.2255 53.9247 46.1081C54.2033 46.3507 54.5021 46.6012 54.8845 46.6883C55.2669 46.7753 55.7491 46.6317 55.8516 46.2987C55.7863 46.2569 55.8242 46.1647 55.8627 46.1002C56.2346 45.4749 55.725 44.7528 55.3687 44.1212C54.7279 42.9847 54.5687 41.6594 54.8636 40.4205C55.0029 40.5771 55.185 40.7011 55.3935 40.7812C55.6232 40.438 55.0059 40.0264 55.1645 39.6544C55.2676 39.4112 55.68 39.2218 55.5344 38.9956C55.4594 38.8792 55.2669 38.8543 55.1814 38.7434C55.0796 38.6111 55.1742 38.4381 55.2336 38.2877C55.293 38.1373 55.2636 37.914 55.0816 37.8947C54.8304 37.8687 54.7488 38.2736 54.4943 38.26C54.294 37.7737 53.8953 36.9199 54.399 36.4755C54.4377 36.4387 54.4864 36.4109 54.5406 36.3947C54.618 36.381 54.698 36.3841 54.7736 36.4037C55.3592 36.5061 55.9627 36.5049 56.5478 36.4003C56.694 36.3743 56.8519 36.3341 56.9393 36.2273C57.0268 36.1204 57.0124 35.9768 56.9739 35.8513C56.8075 35.3102 56.2274 34.8533 56.3129 34.298C56.3416 34.1132 56.4434 33.9447 56.5191 33.7705C56.7299 33.2854 56.6398 32.6645 56.6757 32.1483C56.7155 31.5829 56.7553 31.0089 56.6757 30.4441C56.6105 30.0093 56.4799 29.5846 56.3808 29.1538C56.2427 28.5077 56.1637 27.8531 56.1445 27.1963C56.0649 25.2778 56.5785 23.4447 55.8724 21.5838L54.7632 18.6589C54.7038 18.5017 54.6418 18.3411 54.5224 18.2122C54.4084 18.1011 54.2739 18.0073 54.1243 17.9346C52.6235 17.1136 50.7234 17.143 48.9935 17.2233C46.2256 17.3532 43.4855 17.7696 40.8317 18.4638C40.4961 18.5446 40.1688 18.6492 39.853 18.7765C39.4921 18.9291 39.0941 19.196 38.6784 19.2187C38.2628 19.2413 37.8843 19.0032 37.4419 19.0586C37.158 19.0943 36.9009 19.2175 36.651 19.3413L35.8595 19.7258C36.2217 19.2997 36.7032 18.9605 37.2585 18.7403C37.3766 18.6934 37.5065 18.651 37.635 18.6707C37.8034 18.6968 37.9267 18.8206 38.0801 18.8867C38.5009 19.0682 38.9727 18.785 39.4177 18.6538C39.9136 18.5079 40.5231 18.5294 40.8631 18.1845C40.8866 18.1607 40.9133 18.1336 40.9492 18.133C40.9851 18.1325 41.0099 18.1839 40.976 18.1941C40.4511 16.0464 39.7995 13.9234 39.0236 11.8336C38.9518 11.6413 38.8787 11.444 38.8931 11.2422C38.9075 11.0403 38.7541 11.0426 38.9681 10.9617Z" fill="#EB0029"/>
</g>
<defs>
<clipPath id="clip0_278_591">
<rect width="57" height="63" fill="white"/>
</clipPath>
</defs>
</svg>
