<svg width="81" height="63" viewBox="0 0 81 63" fill="none" xmlns="http://www.w3.org/2000/svg">
<g clip-path="url(#clip0_278_584)">
<path d="M31.0531 50.0294C30.5592 49.7674 30.1358 49.551 29.7237 49.3198C28.3307 48.5422 27.5101 47.2546 26.7847 45.9235C26.3197 45.0717 26.0642 44.1098 25.6352 43.2355C25.233 42.4187 25.7057 41.7371 25.8469 41.0022C26.0113 40.1251 26.863 39.6382 27.1283 38.806C27.2546 38.4109 27.4748 38.0452 27.6597 37.6697C27.7302 37.5296 27.7909 37.3033 27.9017 37.2718C28.6483 37.0616 28.6419 36.3646 28.8741 35.8301C29.1062 35.2956 29.2975 34.7533 29.5176 34.2188C29.6672 33.8609 29.7293 33.5407 29.5494 33.1463C29.3506 32.6872 29.2615 32.1888 29.289 31.6899C29.3095 31.1876 29.4301 30.6552 29.0526 30.1991C28.9228 30.0422 29.0491 29.8705 29.1069 29.6975C29.2728 29.1973 29.2939 28.6789 28.9602 28.2404C28.8 28.0302 28.7753 27.8572 28.8734 27.6435C29.1472 27.0452 29.0921 26.6698 28.4577 26.2151C27.5919 25.5951 27.146 24.573 26.7755 23.5748C26.4001 22.5632 25.94 21.6013 25.3071 20.7214C25.1476 20.5008 25.0036 20.3158 24.7002 20.3011C24.3319 20.2822 24.2211 20.0475 24.1759 19.7007C24.0503 18.7298 24.4518 18.044 25.367 17.5361C24.4349 17.0793 23.6029 16.7346 22.608 17.0169C22.0773 17.1676 21.6081 17.1276 21.2672 16.4824C21.0097 15.9963 20.3153 15.88 19.8369 15.5619C19.374 15.2544 18.976 14.9223 18.9196 14.3325C18.8631 13.7426 18.8201 13.0715 19.2082 12.6105C18.778 13.1106 18.5198 13.734 18.4715 14.3899C18.2351 14.3801 17.7524 13.992 17.4702 13.8701C16.9904 13.6599 16.5063 13.4638 16.0208 13.269C15.0823 12.8921 14.1353 12.5349 13.1898 12.1762C11.2986 11.4581 9.4061 10.7338 7.58696 9.84617C7.33928 9.72568 7.11417 9.62831 6.86085 9.81746C6.8171 9.85038 6.72678 9.8805 6.69361 9.85879C5.98797 9.38452 4.96126 9.71447 4.36499 8.88503C4.10249 8.52004 3.53869 8.40726 3.1654 8.15296C2.86903 7.95261 3.10754 7.3067 2.76813 6.9165C2.28123 6.35606 1.96793 5.63169 1.41894 5.1266C0.905231 4.65373 0.451504 4.21099 0.114207 3.5854C0.0330576 3.43479 -0.0396266 3.24705 0.0492843 3.10133C0.785975 3.61133 1.52902 4.11268 2.27841 4.6054C1.99192 4.31257 1.85009 3.89995 1.83244 3.49223C1.82673 3.08264 1.90102 2.67584 2.0512 2.2943C2.11047 2.81341 2.45412 3.21062 2.73637 3.62534C3.0678 4.12814 3.43997 4.60328 3.84917 5.04604C4.21258 5.43064 4.63385 5.73047 5.0784 6.0142C5.36983 6.19984 5.89694 6.49197 6.06065 6.80301C6.14886 6.96974 6.02608 7.40337 6.17003 7.49865C6.27517 7.5687 6.37043 7.48744 6.41701 7.40337C6.71267 6.86816 7.12264 7.03489 7.55802 7.18621C10.1329 8.0836 12.7233 8.92496 15.4344 9.34178C16.8725 9.56245 18.2055 10.1369 19.5525 10.6539C19.7995 10.7485 20.0027 10.8136 20.1876 10.5621C20.2208 10.5166 20.2878 10.4585 20.3287 10.4634C21.4846 10.5867 22.5416 9.87209 23.7003 10.0731C24.0701 10.1369 24.461 10.1782 24.7517 10.469C24.8053 10.5229 24.9204 10.5986 24.9528 10.5782C25.5498 10.2056 26.3323 10.56 26.894 10.0977C27.1664 9.8742 27.4896 9.877 27.7987 9.81746C28.3286 9.71868 28.8825 9.70537 29.392 9.54634C30.1308 9.31587 30.7758 9.47138 31.4073 9.83006C31.602 9.93148 31.8101 10.0053 32.0255 10.0493C32.5533 10.1803 32.9612 10.4528 33.1997 10.9776C33.6731 12.0207 34.8184 12.4564 35.9009 12.055C36.1394 11.966 36.2981 11.8273 36.2777 11.5821C36.1365 9.92043 37.1244 8.62863 37.7151 7.20723C38.3495 5.70385 39.0698 4.23756 39.8722 2.81551C40.5073 1.66871 41.4543 0.886207 42.5036 0.199673C43.1118 -0.198937 43.8506 0.0595666 44.3001 0.430155C45.7065 1.59936 47.158 2.76296 47.9102 4.51503C47.9598 4.60159 48.0004 4.69289 48.0316 4.78754C48.2757 6.017 48.9976 6.98375 49.7336 7.95961C50.7737 9.34038 50.7765 10.9635 50.694 12.5895C50.6855 12.7471 50.6439 12.9034 50.6234 13.0617C50.581 13.3944 50.4117 13.7923 50.5373 14.0424C50.6784 14.3283 51.1117 14.0228 51.4165 14.1083C52.1222 14.3044 52.789 14.5664 53.2823 15.1276C53.5433 15.4253 53.7663 15.433 54.026 15.143C54.4952 14.6169 55.0703 14.5006 55.7682 14.5882C56.3483 14.6582 56.8973 14.3241 57.5055 14.3079C57.7984 14.2995 58.0467 14.2841 58.2881 14.4355C59.0142 14.8901 59.312 14.8558 59.9562 14.2253C60.3591 13.8309 60.9145 13.5408 61.3936 13.5584C61.9532 13.5787 62.4986 13.971 63.1083 13.709C64.5902 14.4467 66.1793 14.2127 67.726 14.1531C68.8438 14.1111 69.9679 14.1286 71.0863 13.985C71.7842 13.896 72.4863 13.8519 73.1433 13.5934C73.5589 13.4295 73.8588 13.5436 74.0676 13.8904C74.1763 14.0685 74.2748 14.2526 74.3626 14.4417C74.4127 14.5538 74.4014 14.806 74.5546 14.8186C74.6251 14.8243 74.6957 14.7976 74.7662 14.7983C74.8155 14.802 74.8635 14.8158 74.9071 14.8388C74.9507 14.8618 74.989 14.8936 75.0196 14.9321C75.0799 15.0096 75.1289 15.0953 75.1649 15.1864C75.0238 15.2453 74.8636 15.2565 74.719 15.309C74.4367 15.412 74.4007 15.7399 74.1784 15.9262C73.8538 16.198 73.4855 16.2485 73.1461 15.9346C72.964 15.7658 72.77 15.8155 72.5816 15.8744C70.8584 16.4159 69.0534 16.6303 67.3259 17.1494C66.4891 17.5648 65.3897 17.5697 64.4857 17.7399C64.4601 17.7486 64.4329 17.7519 64.4059 17.7494C64.3789 17.747 64.3527 17.739 64.3291 17.7259C64.3086 17.704 64.2932 17.6779 64.2839 17.6495C64.2747 17.621 64.2718 17.5909 64.2755 17.5613C64.2612 17.1624 64.1281 16.7767 63.893 16.453C64.0899 17.2481 64.0532 18.1343 63.6107 18.8272C63.5237 18.9736 63.4077 19.101 63.2699 19.2019C63.1362 19.2851 62.992 19.3502 62.8409 19.3953C62.3984 19.5487 61.9235 19.8093 61.4487 19.7554C61.3265 19.7487 61.2059 19.7855 61.1085 19.8591C60.2815 20.4966 59.3007 20.6353 58.3092 20.8272C57.6671 20.9519 57.092 21.3316 56.4097 21.4724C55.688 21.6167 54.9571 21.7103 54.2222 21.7526C53.6068 21.7905 53.1496 22.0917 52.5992 22.1919C52.2464 22.2563 51.9041 22.3621 51.5407 22.3565C50.1555 22.3369 49.0103 22.7705 48.3124 24.0497C48.0897 24.456 47.791 24.8164 47.4325 25.1117C46.4255 25.9405 46.5208 26.9892 46.8327 28.0407C47.0733 28.8506 47.0909 29.6071 46.7007 30.3525C46.501 30.7343 46.3726 31.1196 46.4029 31.5519C46.4079 31.6303 46.4262 31.7312 46.3881 31.7872C45.8744 32.5382 46.3119 33.229 46.513 33.9365C46.8919 35.2675 47.0387 36.6294 47.031 38.0109C47.031 38.4249 46.9907 38.8445 47.3175 39.1962C47.4092 39.295 47.4064 39.4967 47.4155 39.653C47.4543 40.3136 47.2744 40.4502 46.6563 40.2414C46.5483 40.205 46.4446 40.1594 46.2329 40.0775C46.4086 40.4894 46.5151 40.825 46.688 41.1283C46.9632 41.6222 47.182 42.1091 47.1432 42.7024C47.1149 43.0919 47.4353 43.2958 47.7507 43.4457C48.2743 43.6958 48.8092 43.9221 49.337 44.1659C49.7865 44.376 50.0172 44.7354 49.9354 45.2167C49.8648 45.6258 50.0673 45.8297 50.3538 46.0573C50.6678 46.3046 50.8711 46.0805 51.111 45.9656C51.1646 45.9396 51.2147 45.8843 51.2683 45.8808C51.7757 45.8486 52.2005 45.6875 52.3656 45.0619C52.5498 45.4395 52.2732 45.6223 52.2951 45.899C52.6754 45.8675 53.0127 46.0041 53.3535 46.1792C54.4522 46.7397 55.6532 46.7929 56.8479 46.76C58.0587 46.7271 59.247 46.7782 60.4078 47.1551C61.1184 47.3863 61.5256 47.8262 61.6074 48.6185C61.7965 50.4308 61.1248 51.3549 59.3557 51.958C58.3701 52.3045 57.2999 52.3359 56.2953 52.0477C54.5079 51.5573 52.6669 51.4375 50.8428 51.1986C50.8033 51.1937 50.7631 51.193 50.7229 51.1888C49.6383 51.0802 49.5473 51.1699 49.742 52.2936C49.8648 52.9997 49.9693 53.7192 50.1951 54.3952C50.6954 55.8916 50.4907 57.3046 50.0172 58.7771C49.6418 59.9442 48.9136 60.607 47.8093 60.8949C46.8919 61.1338 45.9591 61.0819 45.01 60.8991C43.1358 60.5376 41.4359 59.7502 39.7226 58.9719C39.0332 58.6587 38.3269 58.3617 37.557 58.2713C37.2973 58.2372 37.0547 58.1238 36.8627 57.947C36.3412 57.4986 35.6863 57.369 35.028 57.2647C34.8283 57.2331 34.6131 57.2415 34.4903 57.4426C34.1699 57.968 33.6844 58.3155 33.2046 58.6776C32.18 59.4482 31.6839 60.6063 31.0679 61.6697C30.8957 61.966 30.7476 62.277 30.4667 62.4788C29.4435 63.213 28.692 63.2438 28.0174 62.1194C27.1382 60.6532 26.9773 59.2199 28.0569 57.781C28.3794 57.3515 28.668 56.9004 28.9997 56.4751C29.4188 55.9378 29.4231 55.2478 29.3003 54.5837C29.21 54.0751 29.0625 53.5693 29.0949 53.0516C29.2064 51.2498 29.3511 51.0319 31.0531 50.0294ZM32.1398 50.351C32.4044 50.6837 32.6394 50.8904 32.7615 51.1503C33.0571 51.7808 33.4262 52.0904 34.1671 51.7871C34.4416 51.6743 34.8022 51.7542 35.1197 51.7633C35.2982 51.7682 35.486 51.8375 35.6504 51.7395C36.2149 51.4032 36.7963 51.4466 37.3926 51.6225C37.6043 51.6848 37.8075 51.6491 38.0277 51.572C37.9723 51.4472 37.8919 51.335 37.7913 51.2421C37.6907 51.1492 37.5721 51.0777 37.4427 51.0319C36.6677 50.7157 35.9218 50.3332 35.2136 49.8886C35.1218 49.8312 35.0343 49.7828 34.9384 49.8375C34.1085 50.3124 33.1778 50.3012 32.1398 50.351Z" fill="#EB0029"/>
<path d="M75.0691 9.4742C75.0331 9.12393 74.9788 8.76805 74.9322 8.41568C74.9205 8.37008 74.9257 8.32182 74.947 8.27977C74.9648 8.25766 74.9893 8.24183 75.0169 8.23464C75.0445 8.22745 75.0737 8.22927 75.1001 8.23984C75.1525 8.26265 75.198 8.29863 75.2321 8.34422C75.5934 8.76455 75.6555 9.36071 75.6971 9.91344L75.7564 10.6602C75.7409 10.4641 75.8559 10.1474 75.9469 9.97578C76.0379 9.80415 76.1861 9.66335 76.2701 9.4742C76.3816 9.22341 76.5319 8.98382 76.661 8.74423C76.7653 8.55894 76.8432 8.3602 76.8925 8.15368C76.9291 7.97364 77.0089 7.8139 77.0668 7.63807C77.2079 7.21774 77.2622 6.7757 77.3427 6.34206C77.3511 6.29792 77.3751 6.24188 77.4196 6.24959C77.4333 6.25299 77.4459 6.25974 77.4563 6.26921C77.7061 6.46676 77.783 6.72456 77.7752 7.0321C77.7682 7.2906 77.7484 7.5491 77.716 7.8027C77.914 7.28438 77.9738 6.72404 77.8895 6.17603C77.8834 6.15611 77.8816 6.13513 77.8843 6.11448C77.887 6.09382 77.894 6.07396 77.9051 6.05624C77.9207 6.04211 77.9405 6.03349 77.9616 6.03171C77.9827 6.02994 78.0037 6.03511 78.0215 6.04643C78.056 6.07037 78.0842 6.10237 78.1033 6.13961C78.4463 6.70915 78.3905 7.49236 78.1866 8.10113C78.2518 7.98047 78.3036 7.85316 78.3411 7.72144C78.4286 7.40129 78.5091 7.07973 78.579 6.75468C78.6036 6.63839 78.6008 6.3897 78.7158 6.35957C78.8309 6.32945 78.9981 6.5144 79.0468 6.60197C79.1167 6.75276 79.1438 6.91967 79.1251 7.08464C79.1032 7.4174 79.0016 7.76627 78.9304 8.09133C78.8379 8.51165 78.7292 8.92708 78.6954 9.35231C78.67 9.67526 78.6763 10.0024 78.6093 10.3191C78.5564 10.5684 78.459 10.8094 78.3814 11.0497C78.2544 11.4496 78.1816 11.8645 78.1647 12.2834C78.1556 12.5104 78.1365 12.9839 78.4202 13.0659C79.0059 13.2424 79.4554 13.7426 80.1102 13.7489C80.2311 13.7593 80.3499 13.7867 80.463 13.8302C80.6698 13.8946 80.8864 14.0046 80.957 14.2218C80.9881 14.3359 81.0029 14.4538 81.0007 14.5721C80.6677 14.4186 80.1476 14.4726 79.7877 14.4824C79.3479 14.4995 78.9102 14.5515 78.4788 14.6379C77.6278 14.7983 76.7852 15.0337 75.9229 15.1059C75.7373 15.1213 75.5531 15.1507 75.3704 15.1836C75.2427 15.2068 75.0543 15.2656 74.9244 15.2425C74.8654 15.2279 74.8089 15.2043 74.7572 15.1724C74.6465 15.1224 74.547 15.0509 74.4643 14.9623C74.3944 14.867 74.3475 14.7569 74.3275 14.6407C74.3139 14.6037 74.3087 14.5642 74.3122 14.525C74.3157 14.4857 74.3279 14.4478 74.3479 14.4137C74.37 14.3905 74.3935 14.3687 74.4185 14.3486C74.4561 14.3078 74.4819 14.2577 74.4932 14.2036C74.5045 14.1495 74.5009 14.0933 74.4827 14.041C74.4121 13.8183 74.1786 13.6424 74.0127 13.4911C73.7735 13.2719 73.7876 13.1408 74.0791 13.0239C74.6436 12.7899 74.8849 12.3422 74.9371 11.7629C74.9858 11.2256 75.1093 10.7002 75.1072 10.1579C75.1059 9.92954 75.0932 9.70134 75.0691 9.4742Z" fill="#EB0029"/>
</g>
<defs>
<clipPath id="clip0_278_584">
<rect width="81" height="63" fill="white"/>
</clipPath>
</defs>
</svg>
