<svg width="22" height="35" viewBox="0 0 22 35" fill="none" xmlns="http://www.w3.org/2000/svg">
<path d="M21.144 11.4611C20.8844 10.7167 19.745 10.5625 19.0385 10.44C18.3256 10.3163 16.9532 9.26633 16.3589 10.0633C16.0158 9.71399 15.9354 10.2634 15.5932 10.3294C15.2681 10.3922 15.0912 9.95362 14.7001 10.1929C14.2862 9.9549 13.9436 8.31319 13.3411 8.69827C12.7587 9.07052 13.2635 10.7942 13.2962 11.3332C13.3225 11.7639 13.3073 12.4833 13.4866 12.9412C13.1595 12.5549 12.8412 12.175 12.5744 11.7274C12.1494 11.0143 11.5405 10.2958 11.2599 9.51528C11.097 9.06213 11.0435 8.60666 10.8877 8.16249C10.7676 7.82018 10.508 7.47753 10.5563 7.08324C10.0431 6.50877 10.0701 5.854 9.77493 5.14794C9.67889 4.91822 9.53973 4.41205 9.37062 4.23641C9.20862 4.06811 8.431 4.23012 8.34475 4.10937C8.1817 3.88105 8.03427 3.28129 7.93066 3.0398C7.99965 2.60845 8.17214 2.26346 7.96841 2.09726C7.46317 1.68514 6.7915 1.07221 6.14069 1.04331C5.31121 1.00659 5.14583 1.92116 4.90609 2.56264C4.66599 3.20448 4.24327 3.92849 4.12986 4.6216C4.02893 5.23838 4.19105 6.57765 4.85946 6.67928C5.63032 6.79641 5.99862 5.88243 6.06295 5.25085C6.69337 5.14468 6.97856 6.59082 7.09674 7.01413C7.31282 7.78871 7.5331 8.21132 8.00699 8.88043C8.23869 9.20747 8.27669 9.53451 8.41235 9.88532C8.54918 10.2385 8.84452 10.4976 8.96386 10.8425C9.0817 11.1827 9.04813 11.513 9.20209 11.8592C9.35827 12.2105 9.43647 12.4281 9.50115 12.8041C9.5578 13.1328 9.62447 13.5366 9.74172 13.8556C9.87283 14.2126 9.91573 14.5091 10.0157 14.8735C10.1288 15.286 10.2313 15.4462 10.1604 15.9145C10.1158 16.2082 10.0998 16.4266 10.1383 16.6754C9.97598 17.1442 9.74148 17.5554 9.47097 17.6531C8.60583 17.9656 8.01201 16.6002 7.63346 16.1011C7.01866 15.2906 6.44267 14.5107 5.84675 13.68C5.21785 12.8041 4.48674 12.1761 3.65983 11.4767C3.22521 11.109 2.89712 11.2012 2.83418 10.7244C2.75563 10.13 2.53803 10.09 2.53127 9.88322C2.52486 9.68602 2.58733 9.01971 2.39678 9.08696C2.26601 9.13311 2.22498 10.048 1.68023 9.99651C1.29853 9.96038 1.24818 8.97029 0.940145 9.02985C0.876276 9.0422 0.990844 9.41539 0.969282 9.47658C0.72581 9.27297 0.755644 8.45678 0.58455 8.46703C0.464737 8.47414 0.544226 8.88439 0.522547 9.04931C0.492827 8.99896 0.376864 8.60258 0.294464 8.65806C0.184791 8.73195 0.328261 9.17565 0.386535 9.31155C0.325464 9.26551 0.122897 8.86027 0.0358346 8.91668C-0.108803 9.0105 0.21975 9.47845 0.393059 9.75385C0.899232 10.5586 1.83291 10.7376 2.46193 11.458C3.19153 12.2936 3.49141 13.3989 4.06017 14.3338C4.31961 14.7601 4.58511 15.1905 4.85795 15.6115C5.06028 15.9241 5.41995 16.184 5.62531 16.5157C5.8633 16.9002 5.91424 17.3834 6.16575 17.7757C6.28008 17.9539 6.67216 18.2777 6.66656 18.4827C6.66248 18.6403 6.26726 18.8759 6.19955 19.0473C6.1577 19.0186 6.01318 18.9244 5.95852 18.926C5.48685 18.94 5.06995 18.6931 4.55142 18.795C4.15935 18.8721 3.71483 19.007 3.39223 19.2914C2.77918 19.8321 2.43734 21.1385 3.00458 21.8151C3.24502 22.102 3.7653 22.3217 4.09595 22.515C4.62123 22.8222 4.76331 22.7279 5.38428 22.7547C5.87915 22.776 6.21586 22.9345 6.7225 22.7526C6.88521 22.6942 7.03555 22.6153 7.18054 22.5261L7.23485 22.6268C7.40711 23.1017 7.77844 23.4769 7.87296 23.9668C7.98905 24.5681 7.96003 24.9258 8.23998 25.4978C8.70547 26.4494 8.52028 27.4267 8.57319 28.4984C8.62599 29.5651 8.63857 30.711 8.63857 31.8148C8.63857 32.1903 8.78251 33.1691 8.56177 33.4594C8.26492 33.8498 7.98613 33.6097 7.58952 33.6727C7.31819 33.7158 6.91668 33.7054 6.89267 33.8838C6.87565 34.0097 7.58951 34.0745 7.83368 34.1501C7.65769 34.2959 7.28392 34.3261 7.34733 34.4233C7.37297 34.4625 8.13544 34.3629 8.32879 34.3677C8.54942 34.3731 8.66538 34.3898 8.86946 34.3787C9.51409 34.3439 9.15699 34.028 9.455 33.4665C9.91829 32.5938 9.81689 31.7357 9.92306 30.7704C10.047 29.6436 10.3354 28.8383 10.2305 27.7171C10.1446 26.7993 9.78321 25.6474 9.97854 24.7324C10.1663 23.8525 10.7915 23.5376 11.4508 23.2203C12.093 23.3346 13.2677 22.3617 13.6951 22.0046C14.4072 21.4096 14.99 20.589 15.6109 20.0111C16.0101 19.6397 16.8364 19.2695 17.3053 18.8389C17.5363 18.791 17.6998 18.7298 17.7807 18.404C17.8794 18.0064 17.6508 17.5896 17.7666 17.2066C17.8725 16.8566 18.2202 16.7131 18.4495 16.4712C18.6044 16.3825 18.7601 16.2946 18.8939 16.1684C19.4343 15.6578 20.0523 14.6885 20.3947 14.0129C20.7159 13.3784 21.4081 12.2188 21.144 11.4611ZM14.1081 13.3588C14.5223 13.2907 14.9202 12.9763 15.4018 12.9284C15.8581 12.883 16.4459 12.7968 16.8597 12.9379C16.8286 13.3832 15.2426 14.4149 14.8371 14.2108C14.8378 14.267 14.821 14.3173 14.802 14.3642C14.5039 14.068 14.1791 13.7868 13.9392 13.4861C13.8975 13.4339 13.8556 13.3825 13.8135 13.3314C13.8966 13.3664 13.9938 13.3776 14.1081 13.3588Z" fill="#EB0029"/>
<path fill-rule="evenodd" clip-rule="evenodd" d="M19.2506 14.1537C19.2618 14.1503 19.2891 14.0712 19.3102 13.9876C19.3318 13.9044 19.3453 13.8172 19.3422 13.8101C19.3277 13.7785 19.1876 13.945 19.1628 13.9115C19.1286 13.8702 19.1891 13.7151 19.0992 13.618C19.0259 13.5427 18.8302 13.707 18.6931 13.7395C18.6297 13.7539 18.5907 13.6331 18.4955 13.6565C18.4938 13.6556 18.4114 13.6694 18.3919 13.6885C18.379 13.7001 18.3273 13.853 18.3202 13.8566C18.274 13.8796 18.2428 13.7526 18.194 13.7831C18.1329 13.8222 18.0776 13.9796 18.0299 14.0201C18.0171 14.0299 17.9684 14.1014 17.9751 14.1024C17.9576 14.1009 17.9604 13.9715 17.9356 13.9852C17.8686 14.0215 17.7737 14.2183 17.7061 14.3349C17.6374 14.4521 17.5809 14.494 17.5349 14.6198C17.5224 14.6529 17.5525 14.8276 17.5509 14.8318C17.5382 14.8543 17.463 14.691 17.4493 14.7179C17.4329 14.7529 17.4433 14.8729 17.4475 14.9511C17.4497 15.0293 17.4454 15.0653 17.3434 14.9303C17.2951 14.8657 17.058 14.4542 16.9895 14.3836C16.9803 14.3739 16.9614 14.3969 16.953 14.3838C16.8871 14.2826 16.7278 13.9676 16.6118 13.6577C16.4925 13.3475 16.4192 13.0432 16.4094 12.9615C16.3833 12.7683 16.4511 12.6359 16.4811 12.4251C16.4891 12.3689 16.5009 12.3712 16.5262 12.3201C16.5237 12.3236 16.5746 12.2265 16.5769 12.2166C16.5914 12.1179 16.5009 11.8622 16.5273 11.7886C16.577 11.6571 16.7228 11.7246 16.7796 11.6003C16.8305 11.4901 16.8496 11.3077 16.9078 11.1967C16.9405 11.1349 17.0268 11.1787 17.067 11.1155C17.0831 11.0915 17.0187 10.9317 17.032 10.9022C17.0481 10.8693 17.1378 10.95 17.1575 10.9226C17.3116 10.7154 17.4854 10.5376 17.628 10.298C17.4783 10.1325 17.3352 10.1164 17.2111 10.158C17.086 10.1995 16.9793 10.2985 16.8751 10.3586C16.543 10.5537 16.2764 10.7267 15.9771 11.0099C15.8932 11.0918 15.8354 11.1974 15.7064 11.3227C15.5812 11.4458 15.5193 11.6225 15.4009 11.7566C15.3833 11.7769 15.4178 11.8882 15.3665 11.8668C15.2565 11.8208 15.2983 11.8365 15.2405 11.9783C15.226 12.0163 15.1953 12.026 15.1513 12.011C15.1291 12.0037 15.1038 11.9902 15.0756 11.9711C15.0615 11.9615 15.0467 11.9506 15.0311 11.9382L15.0193 11.9288L15.0166 11.9176L15.0099 11.8938C14.9686 11.7624 14.8517 11.5555 14.6516 11.3098C14.5938 11.239 14.531 11.1771 14.464 11.1228L14.4129 11.0835C14.3973 11.0707 14.4036 11.0553 14.3989 11.0418C14.3951 11.014 14.3938 10.9873 14.3947 10.9616C14.3985 10.859 14.4379 10.7724 14.4828 10.6929C14.5719 10.5338 14.6861 10.4039 14.5556 10.2241C14.3305 9.91456 14.1373 9.98029 14.017 10.1343C13.9868 10.1727 13.9611 10.2165 13.9393 10.2613C13.9284 10.2837 13.9185 10.3063 13.9095 10.3285L13.8968 10.3616C13.896 10.3643 13.8943 10.3671 13.8944 10.3697L13.9085 10.3755L13.9361 10.3869C14.0819 10.4479 14.1966 10.5041 14.2411 10.5161C14.5732 10.6086 14.7151 10.5118 14.8313 10.5614C14.9028 10.5929 15.0028 10.7177 15.0824 10.7748C15.4663 11.0456 16.0195 11.2494 16.4026 11.5495C16.6268 11.7213 16.9032 11.8988 17.1556 12.0627C17.4095 12.2261 17.6405 12.376 17.8147 12.4805C17.8666 12.3193 17.8113 11.9809 17.8606 11.7419C17.9227 11.467 17.8691 11.2572 17.7606 11.0333C17.6539 10.8095 17.4948 10.575 17.385 10.2499C17.3937 10.1357 17.5559 10.1528 17.6583 10.1957C17.8009 10.2562 17.8003 10.4098 17.8673 10.4577C18.0297 10.5752 18.2087 10.6417 18.3766 10.8167C18.4343 10.8774 18.4667 11.0172 18.5342 11.0884C18.6297 11.1908 18.6826 11.2017 18.7492 11.286C18.8548 11.4215 18.9209 11.6367 18.9978 11.7486C19.1028 11.9017 19.2547 11.9472 19.3297 12.1208C19.3966 12.2697 19.4518 12.5373 19.4617 12.7338C19.482 12.9556 19.4029 13.294 19.4131 13.3532C19.4339 13.4962 19.5178 13.1894 19.5413 13.2478C19.5288 13.3443 19.496 13.3855 19.4596 13.4412C19.422 13.4964 19.3806 13.5677 19.3309 13.7032C19.3054 13.7691 19.2931 13.8559 19.2646 13.9272C19.2372 13.9983 19.1884 14.0484 19.1764 14.0531C19.1702 14.0565 19.1559 14.0502 19.1618 14.0219C19.1699 13.988 19.2334 13.8994 19.2984 13.8106C19.3622 13.722 19.4277 13.6336 19.411 13.6115C19.3969 13.5936 19.3045 13.6392 19.1843 13.6747C19.1313 13.6905 19.0632 13.6997 18.9663 13.7258C18.87 13.7517 18.7438 13.7943 18.5954 13.8715C18.4403 13.9517 18.548 13.935 18.3675 13.9834C18.3491 13.9883 18.3123 14.0033 18.2647 14.0247C18.0875 14.1032 17.7828 14.2582 17.6606 14.3209C17.5202 14.3914 17.4024 14.4324 17.2744 14.5139C17.2417 14.5347 17.1968 14.6123 17.1748 14.6287C17.1093 14.673 17.0137 14.7104 16.9497 14.7589C16.8081 14.8641 16.6204 15.0107 16.429 15.1865C16.238 15.3629 16.0432 15.5679 15.8775 15.7754C15.8627 15.7932 15.848 15.8285 15.8345 15.8621L15.8153 15.9092C15.8096 15.9226 15.798 15.9416 15.7917 15.9497C15.7241 16.0363 15.6281 16.1459 15.5406 16.2582C15.4521 16.3696 15.3692 16.486 15.3064 16.598C15.1873 16.8116 15.031 16.9955 14.7621 17.4474C14.6867 17.5749 14.5922 17.8016 14.5439 17.8857L14.3302 18.2498C14.2852 18.2535 14.2346 18.2528 14.1919 18.2582L14.1258 18.2645L14.1092 18.2659C14.1028 18.2637 14.095 18.2565 14.0879 18.2519L14.0439 18.2206C13.9255 18.1366 13.8064 18.0489 13.6825 17.957C13.4355 17.7722 13.1748 17.5759 12.8839 17.3481C12.7491 17.2414 12.6035 17.1626 12.4567 17.0367C12.2479 16.8547 12.0376 16.6456 11.8474 16.4285C11.7523 16.32 11.6619 16.2099 11.5787 16.1011C11.4988 15.9967 11.4087 15.871 11.37 15.808C11.1767 15.5041 11.0818 15.2529 11.1409 15.1589C11.1634 15.1224 11.2628 15.1341 11.4177 15.2231C11.534 15.293 11.8714 15.6495 11.694 15.2793C11.6013 15.0827 11.4213 14.7861 11.2307 14.4552C11.0393 14.1248 10.8386 13.7591 10.6776 13.4423C10.5984 13.2847 10.5356 13.2286 10.4274 13.0063C10.4437 13.0404 10.4464 12.9378 10.4154 12.9031C10.3355 12.812 10.2016 12.5258 10.077 12.1932C9.95082 11.861 9.83742 11.4824 9.75665 11.2198C9.75024 11.1992 9.7274 11.218 9.70584 11.1282C9.69383 11.0791 9.69814 10.9847 9.71026 11.0235C9.62938 10.7662 9.5584 10.6685 9.50701 10.4451C9.45934 10.2392 9.4218 9.8902 9.39127 9.63904L9.35502 9.33764C9.34383 9.22552 9.33742 9.11864 9.33381 9.0155C9.32682 8.80921 9.32961 8.61573 9.33836 8.42867C9.35654 8.05502 9.39815 7.70665 9.47425 7.37122C9.5492 7.04267 9.63054 7.00957 9.68684 6.42682C9.69919 6.29617 9.67763 6.17694 9.70677 6.04594C9.7105 6.03871 9.89336 5.44408 9.91574 5.40399C10.0101 5.25422 10.1295 5.33196 10.2182 5.33068C10.3047 5.32963 10.3699 5.24408 10.322 4.76599C10.3091 4.64758 10.262 4.59886 10.2449 4.47823C10.2291 4.36145 10.2308 4.11775 10.2065 4.00784C10.1759 3.85773 10.1094 3.77299 10.1009 3.73791C10.0459 3.49887 9.98835 3.19538 9.8894 3.01554C9.8718 2.98186 9.82577 2.99363 9.81085 2.96927C9.75129 2.87312 9.69185 2.71438 9.55864 2.59014C9.48672 2.52382 9.40363 2.48256 9.30701 2.42965C9.24885 2.39375 9.10223 2.3068 9.12018 2.31496C8.99115 2.2751 8.90911 2.28524 8.84023 2.28886C8.77053 2.2941 8.71295 2.29328 8.61657 2.26683C8.56692 2.23629 8.54861 2.19667 8.5591 2.14422C8.18393 2.0934 8.74943 2.18501 8.41051 2.15471C8.31925 2.15273 8.28766 2.12778 8.1844 2.14597C8.12007 2.12091 8.26482 2.05552 8.32927 1.99002C8.37298 1.9441 8.3513 1.87138 8.41155 1.82767C8.48008 1.7779 8.60398 1.74271 8.70946 1.73152C8.81423 1.72068 8.89967 1.72173 8.89186 1.6983C8.8682 1.637 8.77962 1.58571 8.65328 1.56998C8.52741 1.55366 8.36657 1.57709 8.21214 1.63245C7.89804 1.74177 7.63079 1.96042 7.52462 2.03932C7.08814 2.36869 6.73441 2.68139 6.29992 3.11682C6.08372 3.33524 5.88267 3.59339 5.58326 3.90586C5.48104 4.01204 5.43419 4.05679 5.38081 4.11623C5.27452 4.23546 4.86181 4.63756 4.59853 4.86961C4.48641 4.96996 4.33641 5.09361 4.20273 5.1935C4.21823 5.18196 4.18944 5.25946 4.13081 5.2752C3.91625 5.33033 3.95657 5.38825 3.76718 5.52298C3.65937 5.59583 3.55786 5.64245 3.42791 5.68755C3.36264 5.70981 3.28991 5.73184 3.19924 5.75235C3.10856 5.77228 2.99913 5.79244 2.85216 5.79338C2.80892 5.79326 2.73129 5.7999 2.65111 5.79559C2.57127 5.79198 2.4919 5.77648 2.45996 5.76459C2.35484 5.72659 2.25263 5.6689 2.16417 5.60002C2.11755 5.56342 2.08375 5.5344 2.03363 5.48231L1.99202 5.43767L1.98503 5.42998L1.96289 5.40305L1.94097 5.37543C1.82279 5.22695 1.7334 5.05212 1.67035 4.87252C1.56335 4.56879 1.54867 4.23162 1.56324 3.9484C1.58596 3.52673 1.65986 3.18629 1.763 2.83547C1.78911 2.74783 1.8186 2.66076 1.85007 2.57172C1.86417 2.53244 1.88899 2.46799 1.91044 2.41578L1.98118 2.24853C2.08153 2.02359 2.20251 1.78711 2.35437 1.54143C2.3785 1.49993 2.54854 1.30355 2.6694 1.13222C2.83152 0.899588 3.07907 0.61381 3.34865 0.401923C3.48362 0.296679 3.61975 0.198311 3.75203 0.114512C3.81811 0.0725547 3.88303 0.0342098 3.94644 0.000876652C4.00728 -0.00320257 4.0631 0.00810279 4.11473 0.0112496L4.25121 0.105771C4.64002 0.389452 4.67883 0.434091 4.86251 0.621036C5.07801 0.848423 5.03594 1.09726 4.79737 1.01287C4.74958 0.995741 4.5589 0.894577 4.53291 0.896908C4.47522 0.900171 4.55715 1.03094 4.52324 1.05413C4.50552 1.06217 4.3307 1.00588 4.36019 1.05378C4.43862 1.18199 4.6173 1.31882 4.81112 1.46532C5.00529 1.61031 5.21729 1.77033 5.36822 1.89912C5.69397 2.17137 5.96565 2.54876 6.23069 2.77731C6.26903 2.80971 6.3942 2.97253 6.52614 3.16939C6.65889 3.36566 6.79712 3.59596 6.88861 3.74491C6.95026 3.84444 7.03417 3.95155 7.10853 4.07276C7.15189 4.14362 7.18686 4.27113 7.22882 4.34001C7.2463 4.36891 7.30772 4.38616 7.31903 4.40749C7.35422 4.47276 7.3907 4.56658 7.42811 4.66471C7.46494 4.7625 7.50224 4.85772 7.54408 4.93686C7.61995 5.07741 7.69244 5.13266 7.75748 5.24711C7.84559 5.39804 7.85725 5.48813 7.96226 5.66669C8.11156 5.91995 8.37379 6.20783 8.58824 6.50363C8.78766 6.77938 8.98311 7.10619 9.16912 7.4112C9.25082 7.54465 9.34057 7.69045 9.42856 7.84161C9.47309 7.91795 9.5154 7.99266 9.55922 8.0732C9.60374 8.15536 9.64383 8.2394 9.6795 8.32308C9.82332 8.65839 9.888 8.98578 9.88847 9.1951C9.888 9.33449 9.82017 9.22331 9.79371 9.31188C9.76795 9.40407 9.76843 9.64906 9.69092 9.62027C9.64395 9.60186 9.52635 9.43531 9.47472 9.45384C9.46784 9.45629 9.4626 9.57412 9.43055 9.55267C9.40817 9.53414 9.2485 9.28927 9.18358 9.22692C9.12833 9.17016 9.09815 9.15093 9.03824 9.0852C8.92635 8.96701 8.8809 8.92354 8.83813 9.21363C8.82764 9.28414 8.78603 9.4648 8.78137 9.54487C8.77869 9.61678 8.79104 9.74941 8.7992 9.89743C8.80771 10.0449 8.81295 10.2077 8.80713 10.3224C8.7964 10.534 8.76365 10.6795 8.76249 10.8007C8.76051 11.0487 8.76039 11.3883 8.79594 11.7693C8.82985 12.1483 8.91109 12.5704 9.03871 12.9243C9.13743 13.2017 9.27239 13.4089 9.39267 13.6145C9.65421 14.0567 9.98124 14.424 10.3293 14.7477C10.5037 14.9099 10.6848 15.06 10.8697 15.2014C10.9621 15.2717 11.0556 15.34 11.1498 15.406C11.215 15.4515 11.2493 15.4727 11.2952 15.5018C11.6493 15.721 12.0443 15.8883 12.5227 16.0212C12.6024 16.0432 12.6844 16.064 12.769 16.084C12.94 16.1235 13.0281 16.1727 13.3108 16.2284C13.3152 16.2294 13.3214 16.23 13.3242 16.2314L13.3182 16.2389L13.3062 16.2538L13.283 16.2833L13.2384 16.3414C13.2091 16.3798 13.1801 16.4174 13.1487 16.4546C13.0863 16.5286 13.0142 16.6005 12.919 16.6673C12.7657 16.7741 12.5484 16.8534 12.3935 16.9449C12.3591 16.9652 12.3711 16.989 12.3115 17.0094C12.2894 17.0171 12.1907 17.0312 12.2165 17.0164C12.0685 17.1009 12.0684 17.1525 11.9405 17.2114C11.7761 17.2875 11.4498 17.4154 11.1506 17.5327L10.7599 17.6875C10.6509 17.7306 10.5749 17.7602 10.554 17.763C10.5627 17.7619 10.495 17.728 10.4965 17.7278C10.5073 17.7292 10.4386 17.7028 10.4403 17.7227C10.4396 17.6759 10.5853 17.5871 10.5645 17.5783C10.5159 17.5546 10.427 17.566 10.3185 17.6041L10.2978 17.6117L10.2873 17.6157L10.2821 17.6177L10.2883 17.6175L10.3393 17.6168C10.3735 17.6168 10.409 17.6177 10.445 17.6194C10.5171 17.6229 10.5927 17.6299 10.6699 17.64C10.976 17.6784 11.3283 17.7777 11.5499 17.8674C11.7203 17.9369 11.9816 18.0088 12.2508 18.1479C12.3844 18.2181 12.5197 18.3077 12.6295 18.4291C12.74 18.5493 12.8163 18.7048 12.8459 18.8662C12.8904 19.0989 12.867 19.3453 12.8246 19.5641C12.8027 19.6738 12.7747 19.7778 12.7426 19.8717C12.7264 19.9186 12.7095 19.9632 12.6912 20.0046L12.6634 20.0644C12.6607 20.078 12.6492 20.0735 12.6403 20.0742L12.6128 20.073C12.5301 20.0671 12.4503 20.0407 12.3742 19.997C12.2593 19.9308 12.1205 19.771 12.0006 19.6168C11.8799 19.4619 11.777 19.3127 11.7126 19.2514C11.564 19.1097 11.4464 19.0347 11.3226 18.9532C11.2002 18.8727 11.0716 18.7844 10.9327 18.6422C10.8657 18.5735 10.7882 18.4385 10.7247 18.3608C10.6555 18.2766 10.5309 18.1383 10.4005 17.9792C10.27 17.8208 10.1338 17.6421 10.0459 17.5012C9.96586 17.3731 9.90245 17.2348 9.84558 17.1058L9.76178 16.9179C9.74406 16.8721 9.66784 16.7494 9.607 16.6558C9.50327 16.4977 9.38521 16.3261 9.24978 16.1406C9.10654 15.9456 8.97402 15.7777 8.82904 15.5861C8.54163 15.2093 8.23335 14.8021 7.93336 14.3956C7.35807 13.6157 6.76402 12.7912 6.14327 12.0613C5.84293 11.7081 5.52894 11.3993 5.18885 11.04C4.81508 10.645 4.42942 10.2401 4.03536 9.8705C3.64189 9.50093 3.23782 9.16783 2.84738 8.91538C2.6813 8.80827 2.48165 8.73065 2.29249 8.61457C1.93841 8.40035 1.64459 8.17518 1.11988 7.94558L0.530143 9.45955L0.788886 9.56142C1.16721 9.70757 1.66592 9.9747 1.89564 10.1919C2.03363 10.3174 2.15787 10.4748 2.22011 10.6585C2.28794 10.8423 2.2602 11.0424 2.20076 11.2153C2.1743 11.2939 2.14156 11.3588 2.10916 11.4205L2.05997 11.5119L1.99645 11.6342C1.85368 11.9215 1.71265 12.2283 1.57361 12.6092C1.51219 12.7803 1.40694 13.0165 1.40182 13.2729C1.39669 13.4645 1.42816 13.6692 1.49762 13.8535L1.52979 13.9338L1.53841 13.9539L1.54343 13.9641L1.55333 13.9832C1.57675 14.0335 1.60054 14.0749 1.62629 14.1177C1.67757 14.2019 1.73398 14.273 1.79097 14.3387C2.02302 14.5938 2.25763 14.7335 2.47453 14.8663C2.76486 15.0377 3.04901 15.1841 3.32674 15.2984C3.96159 15.5554 4.58454 15.7241 5.06519 15.9252C5.12638 15.9504 5.27184 16.0024 5.3216 16.0332C5.32965 16.0382 5.3899 16.1243 5.38209 16.1212C5.44981 16.1503 5.64281 16.1872 5.80563 16.2644C5.9019 16.3095 6.00516 16.366 6.10155 16.4292C6.1491 16.4609 6.1963 16.494 6.23779 16.528C6.27276 16.5562 6.31204 16.5909 6.36297 16.6417C6.55656 16.8304 6.73034 17.0198 6.84246 17.1441C7.00003 17.314 7.38954 17.7179 7.61704 18.0662C7.99618 18.6361 8.17624 19.1181 7.95958 19.1541C7.97892 19.1504 7.83755 19.1203 7.84151 19.1236C7.80305 19.0946 7.71622 18.9454 7.67368 18.916C7.55398 18.8323 7.48371 18.8428 7.409 18.7771C7.36366 18.7364 7.23173 18.5343 7.12719 18.439C7.09991 18.4135 7.05178 18.4252 7.02952 18.4032C6.99735 18.3718 6.95318 18.2918 6.92136 18.2654C6.83232 18.1932 6.77952 18.2075 6.66903 18.1333C6.59968 18.0864 6.47718 17.9541 6.4005 17.9063C6.11169 17.7225 5.64503 17.451 6.04153 17.885C6.09188 17.9415 6.19304 17.9975 6.28861 18.1183C6.44316 18.314 6.51308 18.4738 6.62357 18.6108C6.73208 18.7456 6.85282 18.8385 6.97112 18.9816C7.14117 19.1885 7.23546 19.3717 7.40748 19.5922C7.56541 19.7999 7.53149 19.7292 7.67368 20.0046C7.78312 20.2254 7.89781 20.3521 8.02625 20.6266C8.16471 20.9279 8.25386 21.2426 8.32438 21.5302C8.39908 21.8336 8.4499 22.1145 8.43067 22.3902L9.62157 21.2395L9.61505 21.2411C9.56983 21.2525 9.52659 21.2573 9.48183 21.2578L9.44779 21.2569C9.43509 21.2556 9.43451 21.259 9.38218 21.2432C9.36528 21.2405 9.33591 21.2259 9.30782 21.2128C9.28008 21.2011 9.25223 21.1862 9.22449 21.1691C9.16889 21.1383 9.11295 21.0998 9.05619 21.0588C8.83008 20.8948 8.58952 20.6609 8.32904 20.3845C8.07018 20.1104 7.78941 19.7926 7.52135 19.5218C7.2083 19.2025 6.93313 19.0126 6.67474 18.8274C6.49444 18.6972 6.34024 18.5882 6.20097 18.4933C6.06087 18.3978 5.9371 18.3189 5.82731 18.2622C5.69607 18.1947 5.55575 18.1371 5.44235 18.0954C5.32767 18.0533 5.23559 18.0237 5.16892 18.0047C5.07638 17.9784 4.91706 17.8784 4.75226 17.7778C4.61461 17.6955 4.4251 17.5618 4.19084 17.4368C3.95856 17.3115 3.66579 17.1977 3.36311 17.1495C3.2053 17.1244 3.09679 17.1382 2.9299 17.1262L2.69027 17.109C2.66568 17.2815 2.64447 17.4594 2.63852 17.621C2.61929 18.0688 2.69551 18.5255 2.73525 18.8042C2.75134 18.9267 2.75962 19.1366 2.80332 19.3767C2.84633 19.6172 2.92232 19.8891 3.05938 20.1562C3.20856 20.4483 3.4166 21.0339 3.82593 21.7632C3.94166 21.9681 4.01998 22.0581 4.10331 22.1991C4.24073 22.4303 4.37487 22.7234 4.54434 22.9727C4.67965 23.1719 4.82825 23.304 4.9547 23.4871C5.13349 23.7452 5.25645 23.9856 5.42242 24.2288C5.6836 24.6129 5.92906 24.9776 6.1068 25.3331C6.20866 25.5474 6.22801 25.6036 6.26554 25.705C6.29817 25.7988 6.32241 25.8889 6.33733 25.9745C6.3759 26.2057 6.34245 26.4236 6.2442 26.6464L6.20959 26.7217L6.16856 26.8064C6.14117 26.8612 6.1132 26.9134 6.08698 26.957C6.06087 27.0006 6.03593 27.036 6.02136 27.0545L6.0132 27.065L6.01134 27.0673L6.01122 27.0679L6.03162 27.0909C6.09864 27.1682 6.14759 27.2358 6.18081 27.293C6.24864 27.4066 6.24385 27.4651 6.24327 27.4376C6.24199 27.4112 6.26041 27.3064 6.33931 27.1608C6.35889 27.1235 6.38115 27.0861 6.40714 27.0446C6.41343 27.035 6.40807 27.041 6.40714 27.0368L6.38558 27.0162C6.36646 26.9967 6.34153 26.9677 6.31775 26.9352C6.19864 26.7822 6.02206 26.3585 6.0146 26.2707C6.00376 26.1577 6.16658 26.1433 6.15399 26.0728C6.13453 25.9649 6.0364 25.7411 5.92463 25.5041L5.90446 25.462C5.89712 25.4473 5.89024 25.4329 5.89176 25.4315L5.8885 25.4057L5.88279 25.3608C5.87859 25.333 5.87346 25.3082 5.8639 25.2825C5.84467 25.2312 5.81029 25.1774 5.73057 25.0878C5.72474 25.081 5.66752 25.0508 5.64433 25.0216C5.62498 24.9972 5.6251 24.9565 5.63186 24.9632C5.59374 24.9273 5.51356 24.8946 5.4779 24.8591C5.42731 24.8089 5.41391 24.7702 5.36438 24.7252C5.32021 24.6849 5.22429 24.6228 5.16193 24.5697C5.11729 24.5317 5.11823 24.5106 5.07697 24.474C5.02289 24.426 4.91042 24.3466 4.84666 24.2916C4.81426 24.2638 4.78664 24.2383 4.76193 24.2147C4.66508 24.122 4.61473 24.0599 4.44398 23.9242L4.24632 23.7797C4.20879 23.7471 4.19014 23.7246 4.17336 23.7035L4.14713 23.6712L4.13932 23.6625L4.13525 23.6579L4.14119 23.6576C4.14877 23.657 4.15541 23.6557 4.16066 23.6537C4.19667 23.6405 4.15995 23.5805 4.1793 23.5589C4.19177 23.5444 4.29935 23.5857 4.30774 23.5716C4.31053 23.5653 4.21252 23.4819 4.21893 23.4803C4.28466 23.461 4.44573 23.5055 4.52196 23.5086C4.61636 23.5118 4.69935 23.4921 4.82324 23.5071C4.94445 23.5211 5.10435 23.5682 5.28174 23.6751C5.46122 23.8364 5.14095 23.6413 5.23874 23.7416C5.36997 23.8194 5.36764 23.7846 5.48815 23.8579C5.61437 23.9345 5.66647 24.0217 5.75132 24.056C5.83209 24.0885 5.91553 24.0515 5.99653 24.0667C6.13127 24.092 6.29409 24.1593 6.45166 24.1945C6.50807 24.2072 6.56425 24.2114 6.62287 24.2176L6.66728 24.2227L6.69 24.2255L6.7322 24.2356C6.78977 24.2495 6.84676 24.2653 6.90399 24.2836C7.08522 24.342 7.28185 24.412 7.46926 24.4931C7.65492 24.573 7.83475 24.67 7.94291 24.7533C8.02566 24.8135 8.10957 24.9174 8.17752 25.0466C8.24547 25.1753 8.29629 25.3334 8.32706 25.4951C8.34862 25.612 8.3224 25.6564 8.3295 25.7878C8.34023 25.9966 8.37566 26.2227 8.35526 26.4162C8.32123 26.7214 8.22356 26.9002 8.17007 27.1736C8.07485 27.6657 8.00643 28.3678 7.8731 28.9685C7.84035 29.1179 7.7731 29.288 7.74513 29.4337C7.6724 29.8163 7.63697 30.1961 7.57531 30.6343L7.51914 31.044L7.49245 31.2737L7.48091 31.3965L7.47613 31.4607C7.47543 31.4691 7.4745 31.4876 7.47392 31.4877C7.47322 31.4878 7.47299 31.4841 7.47229 31.4876C7.45539 31.5538 7.44618 31.613 7.4442 31.6703C7.44117 31.7698 7.47998 31.9135 7.44233 31.9715C7.42718 31.9933 7.38604 31.9838 7.3386 31.9618C7.29082 31.9411 7.23324 31.9026 7.19898 31.8919C7.11949 31.8675 7.02205 31.8997 6.93044 31.8539C6.93149 31.8543 6.92206 31.9069 6.91355 31.896C6.89187 31.8667 6.86891 31.8435 6.85212 31.8165C6.83744 31.7888 6.82439 31.7609 6.82369 31.7327C6.82392 31.6714 6.89373 31.6512 6.93849 31.6393C6.9611 31.6336 6.96588 31.612 6.98639 31.6102C7.01483 31.6076 7.04502 31.6044 7.0766 31.5982C7.09548 31.5945 7.13418 31.6123 7.15271 31.6103C7.20679 31.6048 7.23802 31.6033 7.31844 31.613C7.34735 31.6166 7.31192 31.5983 7.33779 31.6017L7.49606 31.6318C7.49187 31.6311 7.59525 31.6616 7.56634 31.6516C7.48907 31.6269 7.56844 31.644 7.6837 31.6835C7.76587 31.7414 7.85795 31.827 7.83965 31.8586C7.81238 31.9057 7.64128 31.8644 7.53721 31.8439C7.40644 31.8198 7.30946 31.7993 7.2224 31.7799C7.13615 31.7603 7.05632 31.7405 6.98289 31.7129C6.97112 31.7085 6.95038 31.7156 6.9315 31.7094C6.92171 31.7066 6.91506 31.7001 6.90935 31.6883C6.9125 31.6789 6.8646 31.6467 6.85924 31.6174L6.91635 31.6377L6.928 31.6432C6.93254 31.6463 6.93767 31.6483 6.94269 31.6505C6.95271 31.6547 6.96331 31.658 6.9738 31.6603C6.99478 31.6649 7.01541 31.6659 7.03383 31.6649C7.0717 31.6628 7.09758 31.6521 7.12893 31.6517C7.1372 31.6516 7.19105 31.6914 7.20166 31.6881C7.21704 31.6831 7.16751 31.6284 7.16401 31.6162C7.16098 31.6066 7.23243 31.6504 7.24385 31.6426C7.24933 31.639 7.20445 31.6047 7.21413 31.6005C7.22543 31.5962 7.29816 31.6164 7.30224 31.6021C7.30399 31.5954 7.30282 31.5876 7.29909 31.5791C7.2963 31.5701 7.29 31.5611 7.27217 31.5588L7.1815 31.5349C7.12299 31.52 7.07952 31.508 7.06436 31.5053C7.05924 31.5045 7.04152 31.4989 7.05189 31.5046C7.0604 31.5095 7.11389 31.5334 7.10888 31.5348C7.1041 31.536 7.04548 31.5067 7.0393 31.5043C7.02567 31.4987 7.06168 31.5198 7.05911 31.5192C7.02252 31.5096 7.009 31.511 6.98756 31.5151C6.96879 31.519 6.93802 31.5276 6.93639 31.5297C6.93674 31.5333 6.96903 31.4847 6.96903 31.4805C6.97043 31.4775 6.96413 31.5113 6.97485 31.544C6.98336 31.5764 7.00749 31.6032 7.0111 31.5794C7.01611 31.5679 6.97718 31.4699 6.98021 31.4819C6.98208 31.4853 7.02882 31.5641 7.03406 31.5701C7.06973 31.6093 7.04164 31.5639 7.10329 31.6278C7.14513 31.6695 7.21832 31.7352 7.22683 31.7076C7.23418 31.6831 7.21145 31.6349 7.21704 31.6058C7.22112 31.5842 7.25702 31.5724 7.26424 31.5405C7.26681 31.5301 7.2682 31.5191 7.26914 31.5078L7.27124 31.4564C7.27625 31.2458 7.28791 31.0575 7.30201 30.8784C7.3308 30.5208 7.36914 30.1967 7.4224 29.8838C7.45853 29.6712 7.53476 29.4509 7.58103 29.2136C7.64781 28.8712 7.68033 28.4918 7.74011 28.1087C7.76377 27.9598 7.83324 27.737 7.85585 27.5852C7.92438 27.1119 7.86762 27.0206 7.96237 26.8262C7.96773 26.8154 8.01878 26.7569 8.02053 26.7456C8.03848 26.6366 8.00107 26.44 8.01715 26.3482C8.02415 26.3114 8.08755 26.3075 8.09734 26.2675C8.10585 26.244 8.14303 25.8947 8.13604 25.819C8.13312 25.704 8.07589 25.536 8.03207 25.3879C7.99804 25.2735 7.98102 25.2009 7.95445 25.1303C7.94151 25.0948 7.92543 25.0614 7.90422 25.027C7.8928 25.0113 7.88137 24.9932 7.86634 24.9779L7.86097 24.9717L7.8583 24.9684L7.8569 24.9668L7.8562 24.966L7.85585 24.9656L7.85573 24.9654L7.85562 24.9653C7.86273 24.9724 7.83953 24.9492 7.87158 24.9812L7.83732 24.9477C7.83324 24.9436 7.83207 24.9427 7.8337 24.9444L7.83499 24.9462L7.83802 24.9494C7.84222 24.953 7.83184 24.9451 7.82951 24.9432C7.80981 24.9288 7.78009 24.9474 7.75014 24.9181C7.73161 24.8998 7.65469 24.8367 7.52205 24.7612C7.3921 24.6861 7.2132 24.6049 7.07532 24.5563C6.99933 24.5293 6.91507 24.5107 6.8294 24.4935L6.59991 24.4466C6.51483 24.43 6.39514 24.3731 6.28022 24.3506C6.11495 24.3183 6.01216 24.3402 5.93372 24.3445C5.85144 24.3481 5.79141 24.331 5.61717 24.2059C5.55459 24.1613 5.58931 24.2014 5.52172 24.1444C5.45377 24.0882 5.47789 24.0972 5.41333 24.0512C5.27475 23.953 5.20155 23.9273 5.13419 23.9296C5.12079 23.9301 5.15284 23.9711 5.11624 23.954C5.104 23.9484 5.05005 23.8946 5.03046 23.8986C4.99224 23.9063 5.03885 23.9814 5.00097 23.9889C4.92708 24.0034 4.72277 23.9422 4.69667 23.999C4.69527 24.0025 4.69573 24.0072 4.69771 24.0128C4.69958 24.0184 4.72195 24.0328 4.73443 24.0432L4.83023 24.1149C4.89503 24.1628 4.95552 24.207 4.98268 24.2296C5.08489 24.3149 5.11601 24.3617 5.20948 24.4403L5.26391 24.4846C5.35319 24.5557 5.45598 24.6303 5.53232 24.688C5.57766 24.722 5.59934 24.7466 5.65446 24.7881C5.69281 24.8172 5.785 24.8669 5.80341 24.8822C5.87031 24.9378 5.86694 24.9742 5.9223 25.0247C5.81158 25.0188 5.81298 24.9717 5.69701 24.9589C5.74107 25.0027 5.79911 25.0154 5.85703 25.023C5.91484 25.0302 5.97475 25.0351 6.00901 25.0474C6.04945 25.1164 6.116 25.1892 6.13663 25.2671L6.13873 25.2732L6.15516 25.3013L6.18698 25.3571C6.20679 25.3927 6.22381 25.4251 6.23896 25.4556C6.26926 25.5165 6.29246 25.5702 6.3132 25.624C6.35446 25.7311 6.38768 25.8422 6.43943 26.0003C6.48745 26.1473 6.50994 26.2205 6.52066 26.2887C6.53126 26.356 6.52929 26.4178 6.52195 26.5217C6.5181 26.5747 6.48278 26.6879 6.49048 26.7079C6.50493 26.7507 6.55842 26.809 6.56914 26.8165L6.56961 26.8169L6.56973 26.817L6.55702 26.8336L6.50294 26.9051C6.4681 26.9534 6.43721 26.9977 6.40912 27.0424C6.3533 27.1297 6.31192 27.2105 6.28558 27.2755C6.22975 27.409 6.24805 27.4742 6.24118 27.4319C6.23582 27.3937 6.18162 27.2677 6.05878 27.1232C6.02883 27.0874 5.99538 27.05 5.95925 27.0127L5.90342 26.9562L5.87428 26.9281L5.86216 26.9169L5.86297 26.9172C5.86693 26.9197 5.87369 26.9172 5.87929 26.9114C5.91157 26.8795 5.97288 26.7799 6.02707 26.6566C6.06017 26.5825 6.06891 26.555 6.08173 26.5098C6.09316 26.4672 6.10062 26.4234 6.10493 26.3789C6.12195 26.2076 6.08383 25.9888 5.98698 25.7218L5.94806 25.6172L5.9068 25.5156C5.89199 25.4778 5.87393 25.4413 5.85738 25.4043C5.78896 25.2575 5.71251 25.1153 5.63302 24.9772C5.4737 24.701 5.30307 24.4413 5.13769 24.2051C4.90774 23.8776 4.57324 23.4857 4.4011 23.2286C4.18606 22.9086 4.0835 22.6515 3.91776 22.36C3.71415 22.0042 3.48758 21.5773 3.29026 21.2471C3.21637 21.1236 3.12406 21.0283 3.06695 20.9027C2.98327 20.7176 3.0032 20.5667 2.94481 20.433C2.80239 20.1062 2.58864 19.7223 2.50741 19.4216C2.46032 19.2523 2.42838 19.0763 2.40974 18.8918C2.39109 18.707 2.38735 18.5164 2.38712 18.3045C2.38642 17.8854 2.4222 17.3842 2.4729 16.8474C2.64272 16.8503 2.78479 16.8545 2.89971 16.854C2.95402 16.8538 3.07686 16.8698 3.21392 16.899C3.35192 16.928 3.50239 16.9708 3.63432 17.0167C3.90005 17.1079 4.09574 17.2109 4.13245 17.1826C4.17254 17.149 4.11229 17.1291 4.32756 17.2593C4.53664 17.3893 4.62405 17.4025 4.7533 17.3917C4.80832 17.388 4.84142 17.4115 4.87965 17.4497C4.91834 17.4878 4.96134 17.5391 5.0547 17.5952C5.07265 17.606 5.1448 17.629 5.24899 17.6609C5.35063 17.6919 5.49177 17.7369 5.59107 17.772C5.7209 17.8173 5.81356 17.7997 5.98745 17.8975C6.16251 17.9971 6.4139 18.1764 6.7118 18.4389C7.00912 18.6991 7.34932 19.0558 7.63032 19.3615C7.93032 19.6869 8.20212 19.9864 8.44967 20.2336C8.69757 20.4808 8.92414 20.6856 9.14546 20.8413C9.18148 20.8673 9.21621 20.8914 9.25001 20.9121C9.28405 20.9357 9.31749 20.9556 9.35118 20.9729C9.36738 20.9815 9.38661 20.9932 9.40036 20.9997L9.43603 21.014L9.45421 21.0214L9.4633 21.0251L9.46528 21.0261L9.47204 21.0304C9.49045 21.0421 9.51225 21.0532 9.54546 21.0499C9.56796 21.0475 9.5774 21.0304 9.59371 21.0135L8.20492 22.3556C8.19862 22.3318 8.19524 22.3039 8.19373 22.2607C8.19431 22.1882 8.2182 22.0147 8.20189 21.9297C8.18534 21.8365 8.14979 21.7281 8.11401 21.6329C8.05701 21.4795 7.99198 21.2649 7.88837 21.004C7.78522 20.7436 7.64233 20.4379 7.45049 20.123C7.37019 19.9921 7.31215 19.9554 7.20854 19.8062C7.0505 19.5754 6.76541 19.1223 6.44688 18.7497C6.28721 18.5615 6.08243 18.3574 5.83558 18.0757C5.76018 17.9886 5.61414 17.8436 5.60936 17.8384C5.54934 17.767 5.56834 17.7291 5.53384 17.6837C5.49864 17.6384 5.47102 17.6049 5.44818 17.5781L5.43186 17.5589L5.4244 17.5499L5.42253 17.5478L5.42242 17.5477C5.29596 17.6404 5.59468 17.4214 5.56379 17.444L5.56321 17.4443L5.56216 17.4449L5.55983 17.4461L5.55528 17.4485L5.53757 17.4582C5.49188 17.4825 5.44503 17.5103 5.40878 17.5271C5.40062 17.516 5.43757 17.5406 5.43419 17.5262C5.43606 17.5163 5.43664 17.5013 5.43512 17.4776C5.43675 17.4677 5.4033 17.3926 5.39899 17.3864C5.38839 17.2598 5.55505 17.137 5.62381 17.1321C5.6378 17.1309 5.6709 17.1582 5.69514 17.1813C5.69898 17.1858 5.71006 17.1952 5.70831 17.195C5.70645 17.1948 5.70447 17.1934 5.70412 17.1927L5.73978 17.2252L5.74712 17.2315L5.75062 17.2343L5.75237 17.2356L5.75319 17.2363C5.74479 17.2284 5.77218 17.254 5.7343 17.2187L5.73442 17.2188L5.73465 17.2189L5.735 17.2192C5.73873 17.2221 5.742 17.2245 5.74503 17.2263C5.82113 17.2717 5.91391 17.2459 6.02696 17.3059C6.08092 17.3349 6.17521 17.438 6.22928 17.4731C6.28371 17.5081 6.32753 17.5208 6.38989 17.5626C6.62182 17.7179 6.84292 17.9097 7.03954 18.0568C7.24443 18.2105 7.42205 18.3237 7.57811 18.4377C7.43953 18.1389 7.15702 17.8637 6.92054 17.5674C6.81763 17.4383 6.7097 17.2487 6.59339 17.1258C6.51437 17.0415 6.43535 16.9777 6.35446 16.9159L6.11577 16.7322L5.95668 16.6165C5.89292 16.5717 5.82195 16.5245 5.74561 16.4776C5.59316 16.3834 5.42067 16.2904 5.24235 16.2135C4.94037 16.082 4.47114 15.9177 4.09504 15.7886C3.86777 15.7104 3.63175 15.6653 3.42604 15.5844C3.21485 15.5012 3.07033 15.3927 2.86416 15.3031C2.71836 15.2395 2.53211 15.1484 2.35542 15.0569C2.2271 14.9895 2.06685 14.9315 1.90554 14.7996C1.76417 14.6836 1.62023 14.5282 1.49494 14.3183C1.46394 14.2651 1.43398 14.2105 1.40706 14.1502L1.38701 14.1056L1.37454 14.0767L1.37244 14.0709L1.36837 14.0594L1.34272 13.9889C1.31498 13.9109 1.3017 13.8607 1.28632 13.7984C1.27163 13.7385 1.25974 13.6781 1.25065 13.6181C1.22093 13.4207 1.21662 13.2692 1.22058 13.1195C1.22606 12.9706 1.24412 12.8216 1.29202 12.6509C1.40449 12.2613 1.58387 11.9658 1.72594 11.7136L1.82757 11.5338L1.87139 11.4523L1.89505 11.4042C1.92535 11.3395 1.94762 11.2759 1.95577 11.2166C1.96335 11.157 1.93911 11.1288 1.94902 11.0654C1.9595 10.9916 1.97442 10.9142 1.97162 10.8329C1.96941 10.752 1.94855 10.6691 1.90776 10.5944C1.84773 10.4917 1.77536 10.4614 1.69517 10.3905C1.63737 10.3429 1.6623 10.3161 1.61697 10.2754C1.59913 10.2597 1.55182 10.2371 1.50135 10.2165L1.46242 10.2005L1.40625 10.172C1.36953 10.153 1.33422 10.1347 1.3059 10.1172C1.20858 10.0583 1.20438 10.0161 1.12478 9.9768C0.987365 9.91106 0.86837 9.90116 0.749257 9.85104C0.632008 9.80267 0.564293 9.74778 0.442383 9.69661L1.21441 7.71411L1.28154 7.74383C1.42501 7.8028 1.65718 7.88147 1.7982 7.95327C2.13211 8.12157 2.42465 8.32926 2.72605 8.52902C2.91439 8.65396 3.09085 8.74161 3.26672 8.87809C3.42954 9.00454 3.58898 9.1648 3.74585 9.29452C4.30669 9.75559 4.92055 10.2776 5.32544 10.7775C5.3829 10.8461 5.60377 11.1261 5.57673 11.097C5.704 11.2383 5.81752 11.3028 5.95027 11.4407C6.32101 11.8269 6.5822 12.1908 6.89583 12.6025C7.18907 12.9885 7.52869 13.385 7.81028 13.7614C8.32542 14.4487 8.80887 15.1698 9.33602 15.861L9.93299 16.6489L10.01 16.7504C10.0281 16.7748 10.0457 16.7994 10.0627 16.8249C10.0966 16.8759 10.1284 16.9306 10.1598 16.9952C10.2182 17.1167 10.229 17.2988 10.3415 17.4735C10.3742 17.5243 10.483 17.6448 10.5957 17.7575C10.7087 17.8714 10.8258 17.9753 10.8859 18.0337C10.9696 18.1158 11.0844 18.2492 11.2123 18.3539C11.3146 18.438 11.4258 18.4925 11.527 18.5301C11.6287 18.5695 11.7225 18.5914 11.7958 18.6579C11.8876 18.7413 12.085 19.1164 12.212 19.2914C12.24 19.3299 12.2647 19.3584 12.284 19.3714C12.3351 19.3849 12.4656 19.1763 12.5285 18.9383C12.56 18.8189 12.57 18.6907 12.5571 18.5858C12.5452 18.4806 12.5135 18.4009 12.496 18.3672C12.4205 18.2234 12.395 18.1343 12.1953 17.9743C12.1234 17.917 12.0022 17.8146 11.9408 17.7795C11.712 17.6482 11.4731 17.6139 11.2381 17.5425C11.0847 17.4962 10.948 17.4181 10.8262 17.3847C10.7534 17.365 10.6721 17.3777 10.5984 17.3645C10.5383 17.3539 10.4882 17.3335 10.4471 17.3152L10.391 17.2906C10.3835 17.287 10.3723 17.2847 10.3689 17.2816C10.3767 17.2763 10.3842 17.2718 10.3909 17.2684C10.4272 17.248 10.6189 17.178 10.6667 17.1759L10.7766 17.201C10.8344 17.2135 10.9016 17.225 10.9087 17.2304C10.9945 17.2931 10.8228 17.3992 10.9517 17.3936C10.9987 17.389 11.0549 17.3794 11.1656 17.3452C11.2695 17.3135 11.3958 17.2689 11.5184 17.2164C11.63 17.1687 11.6163 17.1152 11.7238 17.053C11.7739 17.0236 11.95 16.9857 12.0947 16.9116C12.1826 16.8664 12.1946 16.8179 12.2718 16.7742C12.4139 16.6936 12.6608 16.6068 12.7894 16.4702C12.8036 16.4561 12.7524 16.4123 12.7598 16.4038C12.8023 16.3596 12.9123 16.3079 12.9613 16.2573C12.9686 16.2497 12.9743 16.2423 12.9789 16.2351C12.986 16.2305 12.9691 16.2312 12.9639 16.2293L12.9398 16.2255L12.8416 16.2104C12.7764 16.2006 12.7149 16.1911 12.67 16.1806C12.5024 16.1411 12.3615 16.0987 12.2285 16.0544C12.0431 15.9925 11.8723 15.9261 11.6942 15.8614C11.5558 15.8108 11.4115 15.7689 11.3431 15.7291C11.2592 15.6806 11.2289 15.62 11.1577 15.578L11.1047 15.5477L11.0758 15.5314L11.0318 15.5045L10.87 15.4082C10.7749 15.3519 10.6979 15.3074 10.6005 15.2317C10.4233 15.0934 10.2727 14.9204 10.1055 14.7593C9.94651 14.6056 9.76434 14.4497 9.59651 14.248C9.46889 14.0961 9.31703 13.835 9.17938 13.5846C9.0654 13.3711 9.01796 13.3437 8.92531 13.1073C8.80421 12.7796 8.76866 12.4677 8.71866 12.1117C8.6929 11.9276 8.63778 11.7155 8.62531 11.5416C8.59932 11.215 8.64337 10.7651 8.64034 10.4213C8.63859 10.2522 8.59652 10.0982 8.59477 9.97796C8.59279 9.81258 8.61062 9.66095 8.6027 9.49253C8.59442 9.25734 8.53848 9.02156 8.53836 9.06491C8.53813 8.83485 8.63125 8.64872 8.75118 8.60303C8.81761 8.57914 8.914 8.67949 9.02239 8.7472C9.08533 8.78613 9.10607 8.75559 9.15572 8.79056C9.27577 8.87949 9.28929 8.89032 9.47542 8.8838C9.5936 8.88018 9.63195 8.98601 9.58078 8.6507C9.55572 8.51259 9.53229 8.47774 9.49907 8.42739C9.46411 8.37774 9.42169 8.30933 9.32087 8.11923C9.20689 7.90525 9.10969 7.67798 8.94955 7.43486C8.82531 7.24605 8.65176 7.0471 8.5471 6.88766C8.4358 6.71773 8.4034 6.5809 8.31563 6.46015L7.67135 5.61844C7.61215 5.53953 7.58091 5.5027 7.50795 5.37834C7.37485 5.14385 7.35119 4.99012 7.25014 4.75422C7.19805 4.63126 7.06553 4.40772 6.96926 4.24432C6.8808 4.09129 6.73278 3.83034 6.66856 3.74899C6.59759 3.65726 6.49397 3.61682 6.38977 3.46647C6.22579 3.23139 6.10482 3.02964 5.97323 2.83512C5.90761 2.73804 5.83873 2.6434 5.76006 2.54981C5.68418 2.45983 5.60459 2.37848 5.50762 2.29853C5.43396 2.23816 5.38116 2.16846 5.32044 2.13711C5.30249 2.12778 5.24678 2.13874 5.23244 2.12872C5.13978 2.06228 5.14456 1.99189 5.07078 1.93443C5.02545 1.90051 5.00552 1.94643 4.92871 1.88676C4.68804 1.6997 4.43151 1.52115 4.20669 1.35052L4.14341 1.3018L4.11252 1.27744L4.09737 1.26532C4.09235 1.2652 4.08746 1.26812 4.08256 1.26928L3.97488 1.30483C3.90938 1.32593 3.85541 1.3384 3.8124 1.3335C3.72825 1.32418 3.68245 1.24667 3.72557 1.04166C3.737 1.00215 3.75203 0.94784 3.77733 0.8877C3.77534 0.889915 3.82044 0.756582 3.83699 0.734904C3.85191 0.714741 3.8983 0.668471 3.95914 0.618588L4.00705 0.58071C4.01532 0.57092 4.02371 0.5736 4.0321 0.576397L4.05739 0.582341C4.09095 0.590034 4.12429 0.59726 4.15425 0.602504C4.20902 0.623716 4.25238 0.638168 4.26671 0.633506C4.27382 0.631642 4.16345 0.482692 4.1666 0.444813C4.16776 0.424067 4.34445 0.467773 4.25809 0.370338C4.21672 0.324534 4.17709 0.298777 4.13117 0.272786C4.10786 0.269523 4.08257 0.266609 4.05483 0.261481C4.04096 0.258917 4.02639 0.25577 4.01077 0.251807C3.99515 0.248544 3.97895 0.238288 3.96077 0.251225C3.93466 0.261481 3.87114 0.243299 3.85518 0.253089C3.72779 0.327448 3.51217 0.483391 3.30273 0.674532C3.09271 0.867188 2.89458 1.10961 2.768 1.27966C2.60961 1.49189 2.45263 1.78781 2.26883 2.13466C2.21498 2.23734 2.1602 2.34562 2.10659 2.46193C2.08072 2.51811 2.05135 2.58478 2.02909 2.63839C2.00694 2.69165 1.98479 2.74666 1.96335 2.80412C1.87815 3.03419 1.79576 3.29876 1.75042 3.62381C1.72687 3.78185 1.70368 4.01821 1.71615 4.20061C1.72501 4.35551 1.7771 4.53651 1.82163 4.68896C1.85857 4.81996 1.91009 4.95201 1.98258 5.07578C2.0193 5.13732 2.05892 5.19746 2.10473 5.25282L2.14458 5.30084L2.17255 5.33068C2.20705 5.36716 2.23794 5.39524 2.26847 5.42054C2.39505 5.52671 2.5609 5.60084 2.71462 5.62555C2.86905 5.65165 3.00705 5.63953 3.12278 5.61669C3.35495 5.56844 3.51986 5.48639 3.65553 5.41448C3.78979 5.34093 3.89131 5.27159 3.96485 5.21564C4.24492 4.99828 4.37976 4.7794 4.53722 4.63324C4.55902 4.61308 4.76788 4.46914 4.99165 4.26239C5.05576 4.20353 5.1469 4.06029 5.17802 4.03162C5.28291 3.93442 5.34712 3.93593 5.41682 3.86414C5.51227 3.7653 5.44829 3.77603 5.58198 3.61157C5.67836 3.49281 5.82975 3.39747 5.93092 3.27778C6.01845 3.17416 6.09677 3.06752 6.17381 2.96659C6.2181 2.90855 6.29724 2.7709 6.34724 2.71881C6.4202 2.64223 6.57124 2.55599 6.65493 2.48128C6.69479 2.4455 6.74921 2.34655 6.77917 2.32067C6.90807 2.20739 7.11693 2.0758 7.25597 1.96928C7.59 1.71403 7.90702 1.47033 8.3006 1.35938C8.44268 1.32033 8.58522 1.29865 8.72123 1.29714C8.85701 1.2969 8.98533 1.31369 9.10164 1.33676C9.33486 1.3835 9.51668 1.46951 9.62052 1.55483C9.73567 1.65261 9.60456 1.62674 9.66003 1.70972C9.69278 1.75891 9.80653 1.83431 9.80211 1.88466C9.79371 1.98431 9.67646 1.98979 9.55129 2.00098C9.42308 2.0131 9.28859 2.03082 9.23917 2.07091C9.4119 2.16065 9.55583 2.24317 9.68416 2.33314C9.81131 2.42347 9.92215 2.52196 10.0071 2.64643C10.1512 2.85692 10.2223 3.12323 10.2927 3.33419C10.3966 3.64677 10.4924 3.92567 10.548 4.18768C10.569 4.28803 10.5632 4.39047 10.5787 4.48278C10.5903 4.55108 10.6207 4.61891 10.6309 4.68103C10.6428 4.75376 10.6338 4.89711 10.6462 4.97777C10.6733 5.16576 10.6887 5.06028 10.6848 5.57357C10.6759 6.02682 10.6788 6.00864 10.5656 6.15142C10.4675 6.27228 10.133 6.08055 10.0301 6.37682C9.94138 6.63078 10.0013 6.92507 9.95641 7.34022C9.95583 7.34686 9.9049 7.44138 9.90292 7.52856C9.90117 7.62308 9.9239 7.70315 9.85408 7.91422C9.7704 8.17378 9.75642 7.90793 9.62681 8.18497C9.60315 8.47459 9.57775 8.74802 9.57262 9.02377C9.57157 9.09277 9.57181 9.162 9.57437 9.23205C9.57659 9.30139 9.58229 9.37587 9.58824 9.43671C9.59954 9.56433 9.61504 9.6902 9.63486 9.81538C9.65887 9.96503 9.71295 10.0555 9.74686 10.2021C9.81271 10.4795 9.86865 10.8242 9.97192 11.1683C10.1596 11.7866 10.41 12.3898 10.7732 13.1834C10.7834 13.2058 10.8481 13.2564 10.879 13.3509C10.8914 13.3874 10.8451 13.3559 10.895 13.4517C10.9686 13.5906 11.0383 13.6491 11.1174 13.7791C11.1676 13.8629 11.37 14.2218 11.6022 14.578C11.833 14.9374 12.0911 15.2853 12.1766 15.423C12.1951 15.4526 12.2322 15.5707 12.2621 15.6237C12.3551 15.7946 12.4035 15.9547 12.3861 16.0645C12.3677 16.1731 12.2819 16.2301 12.0864 16.1571C11.9979 16.1227 11.9428 16.1071 11.9698 16.1734C11.9971 16.2388 12.1045 16.3909 12.3551 16.6611C12.4285 16.74 12.5174 16.7791 12.647 16.9116C12.743 17.0131 13.0274 17.289 13.3208 17.4938C13.6818 17.7512 13.9015 17.8441 14.0179 17.9281L14.0742 17.969C14.0842 17.9793 14.0896 17.9729 14.0961 17.9717L14.1149 17.9661C14.1394 17.9589 14.1613 17.9531 14.1814 17.9483C14.2239 17.9406 14.2588 17.9378 14.287 17.9373C14.4381 17.7432 14.3944 17.8871 14.6339 17.3843C14.7556 17.1333 14.9818 16.7477 15.2524 16.3548C15.3204 16.2572 15.3916 16.1596 15.4648 16.0631L15.5768 15.9203L15.6828 15.7911C15.7922 15.6575 15.9038 15.5285 16.0085 15.4099C16.232 15.1575 16.4641 14.9108 16.7836 14.6653C16.915 14.5637 17.1212 14.4511 17.2172 14.3871C17.3125 14.3251 17.197 14.3206 17.2579 14.2749C17.2411 14.2839 17.5434 14.1401 17.7089 14.0624C17.8709 13.9825 18.066 13.8859 18.321 13.7782C18.4321 13.731 18.5545 13.6817 18.6874 13.6295C18.8741 13.5554 18.9522 13.557 19.0715 13.5054C19.2703 13.4186 19.4533 13.3141 19.6037 13.2254C19.7527 13.1373 19.8685 13.0648 19.9058 13.0601C19.9098 13.0599 19.8849 13.1045 19.8919 13.0982C19.9408 13.0521 19.9434 13.0461 19.9355 13.0585C19.9265 13.0707 19.9067 13.0994 19.8893 13.1213C19.8834 13.1298 19.8994 13.0951 19.889 13.1051C19.84 13.1584 19.7625 13.2619 19.7027 13.3381C19.6422 13.4148 19.6012 13.4672 19.6048 13.4282C19.606 13.3875 19.7288 13.1201 19.7882 12.7739C19.8186 12.6023 19.8306 12.4143 19.8197 12.2462C19.8097 12.0781 19.7788 11.9311 19.7488 11.8347C19.6825 11.626 19.603 11.5333 19.5432 11.4447C19.4815 11.3565 19.4358 11.2726 19.3883 11.091C19.3537 10.9623 19.3167 10.9201 19.2629 10.8753C19.2081 10.8306 19.1384 10.7817 19.0179 10.6456C18.9763 10.5992 18.9534 10.4495 18.86 10.3535C18.7672 10.259 18.7308 10.1084 18.6825 10.0647C18.5799 9.97272 18.4207 10.0274 18.3164 9.93997C18.2518 9.88519 18.19 9.73624 18.1026 9.66351C17.9879 9.56899 17.9146 9.57295 17.791 9.4782C17.6097 9.33799 17.3712 9.08648 17.2857 9.05384C17.144 8.99941 17.153 9.14708 17.0453 9.12098C16.8586 9.07575 16.5246 8.79196 16.5058 9.26573C16.4976 9.50699 16.429 9.60687 16.4446 9.69428C16.5169 10.1179 16.7216 10.2834 17.0673 10.848C17.0779 10.865 17.2308 11.0471 17.3564 11.2518C17.4839 11.4567 17.5823 11.6827 17.5576 11.7865C17.5075 12.0016 17.4228 11.9407 17.2932 11.7881C17.1651 11.636 16.9875 11.3922 16.7973 11.2499C16.6325 11.1259 16.4272 11.064 16.2207 10.9763C16.0138 10.8882 15.8023 10.774 15.6082 10.5334C15.4884 10.3846 15.4107 10.3771 15.3183 10.3702C15.2247 10.3633 15.1184 10.3563 14.9142 10.2101C14.881 10.1853 14.6614 9.99673 14.6542 9.99428C14.5239 9.95104 14.4335 10.09 14.2962 10.026C14.1608 9.96491 14.0875 9.75151 13.9427 9.71188C13.832 9.68041 13.5848 9.65174 13.5671 9.65163C13.5036 9.64568 13.4337 9.65477 13.3877 9.66934C13.4481 9.66922 13.5127 9.67493 13.5741 9.68123C13.697 9.69393 13.806 9.70897 13.8468 9.68286C13.9352 9.62703 13.6826 9.42668 13.7155 9.35337C13.7524 9.2761 14.1158 9.30524 14.2257 9.24114C14.2659 9.21701 14.2083 8.85583 14.6194 9.02925C15.0664 9.54113 15.083 9.87225 14.9924 10.1195C14.9705 10.1775 15.0296 10.327 14.9633 10.3369C14.9394 10.3409 14.7742 10.182 14.7651 10.2264C14.7555 10.2811 14.8723 10.4886 14.8785 10.5546C14.8908 10.7067 14.7633 10.8822 14.9557 11.2127C15.1319 11.2324 15.1282 11.1123 15.1846 10.9926C15.1966 10.9678 15.3053 11.0287 15.3064 10.9935C15.3095 10.8992 15.2268 10.7351 15.265 10.6672C15.3099 10.5891 15.4916 10.6541 15.542 10.5655C15.6561 10.364 15.6391 9.8944 15.9677 9.84253C16.1071 9.82027 16.3157 10.0191 16.3729 9.98472C16.5003 9.91199 16.4862 9.64079 16.6424 9.49498C16.6919 9.44743 17.0068 9.29195 17.398 9.23088C17.7855 9.16492 18.2388 9.21072 18.4252 9.42027C18.4277 9.42296 18.4776 9.56223 18.52 9.71759C18.563 9.87307 18.5982 10.0439 18.5921 10.1116C18.5719 10.3419 18.4698 10.2488 18.4135 10.3471C18.347 10.4642 18.3916 10.3259 18.4031 10.4461C18.4389 10.8516 18.2004 10.5728 18.0367 10.7255C17.981 10.778 17.9569 11.0947 17.898 11.197C17.8829 11.2221 17.7974 11.2387 17.7796 11.2664C17.6917 11.3994 17.5593 11.5164 17.4352 11.6435C17.3106 11.7701 17.1944 11.906 17.1259 12.0629C17.0641 12.2035 17.053 12.4306 17.0205 12.5734C17.0014 12.6521 16.8853 12.7007 16.9145 12.879C16.9203 12.9142 16.9854 13.0768 16.9822 13.0964C16.9593 13.2657 16.8308 13.2334 16.8394 13.4078C16.8556 13.6233 16.9715 13.8525 17.0185 14.0591C17.1219 14.2644 17.1384 14.2667 17.148 14.2444C17.1568 14.222 17.1601 14.1753 17.2173 14.2815C17.2761 14.4384 17.1758 14.3174 17.2536 14.4974C17.3552 14.6921 17.303 14.4799 17.2173 14.2815C17.0185 13.8455 17.2783 14.1271 17.2867 14.0725C17.2977 14.0322 17.2474 13.8913 17.2691 13.8596C17.2976 13.8219 17.3665 13.9127 17.394 13.8726C17.4438 13.8001 17.4968 13.5841 17.5996 13.4898C17.6334 13.4577 17.7361 13.4616 17.8399 13.4539C17.9438 13.4453 18.0505 13.4275 18.1009 13.327C18.1248 13.2791 18.1374 13.0599 18.168 13.0438C18.2123 13.0219 18.286 13.1444 18.3771 13.1467C18.4651 13.1479 18.618 12.9274 18.7099 12.9405C18.7656 12.9474 18.796 13.1768 18.8384 13.1785C18.8851 13.1805 18.9368 13.1246 18.9892 13.1145C19.0177 13.1092 19.0597 13.154 19.1017 13.1506C19.1201 13.1487 19.1854 13.034 19.1999 13.0371C19.2218 13.0423 19.2231 13.1254 19.2443 13.1264C19.2959 13.13 19.32 13.1326 19.3502 13.1473C19.3793 13.1629 19.416 13.1898 19.4751 13.2614C19.4978 13.2897 19.5531 13.3361 19.6038 13.414C19.6548 13.4911 19.6991 13.601 19.717 13.7346C19.7547 14 19.6779 14.3564 19.5244 14.5525C19.3184 14.8153 19.2955 14.7813 19.221 14.6738C19.2031 14.651 19.2361 14.6173 19.2052 14.6157C19.1722 14.6163 19.215 14.4938 19.1225 14.555C19.0707 14.686 19.0705 14.754 19.0827 14.8157C19.0953 14.8762 19.1198 14.9296 19.1244 14.9993C19.1287 15.0636 19.1422 15.1398 19.135 15.2279C19.1194 15.4237 19.0793 15.627 19.0736 15.8858C19.0723 15.9325 19.0769 15.9842 19.0805 16.0381C19.0825 16.0649 19.0837 16.0919 19.0844 16.1199C19.0832 16.1553 19.0781 16.2045 19.0734 16.2434C19.0533 16.4005 18.9891 16.602 18.9797 16.7667C18.9743 16.848 19.0103 16.9583 19.0089 16.9871C19.0003 17.1363 18.986 17.2962 18.9797 17.4622L18.9766 17.5903L18.9778 17.6673L18.9813 17.7396C18.9874 17.8342 18.9988 17.9253 19.0149 18.0124C18.9252 18.059 18.8886 18.2225 18.7588 18.1758C18.7981 18.3338 18.8292 18.4605 18.9426 18.7084C18.9969 18.8248 19.0481 18.8527 19.1096 18.9803C19.1708 19.1073 19.2216 19.3144 19.2765 19.4315C19.323 19.5305 19.3942 19.5925 19.4249 19.6449C19.5098 19.8026 19.5763 19.9733 19.6389 20.173C19.7058 20.3778 19.7537 20.6043 19.7285 20.7304C19.7214 20.7723 19.6896 20.8496 19.6467 20.9275C19.6045 21.006 19.5487 21.0831 19.5108 21.1372C19.5074 21.1421 19.5128 21.1813 19.4915 21.2323C19.4706 21.2824 19.4198 21.3462 19.3076 21.3736C19.1924 21.4 19.1232 21.381 19.0858 21.3554C19.0478 21.3286 19.0386 21.2902 19.0351 21.251C19.0298 21.1895 19.1536 21.1191 19.2304 21.0024C19.3097 20.8883 19.3386 20.7532 19.2914 20.712C19.2543 20.708 19.2525 20.7608 19.2298 20.8137C19.2187 20.8427 19.1695 20.9195 19.1295 20.9655C19.0422 21.069 18.9691 21.1377 18.8532 21.2038C18.7999 21.2325 18.7757 21.2239 18.7342 21.2498C18.7001 21.2709 18.632 21.3029 18.5375 21.3425L18.373 21.4105C18.2883 21.44 18.1918 21.4751 18.0977 21.5142C18.0047 21.5528 17.9034 21.5992 17.8199 21.644L17.5776 21.7726C17.4234 21.8556 17.2862 21.9297 17.1817 21.9768C16.9827 22.0676 17.0285 22.0529 16.7973 22.1134C16.6926 22.1426 16.6967 22.1015 16.5068 22.2148C16.0679 22.4856 16.0514 22.6523 15.7802 22.9137C15.7283 22.9639 15.5131 23.1403 15.4122 23.2345C15.2028 23.4296 15.1123 23.5445 14.8726 23.6386C14.8276 23.656 14.7443 23.6519 14.6823 23.698C14.429 23.8899 14.1451 24.2048 13.8114 24.4807C13.6548 24.6114 13.5086 24.7323 13.3495 24.8501C13.1873 24.9702 12.9851 25.0937 12.8668 25.1855C12.6263 25.372 12.4217 25.5958 12.1068 25.8345C12.0305 25.8922 11.9198 25.9327 11.8588 25.9858C11.6965 26.127 11.3111 26.3853 11.0917 26.5858C10.7323 26.7573 11.1951 26.4858 10.7311 26.7101C10.558 26.7957 10.5389 26.7745 10.4275 26.9376C10.4423 26.998 10.7241 26.79 10.8535 26.7407C10.7766 26.8836 10.4592 27.0482 10.2669 27.2203C10.128 27.3416 9.91737 27.648 9.74966 27.7618C9.56714 27.8862 9.69849 27.7524 9.54511 27.9305C9.48812 27.9985 9.4598 28.049 9.3809 28.1478C9.30211 28.2478 9.17391 28.386 9.04932 28.5366C8.92461 28.6872 8.80386 28.8495 8.7239 28.9913C8.68346 29.0636 8.66925 29.1489 8.6344 29.2082C8.60538 29.2579 8.52438 29.3178 8.4985 29.3683C8.47787 29.4108 8.47834 29.5389 8.31575 29.7225C8.24221 29.7558 8.25946 29.612 8.25538 29.608C8.24035 29.5979 8.15573 29.6709 8.14897 29.6197C8.14291 29.5739 8.18114 29.4603 8.24443 29.3306C8.30666 29.2009 8.39466 29.0557 8.45759 28.9461C8.48778 28.8918 8.48219 28.8627 8.52543 28.7944C8.60352 28.6733 8.74535 28.481 8.87519 28.3255L8.94663 28.4119C9.17752 28.271 8.92017 28.2945 8.97309 28.1751C8.95794 28.2095 9.01971 28.1247 9.09267 28.0305C9.16493 27.9361 9.24849 27.8319 9.25712 27.8241C9.31131 27.7678 9.69523 27.4919 9.73719 27.4058C9.81318 27.2377 9.78253 27.3844 10.0231 27.1676C10.0864 27.1118 10.1298 27.0452 10.2234 26.9556C10.3262 26.8572 10.5148 26.7231 10.6657 26.5867C10.6811 26.5725 10.8157 26.4822 10.8206 26.4739C10.9099 26.3172 10.8392 26.4593 11.1345 26.2503C11.1732 26.2231 11.1624 26.1803 11.195 26.1573C11.308 26.0769 11.5083 25.966 11.6002 25.8942C11.7424 25.7834 11.8126 25.6545 11.9606 25.5325C12.046 25.462 12.2402 25.3689 12.3708 25.2718C12.4543 25.2099 12.5085 25.1337 12.595 25.0697C12.6761 25.0094 12.7883 24.9706 12.7682 24.9848C12.8418 24.9326 12.7778 24.9322 12.8301 24.892C13.0869 24.6943 13.4852 24.4366 13.7613 24.1895C13.9201 24.0472 14.0128 23.9064 14.1654 23.762C14.2358 23.6957 14.3996 23.5992 14.4652 23.5395C14.6356 23.3864 14.799 23.1772 14.9992 22.9762C15.1399 22.835 15.3533 22.6729 15.5128 22.5205C15.5423 22.4924 15.5376 22.4414 15.5635 22.4187C15.7002 22.299 15.8771 22.1745 16.0271 22.016C16.1003 21.9352 16.4181 21.6686 16.5956 21.523C16.7518 21.3908 17.0515 21.2017 17.3416 21.0182L17.5121 20.9082L17.5758 20.8658C17.5952 20.8527 17.6226 20.8379 17.6435 20.8256C17.7325 20.7757 17.8058 20.7398 17.9198 20.7055C17.9802 20.6872 18.0527 20.673 18.1296 20.6624C18.1673 20.6573 18.2097 20.6525 18.2421 20.6503C18.265 20.648 18.2624 20.6501 18.2703 20.6507L18.2881 20.6536C18.3358 20.6619 18.3899 20.6729 18.4293 20.669C18.5272 20.6596 18.6174 20.6111 18.6594 20.5209C18.7032 20.4307 18.6889 20.3146 18.6716 20.2349C18.6674 20.2123 18.6789 20.1725 18.6652 20.1474C18.652 20.1204 18.6159 20.0698 18.584 20.0295C18.5527 19.9872 18.4998 19.9313 18.4503 19.8986C18.428 19.8824 18.4332 19.8751 18.4102 19.8566C18.3674 19.7827 18.1976 19.5366 18.1193 19.2803C18.0435 19.0261 18.0332 18.783 17.9883 18.4586C18.052 18.4991 18.1177 18.6654 18.185 18.794C18.252 18.9244 18.3186 19.0231 18.3805 18.9801C18.3191 18.9129 18.2137 18.6401 18.1252 18.4298C18.1086 18.3905 18.0805 18.3047 18.0498 18.1798C18.0193 18.0526 17.9864 17.8962 17.9661 17.6882L17.9594 17.6026L17.9544 17.5614L17.9543 17.5601L17.9541 17.5372L17.9539 17.5337L17.9533 17.5267L17.9524 17.5126L17.9504 17.4847L17.9466 17.4287L17.936 17.2136L17.9244 16.8724C17.9203 16.801 17.898 16.6642 17.8997 16.6151C17.902 16.5428 17.9235 16.3968 17.9518 16.239L17.9958 15.9989L18.016 15.8839C18.0152 15.8756 18.0134 15.8737 18.0107 15.8702C17.9963 15.8541 17.9115 15.8489 17.934 15.8333L17.9924 15.8301C18.0008 15.83 18.0402 15.7928 18.0343 15.7874C18.1238 15.7706 18.1783 15.782 18.2203 15.8142C18.2416 15.8301 18.2596 15.8509 18.2778 15.875L18.3054 15.9135L18.32 15.9342L18.3272 15.9459C18.3293 15.9517 18.3336 15.9485 18.3328 15.967C18.4438 15.914 18.3609 15.7844 18.341 15.7275C18.3314 15.6947 18.2874 15.6868 18.2762 15.6613C18.2666 15.6392 18.2946 15.5916 18.2752 15.5784C18.2624 15.571 18.2326 15.59 18.2128 15.5937C18.1756 15.5996 18.1341 15.5948 18.0861 15.6227C18.0163 15.656 17.8761 15.7948 17.8917 15.777C17.8921 15.7764 17.936 15.7245 17.9795 15.6646C18.023 15.6055 18.0653 15.5388 18.0627 15.5425C18.1278 15.454 18.1399 15.4516 18.2321 15.3564C18.3277 15.2597 18.3518 15.2371 18.3608 15.2325C18.3693 15.2296 18.3632 15.2462 18.3897 15.2578C18.3965 15.2599 18.4574 15.2106 18.4656 15.2114C18.4938 15.2125 18.4994 15.2383 18.5213 15.2451C18.5728 15.2602 18.6531 15.2608 18.6771 15.3152C18.7006 15.3698 18.663 15.4879 18.6832 15.5564C18.6906 15.5825 18.729 15.5997 18.7426 15.639C18.7536 15.67 18.7271 15.7904 18.7962 15.7459C18.8946 15.6102 18.8476 15.5151 18.8378 15.4346C18.8348 15.3998 18.8305 15.3516 18.8212 15.3137C18.8192 15.3057 18.8156 15.2719 18.8098 15.261C18.8048 15.2512 18.7504 15.2747 18.7492 15.2703C18.7425 15.2465 18.7984 15.1615 18.7907 15.1377C18.7863 15.1256 18.7251 15.167 18.7245 15.1624C18.7181 15.1252 18.7393 15.0747 18.7265 15.0439C18.7144 15.0159 18.6935 15.0036 18.676 14.9789C18.6435 14.9388 18.6583 14.8637 18.5741 14.8937C18.5424 14.9058 18.467 14.9896 18.445 14.999C18.3793 15.0292 18.3951 14.9329 18.3323 14.9676C18.2597 15.013 18.1708 15.1187 18.0835 15.2346C18.0664 15.2558 18.0078 15.3741 18.0016 15.3844C17.9776 15.4195 18.0064 15.3192 17.9803 15.3648C17.9515 15.4166 17.9082 15.5313 17.8805 15.6344C17.8518 15.7368 17.8392 15.8265 17.8409 15.8109C17.8416 15.8047 17.8484 15.7325 17.8491 15.6582C17.8505 15.5842 17.8463 15.5088 17.8463 15.5036C17.8473 15.4052 17.8533 15.2522 17.8771 15.0913C17.9001 14.9304 17.9427 14.7629 17.9967 14.6318C18.1643 14.2261 18.4281 14.0903 18.6961 14.013C18.7584 13.9952 18.8339 13.9396 18.8842 13.9406C18.9557 13.9429 18.9808 14.0181 19.0236 14.0212C19.053 14.0235 19.1186 13.984 19.1731 13.9839C19.2294 13.9801 19.2718 14.0209 19.2506 14.1537Z" fill="#EB0029"/>
</svg>
