<svg width="24" height="34" viewBox="0 0 24 34" fill="none" xmlns="http://www.w3.org/2000/svg">
<path d="M16.439 16.3788C16.8064 16.41 17.1545 16.2342 17.4925 16.0887C17.8305 15.9433 18.2212 15.8241 18.5606 15.9651C18.516 15.9521 18.4978 16.0305 18.534 16.0592C18.5701 16.0879 18.6222 16.0824 18.6685 16.0868C18.7912 16.1012 18.8851 16.1972 18.9675 16.2891C19.2596 16.6118 19.5561 16.9546 19.6662 17.3735C19.8179 17.9553 19.5586 18.5935 19.1082 18.9989C18.6413 19.4184 18.0575 19.531 17.4622 19.6586C17.5396 19.642 17.6147 19.8876 17.5917 19.9453C17.5511 20.0472 17.28 20.0916 17.1965 20.117C16.6551 20.2804 16.3653 20.3301 15.9272 19.9484C15.8042 19.8413 15.6486 19.8932 15.509 19.9357C15.4415 19.9555 15.453 19.9387 15.4163 19.9975C15.3796 20.0563 15.3602 20.1245 15.3344 20.189C15.1525 20.6381 14.9367 21.1349 14.5155 21.4137C14.3899 21.4965 14.2411 21.5743 14.1957 21.7173C14.1004 22.0126 14.529 22.2858 14.4426 22.5836C14.407 22.7076 14.2868 22.7984 14.2663 22.9256C14.2411 23.0824 14.3614 23.2844 14.2305 23.3785C14.1198 23.4566 13.9782 23.3426 13.8801 23.2496C13.595 22.9821 13.2176 22.8308 12.8238 22.8262C13.2005 23.0045 13.6254 23.2449 13.6825 23.6543C13.7055 23.8199 13.6618 23.9838 13.6186 24.1442C13.5206 24.5072 13.4226 24.8701 13.3246 25.233C13.2933 25.3492 13.2582 25.4717 13.1702 25.5548C12.7905 25.9136 12.1237 25.3097 11.969 24.9871C12.0007 25.1682 12.0699 25.3409 12.1724 25.4946C12.2749 25.6482 12.4084 25.7794 12.5646 25.8799C12.7013 25.9672 12.8594 26.0301 13.0222 26.0259C13.2941 26.019 13.3171 25.8253 13.4127 25.6119C13.5422 25.7787 13.633 25.9714 13.6786 26.1764C13.7243 26.3815 13.7236 26.594 13.6767 26.7988C13.6206 27.0298 13.5085 27.2566 13.5365 27.4921C13.5646 27.7154 13.7218 27.9044 13.7722 28.1244C13.8412 28.4258 13.703 28.7396 13.738 29.0468C13.7689 29.3156 13.9289 29.5552 13.9771 29.8215C14.0519 30.2355 13.8538 30.6893 14.0382 31.0685C14.1245 31.246 14.2927 31.4033 14.2764 31.5993C14.2669 31.7141 14.1943 31.8126 14.1469 31.9178C14.0996 32.0229 14.0839 32.1618 14.1696 32.2399C14.1416 32.4648 14.328 32.6721 14.5421 32.7552C14.7562 32.8382 14.9931 32.838 15.2209 32.8697C15.5828 32.9219 15.9247 33.061 16.2728 33.1717C16.8365 33.3509 17.4216 33.4565 18.0132 33.4857C18.0631 33.608 17.9653 33.7493 17.8411 33.7982C17.717 33.847 17.5774 33.8294 17.4448 33.8125C16.6129 33.7076 15.7737 33.6683 14.9353 33.695C14.9556 33.7457 14.987 33.7915 15.0273 33.8289C15.0676 33.8663 15.1158 33.8945 15.1685 33.9113C14.9799 34.0405 14.7218 34.0113 14.5062 33.9331C14.2907 33.855 14.0895 33.7339 13.8642 33.6897C13.6035 33.6387 13.3005 33.6842 13.1013 33.5111C13.0004 33.4231 12.948 33.2942 12.8992 33.1703C12.7994 32.9172 12.7229 32.6299 12.5993 32.3886C12.2613 31.7298 11.7843 31.2628 11.6083 30.5102C11.4847 29.9811 11.4449 29.4368 11.3524 28.9016C11.1402 27.6695 10.7546 26.4805 10.4463 25.2711C10.1694 24.1858 10.1977 22.9419 9.2392 22.1939C8.88831 21.9201 8.49341 21.6565 8.32273 21.2489C8.52504 21.738 8.84196 22.173 9.24761 22.5185C8.95053 22.2665 8.40204 22.1779 8.04919 22.014L6.52846 21.3088C6.40655 21.2522 6.28155 21.1937 6.1871 21.0985C6.08144 20.9922 6.0237 20.8501 5.96148 20.7148C5.74708 20.2473 5.45504 19.8181 5.22999 19.3555C4.85247 18.5794 5.1602 17.3346 4.41525 16.7454C4.25102 16.6151 4.02933 16.5245 3.95926 16.3289C3.88723 16.1285 3.96318 15.8238 3.75719 15.7608C3.69777 15.7429 3.63107 15.7562 3.57361 15.7332C3.3693 15.648 3.53858 15.2671 3.3494 15.1536C3.3054 15.126 3.25103 15.123 3.2059 15.0984C3.09828 15.0394 3.08539 14.8906 3.11257 14.7719C3.13976 14.6533 3.19245 14.5343 3.16863 14.4153C3.12799 14.2221 2.9105 14.1291 2.75159 14.0082C2.59268 13.8873 2.49935 13.6044 2.6818 13.5194L2.22497 13.3287C2.23515 13.1848 2.22573 13.0402 2.19694 12.8987C2.01225 12.9732 1.86875 12.7331 1.80121 12.5493C1.56326 11.899 1.1594 11.3144 0.841854 10.7014C0.46465 9.97356 0.201399 9.19368 0.0610311 8.38827C0.00497778 8.06341 -0.0308961 7.72862 0.0372087 7.40625C0.105313 7.08388 0.29169 6.77144 0.587372 6.61798C0.883053 6.46453 1.23983 6.4855 1.57055 6.53518C1.81186 6.4648 1.95227 6.50289 2.13108 6.67788C2.21516 6.76068 2.27934 6.86556 2.37547 6.93566C2.56101 7.0709 2.81521 7.04606 3.04559 7.02868C3.45029 6.99914 3.84575 7.07422 4.24037 7.15315C4.53128 7.21139 4.92085 7.38638 5.1602 7.12859C5.30033 6.97817 5.3435 6.76565 5.36872 6.56333C5.42501 6.1074 5.41416 5.64586 5.33649 5.19298C5.31098 5.04477 5.27875 4.89076 5.32276 4.74696C5.39422 4.51346 5.63862 4.38236 5.86115 4.27555C5.94523 4.23525 6.03575 4.19275 6.12768 4.20958C6.19134 4.22474 6.25036 4.25475 6.29976 4.29708C6.58195 4.51187 6.81074 4.78714 6.96876 5.10201C7.12678 5.41688 7.20988 5.76306 7.21175 6.11428C7.21175 6.51089 7.10497 6.9122 7.18961 7.30109C7.24174 7.53956 7.3631 7.7576 7.43344 7.9911C7.51584 8.2671 7.52565 8.55608 7.5349 8.84229C7.54499 9.15583 7.52173 9.5323 7.24623 9.68934C7.10273 9.77214 6.92728 9.76745 6.76164 9.76165L5.75268 9.72605C5.63049 9.72164 5.50493 9.71639 5.39422 9.66588C5.3399 9.64132 5.29269 9.60374 5.2569 9.55659C5.22112 9.50944 5.19789 9.45421 5.18935 9.39595C4.87657 9.46633 4.3009 9.47351 4.05315 9.24332C3.9971 9.19033 3.95085 9.12326 3.88247 9.08517C3.84715 9.06558 3.80763 9.05481 3.77232 9.03549C3.72073 9.00389 3.6762 8.96229 3.64144 8.91322C3.39888 8.60144 3.27724 8.21467 3.29839 7.82246C3.25607 7.79679 3.21431 7.85779 3.20506 7.90526C3.15825 8.15261 3.19333 8.40822 3.30512 8.63446C3.39929 8.82435 3.5439 8.98498 3.68684 9.14313C4.1874 9.69707 4.66777 10.2717 5.22466 10.7743C5.43654 10.9659 5.72662 11.2866 6.00941 11.3683C6.31322 11.4552 6.626 11.2623 6.92616 11.4331C6.8943 11.4077 6.85765 11.3886 6.81831 11.3771C6.77897 11.3656 6.73772 11.3619 6.6969 11.3661C6.84432 11.4552 7.01753 11.4331 7.17784 11.3691C7.33815 11.3051 7.4738 11.1938 7.60665 11.0845C8.32946 10.4881 9.16885 10.0515 9.86728 9.41969C10.0702 9.23642 10.2625 9.04074 10.4839 8.87817C10.9724 8.51771 11.5343 8.24336 12.0391 7.90416C12.6058 7.52245 12.9662 6.96161 13.4788 6.53215C13.9656 6.12421 14.4791 5.78556 14.8709 5.26447C15.0584 5.01606 15.2139 4.74006 15.4314 4.51705C15.6321 4.31033 15.8798 4.15355 16.0906 3.95677C16.2963 3.76494 16.4642 3.53779 16.6458 3.32334C16.9437 2.97088 17.2786 2.65072 17.613 2.33139C17.7251 2.22485 17.8411 2.11527 17.9883 2.06615C18.1424 2.01481 18.3005 2.06035 18.4182 2.16192C18.5401 2.02392 18.6407 1.86218 18.7472 1.71065C18.7772 1.66787 18.8086 1.62178 18.8117 1.56962C18.8139 1.52932 18.7988 1.48958 18.798 1.44928C18.8013 1.39082 18.8218 1.33455 18.8568 1.28727C18.9279 1.17688 19.0177 1.07932 19.1222 0.998844C19.4207 0.769762 19.8434 0.673437 20.0289 0.348858C20.1948 0.0587789 20.2018 -0.0886069 20.555 0.0565706C20.8568 0.180772 21.0925 0.415374 21.2556 0.689169C21.4541 1.02175 21.5575 1.39905 21.6858 1.76365C21.8375 2.19504 22.0266 2.61622 22.1169 3.06417C22.2071 3.51212 22.1878 4.00258 21.944 4.39037C21.7001 4.77815 21.1903 5.02517 20.7542 4.86923C20.6537 4.837 20.5647 4.7768 20.4981 4.6959C20.4199 4.5935 20.3969 4.46185 20.3616 4.33875C20.2917 4.10168 20.1702 3.88241 20.0057 3.69616C19.8411 3.50991 19.6374 3.36113 19.4087 3.26013C19.2147 3.17733 18.9695 3.08818 18.9412 2.88118C18.9314 3.06886 19.0468 3.24551 19.1979 3.36032C19.37 3.4906 19.7792 3.60873 19.5062 3.92089C19.3616 4.08649 19.1108 4.10939 18.8896 4.10167C18.6685 4.09394 18.428 4.07186 18.2374 4.18447C18.5317 4.13975 18.7512 4.21207 18.6102 4.45385C18.4855 4.66692 18.2209 4.90594 18.067 5.12177C17.8367 5.44442 17.5065 5.68068 17.2024 5.93847C16.6438 6.41319 16.5048 7.06704 16.0424 7.60552C15.8241 7.85972 15.5138 8.15035 15.1539 8.12606C14.9281 8.11116 14.717 8.01401 14.5124 7.91879C14.5393 8.01412 14.5978 8.09785 14.6786 8.15666C14.7594 8.21548 14.8579 8.24599 14.9583 8.24336C14.9883 8.6179 14.4196 8.77053 14.3137 9.13154C14.2961 9.19171 14.2924 9.25574 14.2675 9.31315C14.2148 9.43432 14.0828 9.49807 13.9656 9.56155C13.6819 9.71864 13.436 9.93413 13.2445 10.1933C12.8597 10.7152 12.6988 11.3503 12.3151 11.87C11.9387 12.3804 11.4522 12.7999 11.0677 13.3036C10.9516 13.4554 10.8434 13.6191 10.8 13.804C10.1526 13.4728 9.43118 13.1286 8.72183 13.2989C8.94969 13.303 9.18315 13.3083 9.39615 13.3886C9.56151 13.4507 9.70612 13.5542 9.86055 13.6398C10.1903 13.8166 10.5562 13.9184 10.9312 13.9376C11.298 13.95 11.6503 13.7662 12.0049 13.9586C12.1543 14.0394 12.268 14.1713 12.4093 14.2655C12.5394 14.3527 12.69 14.4056 12.8468 14.4192C13.2092 14.4493 13.5721 14.2862 13.9247 14.226C14.2691 14.1678 14.4196 14.0328 14.6102 13.7262C15.1007 12.9414 15.6865 12.2185 16.3546 11.5733C16.7016 11.238 16.9356 10.6711 17.1971 10.2607L18.192 8.69767C18.3355 8.47217 18.4874 8.23867 18.7189 8.10177C18.8097 8.04823 18.9132 8.00904 18.9829 7.93065C19.1489 7.74352 19.0555 7.41756 19.2315 7.24065C19.4076 7.06373 19.7327 7.14487 19.9207 6.98286C20.0833 6.84293 20.1589 6.55975 20.2601 6.37372L20.5084 6.56996L21.2186 5.53191C21.3027 5.40799 21.393 5.27992 21.5244 5.2054C21.7304 5.08838 21.9874 5.1284 22.2211 5.08617C22.6415 5.00972 23.0306 4.65974 23.4442 4.77042C23.4367 4.62883 23.3075 4.5292 23.2175 4.41852C23.1275 4.30784 23.0905 4.1116 23.2197 4.04867C23.2503 4.03506 23.2838 4.02882 23.3173 4.03046C23.7937 4.03819 24.1581 5.05526 23.9305 5.40633C23.8047 5.59953 23.5468 5.67902 23.4173 5.87057C23.3313 5.99753 23.308 6.16534 23.1931 6.26884C23.0286 6.41816 22.771 6.36158 22.5485 6.3671C22.1497 6.37731 21.7977 6.61219 21.4714 6.83823C21.5075 6.89343 21.5438 6.94946 21.5805 7.00632C21.2578 7.21738 21.0316 7.54421 20.9501 7.91713C21.2192 8.0877 21.1825 8.48128 21.0995 8.78599C20.8456 9.71667 20.4939 10.7315 19.8801 11.4908C19.1189 12.4342 18.4572 13.4463 17.6878 14.3982C17.6175 14.4852 17.5404 14.5762 17.4322 14.6083C17.208 14.6745 17.0118 14.462 16.8302 14.3138C16.5547 14.0877 16.1366 13.9878 15.8342 14.1777C16.097 14.0121 16.8625 14.7587 16.9471 14.9533C17.0497 15.1887 16.9774 15.5127 16.7383 15.6137C16.638 15.6562 16.5046 15.6689 16.4642 15.7697C16.416 15.8884 16.5502 16.02 16.5107 16.1417C16.4936 16.1944 16.4449 16.2428 16.46 16.296C16.4681 16.3236 16.4931 16.3465 16.4936 16.3755C16.4942 16.4045 16.4376 16.4186 16.4415 16.3896" fill="#EB0029"/>
</svg>
