<svg width="34" height="35" viewBox="0 0 34 35" fill="none" xmlns="http://www.w3.org/2000/svg">
<path fill-rule="evenodd" clip-rule="evenodd" d="M24.0339 16.5669C24.0612 16.536 23.8939 16.6301 23.7079 16.7341C23.5224 16.8385 23.3164 16.9516 23.285 16.973C23.1458 17.0694 23.1193 17.2181 22.9009 17.3575C22.7603 17.4462 22.6328 17.5046 22.4581 17.5829C22.2802 17.66 22.0661 17.7611 21.6856 17.9104C21.3835 18.0218 21.065 18.1564 20.5816 18.2183C20.339 18.2446 20.0437 18.2515 19.6865 18.159C19.5096 18.1124 19.3194 18.039 19.134 17.9313C18.949 17.824 18.7712 17.6835 18.6213 17.524C18.4817 17.376 18.3598 17.2014 18.2648 17.0214C18.2406 16.9757 18.2201 16.933 18.1975 16.8844L18.1606 16.7985L18.1347 16.7338L18.1226 16.7026L18.1002 16.6393L18.0828 16.5858C18.0603 16.5141 18.0405 16.4381 18.0249 16.3591C17.959 16.0441 17.9717 15.6837 18.0477 15.383C18.1221 15.079 18.2422 14.8334 18.3604 14.6335C18.3653 14.623 18.4798 14.4366 18.6017 14.2849C18.7239 14.1288 18.8488 13.9977 18.8877 13.9541C18.9373 13.8977 18.9763 13.7825 19.015 13.7461C19.1373 13.6291 19.2844 13.5196 19.4217 13.424L19.5947 13.3049C19.6114 13.2937 19.6266 13.2817 19.6382 13.2682C19.6983 13.1997 19.6951 13.1251 19.7318 13.0657C19.7425 13.0502 19.7668 12.9877 19.7585 12.9958C19.7789 12.9752 19.832 12.9883 19.8536 12.9576C19.912 12.8756 19.9265 12.7439 19.9286 12.6387C19.9319 12.5328 19.9432 12.4407 19.894 12.3544C19.8806 12.3308 19.7769 12.3594 19.7747 12.3561C19.7644 12.3329 19.8655 12.2296 19.8457 12.204C19.8205 12.1735 19.734 12.1768 19.6681 12.1782C19.6012 12.1768 19.5609 12.171 19.5981 12.0355C19.6161 11.9713 19.8042 11.6512 19.806 11.5629C19.8067 11.5508 19.7602 11.5312 19.7651 11.5201C19.8024 11.4328 19.9727 11.212 20.1808 11.0475C20.3862 10.8781 20.6236 10.7751 20.6937 10.7627C20.8605 10.7265 21.0357 10.8308 21.2086 10.9004C21.2548 10.9189 21.2583 10.937 21.3028 10.9833C21.3012 10.9789 21.3803 11.0721 21.3854 11.0773C21.4521 11.1127 21.6099 10.9951 21.6569 11.0471C21.7411 11.1439 21.6771 11.3733 21.7225 11.4771C21.7643 11.5703 21.8475 11.6193 21.8747 11.7209C21.8895 11.7779 21.8233 11.9064 21.8292 11.973C21.8311 11.9996 21.9439 11.9169 21.9499 11.9399C21.9568 11.9675 21.8634 12.095 21.8626 12.1266C21.8571 12.3741 21.788 12.6289 21.7564 12.8332C21.9696 12.6485 22.0979 12.4516 22.1714 12.2695C22.2461 12.086 22.2674 11.9169 22.2959 11.752C22.3404 11.4857 22.3559 11.2432 22.3319 10.9961C22.3062 10.7505 22.2411 10.4966 22.0829 10.2452C21.9892 10.1042 21.8791 10.0003 21.6635 9.81046C21.448 9.62899 21.1994 9.55689 20.9217 9.43141C20.88 9.41298 20.7956 9.46508 20.7611 9.40421C20.6857 9.27426 20.7176 9.32203 20.4884 9.27944C20.3675 9.25943 20.2978 9.15208 20.2742 8.98787C20.2519 8.82497 20.2747 8.60493 20.3711 8.39137C20.4802 8.14427 20.772 8.17795 21.0588 8.25624C21.3444 8.33078 21.6103 8.45584 21.6625 8.28401C21.7538 7.98669 21.4654 7.76781 21.1466 7.66117C20.8254 7.54993 20.5013 7.55194 20.4154 7.51783C20.0857 7.38961 19.8729 7.09042 19.7701 7.05545C19.7069 7.03502 19.6607 7.13921 19.6029 7.15043C19.4642 7.17749 19.2703 7.11158 19.109 7.02379C18.9454 6.93701 18.8235 6.82462 18.7699 6.79598C18.7376 6.77943 18.7112 6.73568 18.7049 6.67812C18.6989 6.62027 18.7134 6.55004 18.7199 6.47621C18.7268 6.40224 18.7304 6.32367 18.7121 6.24639C18.7026 6.20796 18.6878 6.16939 18.66 6.13529C18.6329 6.10205 18.5888 6.07096 18.5249 6.07197C18.4697 5.88373 18.4423 5.63923 18.4178 5.37213C18.3923 5.10647 18.3696 4.81981 18.3017 4.56437C18.2222 4.27237 18.1926 4.03291 18.2028 3.81431C18.2116 3.597 18.2647 3.40963 18.3155 3.26802C18.4228 2.9838 18.4546 2.84565 18.4385 2.40658C18.4194 2.16207 18.3669 1.86864 18.2701 1.76906C18.2061 1.7007 18.1599 1.761 18.1323 1.83151C18.1026 1.90404 18.0852 1.98535 18.0333 2.00996C17.9039 2.07299 17.7699 2.17474 17.6499 2.30109C17.5294 2.42932 17.4159 2.58517 17.3218 2.79902C17.2577 2.94826 17.2474 3.24932 17.1874 3.4351C17.1069 3.70378 17.0648 3.76696 17.0442 3.99088C17.0163 4.35253 17.0989 4.8519 17.1669 5.12605C17.257 5.50439 17.3769 5.64067 17.5699 5.93856C17.7339 6.20264 18.0236 6.59494 18.2427 6.8157L18.6331 7.21577C18.7561 7.33881 18.8595 7.43005 18.9252 7.41969C19.0713 7.39752 19.0706 7.31132 19.0494 7.22138C19.0288 7.13143 18.9875 7.03717 19.0732 7.00206C19.2228 7.03631 19.2153 7.13877 19.2158 7.26297C19.2156 7.38745 19.2257 7.53352 19.3818 7.65368C19.4581 7.71326 19.6475 7.6852 19.8493 7.64188C20.0505 7.59554 20.262 7.54921 20.3482 7.50589C20.4072 7.47063 20.5618 7.36831 20.6416 7.26613C20.7369 7.14007 20.8011 6.87988 20.8768 6.61192C20.9136 6.47895 20.951 6.34569 20.9915 6.23473C21.0308 6.12392 21.0757 6.03613 21.1033 5.99742C21.1255 5.96547 21.126 5.98274 21.0932 6.01268C21.0601 6.04275 20.983 6.07341 20.8876 6.08291C20.8034 6.09197 20.6864 6.05858 20.5215 6.06074C20.3578 6.06276 20.1456 6.10075 19.906 6.25157C19.6551 6.40771 19.8408 6.43966 19.5363 6.46153C19.4633 6.46643 19.2316 6.58861 18.995 6.72503C18.7574 6.86175 18.5178 7.01703 18.3933 7.10539C18.1752 7.26426 17.9842 7.32125 17.7833 7.49323C17.7324 7.53669 17.6736 7.76694 17.6424 7.79788C17.5633 7.87329 17.4355 7.88538 17.3612 7.96842C17.2003 8.1483 16.987 8.39209 16.8521 8.71747C16.8188 8.79849 16.7908 8.88383 16.7692 8.97219L16.7614 9.00543L16.7575 9.02198C16.7589 9.02687 16.7654 9.03062 16.769 9.03493L16.822 9.08415C16.8578 9.11624 16.8949 9.14689 16.9325 9.17668C17.083 9.29527 17.2413 9.39831 17.3937 9.49501C17.4486 9.52984 17.6099 9.69721 17.6457 9.71966C17.8233 9.83104 18.0196 9.88112 18.1975 10.0163C18.3592 10.1423 18.5001 10.151 18.8053 10.3467C18.8917 10.4025 19.0084 10.5474 19.0547 10.5831C19.2408 10.7242 19.4236 10.8499 19.5892 11.0261C19.6707 11.1141 19.7465 11.2166 19.7967 11.3402C19.8473 11.4633 19.8674 11.6082 19.8435 11.7576C19.8274 11.8715 19.7644 12.0077 19.6777 12.0871C19.5502 12.2035 19.3787 12.23 19.229 12.2368C19.0762 12.2418 18.9316 12.2244 18.7971 12.2018C18.5315 12.1549 18.2887 12.0854 18.1562 12.0191C18.1077 11.9934 18.0888 11.9552 18.1983 11.9375C18.2392 11.9307 18.3841 11.9399 18.4664 11.9366C18.5469 11.9326 18.5647 11.9205 18.3022 11.8648C18.1005 11.8218 17.8101 11.7639 17.4811 11.7092C17.1525 11.6567 16.785 11.6036 16.4331 11.6214C16.3654 11.6253 16.2983 11.6322 16.233 11.6432C16.2001 11.6489 16.1679 11.6554 16.1361 11.6635C16.1326 11.6646 16.1272 11.6649 16.1252 11.6668L16.1321 11.6781L16.1457 11.7007L16.1732 11.7455C16.2473 11.8641 16.3259 11.9757 16.4036 12.0796C16.5429 12.2649 16.6569 12.3506 16.8575 12.5897C16.8263 12.5522 16.8333 12.6416 16.889 12.6861C17.0296 12.8021 17.2921 13.0918 17.4981 13.4528C17.5165 13.4832 17.5627 13.5757 17.5958 13.6475C17.6308 13.7224 17.6659 13.8081 17.6968 13.8907C17.7588 14.058 17.8069 14.2305 17.8386 14.4015C17.9032 14.7437 17.8961 15.0763 17.8604 15.3438C17.8542 15.3857 17.8947 15.3664 17.8551 15.5461C17.8341 15.6449 17.7511 15.8086 17.7703 15.7305L17.7242 15.9101L17.6797 16.0657L17.6644 16.1227L17.6391 16.1996C17.6236 16.2463 17.6079 16.291 17.5912 16.3338C17.525 16.5054 17.4507 16.6593 17.3248 16.8379C17.2087 17.0024 17.0373 17.1962 16.8525 17.3731C16.668 17.5514 16.4713 17.7154 16.3087 17.85C15.7953 18.2725 15.2998 18.627 14.8349 18.9547L14.169 19.4234C13.9432 19.5828 13.7158 19.7364 13.4833 19.8809C13.0253 20.1662 12.9167 20.132 12.1602 20.7165C11.9901 20.8479 11.8628 20.9966 11.6742 21.1137C11.6647 21.1206 10.7556 21.6002 10.6829 21.6186C10.1376 21.7605 10.6916 20.8528 9.52746 21.8896C9.3824 22.0179 9.35247 22.1113 9.20151 22.2437C9.05587 22.3725 8.71667 22.5952 8.57377 22.7162C8.37877 22.8807 8.2884 23.0256 8.23961 23.0646C8.1619 23.1279 8.0708 23.1966 7.97323 23.2679L7.67448 23.4848C7.46825 23.6336 7.26045 23.7811 7.10502 23.904C7.04588 23.9506 7.05768 24.0108 7.01119 24.0484C6.82584 24.1974 6.53485 24.3637 6.23034 24.5893C6.06527 24.7114 5.92079 24.8406 5.72536 24.9803C5.60462 25.0675 5.27909 25.2491 5.31464 25.2238C4.83513 25.5535 4.81181 25.6732 4.38426 25.8603C4.25877 25.8917 4.19458 25.8716 4.1776 25.8124C3.40956 26.1038 4.58242 25.6849 3.89036 25.9582C3.7027 26.0303 3.62945 26.0238 3.42308 26.1053C3.28809 26.111 3.56843 25.9572 3.65463 25.8428C3.71436 25.7651 3.64226 25.7017 3.72126 25.6178C3.9013 25.4296 4.39807 25.1245 4.33763 25.1013C4.16264 25.0366 3.74731 25.2605 3.31386 25.5075C2.88256 25.7571 2.42161 26.0188 2.21553 26.1056C2.01017 26.1956 1.80539 26.2722 1.59341 26.3283C1.38129 26.3832 1.16182 26.4232 0.923364 26.4085C0.804494 26.3997 0.679724 26.3773 0.556681 26.3221C0.433926 26.2683 0.315488 26.1784 0.228278 26.0617C0.0524202 25.8241 0.00622474 25.5324 0.000900071 25.2585C-0.0169448 24.6846 0.230149 24.0455 0.778446 23.4963C0.965386 23.3098 1.05677 23.2416 1.16182 23.1491C1.2676 23.0568 1.52404 22.8638 1.82669 22.6815C2.12861 22.4972 2.475 22.3219 2.73505 22.2021C2.95883 22.0977 3.24982 21.9799 3.4959 21.8913C3.46755 21.9015 3.55001 21.8129 3.64211 21.809C3.97555 21.797 3.95094 21.7161 4.26424 21.597C4.61207 21.4704 4.85081 21.4516 5.38371 21.323C5.46171 21.3041 5.6488 21.2138 5.70276 21.204C6.05779 21.1385 6.43685 21.092 6.92629 21.0877C7.2957 21.09 7.688 21.1169 8.05684 21.1296C8.59809 21.1478 9.06666 21.1535 9.55078 21.1389C10.0326 21.1224 10.5361 21.0945 11.0898 20.9865C11.1342 20.979 11.4013 20.969 11.589 20.898C11.6611 20.8713 11.7124 20.8507 11.7776 20.8235C11.8407 20.7969 11.9066 20.7668 11.9739 20.734C12.107 20.6678 12.2531 20.5909 12.3556 20.4715C12.4575 20.3516 12.5041 20.2048 12.5622 20.0841L12.6797 19.8312C12.7253 19.7375 12.7689 19.6561 12.8067 19.59C12.9741 19.3028 13.0855 19.1515 13.1785 19.0367C13.2727 18.9227 13.3487 18.8443 13.4788 18.7243C13.6338 18.5827 13.7796 18.549 13.8541 18.6006C13.9295 18.6526 13.934 18.784 13.8413 18.9892C13.8002 19.0683 13.6322 19.388 13.628 19.4391C13.6135 19.553 13.7649 19.4503 13.7768 19.5268C13.7797 19.5658 13.6667 19.8873 13.718 19.8501C13.851 19.7479 14.0395 19.4353 14.291 19.112C14.5377 18.7853 14.8595 18.4587 15.1225 18.2547C15.401 18.0338 15.7274 17.8621 16.0466 17.7334C16.3666 17.6042 16.6782 17.5145 16.943 17.4235C17.0184 17.3967 17.3494 17.3408 17.7367 17.3393C18.1239 17.3338 18.5614 17.3888 18.8432 17.4394C19.0321 17.4717 19.2528 17.4971 19.4796 17.5557C19.6125 17.5891 19.8039 17.692 19.93 17.733C19.9838 17.7504 20.068 17.7213 20.103 17.734C20.3214 17.815 20.6795 17.9984 20.9575 18.0926C21.2075 18.1774 21.352 18.1788 21.5601 18.2491C21.8367 18.341 21.955 18.4278 22.2783 18.5418C22.737 18.7032 23.3614 18.8375 23.9271 19.0127C24.454 19.176 25.0207 19.3923 25.5578 19.5774C26.0282 19.7391 26.5886 19.9207 27.1005 20.114C27.6122 20.3064 28.0747 20.5108 28.3516 20.6849C28.536 20.8003 28.338 20.7768 28.4377 20.8764C28.5422 20.9795 28.8803 21.1808 28.7875 21.2372C28.7305 21.2703 28.4144 21.2512 28.4023 21.3182C28.401 21.3272 28.5637 21.4331 28.5106 21.4472C28.4709 21.456 28.0024 21.4052 27.855 21.4082C27.7269 21.4089 27.6729 21.4211 27.522 21.4135C27.2452 21.402 27.1208 21.3958 27.5505 21.7268C27.6542 21.8072 27.9101 22.0199 28.0307 22.0975C28.0857 22.1322 28.1664 22.1762 28.2608 22.2263L28.5544 22.3822C28.681 22.451 28.8127 22.5272 28.8924 22.5884C29.041 22.7014 29.0977 22.793 29.1715 22.8496C29.3243 22.966 29.5172 23.1224 29.7032 23.2963C29.7948 23.3846 29.892 23.4706 29.9703 23.5687C30.047 23.668 30.1124 23.7709 30.1719 23.8657C30.2629 24.0127 30.4077 24.1564 30.4726 24.2842C30.6201 24.579 30.7578 24.8941 30.8757 25.2299C30.9889 25.5652 31.1004 25.9262 31.1017 26.3128C31.101 26.5023 31.0528 26.7067 30.9239 26.8369C30.7965 26.9673 30.6309 27.0146 30.4834 27.0411L30.4553 27.0456C30.4485 27.0444 30.4305 27.0549 30.4352 27.0417C30.4352 27.0247 30.4357 27.0077 30.4369 26.9907C30.4393 26.9569 30.4445 26.9231 30.4518 26.8897C30.4667 26.8228 30.491 26.7573 30.5228 26.6943C30.5865 26.5681 30.6788 26.4517 30.783 26.343C30.9076 26.2051 30.9409 25.9435 31.0917 25.6213C31.1697 25.4463 31.2484 25.2752 31.2847 25.0957C31.289 25.0734 31.2931 25.051 31.2962 25.0285C31.3011 25.0079 31.2924 25.0267 31.2868 25.0367L31.2691 25.0688L31.1957 25.1985C31.1449 25.2854 31.0902 25.3731 31.0291 25.4587C30.9316 25.5944 30.8122 25.7186 30.6926 25.8382C30.572 25.9569 30.4533 26.0762 30.3325 26.1874C30.2784 26.2322 30.2892 26.3108 30.1869 26.3113C30.1682 26.3113 30.1178 26.2934 30.0819 26.2672C30.0459 26.2415 30.0216 26.2169 30.0406 26.227C29.9834 26.1991 29.9631 26.1546 29.9503 26.122C29.9382 26.0879 29.9356 26.0592 29.9343 26.0314C29.9325 25.9755 29.9359 25.9221 29.923 25.8136C29.9063 25.6732 29.8896 25.4643 29.8791 25.2248C29.8706 24.9855 29.8614 24.7154 29.8153 24.4621C29.7314 23.9524 29.5334 23.5255 29.4884 23.4602C29.4982 23.4744 29.3784 23.3629 29.3794 23.3658C29.395 23.3831 29.278 23.2717 29.3013 23.2757C29.2522 23.2714 29.3387 23.5012 29.302 23.4675C29.1358 23.303 28.9029 22.9115 28.5753 22.5274C28.2558 22.1414 27.8373 21.736 27.5722 21.4783C27.3683 21.2774 27.033 21.0097 26.647 20.7216C26.2592 20.4348 25.8361 20.1105 25.4091 19.8091C25.0182 19.5304 24.5938 19.2281 24.207 18.9747C23.8221 18.7222 23.4777 18.5219 23.302 18.4717C23.1852 18.4383 23.194 18.5342 23.2261 18.6411C23.2568 18.7473 23.3093 18.8643 23.2431 18.8574C23.09 18.8462 22.8045 18.6894 22.4352 18.5629C22.2521 18.5021 22.0468 18.449 21.8502 18.4547C21.6535 18.458 21.4766 18.5356 21.3799 18.6713C21.2841 18.8018 21.3916 19.0839 21.3871 19.2479C21.378 19.4261 21.3472 19.7214 21.3795 20.0462C21.409 20.3702 21.4903 20.723 21.629 20.9957C21.7551 21.244 21.978 21.5081 22.198 21.752C22.4188 21.9972 22.6361 22.2223 22.7673 22.4271C22.9763 22.7542 23.1444 23.1108 23.3058 23.5031C23.3863 23.6989 23.4634 23.904 23.5403 24.1144C23.6194 24.3238 23.713 24.5322 23.8164 24.7352C24.2152 25.516 24.7398 26.2604 24.7762 27.158C24.7808 27.2662 24.7755 27.3803 24.7614 27.4992C24.7611 27.5498 24.7216 27.65 24.7851 27.6165C24.8257 27.6111 24.8654 27.6037 24.9054 27.5953C25.0647 27.5611 25.2296 27.5131 25.4245 27.4311C25.8533 27.2496 26.3288 26.9802 26.758 26.729C27.1904 26.4754 27.5788 26.239 27.9225 26.0651C28.0662 25.9926 28.2339 25.9861 28.4024 25.8671C28.495 25.8013 28.5803 25.7269 28.6603 25.6446C28.7386 25.561 28.8188 25.4735 28.873 25.3601C28.8851 25.3316 28.896 25.2998 28.8917 25.2666C28.8883 25.232 28.8603 25.2074 28.835 25.1863C28.7821 25.1438 28.719 25.115 28.6537 25.0897C28.5217 25.0409 28.3762 25.0104 28.2119 24.9905C28.0991 24.9772 27.9792 24.9671 27.853 24.9596L27.5574 24.9412L27.2078 24.9236C26.7377 24.9033 26.2481 24.8948 25.7584 24.8876C25.5162 24.8838 25.2649 24.8809 25.047 24.8721L24.6743 24.8511C24.54 24.8445 24.4068 24.8412 24.2739 24.8384C24.0087 24.8348 23.7472 24.839 23.4916 24.8486L23.1031 24.8669L22.6351 24.8983C22.0723 24.9425 21.6576 24.9664 21.1622 25.0208C20.8053 25.0603 20.4662 25.1061 20.1205 25.1399C19.779 25.1788 19.4078 25.1801 18.8976 25.1083C18.7823 25.0923 18.6586 25.0733 18.5051 25.0429L18.0361 24.9515C17.7047 24.8848 17.3635 24.8263 17.0991 24.803L16.8115 24.7852C16.7163 24.7793 16.6412 24.7842 16.557 24.7834C16.3852 24.7813 16.256 24.797 16.1162 24.8069C15.8621 24.8355 15.6438 24.8747 15.4658 24.9144C15.278 24.9541 15.1295 24.9895 14.9814 25.0094C14.8343 25.0298 14.693 25.0377 14.5462 25.0346C14.1552 25.0254 13.7279 24.9448 13.41 24.8825C13.0462 24.8101 12.7299 24.7299 12.4072 24.6534C12.0863 24.5768 11.7607 24.5041 11.421 24.4441L11.0529 24.3874L10.7815 24.3271C10.6854 24.3175 10.5381 24.3273 10.2781 24.331C10.083 24.3342 9.83428 24.3448 9.5584 24.3834C9.35261 24.4468 9.14221 24.5483 8.96607 24.6787L8.93311 24.7027C8.93945 24.7188 8.94894 24.7365 8.95671 24.7531L9.00449 24.8525L9.09789 25.0366C9.15862 25.1526 9.21518 25.255 9.26468 25.3404C9.36528 25.5151 9.55682 25.8068 9.7842 26.1031C10.01 26.4001 10.2742 26.7002 10.4922 26.9366C10.8487 27.3255 11.1701 27.6196 11.3288 27.8112C11.4884 28.002 11.4812 28.0971 11.2175 28.0576C11.2637 28.0656 10.9205 27.9637 10.9313 27.9675C10.8363 27.9224 10.6325 27.7418 10.5374 27.6881C10.2656 27.5367 10.1093 27.4928 9.95056 27.3779C9.85284 27.3082 9.59884 27.0181 9.40931 26.8324C9.35865 26.7834 9.25921 26.7491 9.21964 26.7074C9.16236 26.6471 9.09731 26.5276 9.0432 26.4701C8.89253 26.3086 8.78891 26.2682 8.61018 26.0704C8.49793 25.9468 8.32236 25.6659 8.20306 25.5154C7.97913 25.2391 7.68944 24.8383 7.5192 24.6334C7.43415 24.5316 7.38018 24.4843 7.38176 24.5338C7.3832 24.5824 7.44134 24.7318 7.57431 24.9992C7.64282 25.1372 7.80155 25.3427 7.92819 25.5954C8.13527 26.0029 8.19471 26.2434 8.36323 26.5046C8.52815 26.7585 8.74632 26.9696 8.96852 27.2154C9.2926 27.5664 9.48285 27.8168 9.89875 28.1416C10.0949 28.2918 10.1742 28.3406 10.251 28.3983C10.3296 28.455 10.4034 28.5211 10.6157 28.6887C10.9592 28.9563 11.3076 29.1215 11.8569 29.4227C12.4641 29.7515 13.0982 30.076 13.8856 30.3646C14.3066 30.518 14.761 30.6593 15.2499 30.793C15.7514 30.9317 16.216 31.0276 16.7487 31.1358C17.3316 31.2529 18.0082 31.381 18.7774 31.5033C19.1555 31.569 19.5884 31.6035 20.0064 31.6412C20.4258 31.679 20.8343 31.7186 21.2094 31.7822C21.3184 31.8008 21.4268 31.8196 21.533 31.8424C21.585 31.8535 21.6415 31.8664 21.6873 31.8804L21.7188 31.889L21.7292 31.8904L21.749 31.8932C21.7745 31.8964 21.7946 31.8988 21.807 31.8988C21.8139 31.8988 21.817 31.8981 21.8194 31.8965L21.8796 31.8053L21.9521 31.7032C22.214 31.3403 22.431 31.2449 22.4343 31.2508C22.4362 31.2505 22.3827 31.2652 22.2734 31.2544C22.1644 31.2444 22.0037 31.209 21.799 31.1293C21.7374 31.1057 21.6707 31.0775 21.5982 31.044C21.5923 31.0412 21.574 31.0323 21.5779 31.0345V31.035L21.5784 31.0362C21.5785 31.0376 21.583 31.0294 21.5855 31.0267C21.5893 31.0209 21.5848 31.0299 21.5808 31.0378L21.5696 31.0599L21.5667 31.0656L21.5653 31.0684L21.565 31.0692L21.5648 31.0696C21.4708 31.0209 22.3825 31.4943 21.9963 31.2938L21.9938 31.2925L21.9741 31.2816L21.9355 31.2584C21.8896 31.2276 21.8247 31.1876 21.7718 31.1446C21.7417 31.1223 21.7086 31.0978 21.6785 31.0728L21.6335 31.034L21.6116 31.0162V31.0169C21.6132 31.0185 21.6117 31.0227 21.6083 31.029C21.6022 31.0409 21.5884 31.0602 21.5671 31.0831C21.4842 31.1774 21.3022 31.3116 21.1396 31.413C20.9197 31.554 20.4881 31.7414 19.9598 31.8965C19.5475 32.0198 18.9849 32.1309 18.4443 32.1627C18.1759 32.1796 17.9137 32.1742 17.7121 32.1501C17.6123 32.1383 17.5296 32.1211 17.4795 32.1089C17.4546 32.1029 17.4405 32.0984 17.4335 32.0993L17.4333 32.1L17.4119 32.137L17.356 32.2282C17.315 32.2879 17.2864 32.3327 17.2471 32.378L17.3295 33.3671C17.3589 33.3773 17.4041 33.3973 17.4576 33.4301C17.5335 33.4762 17.6231 33.5457 17.7154 33.6333L17.7498 33.6669L17.758 33.6748L17.7577 33.6744L17.757 33.6734C17.7554 33.6721 17.7557 33.6698 17.756 33.6673C17.7552 33.6627 17.7584 33.6559 17.7614 33.6489C17.7758 33.6192 17.8139 33.5774 17.8745 33.5397C18.0218 33.4434 18.3335 33.3507 18.6178 33.2763C19.1396 33.1334 19.7711 33.0095 20.2338 32.9945C20.4343 32.9868 20.8382 33.0086 21.2809 33.0557C21.7244 33.1007 22.2003 33.1751 22.561 33.2157C22.659 33.2264 22.7921 33.253 22.9377 33.2966C23.0822 33.3395 23.2421 33.4016 23.3672 33.4716C23.4295 33.5058 23.4824 33.542 23.5137 33.5689C23.5295 33.5823 23.5404 33.5931 23.5453 33.5985C23.5459 33.5998 23.5476 33.601 23.5482 33.6017L23.5483 33.6023C23.5493 33.6017 23.5449 33.6056 23.5581 33.5955C23.5744 33.5825 23.5917 33.5699 23.6099 33.5581C23.6246 33.5474 23.6402 33.5371 23.6567 33.5276C23.776 33.4532 23.8301 33.4581 23.7764 33.4634C23.7505 33.4657 23.6994 33.4663 23.6266 33.4555C23.6063 33.453 23.5866 33.4497 23.5673 33.4454L23.5338 33.4388L23.517 33.4349H23.5173C23.5171 33.4359 23.5178 33.4379 23.5164 33.4431C23.5171 33.4455 23.5112 33.4608 23.5138 33.4588C23.5148 33.4578 23.5162 33.4569 23.518 33.4565L23.5023 33.4942C23.5011 33.5047 23.5059 33.5025 23.5059 33.5109C23.5062 33.5237 23.5021 33.5421 23.4797 33.5667C23.411 33.6539 23.1347 33.7706 22.9183 33.8613C22.745 33.9373 22.6567 34.0297 22.4697 34.0869C22.4247 34.1019 22.2816 34.1366 22.1741 34.1567C22.0594 34.1778 21.945 34.1953 21.8292 34.2084C21.5982 34.2359 21.3646 34.2529 21.1342 34.2712C20.7689 34.3001 20.3983 34.3122 19.9945 34.2923C19.7898 34.2805 19.5804 34.2634 19.3334 34.2181C19.2661 34.2028 19.1892 34.1804 19.1178 34.1619L19.0634 34.1474C19.0547 34.1452 19.0444 34.1419 19.0372 34.1409L19.0278 34.1475L18.9906 34.1743C18.9258 34.2004 18.9287 34.2683 18.91 34.3224C18.8124 34.5086 18.6504 34.6029 18.4932 34.6801C18.4526 34.6978 18.4123 34.716 18.3699 34.7298C18.3512 34.7381 18.3222 34.7413 18.3117 34.7538L18.486 34.8989L18.5293 34.9349L18.5509 34.9529C18.5578 34.9586 18.547 34.9547 18.5459 34.9562L18.5053 34.9582L18.4246 34.9621L18.2641 34.9668C17.7001 34.9767 17.0348 34.9268 16.3351 34.7868C15.8323 34.6849 15.2875 34.5266 14.8025 34.2748C14.3182 34.0284 13.8977 33.6666 13.6919 33.2587C13.628 33.138 13.5699 32.9888 13.5341 32.8289C13.4994 32.6687 13.4861 32.4988 13.4956 32.3429C13.4978 32.3039 13.5007 32.2658 13.5056 32.2289L13.5087 32.2014L13.5095 32.1947C13.504 32.1905 13.5213 32.1987 13.5349 32.205L13.5757 32.2237L13.7378 32.2981L14.3768 32.5917L14.534 32.6641L14.5535 32.6732C14.5545 32.6732 14.554 32.6725 14.5544 32.672L14.5552 32.6694L14.557 32.6641L14.5639 32.6432L14.5773 32.603L14.6066 32.53C14.6463 32.4395 14.6864 32.3779 14.7038 32.3495C14.8009 32.2079 14.7275 32.3118 14.7951 32.2225C14.8485 32.1554 14.9447 32.0492 15.0756 31.9454C15.2053 31.8402 15.3681 31.7375 15.5321 31.653C15.8496 31.4921 16.0888 31.4094 16.4045 31.3145C16.7215 31.224 17.1202 31.1256 17.7855 31.0375C17.8378 31.0306 18.0475 31.0043 18.2517 30.9857C18.4195 30.9686 18.7632 30.9458 18.7194 30.9491C18.9831 30.933 19.115 30.9281 19.3444 30.9214C19.6689 30.9129 19.9981 30.913 20.2833 30.9193C20.5372 30.9247 20.791 30.9345 21.065 30.9501C21.2594 30.9612 21.4919 30.9778 21.6892 30.9949C21.9479 31.0173 22.2209 31.0454 22.4673 31.0761C23.0795 31.1516 23.6256 31.2434 24.1636 31.3607L24.4681 31.4311C24.6989 31.4864 24.9889 31.5659 25.2217 31.6402C25.4261 31.7054 25.6231 31.7758 25.8099 31.853C25.8709 31.8787 25.9495 31.912 26.0262 31.9484L26.1381 32.0027L26.1891 32.029L26.2127 32.0413L26.2241 32.0472C26.2251 32.0463 26.2236 32.0502 26.2268 32.0454L26.2402 32.0243L26.2669 31.9823L26.3196 31.8995L26.6726 31.3463L26.8529 31.0647L26.8976 30.9952L26.9197 30.9608L26.9308 30.9435L26.9363 30.935L26.9368 30.9358L26.945 30.9476C26.9666 30.9789 26.9861 31.0086 27.004 31.0204C27.1966 31.1513 27.4175 31.3093 27.5797 31.5147C27.6604 31.6164 27.7207 31.7329 27.7416 31.8483C27.7633 31.9644 27.738 32.0706 27.7148 32.1669C27.6558 32.4059 27.5269 32.6481 27.3408 32.8529C27.1554 33.059 26.9181 33.2291 26.6628 33.3606C26.4073 33.4926 26.1338 33.5876 25.8653 33.6509C25.7307 33.6824 25.5975 33.706 25.4671 33.7223L25.4428 33.7254L25.4397 33.7257L25.4239 33.7496L25.3911 33.7994L25.3258 33.8987L25.0654 34.2945L25.0007 34.393L24.9683 34.4423C24.9595 34.4552 24.9414 34.4846 24.9443 34.4767L24.9271 34.4738L24.8935 34.4682C24.8487 34.4597 24.8051 34.4482 24.7625 34.4332C24.6698 34.3774 24.7825 34.4247 24.9087 34.449L24.9326 34.4533L24.9445 34.4555L24.9506 34.4567L24.9536 34.4572L24.9552 34.4574C24.9553 34.458 24.9555 34.4588 24.961 34.45L25.3443 33.8612L25.4376 33.718L25.4836 33.6473C25.4907 33.639 25.4903 33.6441 25.494 33.642L25.5258 33.6367L25.5842 33.6261C25.6558 33.6113 25.7028 33.5964 25.6955 33.5817L25.5641 33.5936L25.5333 33.5968L25.5182 33.5984C25.515 33.6 25.5147 33.5961 25.5091 33.6021L25.4655 33.6693L25.1275 34.1909L24.9648 34.4418C24.9539 34.4486 24.951 34.4414 24.9437 34.442L24.9074 34.4343C24.8835 34.4292 24.8602 34.4218 24.8372 34.4158C24.7447 34.385 24.6521 34.3575 24.5227 34.243C24.4532 34.1821 24.4047 34.1045 24.368 34.0277L24.3547 34.0006L24.3665 33.8767L24.3893 33.6427L24.4115 33.4218L24.417 33.3677C24.4151 33.3625 24.4101 33.3675 24.4068 33.367L24.3849 33.3716C24.2662 33.4011 24.1543 33.4153 23.9001 33.4791C23.6491 33.5394 23.3375 33.6116 23.0331 33.6713L22.9193 33.6928L22.8607 33.7037L22.8271 33.7111L22.6996 33.7383C22.6164 33.7552 22.5374 33.7689 22.4677 33.7778C21.9915 33.8376 21.4313 33.8403 20.8582 33.8622L20.5589 33.8784L20.4141 33.8885L20.3612 33.8937L20.3256 33.8991C20.2303 33.9134 20.1303 33.9262 20.0274 33.9271C19.7012 33.9318 19.2843 33.9137 18.8678 33.8617C18.4525 33.8118 18.0403 33.7249 17.7587 33.608C17.6577 33.5657 17.7231 33.5248 17.6521 33.472C17.5425 33.3887 17.2956 33.3185 17.2526 33.2212C17.2366 33.1839 17.2412 33.1475 17.2583 33.1124C17.2669 33.0948 17.2786 33.0776 17.2921 33.0609L17.3139 33.0357L17.3793 33.0055C17.5548 32.9263 17.726 32.8639 17.857 32.8031C18.0926 32.6939 18.2752 32.6073 18.4626 32.5519C18.6482 32.4963 18.8374 32.4716 19.037 32.4724C19.1382 32.4726 19.3049 32.4931 19.3784 32.4975C19.5715 32.5087 19.7002 32.5136 19.8909 32.5444C19.9986 32.5619 20.1192 32.5874 20.2302 32.6124C20.3419 32.6381 20.4442 32.6601 20.5385 32.685C20.6238 32.7074 20.7147 32.7323 20.7989 32.7684C20.8798 32.8038 20.9637 32.8532 20.9637 32.9229C20.9618 32.9801 20.8742 33.0153 20.7994 33.0233C20.7215 33.0338 20.6507 33.0268 20.6029 33.0344C20.5746 33.039 20.5454 33.0466 20.5143 33.0553C20.5015 33.0589 20.472 33.0688 20.4517 33.0777L20.3262 33.1222C20.2375 33.1511 20.1444 33.1813 20.0444 33.2075C19.6481 33.3175 19.1575 33.3888 18.6672 33.3946C18.6774 33.3943 18.6414 33.4353 18.5477 33.4316C18.0448 33.4087 17.3851 33.3504 16.7287 33.2167C16.5648 33.1848 16.4018 33.1466 16.2416 33.1074L16.1221 33.077L16.0293 33.0518C16.0177 33.0509 16.005 33.0473 15.9931 33.0452C15.9448 33.0348 15.8978 33.0222 15.8588 33.0078C15.8224 32.9939 15.8553 32.9617 15.8196 32.9508C15.7706 32.9351 15.7271 32.9121 15.6907 32.8794C15.6693 32.8597 15.5751 32.8554 15.5541 32.8349L15.4832 32.7604L15.433 32.7103C15.4178 32.702 15.4252 32.6892 15.4279 32.6769L15.4387 32.6385C15.4507 32.605 15.5524 32.6086 15.5738 32.5837C15.5809 32.5714 15.6059 32.5014 15.6718 32.4772C15.6668 32.4793 15.6038 32.4238 15.6457 32.4402C15.7481 32.4826 15.7389 32.4455 15.747 32.3913C15.7513 32.3374 15.7789 32.2688 15.8384 32.2616C15.9274 32.2508 16.0361 32.3282 16.1232 32.3697C16.1305 32.3734 16.136 32.3767 16.1449 32.379L16.2577 32.3949L16.5124 32.4301L17.0668 32.5119C17.4548 32.5719 17.8776 32.644 18.3214 32.7296C19.2087 32.9001 20.1808 33.1265 21.1157 33.3919C21.4284 33.4776 22.1567 33.6273 22.2242 33.7865C20.909 33.345 19.4624 33.0494 18.0972 32.8221C17.8953 32.788 17.6066 32.7038 17.3957 32.6781C17.0862 32.6399 16.8326 32.664 16.5511 32.6474C16.3622 32.6359 16.0492 32.5699 16.1092 32.5763C16.0967 32.5769 16.089 32.6106 16.0729 32.6097C16.0549 32.6084 16.0146 32.5726 15.9918 32.5766C15.949 32.5844 15.9277 32.6158 15.9319 32.6467C15.9341 32.6784 15.9605 32.7067 15.9578 32.7214C15.9566 32.7264 15.9766 32.7379 15.9466 32.7384C15.923 32.7389 15.7952 32.7266 15.7955 32.7364C15.7969 32.7451 15.9398 32.7523 15.9532 32.7545C15.9689 32.7572 15.9503 32.7582 15.9299 32.7597C15.9106 32.7608 15.8894 32.762 15.8915 32.7625C15.9591 32.784 15.9754 32.7978 16.0041 32.8161C16.0178 32.8247 16.0336 32.8332 16.0521 32.8382C16.0613 32.8408 16.0708 32.8424 16.0804 32.8427C16.085 32.8427 16.0905 32.8428 16.0941 32.8413L16.2232 32.8745L16.3645 32.9082C16.7847 33.0039 17.2042 33.0249 17.5949 33.0676C18.1772 33.1318 18.7193 33.1574 19.1876 33.1269C19.6566 33.0987 20.0492 33.014 20.338 32.8877C20.3816 32.8711 20.3852 32.859 20.4127 32.8423C20.4148 32.8335 20.4105 32.825 20.4081 32.8165C20.4022 32.7998 20.3914 32.7877 20.3947 32.7908C20.3964 32.7928 20.4433 32.8371 20.4492 32.8397C20.4913 32.8551 20.4629 32.8325 20.5441 32.8498C20.5988 32.8626 20.704 32.8544 20.6681 32.8144C20.6357 32.7821 20.5665 32.7638 20.5177 32.7469C20.4816 32.7345 20.4484 32.7155 20.3932 32.7024C20.3204 32.6847 20.2423 32.6713 20.1744 32.662L19.9637 32.6369C19.9104 32.6306 19.7816 32.6053 19.6902 32.6008C19.5577 32.5949 19.5068 32.6166 19.3666 32.6457C19.3126 32.6555 19.1037 32.6703 19.0258 32.6991C18.9072 32.7421 18.8947 32.7818 18.8668 32.8097C18.8384 32.8397 18.7925 32.8598 18.5965 32.906L18.4703 32.9298L18.3922 32.9453C18.3712 32.9498 18.3631 32.9522 18.3617 32.9535C18.3447 32.9958 18.5649 33.0347 18.5296 33.0679C18.5164 33.0817 18.2868 33.1189 18.2665 33.1373C18.2609 33.142 18.246 33.1802 18.2438 33.2205C18.2406 33.2608 18.2509 33.3029 18.2642 33.3173C18.3032 33.3596 18.5041 33.3837 18.626 33.4268C18.8151 33.4919 18.8078 33.569 19.1706 33.6083C19.2156 33.6128 19.2885 33.5774 19.3286 33.591C19.3757 33.6096 19.7098 33.6818 19.9277 33.679C20.0476 33.6788 20.1831 33.6303 20.2868 33.6211C20.3047 33.6198 20.3236 33.6181 20.3432 33.6181L20.376 33.6177L20.4396 33.618L20.8041 33.6194C21.0573 33.6194 21.3265 33.6154 21.5841 33.5972C21.9558 33.5713 22.2858 33.5273 22.5823 33.4755L23.1683 33.3693C23.4243 33.3188 23.672 33.2621 23.9175 33.1898C24.0409 33.1515 24.1624 33.1147 24.2875 33.0627C24.3486 33.041 24.4132 33.0081 24.4778 32.9745L24.5259 32.9502C24.5292 32.9447 24.5274 32.9571 24.5261 32.9669L24.5226 32.9958L24.5157 33.0538L24.5019 33.1695L24.4465 33.6316L24.4396 33.6892L24.4361 33.718L24.4345 33.7319L24.4357 33.7347L24.4453 33.7562L24.4643 33.7993C24.4771 33.8272 24.4897 33.8586 24.5025 33.8836C24.5289 33.9238 24.5547 33.9735 24.581 34.0058C24.6334 34.0749 24.6855 34.1313 24.736 34.1734C24.7868 34.2192 24.836 34.2523 24.8847 34.2834C24.9089 34.2981 24.9328 34.3107 24.9568 34.3235L24.9925 34.3398L25.0103 34.348L25.0126 34.349C25.0135 34.3493 25.0116 34.3542 25.0238 34.334L25.077 34.2499L25.1829 34.0815L25.6052 33.4101L25.7104 33.2429C25.7348 33.2026 25.7279 33.2195 25.7325 33.2156L25.7397 33.2153L25.7686 33.2141L25.8824 33.21L26.0993 33.2005C26.2931 33.1878 26.3258 33.1551 26.4363 33.1579C26.5412 33.1574 26.417 33.191 26.563 33.1678C26.7151 33.1412 26.8577 33.0935 27.015 33.015C27.1706 32.9348 27.3434 32.825 27.5205 32.6425C27.5901 32.57 27.6744 32.4708 27.7358 32.3704C27.7544 32.3356 27.7085 32.4105 27.7885 32.2579C27.8616 32.1093 27.9186 31.9395 27.9494 31.7592C27.9821 31.5774 27.9157 31.3732 27.7865 31.2105C27.6591 31.0461 27.4926 30.912 27.3198 30.7953C27.2765 30.7659 27.2323 30.7383 27.188 30.7111L27.1209 30.6715L27.1041 30.6617L27.0957 30.6569L27.0915 30.6544L27.0546 30.7134L26.7369 31.2243L26.4199 31.7343L26.2616 31.9889L26.2252 32.0469L26.2219 32.0452L26.2151 32.0416L26.1612 32.0135L26.0529 31.9601C25.7637 31.8228 25.4763 31.7206 25.222 31.6395C24.966 31.5582 24.6914 31.484 24.4684 31.4304C24.043 31.3262 23.5355 31.229 23.0874 31.1608C22.6168 31.0883 22.1467 31.0338 21.6894 30.9942C21.4662 30.9752 21.2167 30.9566 20.909 30.9409C20.6966 30.93 20.4459 30.9216 20.2837 30.9185C19.6931 30.9058 19.1032 30.9193 18.5643 30.9589L18.8761 30.9392C18.1762 30.9845 18.6563 30.9529 18.4082 30.971C17.4471 31.0483 16.4069 31.238 15.6731 31.5828C15.4294 31.6983 15.2823 31.7899 15.1417 31.8938C15.0041 31.9997 14.8609 32.1138 14.7043 32.3487C14.6337 32.4602 14.5937 32.5552 14.5669 32.6353L14.5573 32.6647L14.5548 32.6719C14.554 32.6717 14.5564 32.6733 14.5528 32.6717L14.5331 32.6622L14.4938 32.6431L14.4157 32.605L14.1081 32.4552L12.9686 31.9014C12.9669 31.9451 12.9635 31.9853 12.9658 32.0249C12.9727 32.1819 12.9973 32.3219 13.0877 32.5579C13.1321 32.6795 13.2839 32.9065 13.314 32.9647C13.3725 33.0944 13.4618 33.2923 13.6247 33.4874C13.7848 33.6847 14.0133 33.876 14.2863 34.039C14.5459 34.196 14.8645 34.3306 15.0556 34.4033C15.577 34.6017 16.1646 34.7357 16.7916 34.796C17.1052 34.8264 17.4291 34.8374 17.7624 34.8284C17.8458 34.8262 17.9298 34.8222 18.0143 34.8176L18.1415 34.8091L18.2055 34.8039L18.2376 34.8013L18.2536 34.8L18.2617 34.7994L18.2372 34.7809L18.0383 34.6309L17.9387 34.556L17.9138 34.5371L17.9014 34.5277C17.9014 34.5267 17.903 34.5267 17.9039 34.5262L17.9154 34.5205C17.9456 34.5051 17.9777 34.4929 18.0062 34.4748C18.0654 34.4415 18.1215 34.4044 18.175 34.3598C18.2314 34.3155 18.2857 34.2635 18.3329 34.2032C18.3579 34.1752 18.3771 34.1372 18.3994 34.1051C18.4177 34.0675 18.4328 34.0258 18.4474 33.9842L18.4556 33.9065C18.4624 33.8832 18.4508 33.8485 18.4778 33.838L18.5351 33.7922L18.5636 33.7693L18.6581 33.7983C18.7829 33.8361 18.9199 33.883 19.009 33.8958L19.1584 33.9266C19.2063 33.9357 19.2486 33.9409 19.2936 33.9481C19.6481 34.0018 19.9427 34.0192 20.2158 34.0265C20.4875 34.0328 20.7324 34.0256 20.9575 34.0092C21.2715 33.9861 21.586 33.934 21.8796 33.8639C22.025 33.8292 22.1704 33.7896 22.2975 33.7495C22.3769 33.7227 22.4255 33.7037 22.4821 33.6864C22.742 33.6061 22.9946 33.5656 23.1595 33.4681C23.208 33.4402 23.2476 33.4109 23.272 33.3897C23.2833 33.3793 23.2904 33.3714 23.2935 33.3678C23.2657 33.3411 23.3697 33.4255 23.421 33.4536L23.4618 33.4776L23.4808 33.4879L23.4857 33.4903L23.4883 33.4916L23.4889 33.4919C23.39 33.455 23.7105 33.5746 23.2674 33.4093L23.2676 33.4088L23.2683 33.4074L23.2738 33.3958L23.2952 33.3493C23.2958 33.346 23.2899 33.3559 23.2883 33.3589C23.2851 33.366 23.285 33.3637 23.2847 33.3629C23.2863 33.3632 23.2804 33.3608 23.2884 33.3635L23.3292 33.3783C23.3844 33.397 23.4326 33.4123 23.4797 33.424C23.6591 33.4722 23.7684 33.4638 23.79 33.4607C23.8095 33.4576 23.7898 33.4595 23.7583 33.473C23.7245 33.488 23.6712 33.5104 23.5688 33.5863C23.5309 33.6146 23.4867 33.6503 23.4405 33.6928C23.4169 33.7142 23.3903 33.7385 23.3672 33.7629L23.3273 33.8029L23.3079 33.8234C23.3063 33.8253 23.3083 33.8235 23.308 33.8236C23.3113 33.8176 23.3053 33.7998 23.2902 33.7781C23.2607 33.7342 23.1936 33.6772 23.1304 33.6526C22.9751 33.5909 22.7662 33.5535 22.5469 33.5307C22.3264 33.5074 22.093 33.4958 21.8572 33.4735C21.2399 33.4126 20.4071 33.354 19.6147 33.4175C19.2208 33.448 18.8376 33.5086 18.527 33.6002C18.3723 33.6456 18.2365 33.6985 18.135 33.7524C18.0341 33.8053 17.9685 33.8613 17.9615 33.8895C17.9603 33.8918 17.9605 33.8934 17.9605 33.895L17.96 33.897C17.9599 33.897 17.9609 33.8977 17.9605 33.897L17.938 33.8698C17.8734 33.7947 17.8063 33.718 17.7288 33.6446C17.5812 33.4978 17.4097 33.3891 17.3303 33.366L17.2478 32.3769C17.3383 32.2659 17.4491 32.0908 17.5546 31.8588C17.5543 31.8595 17.5784 31.8703 17.6181 31.8815C17.6997 31.9047 17.8401 31.927 17.9876 31.9342C18.2877 31.9503 18.6095 31.9123 18.7597 31.8576C18.8844 31.8126 18.8924 31.7994 18.9435 31.7914C18.9944 31.7825 19.088 31.7828 19.3878 31.7362C19.9768 31.6372 20.3888 31.4615 20.8028 31.2224C20.9683 31.1227 21.0125 31.1046 21.0624 31.0962C21.1081 31.0879 21.164 31.0871 21.281 31.0225C21.3006 31.0138 21.4107 30.9278 21.4403 30.8798L21.4462 30.8667L21.4449 30.8637L21.5291 30.9421C21.5887 30.9965 21.6506 31.0474 21.7038 31.0913C21.7644 31.1371 21.8115 31.1751 21.865 31.21L21.9365 31.2572L21.9715 31.2783L21.9894 31.2882L21.9938 31.2906L21.9961 31.2918L21.9973 31.2924C22.5664 31.5946 21.2225 30.8809 21.361 30.9543L21.3612 30.954L21.3636 30.949L21.3828 30.909L21.3793 30.9133C21.3802 30.9159 21.3937 30.9251 21.4003 30.9307L21.4501 30.9676C21.5877 31.0441 21.7063 31.0912 21.8 31.1283C22.0491 31.2247 22.2179 31.2522 22.3205 31.2567C22.4224 31.2619 22.4581 31.24 22.4209 31.2549C22.387 31.2688 22.2746 31.3296 22.1256 31.4918C22.0525 31.5715 21.9666 31.6772 21.8798 31.805C21.8365 31.8687 21.7906 31.9395 21.7459 32.0149L21.6768 32.1332L21.668 32.1488L21.6637 32.1565V32.1564L21.6638 32.1563C21.6641 32.1561 21.6634 32.1558 21.6631 32.1554C21.6604 32.1527 21.6499 32.1462 21.6339 32.1384L21.6209 32.1322L21.5635 32.1109C21.5155 32.0942 21.4624 32.0788 21.4114 32.0656C21.2053 32.0122 20.9971 31.9775 20.7991 31.9523C20.3777 31.8994 19.9481 31.8821 19.5196 31.862C19.0899 31.844 18.6702 31.8149 18.2982 31.7506C17.8124 31.6721 17.5202 31.5629 16.8172 31.4141C16.4546 31.3344 16.337 31.3603 15.835 31.2495C15.6756 31.2135 15.4502 31.1479 15.226 31.0766C15.0002 31.0054 14.7658 30.9231 14.6141 30.8792C14.2692 30.778 13.8733 30.6639 13.5454 30.5593C13.0135 30.3903 12.4111 30.1379 11.8169 29.8251C11.2217 29.5115 10.6317 29.139 10.068 28.7105C9.83399 28.5314 9.68303 28.4618 9.42356 28.2387C9.02248 27.8946 8.44108 27.2134 7.98057 26.4609C7.86098 26.2719 7.73952 26.0599 7.60266 25.8092C7.46494 25.5577 7.31269 25.2666 7.14244 24.9105L6.81677 24.2534C6.80612 24.2293 6.79763 24.208 6.79087 24.1891C6.7854 24.1726 6.78511 24.1636 6.78367 24.1527C6.7818 24.1324 6.78396 24.117 6.78698 24.1035C6.79375 24.0777 6.80411 24.0581 6.79547 24.0214C6.76424 23.8833 6.74669 23.8169 6.74007 23.7636C6.73431 23.7103 6.73978 23.6707 6.78482 23.6159L6.84267 23.611C6.89822 23.6044 7.18432 23.5775 7.19713 23.5796C7.5818 23.6078 7.87005 23.7713 7.83983 23.8231C7.83537 23.8313 7.77118 23.8452 7.68412 23.8643C7.65721 23.9255 7.62526 24.0204 7.63605 24.0561C7.66469 24.1501 7.80802 24.2347 7.84098 24.3804C7.84314 24.3893 7.84429 24.3994 7.84472 24.4104L7.84501 24.4277C7.84472 24.4335 7.84328 24.4388 7.85177 24.451L7.9256 24.586C7.97568 24.6778 8.02562 24.7704 8.06634 24.8276C8.14736 24.9438 8.21874 25.0187 8.31214 25.1468C8.65968 25.6222 8.99615 26.0605 9.33232 26.3942C9.68591 26.7436 10.0386 26.9939 10.3639 27.2124C10.2308 27.0328 10.0306 26.8229 9.82924 26.5864C9.62662 26.3506 9.42471 26.0889 9.25576 25.8167C9.10926 25.5807 8.98809 25.2709 8.8459 24.9989C8.79726 24.9061 8.74732 24.8171 8.69768 24.728L8.65997 24.6618C8.65479 24.6515 8.64472 24.6385 8.64357 24.6303L8.65551 24.6135L8.70099 24.5473C8.761 24.4621 8.81698 24.385 8.90591 24.3166C8.94506 24.2878 8.98737 24.2605 9.03313 24.237C9.54862 24.1497 10.1089 24.1795 10.5308 24.2244C10.9483 24.2639 11.4557 24.3691 11.8109 24.4503C12.0308 24.4998 12.0983 24.5011 12.2961 24.5382C12.4996 24.5761 12.8483 24.6649 13.0491 24.6806C13.1885 24.6908 13.3893 24.6991 13.5438 24.6724C13.6571 24.6535 13.6676 24.5782 13.8853 24.5404C13.9842 24.5234 14.0976 24.5089 14.2385 24.4949L14.4613 24.4763C14.5377 24.4706 14.6153 24.4653 14.7039 24.4617C15.0335 24.4428 15.4291 24.4373 15.8402 24.4438L16.0837 24.4476C16.159 24.4474 16.2484 24.4568 16.3242 24.4597L16.5526 24.4703C16.6313 24.4763 16.7171 24.4874 16.8001 24.4958L17.0584 24.524L17.3496 24.57C17.5588 24.6037 17.775 24.6428 18.0294 24.6921C18.5939 24.7981 19.0791 24.8712 19.4688 24.8787C19.8488 24.8774 20.1968 24.8535 20.5367 24.8299C21.2124 24.7793 21.83 24.7134 22.357 24.6394C22.4889 24.6203 22.581 24.5992 22.6797 24.5802C22.7799 24.5608 22.8833 24.5414 23.0298 24.5303L23.2552 24.5164C23.3218 24.5129 23.3893 24.5103 23.458 24.5094C23.5947 24.5064 23.7348 24.5076 23.8773 24.5109C24.1625 24.5175 24.4583 24.5343 24.7618 24.5525L24.9113 24.561L24.9805 24.5637H25.0254C25.083 24.5628 25.1478 24.56 25.2127 24.5564C25.3439 24.5493 25.4812 24.54 25.6608 24.54C25.9126 24.54 25.9272 24.5859 26.1292 24.5946C26.288 24.6013 26.8006 24.559 27.095 24.5756C27.345 24.5895 27.394 24.6368 27.5833 24.6452C27.664 24.6488 27.7399 24.65 27.8122 24.6499C27.8512 24.6464 27.8793 24.6418 27.9082 24.6369C27.9657 24.6276 28.0173 24.6188 28.0736 24.6241C28.1959 24.6367 28.284 24.6879 28.4312 24.7257C28.4793 24.739 28.537 24.7486 28.5875 24.7698C28.6115 24.7809 28.6377 24.7938 28.6479 24.8174C28.6556 24.8429 28.6397 24.8684 28.6284 24.8892C28.5646 24.9878 28.4758 25.0714 28.3888 25.1578C28.3 25.2427 28.2045 25.3254 28.104 25.3923C27.9764 25.4767 27.8685 25.4762 27.7456 25.558C27.6315 25.6344 27.4905 25.7747 27.3684 25.8419C27.1529 25.9608 26.9381 26.0408 26.7339 26.1228C26.5276 26.2059 26.331 26.2919 26.0932 26.4528C26.0293 26.4973 25.7513 26.6802 25.7748 26.6692C25.6532 26.7208 25.6845 26.6025 25.598 26.6055L25.5501 26.6077L25.5377 26.6081C25.5337 26.6079 25.5275 26.6105 25.5308 26.601L25.5369 26.562C25.5441 26.5109 25.5484 26.4635 25.5494 26.4188C25.552 26.3293 25.5425 26.2506 25.5262 26.1759C25.4931 26.0268 25.4302 25.8923 25.3638 25.7338C25.2364 25.4321 25.1806 25.0465 25.0438 24.7719C24.9169 24.5168 24.7546 24.2701 24.6062 24.0004C24.4637 23.7296 24.3037 23.4504 24.1707 23.1694C24.0631 22.9421 24.034 22.7571 23.988 22.5808C23.9414 22.4025 23.8763 22.2334 23.681 21.9868C23.4957 21.7534 22.9472 21.3988 22.7945 21.0511C22.7509 20.9498 22.7571 20.7069 22.8225 20.4672C22.8553 20.3471 22.9035 20.2275 22.9649 20.1265C23.0246 20.0249 23.1015 19.9446 23.1562 19.895C23.2299 19.8234 23.3266 19.7519 23.445 19.727C23.5629 19.7008 23.6947 19.7122 23.8393 19.7565C24.072 19.8304 24.3716 20 24.6061 20.1236C24.8411 20.2506 25.0122 20.3444 25.0221 20.3107C25.0349 20.2579 24.4217 19.5658 24.4584 19.5399C24.4804 19.5224 24.8231 19.702 25.166 19.9186C25.5113 20.1337 25.8495 20.3802 25.9313 20.4564C26.1098 20.62 26.2498 20.686 26.554 20.9333C26.6644 21.0224 26.8089 21.188 26.8945 21.2572C27.0559 21.3873 27.215 21.5024 27.3729 21.6223C27.5303 21.7415 27.6862 21.8655 27.8246 21.9986C28.0074 22.1748 28.1418 22.3679 28.2713 22.5231C28.3487 22.6156 28.4479 22.6996 28.5206 22.7969C28.6404 22.9575 28.6813 23.0968 28.7308 23.1774C28.7485 23.2061 28.8052 23.292 28.8588 23.3844L28.9866 23.6133C28.988 23.616 29.0572 23.6984 29.127 23.7974C29.1971 23.8948 29.2673 24.0095 29.2791 24.0219C29.3492 24.092 29.3796 24.0636 29.403 24.0368C29.4258 24.0117 29.444 23.9899 29.497 24.1026C29.5292 24.1713 29.5754 24.3088 29.6087 24.4863C29.6455 24.6631 29.6547 24.8807 29.6613 25.0913C29.6698 25.2822 29.595 25.2585 29.5987 25.441C29.6009 25.4844 29.6212 25.5796 29.6598 25.6928C29.6795 25.7491 29.7035 25.8105 29.7401 25.8654C29.7746 25.9199 29.8333 25.9673 29.8998 25.9566C29.9792 25.9435 30.0226 25.8772 30.0588 25.8164C30.0952 25.7533 30.1256 25.6868 30.1774 25.626C30.274 25.5124 30.3943 25.4034 30.5178 25.2798C30.6404 25.1568 30.7663 25.0183 30.8536 24.8604C30.8582 24.8524 30.858 24.838 30.8548 24.8207C30.8443 24.8249 30.8277 24.8373 30.8119 24.8445C30.7798 24.8609 30.7466 24.8744 30.7446 24.8853C30.727 24.9963 30.7627 25.1691 30.7234 25.2874C30.6759 25.4309 30.5333 25.4621 30.4762 25.5598C30.3449 25.7794 30.2285 25.9848 30.1593 26.1902C30.1247 26.2921 30.1021 26.3929 30.0948 26.4863C30.0931 26.5097 30.0919 26.5325 30.0919 26.5547C30.0863 26.5715 30.1053 26.5622 30.1158 26.5616L30.1514 26.554C30.1984 26.542 30.2439 26.5253 30.2865 26.4999C30.3632 26.4553 30.4242 26.3715 30.4595 26.2729C30.496 26.1751 30.5047 26.0697 30.5235 26.0073C30.5651 25.8531 30.6709 25.8363 30.6461 25.6921C30.5845 25.4095 30.4272 25.2586 30.3805 25.1178C30.335 24.9917 30.3892 24.9282 30.3403 24.8042C30.2941 24.687 30.1731 24.5355 30.108 24.4137C30.0598 24.3224 30.0765 24.2186 30.0082 24.0969C29.9497 23.9935 29.8638 23.9584 29.8117 23.859C29.775 23.79 29.7606 23.7274 29.7395 23.6602C29.7186 23.5935 29.691 23.5209 29.6228 23.4529C29.554 23.3785 29.4007 23.3022 29.3237 23.2381C29.2513 23.1774 29.179 23.0988 29.0922 23.0155C29.0061 22.9323 28.905 22.8445 28.7963 22.7745C28.6888 22.705 28.5548 22.6809 28.4761 22.6307L28.4354 22.6032C28.422 22.594 28.4063 22.5831 28.3723 22.5625L28.1953 22.4515C28.0757 22.3761 27.9504 22.2997 27.8108 22.2226C27.424 22.009 26.9432 21.792 27.0199 21.8399C26.5991 21.5796 26.406 21.2861 26.4858 21.1486C26.5299 21.0724 26.7909 21.1109 26.999 21.0867C27.1186 21.0734 27.0947 21.0237 27.1924 21.0152C27.4312 20.9959 27.4574 20.9913 27.6095 20.813C27.7079 20.6976 27.8704 20.7602 27.3987 20.5024C27.0069 20.2952 27.1529 20.4401 26.5067 20.1992C26.1391 20.0645 25.7787 19.8999 25.3325 19.7571C24.986 19.646 24.5714 19.5527 24.2797 19.4517C23.9691 19.3444 23.7877 19.218 23.556 19.1472C23.1664 19.0288 22.3706 18.8201 21.8932 18.6998C21.7382 18.6609 21.6622 18.646 21.4405 18.5729C21.0275 18.4337 20.821 18.297 20.4346 18.1406C20.2339 18.0639 19.8391 17.9217 19.5455 17.8372C19.2736 17.7516 18.802 17.6468 18.637 17.6405C18.4522 17.6298 18.305 17.6927 18.0173 17.6849C17.5658 17.6773 17.195 17.6874 16.83 17.7425C16.4678 17.7993 16.1062 17.9008 15.7392 18.1326C15.599 18.2223 15.4668 18.2865 15.38 18.3737C15.3541 18.3989 15.3246 18.489 15.3003 18.5098C15.1448 18.6481 15.0658 18.6284 14.946 18.7438C14.875 18.8166 14.9096 18.8595 14.7894 18.988C14.554 19.2446 14.3451 19.5348 14.1729 19.821C14.0865 19.9638 14.0075 20.1054 13.937 20.2386L13.8366 20.433L13.7327 20.647C13.5982 20.9314 13.4595 21.1135 13.3447 21.1643C13.229 21.2152 13.1776 21.1558 13.1723 20.9711L13.153 20.7727C13.1543 20.775 13.116 20.6137 13.1167 20.5814C13.121 20.5346 13.1582 20.3808 13.2006 20.2241C13.2497 20.0487 13.3088 19.8745 13.3067 19.826C13.3057 19.8118 13.1454 19.9486 13.1114 19.9219C13.0907 19.9072 13.1648 19.5933 13.0569 19.708C13.0043 19.7642 12.9737 19.8285 12.9422 19.9046L12.8915 20.0287L12.8607 20.0986C12.8509 20.1193 12.8411 20.1377 12.8312 20.1544C12.8152 20.1812 12.7361 20.217 12.7289 20.233C12.6982 20.2983 12.6633 20.3942 12.6069 20.4978C12.5517 20.6023 12.4579 20.704 12.3431 20.78C12.2291 20.8574 12.1022 20.9186 11.9837 20.9717C11.9246 20.9983 11.8664 21.0209 11.812 21.0412C11.7585 21.0614 11.7073 21.0778 11.6524 21.0953C11.3829 21.1791 11.04 21.2939 10.5866 21.3323C10.0537 21.3785 9.4083 21.3601 8.50771 21.3375C8.28696 21.3326 7.96661 21.3139 7.72715 21.3115C7.5238 21.3089 7.28362 21.3384 7.08502 21.3372L6.9568 21.3367L6.81432 21.3382C6.72121 21.341 6.63098 21.346 6.54277 21.3529C6.36633 21.3664 6.19738 21.3862 6.03361 21.4088C5.7065 21.4542 5.40098 21.5112 5.12209 21.5712C4.56487 21.6917 4.11558 21.8257 3.84805 21.9268C3.33343 22.1223 3.00229 22.3636 2.68928 22.5195C2.64683 22.542 2.25324 22.6776 1.81647 22.9414C1.69084 23.0154 1.49238 23.2121 1.43583 23.2541C1.24184 23.3939 1.14599 23.4019 1.01964 23.5173C0.852992 23.6825 0.943799 23.6461 0.72851 23.9295C0.579563 24.1347 0.373484 24.3645 0.29534 24.6243C0.226983 24.8453 0.216046 25.0697 0.242957 25.2709C0.249577 25.3293 0.270876 25.4178 0.299514 25.5011C0.327288 25.585 0.364561 25.6604 0.384421 25.7076C0.413778 25.7771 0.448029 25.8668 0.506025 25.9419C0.562294 26.0178 0.643171 26.0769 0.718004 26.1018C0.789959 26.1315 0.943368 26.1021 0.996614 26.1007C1.23335 26.1116 1.60478 26.0572 1.85187 25.9621C2.43255 25.7392 2.85377 25.4362 3.32335 25.1592C4.0029 24.7511 4.57192 24.3543 4.90838 24.2209C5.09776 24.1449 4.97746 24.2812 5.11187 24.2609C5.19332 24.2485 5.35479 24.1384 5.41307 24.16C5.65182 24.248 5.18282 24.7929 5.15835 24.9551C5.78335 24.5987 6.1319 24.2176 6.54018 23.9013C6.88268 23.635 7.26261 23.3877 7.54712 23.1519C7.96402 22.8102 8.28911 22.4828 8.59953 22.197C8.71883 22.0886 8.85684 22.0032 8.96549 21.9028C9.04579 21.8285 9.1107 21.7362 9.18193 21.6679C9.2654 21.5881 9.45335 21.4611 9.5443 21.3705C9.75556 21.1594 9.61683 21.2559 10.2453 20.7417C10.8009 20.2853 10.7733 20.2975 11.0443 20.2478C11.2757 20.2052 11.3386 20.7039 11.7894 20.4738C12.1767 20.2763 12.4756 19.9045 13.0127 19.4966C13.0212 19.49 13.1798 19.4323 13.286 19.3413C13.4007 19.2426 13.4771 19.1361 13.793 18.9764C14.1766 18.7846 13.8705 19.0642 14.3074 18.9108C15.0458 18.3967 15.765 17.9935 16.3902 17.4206C16.5768 17.2474 16.6624 17.0974 16.8272 16.8972C16.9819 16.7055 17.1544 16.4839 17.2985 16.2076C17.3344 16.1391 17.3683 16.0654 17.3981 15.9911C17.4211 15.9346 17.4545 15.8476 17.4776 15.7742C17.5274 15.6218 17.5663 15.463 17.5876 15.3005C17.6273 15.0088 17.6161 14.7105 17.5509 14.4185C17.5189 14.2723 17.4732 14.1279 17.4168 13.986C17.3883 13.9156 17.3572 13.8434 17.3241 13.7762L17.2733 13.675L17.2465 13.6251L17.2245 13.5862C16.9811 13.1588 16.6099 12.7373 16.2242 12.2306C16.203 12.2027 16.0759 12.1058 16.0121 11.9897C15.988 11.9452 16.0767 12.0147 15.9824 11.8839C15.914 11.7882 15.8483 11.7086 15.7825 11.6268L15.7334 11.5647L15.709 11.5328C15.7067 11.5282 15.6967 11.5203 15.7006 11.5184L15.7139 11.5135C15.7494 11.5003 15.7901 11.4882 15.8409 11.4794C15.8745 11.4728 15.9381 11.4644 16.0256 11.4582C16.3207 11.4309 16.8863 11.4879 17.4333 11.579C17.9797 11.6691 18.5118 11.7504 18.7167 11.7733C18.7694 11.781 18.9363 11.8151 19.0153 11.8232C19.2775 11.8534 19.4447 11.8678 19.4819 11.9032C19.5216 11.9367 19.4374 12.0031 19.2634 12.0592C19.1845 12.0834 19.1496 12.0985 19.1964 12.1091C19.2198 12.1142 19.2637 12.1186 19.3336 12.1165C19.403 12.1129 19.5006 12.107 19.621 12.0617C19.6865 12.0323 19.7795 11.9809 19.8588 11.8738C19.9264 11.7999 19.9997 11.5194 19.9182 11.2237C19.8706 11.0419 19.792 10.8963 19.7242 10.7827C19.6553 10.6696 19.5937 10.5883 19.5485 10.5479C19.2967 10.3363 19.2135 10.349 19.1625 10.3393C19.1063 10.3326 19.0785 10.3165 18.8546 10.1066C18.6813 9.94488 18.3579 9.75751 17.9751 9.55905C17.5936 9.35729 17.1525 9.14589 16.7605 8.84785C16.7084 8.80784 16.6565 8.76568 16.6054 8.72063L16.5294 8.65084L16.492 8.61414C16.4854 8.60047 16.4953 8.58262 16.496 8.56694C16.5193 8.43742 16.5542 8.3079 16.6017 8.18068C16.6971 7.92654 16.8434 7.6829 17.0419 7.46228C17.2058 7.27578 17.4819 7.13546 17.6493 6.98465C17.7984 6.85081 17.5949 6.7305 17.6877 6.62185C17.6636 6.64919 18.1419 6.37188 18.4025 6.20192C18.7728 5.96922 19.2713 5.68586 19.9991 5.44841C20.3079 5.34378 20.4482 5.42308 20.6448 5.34825C20.809 5.28449 20.964 5.20405 21.103 5.11238C21.2409 5.02085 21.3677 4.91752 21.4413 4.80167C21.511 4.68626 21.5408 4.56724 21.4851 4.49788C21.4304 4.42851 21.3036 4.4278 21.161 4.50882C21.1338 4.52306 21.0108 4.71346 20.9873 4.71446C20.8251 4.71418 20.7851 4.73893 20.7509 4.79419C20.7166 4.85175 20.6837 4.94414 20.5377 5.12173C20.4816 5.18879 20.2928 5.28564 20.2698 5.33328C20.1447 5.57922 20.1053 5.8561 20.0539 6.08291C20.0033 6.31057 19.9435 6.48844 19.8022 6.55364C19.6538 6.62027 19.3087 6.41534 18.8921 6.155C18.6852 6.02347 18.4611 5.87639 18.2546 5.72759C18.0465 5.58325 17.8683 5.40682 17.7472 5.28521C17.4847 5.01927 17.3472 4.86312 17.236 4.70612C17.1255 4.54551 17.038 4.3793 16.9042 4.00599C16.8106 3.73962 16.7764 3.636 16.7433 3.51339C16.7146 3.38977 16.6761 3.24471 16.6683 2.8691C16.6691 2.7416 16.6212 2.41233 16.666 2.14452C16.7148 1.88159 16.7195 1.55017 16.762 1.43116C16.8541 1.17917 17.0804 1.21356 17.2138 1.00072C17.2953 0.867027 17.3549 0.544668 17.4781 0.384928C17.5588 0.281889 17.6333 0.237133 17.7108 0.204465C17.7876 0.173381 17.8709 0.151795 17.9589 0.129489C18.0916 0.096821 18.1716 0.10344 18.2133 0.113226C18.2566 0.124883 18.273 0.146326 18.2847 0.196119C18.3182 0.366364 18.3342 0.64483 18.349 0.802843C18.3604 0.944595 18.3594 1.02346 18.3615 1.19615C18.3637 1.36812 18.3699 1.63076 18.3979 2.11458L18.4497 3.07605C18.4745 3.4269 18.4905 3.59657 18.5086 3.734C18.5266 3.8723 18.5482 3.97419 18.5745 4.21294C18.576 4.22719 18.5915 4.29871 18.5955 4.46248C18.6013 4.62236 18.5898 4.87982 18.618 5.13713C18.6742 5.66744 18.6858 5.71349 18.6783 5.65866C18.6715 5.60109 18.6427 5.45042 18.6291 5.5146C18.6138 5.56872 18.6335 5.81221 18.7128 5.98102C18.7871 6.15169 18.9094 6.24783 18.9783 6.076C19.0208 5.96979 19.0847 6.06233 19.169 6.16767C19.2539 6.27445 19.3562 6.3926 19.5007 6.37188C19.5232 6.36785 19.6654 6.2874 19.6725 6.29014C19.7919 6.35705 19.966 6.67366 20.088 6.69755C20.2095 6.7246 20.179 6.45275 20.3227 6.51967C20.4324 6.57047 20.6989 6.72849 20.7186 6.74014C21.0106 6.91629 21.3148 7.32643 21.4649 7.40889C21.6304 7.49984 21.5632 7.19015 21.6838 7.21721C21.8161 7.24541 22.1921 7.67081 22.3673 7.81055C22.4022 7.83789 22.4964 7.82364 22.6099 7.87646C22.7219 7.92855 22.8587 8.04987 22.9392 8.33582C22.8792 8.65026 22.7679 8.80612 22.6447 8.86886C22.52 8.93132 22.3771 8.90196 22.2144 8.83691C22.138 8.80727 22.0445 8.88757 21.9711 8.8005C21.9446 8.76884 21.9442 8.55053 21.8879 8.54175C21.8204 8.53269 21.723 8.69084 21.6594 8.70279C21.5134 8.72524 21.1774 8.59529 21.027 8.85706C21.2055 9.06112 21.3307 9.04731 21.5153 9.11034C21.554 9.12372 21.5994 9.26576 21.6355 9.26663C21.7336 9.26893 21.821 9.15582 21.9219 9.20748C22.0397 9.26764 22.1216 9.52653 22.2259 9.61014C22.3483 9.70599 22.4923 9.75664 22.6187 9.8545C22.7433 9.9515 22.8515 10.0991 22.8594 10.367C22.8674 10.5974 22.7043 10.9111 22.703 11.0058C22.6973 11.216 22.8409 11.2228 22.8344 11.479C22.8318 11.5581 22.7493 12.068 22.4293 12.6053C22.1236 13.1428 21.5916 13.6704 21.2869 13.872C21.2829 13.8749 21.1652 13.9226 21.0479 13.9603C20.93 13.9988 20.8139 14.0267 20.7909 14.0145C20.7137 13.9741 20.8736 13.8618 20.8954 13.7891C20.9208 13.7028 20.9297 13.7651 20.864 13.7696C20.6454 13.7805 21.044 13.5256 21.1544 13.317C21.1918 13.2457 21.0809 13.1941 21.0987 13.1139C21.104 13.0939 21.1849 12.9857 21.1901 12.9607C21.2209 12.8398 21.2963 12.6576 21.3372 12.4711C21.3803 12.285 21.3877 12.0965 21.3462 11.9757C21.3095 11.8664 21.1999 11.8252 21.1354 11.7577C21.104 11.7193 21.0978 11.5253 20.985 11.5515C20.9637 11.557 20.8624 11.6437 20.8509 11.6363C20.7546 11.5783 20.7445 11.3726 20.6061 11.3712C20.4387 11.3779 20.3128 11.5378 20.1633 11.5958C20.0538 11.7367 20.0638 11.761 20.0884 11.777C20.1129 11.7921 20.1522 11.8015 20.0945 11.8812C20.0001 11.9579 20.0446 11.8134 19.9384 11.9186C19.8368 12.0581 19.9781 11.9966 20.0945 11.8812C20.2194 11.7456 20.2581 11.7722 20.2623 11.8395C20.267 11.9065 20.2326 12.0025 20.2483 12.017C20.2715 12.0398 20.3594 11.9744 20.3744 12.0134C20.3914 12.0642 20.3223 12.1644 20.3311 12.212C20.3473 12.2975 20.4252 12.402 20.3881 12.5566C20.3773 12.6078 20.2896 12.7504 20.185 12.8799C20.0821 13.0103 19.967 13.1348 19.9527 13.2013C19.946 13.2329 20.0274 13.2639 19.9991 13.3007C19.9789 13.3268 19.9327 13.3604 19.8755 13.3954L19.7855 13.4531L19.7395 13.4864L19.6399 13.5626C19.4653 13.6991 19.2928 13.8683 19.1198 14.066C18.9472 14.2656 18.7711 14.4893 18.5942 14.7805C18.5424 14.8678 18.4728 14.9819 18.4034 15.1363C18.3345 15.2887 18.2671 15.4848 18.236 15.7065C18.2035 15.9272 18.2142 16.1667 18.2562 16.3656C18.2769 16.4637 18.3044 16.5565 18.3319 16.6301L18.3461 16.6678L18.3825 16.7527C18.4089 16.8114 18.4284 16.8449 18.4512 16.887C18.4739 16.9271 18.498 16.966 18.5217 17.0029C18.5716 17.0782 18.6236 17.1477 18.682 17.2158C18.7992 17.3508 18.9343 17.4823 19.1253 17.6151C19.2269 17.6871 19.4102 17.8015 19.613 17.8766C19.8157 17.9546 20.0256 17.9929 20.1777 18.0021C20.3121 18.0097 20.3839 17.9569 20.4839 17.9528C20.6376 17.9479 20.8836 17.9407 20.998 17.9084C21.2733 17.8339 21.38 17.7858 21.5458 17.7215C21.7064 17.6546 21.9207 17.5677 22.2953 17.3587C22.4427 17.2765 22.7347 17.0946 23.0684 16.8516C23.404 16.6094 23.7838 16.3067 24.1509 16.0008L25.1752 15.1402L25.3897 14.9683C25.4416 14.9286 25.4772 14.9042 25.5172 14.8783C25.5936 14.8293 25.6572 14.7998 25.704 14.7967C25.9495 14.7788 25.8815 14.8981 25.6696 15.2323L25.653 15.2562C25.6488 15.2621 25.6319 15.2779 25.6234 15.2861L25.5683 15.3346C25.5352 15.3628 25.5067 15.3886 25.4664 15.4435C25.3823 15.5604 25.0804 15.7783 25.0154 15.9328C25.1774 15.8252 25.3278 15.7091 25.4691 15.5883C25.5398 15.5279 25.6081 15.4663 25.6745 15.404L25.7238 15.357C25.7346 15.346 25.7375 15.3414 25.745 15.3329L25.7823 15.2862C25.8807 15.1602 25.9783 15.0118 26.0855 14.8726L26.2484 14.6519L26.2924 14.5912L26.3146 14.5604L26.32 14.5526L26.3221 14.5581L26.3261 14.5694C26.336 14.6001 26.3434 14.633 26.3497 14.6673C26.3979 14.9763 26.3959 15.3132 26.37 15.7175C26.3598 15.862 26.3406 16.0357 26.319 16.1975C26.2987 16.3539 26.2692 16.5495 26.2338 16.7053C26.2171 16.7822 26.1833 16.9067 26.1747 16.9362C26.1335 17.0838 26.0836 17.2362 26.0089 17.3783C25.9357 17.5169 25.8257 17.6616 25.6547 17.6975C25.6745 17.6038 25.5959 17.5176 25.7284 17.3889C25.6064 17.3826 25.515 17.3518 25.2986 17.2516C25.1964 17.2 25.1252 17.21 25.0077 17.129C24.8896 17.0471 24.7719 16.8687 24.6667 16.7668C24.5764 16.6803 24.455 16.6325 24.3702 16.5447C24.1555 16.3198 23.9671 16.0746 23.7517 15.7783C23.5371 15.4723 23.2942 15.1172 23.2479 14.8996C23.2329 14.8306 23.231 14.6887 23.3146 14.5661C23.3988 14.4413 23.5622 14.3903 23.6517 14.361C23.6602 14.3585 23.6571 14.319 23.7079 14.2853C23.7577 14.2515 23.8648 14.2253 24.069 14.2488C24.4866 14.2999 24.5498 14.3953 24.5796 14.4816C24.6005 14.5524 24.404 14.5789 24.2321 14.6355C24.1461 14.6643 24.0655 14.7054 24.0274 14.7637C23.9881 14.8208 23.9959 14.8889 24.0441 14.9224C24.1194 14.9314 24.1329 14.8555 24.1987 14.8119C24.2321 14.7841 24.3571 14.743 24.4367 14.724C24.6123 14.6774 24.7203 14.6338 24.9021 14.5835C24.9847 14.5614 25.0273 14.5749 25.0898 14.5503C25.1905 14.5129 25.5137 14.4166 25.9417 14.3249L26.273 14.2534L26.6975 14.174C26.9705 14.1224 27.2169 14.0734 27.4017 14.0447C27.755 13.9847 27.6748 13.9949 28.0697 13.9636C28.2517 13.9398 28.2237 14.002 28.5905 13.8591C29.0204 13.6789 29.2646 13.457 29.4317 13.2234C29.5153 13.1057 29.581 12.9815 29.635 12.8401C29.6506 12.8024 29.6575 12.7739 29.6763 12.7241L29.7003 12.6281C29.7235 12.5461 29.7388 12.4704 29.755 12.3785C29.7667 12.3103 29.8002 12.1368 29.7825 11.94C29.7684 11.7427 29.6906 11.5401 29.6193 11.4264C29.4714 11.1874 29.3157 11.069 29.18 10.9537C29.0412 10.8409 28.9116 10.7371 28.7511 10.591C28.6912 10.5368 28.6256 10.4231 28.5081 10.3626C28.1589 10.1793 27.7065 10.0655 27.2532 9.90616C27.0702 9.83953 26.8878 9.79391 26.7043 9.73909C26.3896 9.64785 26.0971 9.56625 25.7946 9.45918C25.4859 9.35125 25.1344 9.18331 24.9061 9.07149C24.79 9.01479 24.673 8.9578 24.5518 8.88383C24.4317 8.80684 24.3024 8.72567 24.1762 8.55269C24.1453 8.50865 24.1155 8.45613 24.0904 8.39482C24.0786 8.36244 24.0668 8.33049 24.0589 8.29322C24.0549 8.27466 24.0504 8.2571 24.0481 8.2371L24.0445 8.20759L24.043 8.19263L24.0422 8.18514L24.0419 8.1814L24.0418 8.17953L24.0425 8.15852C24.0312 8.09736 24.0373 8.04857 24.0517 7.99964C24.082 7.90438 24.1378 7.82551 24.2027 7.75082C24.2653 7.67887 24.4023 7.59137 24.4489 7.54331C24.5278 7.45854 24.71 7.32125 24.8392 7.19792C24.9047 7.13187 24.9653 7.0684 24.9624 7.00235C24.7847 6.89557 24.8356 6.90938 24.8792 6.90794C24.9195 6.91255 24.9558 6.8924 24.695 6.78691C24.4984 6.71812 24.5287 6.69078 24.1856 6.74072C24.1276 6.76921 24.2099 6.78576 24.3208 6.80836C24.4318 6.8298 24.5728 6.86275 24.6258 6.89614C24.4658 6.91024 24.3043 6.89024 24.1385 6.87714C23.9732 6.86319 23.8025 6.85498 23.6426 6.86865C23.5286 6.87786 23.3414 6.91614 23.1759 6.95054C23.0085 6.98493 22.863 7.01386 22.7777 7.0022C22.5942 6.97342 22.766 6.96104 22.545 6.98896C22.5044 6.99357 22.4717 6.9999 22.4361 7.00681C22.423 7.0117 22.3901 7.00997 22.3568 7.00868C22.3018 6.99932 22.2344 6.9858 22.159 6.96781C21.8531 6.89715 21.3815 6.71669 20.9346 6.4375C20.4972 6.16378 20.1122 5.87107 19.7438 5.50295C19.5609 5.31486 19.3518 5.12821 19.1807 4.80657C19.1116 4.67187 19.0209 4.45543 18.9671 4.13724C18.9408 3.98052 18.9274 3.79186 18.9396 3.59743C18.9514 3.40258 18.9895 3.20384 19.0428 3.03475C19.0855 2.89832 19.1502 2.7108 19.2797 2.49595C19.4063 2.28224 19.6061 2.04767 19.8398 1.86994C19.9602 1.77625 20.0778 1.70372 20.2078 1.63464C20.3295 1.57176 20.461 1.51577 20.5847 1.4749C20.8359 1.391 21.085 1.34668 21.3324 1.33171C21.4675 1.34466 21.4059 1.38424 21.3143 1.42137C21.2222 1.45835 21.0865 1.50225 21.0859 1.50613C21.0888 1.51678 21.201 1.51376 21.2849 1.52153C21.3684 1.52945 21.4297 1.54384 21.3593 1.5719C21.297 1.59723 21.163 1.62903 20.958 1.69077C20.8528 1.72372 20.7306 1.7633 20.5798 1.82734C20.4297 1.89267 20.2462 1.98046 20.0312 2.14322C19.8215 2.30052 19.5613 2.57035 19.4065 2.93199C19.248 3.29263 19.2302 3.67759 19.2709 3.94426C19.3105 4.21783 19.3877 4.41053 19.459 4.56134C19.5318 4.71288 19.604 4.82513 19.6692 4.9168C19.7982 5.09021 19.8552 5.11641 20.0132 5.28636C20.1544 5.4343 20.335 5.59692 20.5285 5.74759C20.7231 5.89942 20.9279 6.03988 21.1368 6.16637L21.0545 6.27747C21.3205 6.49593 21.3749 6.48024 21.3854 6.43304C21.3983 6.38353 21.3793 6.29863 21.5186 6.34122C21.4389 6.3159 21.6644 6.42368 21.9252 6.50658C22.1831 6.5922 22.4789 6.64631 22.4915 6.64804L22.5528 6.66243L22.6283 6.67797C22.6865 6.6892 22.7586 6.70057 22.8332 6.70776C22.9822 6.72273 23.1434 6.72071 23.2119 6.69726C23.3428 6.65236 23.3582 6.65581 23.3872 6.6666C23.4178 6.67754 23.4597 6.69539 23.6741 6.67884C23.7864 6.67078 23.913 6.64113 24.1066 6.62689C24.3194 6.61106 24.6364 6.62703 24.9684 6.66027C25.0028 6.6607 25.2282 6.71856 25.2486 6.72072C25.4408 6.7187 25.4515 6.72359 25.4773 6.74576C25.4905 6.75712 25.5077 6.77353 25.5539 6.79929C25.5254 6.84261 25.4798 6.89542 25.4159 6.95917C25.3822 6.99227 25.4623 6.97213 25.4313 6.99976L25.3838 7.03948C25.2637 7.13561 25.0667 7.26657 24.9871 7.33406C24.8473 7.45365 24.8347 7.521 24.6772 7.69412C24.6331 7.74492 24.5465 7.8258 24.4728 7.93301C24.4364 7.9864 24.4042 8.048 24.3922 8.11549C24.3892 8.13233 24.3878 8.14931 24.3881 8.16644L24.3883 8.17968C24.3881 8.19162 24.3891 8.19263 24.3895 8.19968C24.3908 8.21076 24.3914 8.22199 24.3938 8.23264C24.4011 8.27595 24.4171 8.3138 24.4344 8.34704C24.5334 8.51297 24.6736 8.56363 24.8143 8.65674C24.9487 8.74193 25.0961 8.85936 25.061 8.84224C25.1901 8.90657 25.1328 8.8267 25.2281 8.86857C25.6968 9.07494 26.4047 9.33211 26.9927 9.49242C27.1393 9.53444 27.271 9.56035 27.4235 9.61014C27.5798 9.65044 27.7407 9.68397 27.9298 9.74513C28.0819 9.79363 28.3722 9.94991 28.5158 10.0108C28.7022 10.0881 28.909 10.1652 29.1335 10.2741C29.3568 10.3844 29.6034 10.5224 29.8466 10.7655C30.0146 10.9337 30.2048 11.2045 30.3006 11.5496C30.3481 11.7199 30.371 11.9015 30.3698 12.0713C30.3691 12.2415 30.3478 12.4 30.3197 12.5393C30.2989 12.6418 30.3297 12.7179 30.3028 12.8019L30.2452 12.9568L30.2354 12.983L30.2068 13.0444C30.1917 13.0761 30.1764 13.1086 30.1591 13.1392C30.0924 13.2646 30.0121 13.3839 29.9251 13.4931C29.7504 13.712 29.5536 13.8884 29.3692 14.044C29.2762 14.1245 29.0441 14.2875 28.7934 14.4196C28.5424 14.5549 28.2736 14.6689 28.0914 14.744C27.7617 14.8849 27.1976 15.0265 26.6969 15.1521L26.4042 15.2301L26.3478 15.2459C26.3386 15.2504 26.3349 15.2544 26.3287 15.2582L26.298 15.2798C26.2605 15.3058 26.233 15.3239 26.1875 15.3327C26.1394 15.3422 26.0662 15.3288 25.9833 15.3136C25.9011 15.2986 25.8089 15.2826 25.7444 15.2825C25.5832 15.2841 25.4501 15.3196 25.3735 15.3805C25.3348 15.4117 25.3076 15.4487 25.2948 15.5021C25.2797 15.5539 25.2951 15.6371 25.3337 15.7067C25.3518 15.7457 25.3628 15.8128 25.4025 15.8528C25.4431 15.8964 25.5365 15.9759 25.6119 16.0377C25.6883 16.1028 25.8061 16.1854 25.9044 16.2339C25.9475 16.2549 25.9482 16.2743 25.9869 16.2881C26.0119 16.2968 26.067 16.306 26.1148 16.3103C26.1632 16.3155 26.2036 16.3152 26.2153 16.3282C26.2367 16.3506 26.1992 16.4325 26.2321 16.4784C26.1855 16.5373 26.1312 16.5532 26.0732 16.5622C26.0158 16.5727 25.9508 16.5773 25.8807 16.646C25.9452 16.6335 26.0466 16.6688 26.1309 16.6325C26.1465 16.626 26.1743 16.6214 26.2065 16.6059C26.239 16.5911 26.272 16.5601 26.2946 16.5239C26.3405 16.4503 26.3606 16.3743 26.3729 16.3352L26.3907 16.2729C26.397 16.251 26.4048 16.1955 26.4094 16.1652C26.4123 16.1467 26.4163 16.176 26.4169 16.1418L26.415 16.111L26.4147 16.0258C26.4109 15.8912 26.4104 16.0091 26.3848 16.154C26.3857 16.1129 26.3937 16.0339 26.3989 15.9651C26.4044 15.8947 26.4071 15.8404 26.407 15.7964C26.4067 15.7495 26.4068 15.7568 26.4026 15.722C26.4006 15.7062 26.3972 15.6784 26.3913 15.6519L26.3861 15.6329C26.3819 15.6357 26.376 15.6449 26.3713 15.6508C26.3612 15.6644 26.3517 15.6793 26.3439 15.6961C26.3241 15.7388 26.3311 15.7704 26.3225 15.8076C26.3146 15.843 26.2996 15.8871 26.2894 15.9269C26.2842 15.9469 26.28 15.9662 26.2776 15.9836C26.2764 15.9924 26.2756 16.0008 26.2754 16.0085C26.2753 16.0105 26.275 16.0123 26.2753 16.0141C26.275 16.0154 26.2764 16.015 26.2744 16.0176L26.2603 16.0321L26.2065 16.0875C25.7965 16.5132 25.3773 16.9829 24.9515 17.2711C24.9368 17.2811 24.7008 17.4065 24.4614 17.5253L23.9834 17.7573C23.8983 17.7487 24.181 17.5602 24.3593 17.3465C24.5452 17.125 24.553 17.0926 24.6107 17.0431C24.6667 16.9932 24.7739 16.9274 25.1249 16.6304C25.2098 16.558 25.2896 16.4296 25.3527 16.3699C25.5687 16.1658 25.7938 15.9692 25.9655 15.7937C25.9883 15.7699 26.0204 15.7381 26.0342 15.7214L26.0452 15.6958L26.0673 15.642L26.1151 15.5267C26.1492 15.4474 26.1895 15.3637 26.2376 15.2865C26.2615 15.2483 26.2892 15.21 26.3186 15.1713L26.3408 15.142C26.3481 15.1327 26.3573 15.1166 26.3579 15.1324C26.3632 15.149 26.3674 15.1664 26.371 15.1841C26.3851 15.2547 26.3908 15.3275 26.394 15.3776C26.3962 15.4149 26.3969 15.4248 26.3967 15.4799C26.398 15.5233 26.3924 15.7226 26.3923 15.6226C26.3943 15.4988 26.3947 15.3979 26.3929 15.3198C26.3911 15.2405 26.3875 15.1831 26.3805 15.1193C26.3776 15.0931 26.3734 15.0617 26.3674 15.0304C26.3644 15.0147 26.3608 14.9991 26.3565 14.9842L26.3495 14.9624C26.3467 14.956 26.3458 14.9424 26.336 14.9624C26.3232 14.9829 26.2711 15.0563 26.251 15.0895C26.233 15.1195 26.2292 15.1979 26.2219 15.2087C26.1816 15.2688 26.0948 15.2999 26.0538 15.3583C26.0325 15.3893 26.0506 15.4492 26.0436 15.4582C26.0132 15.4976 25.9837 15.5261 25.9545 15.5552L25.9326 15.5768L25.922 15.5876L25.885 15.6205L25.7276 15.7649C25.5244 15.9564 25.3553 16.1228 25.1141 16.3349C24.6799 16.7138 24.3531 16.9396 23.9121 17.3106C23.7477 17.4475 23.6607 17.5725 23.5085 17.6832C23.0455 18.0161 22.5005 18.2802 21.8967 18.5293C21.5349 18.6713 21.1731 18.805 20.6126 18.8597C20.3295 18.8813 19.9834 18.8837 19.5423 18.7689C19.323 18.7102 19.0806 18.6172 18.8384 18.4775C18.5962 18.3386 18.3579 18.1502 18.1557 17.9328C18.0007 17.7707 17.7951 17.502 17.664 17.2631C17.6313 17.2046 17.6005 17.1489 17.5646 17.0709L17.5197 16.9723L17.505 16.9461L17.4982 16.9337L17.4949 16.9278L17.4942 16.9264L17.4938 16.9257L17.4936 16.9252L17.4772 16.88L17.4723 16.8671L17.4372 16.7694C17.4163 16.7091 17.4011 16.6534 17.3901 16.6125C17.3097 16.3033 17.2949 16.02 17.3071 15.7856C17.3202 15.5493 17.3592 15.356 17.4065 15.1846C17.5034 14.8449 17.6329 14.5735 17.8076 14.2774C18.0079 13.9438 18.2209 13.6888 18.4221 13.47C18.624 13.2521 18.8174 13.0722 18.9966 12.9142L19.1278 12.8006L19.189 12.7487L19.1863 12.7426C19.1828 12.735 19.1789 12.7287 19.1755 12.7238C19.1687 12.7139 19.1632 12.7097 19.1661 12.711C19.168 12.7123 19.1917 12.7257 19.2233 12.732C19.2539 12.739 19.291 12.7393 19.2932 12.7398C19.3346 12.748 19.3947 12.7665 19.4383 12.8065C19.4827 12.8458 19.5076 12.9081 19.5017 12.9807C19.4996 13.0083 19.4924 13.0362 19.4816 13.0656C19.4761 13.0802 19.4699 13.0952 19.4629 13.1106L19.4574 13.1223C19.4593 13.1223 19.4501 13.1302 19.4423 13.1369L19.4193 13.1572L19.3203 13.2444C19.1853 13.3643 19.0383 13.4972 18.8797 13.656C18.7213 13.8163 18.5495 14.0001 18.3664 14.2546C18.1888 14.5097 17.9763 14.8462 17.8617 15.3627C17.8069 15.6181 17.7895 15.9163 17.8321 16.2067C17.8522 16.3519 17.8872 16.4925 17.9312 16.6239L17.9758 16.7481L17.9885 16.7746L18.0416 16.8927C18.068 16.9513 18.0887 16.9893 18.1118 17.0333C18.1339 17.0756 18.1611 17.1212 18.1867 17.1643C18.2405 17.2526 18.3011 17.3417 18.3706 17.4304C18.5093 17.6074 18.6827 17.7809 18.8835 17.9241C19.0831 18.0685 19.305 18.1794 19.5197 18.2521C19.7359 18.3263 19.9412 18.3622 20.1293 18.3783C20.4799 18.4054 20.7365 18.3625 20.9558 18.3144C21.1748 18.2642 21.3557 18.2016 21.5294 18.1381C22.0168 17.9561 22.3952 17.7648 22.6276 17.6173C22.9406 17.4168 23.313 17.0382 24.0339 16.5669Z" fill="#EB0029"/>
<path d="M33.4935 27.8404C33.5992 27.4382 33.426 27.0757 33.3179 26.6968C33.2104 26.3197 33.1036 25.9209 32.9293 25.5651C32.7867 25.2736 32.4432 25.0281 32.2201 24.7914C31.9205 24.4732 31.5818 24.2035 31.2945 23.8663C31.0022 23.5234 28.995 21.7103 28.8673 21.65C28.741 21.59 28.3664 21.3692 28.1292 21.2511C27.5081 20.8264 26.8709 20.4688 26.2803 19.971C25.2974 19.1428 24.2865 18.3362 23.2357 17.632C22.9728 17.456 22.7802 17.2076 22.5118 17.0305C22.2463 16.855 21.91 16.8126 21.6269 16.6882C21.3696 16.5753 21.1068 16.5013 20.8616 16.3771C20.5132 16.2005 20.5207 16.0868 20.5669 15.7995C20.6262 15.7784 20.6981 15.7606 20.7858 15.7429C21.4716 15.6029 21.9214 15.2812 22.4915 14.843C22.7147 14.6715 23.0073 14.4683 23.1964 14.2636C23.3502 14.0971 23.2881 13.8849 23.5434 13.9281C23.7126 13.9568 23.9177 14.333 23.9724 14.4759C23.9499 14.3271 23.9347 14.1841 23.9256 14.032C23.997 14.1462 24.082 14.2991 24.1311 14.3998C24.2967 14.0961 24.1059 13.761 24.1823 13.4172C24.2405 13.1554 24.5713 12.9595 24.5165 12.6993C24.4378 12.848 24.315 12.9592 24.1472 12.9377C24.1822 12.8749 24.1841 12.7124 24.2193 12.65C23.6274 12.7195 24.0561 12.0129 24.0068 11.749C23.807 11.7883 23.6179 11.8808 23.3892 11.8733C23.6601 11.6987 24.1456 11.6253 24.4779 11.6468C24.2796 11.5069 24.0142 11.4037 23.7512 11.3988C23.9597 11.3382 24.4405 11.2008 24.6899 11.4688C24.4661 11.2084 24.2403 11.0549 23.9299 10.9187C23.6592 10.8 23.1162 10.7656 23.1072 10.4958C23.1047 10.4251 23.3331 10.1613 23.374 10.0688C23.4277 9.94764 23.4685 9.78891 23.4924 9.67306C23.5575 9.35862 23.4655 9.14448 23.4615 8.83738C23.3341 9.2337 23.042 9.75178 22.9932 10.1419C22.8408 9.71005 22.9762 9.1452 23.1506 8.73865C23.2908 8.41198 23.451 7.87361 23.7211 7.64004C23.5011 7.673 23.2511 7.74495 23.2009 7.99809C22.8676 7.42461 22.5802 6.82825 22.2584 6.24815C22.2606 6.3781 22.2128 6.43105 22.1925 6.53726C21.9955 6.15086 22.1243 5.6335 21.8922 5.26409C21.9296 5.69337 21.8051 6.24527 21.5099 6.54474C21.3132 6.08466 21.2253 5.9219 21.3726 5.43218C21.4829 5.06578 21.5888 4.61074 21.4567 4.20405C21.4139 4.41027 21.368 4.67809 21.2119 4.82833C21.1808 4.69492 21.1353 4.56353 21.1502 4.41732C21.0458 4.6329 20.8724 4.85596 20.6551 4.959C20.6255 4.36609 20.6076 3.78484 20.6062 3.18459C20.6019 3.19768 20.5915 3.20315 20.5738 3.19927C20.5411 3.16343 20.587 3.12285 20.522 3.1122C20.4207 3.21884 20.3474 3.35526 20.2622 3.48852C20.4775 2.61585 21.0733 1.76391 21.2371 0.889508C20.482 1.42226 20.1156 2.25306 19.5881 2.97577C19.9668 2.13131 20.1513 1.21978 20.4813 0.343225C20.2186 0.67465 19.8911 0.945201 19.7086 1.33779C19.7447 1.03068 19.8397 0.728185 19.9181 0.426118C19.5858 0.822734 19.2615 1.47968 19.157 1.98869C19.1638 1.51321 19.3249 0.818273 19.0835 0.417627C19.0407 0.548585 19.0114 0.69379 18.9991 0.830217C18.8453 0.611905 18.8177 0.295591 18.6119 0.162187C18.5793 0.574921 18.6283 1.08782 18.51 1.48328C18.4934 1.39866 18.3982 1.23216 18.3597 1.14696C18.3412 1.20251 18.3128 1.2536 18.296 1.31188C18.1686 1.08321 18.1152 0.771501 17.9743 0.512751C17.9741 0.687458 17.9575 0.874685 17.9244 1.04666C17.773 0.675082 17.522 0.362941 17.3696 0C17.2203 0.542253 17.1093 1.18783 16.848 1.69454C16.739 1.59927 16.7048 1.43032 16.698 1.28209C16.7189 1.61611 16.5784 2.07187 16.478 2.31048C16.4452 2.15232 16.4129 1.99157 16.3575 1.87601C16.4028 2.23982 16.4584 2.61298 16.4724 3.0047C16.3325 2.86669 16.2936 2.66809 16.2627 2.49094C16.0445 3.10198 16.2786 3.82053 16.3574 4.43761C16.4807 5.40454 16.8246 6.73873 16.1247 7.53528C16.1822 6.77903 16.0402 5.91557 16.0072 5.13414C15.9756 4.38177 15.6118 3.71907 15.8402 2.96153C15.3395 3.89608 15.817 5.52514 15.8796 6.54863C15.939 7.51945 16.264 8.35024 16.3575 9.29616C16.3814 9.53649 16.5116 10.1684 16.3184 10.3699C16.0157 10.6853 15.8761 10.1331 15.7414 9.90764C15.4355 9.39575 15.0422 8.83666 14.6117 8.39284C14.2124 7.98111 13.2409 7.85591 13.0693 8.48077C12.8965 9.11037 13.2994 9.51879 13.6962 9.90965C13.4537 9.63852 13.2211 9.33602 13.1534 9.0387C12.9771 8.26562 13.4812 8.1053 14.0796 8.40579C14.6079 8.67102 15.0366 9.07022 15.3178 9.59665C15.4618 9.86633 15.5276 10.1495 15.7001 10.412C15.8535 10.6453 16.148 10.8367 16.2575 11.0481C15.8425 11.1221 15.1501 10.7894 15.0698 10.3391C15.019 10.957 15.2313 11.3197 15.7511 11.5694C16.1916 11.7812 17.0375 12.0595 16.0927 12.2668C15.7613 12.3394 14.6335 12.5364 15.4519 12.9771C15.8235 13.1771 15.9662 12.8768 16.0927 13.3301C16.1676 13.5972 16.1085 13.9439 15.7672 13.8856C16.076 14.1131 16.4485 13.8855 16.7679 13.8516C16.8255 14.0915 16.8016 14.5325 17.0204 14.7053C17.2664 14.8994 17.4823 14.602 17.6589 14.9179C17.924 15.3926 17.6039 15.9677 17.2283 16.2693C17.1565 16.2587 17.0769 16.2603 16.985 16.2793C16.4906 16.382 15.8312 16.8394 15.368 17.0741C14.8152 17.3544 14.2561 17.6301 13.7392 17.9536C12.7113 18.5969 11.7494 19.4444 10.6444 19.9933C10.1006 20.2635 9.52955 20.3729 8.9814 20.6679C8.36719 20.9985 7.70146 21.3011 7.06409 21.569C6.71654 21.7152 4.67849 22.9319 4.42262 23.0708C4.12846 23.2304 4.0319 23.4093 3.83935 23.6729C3.55527 24.0621 3.37337 24.448 3.13779 24.8628C3.05734 25.0045 2.94955 25.1116 2.8786 25.24L2.87846 25.2398C2.7144 25.4938 2.63194 25.7891 2.6626 26.0923C2.66878 26.1545 2.67742 26.2158 2.68519 26.2774C2.46472 26.6644 2.18352 27.6332 2.38298 27.746C2.45062 27.7843 2.60863 27.3993 2.7688 27.035C2.78276 27.1489 2.81097 27.2681 2.87918 27.2936C3.0241 27.1614 3.00006 26.8155 3.01777 26.6321C3.02194 26.5881 3.02985 26.5445 3.03762 26.5008C3.07605 26.4471 3.10972 26.4197 3.13779 26.4228C3.30846 26.442 3.10469 27.9351 3.27249 27.9591C3.38675 27.9754 3.49828 26.6048 3.70954 26.6055C3.80092 26.6058 3.83518 27.8534 3.968 27.8524C4.11191 27.8512 4.07263 27.2297 4.06385 27.0126C4.05464 26.7804 4.10314 26.4632 4.0637 26.2386C4.04658 26.2577 4.08141 26.2201 4.0637 26.2386C4.07479 26.2666 4.08385 26.2958 4.08817 26.3279C4.10932 26.4865 4.11119 26.6488 4.13552 26.8082C4.14832 26.892 4.16933 27.1052 4.26734 27.1416C4.42665 27.2007 4.48032 26.9528 4.49831 26.8556C4.53731 26.6452 4.55501 26.4305 4.59128 26.2203C4.63273 25.9804 4.7372 25.7583 4.75951 25.513C4.79347 25.1386 4.81866 24.7668 4.71864 24.4151C4.74066 24.3764 4.78513 24.3657 4.8945 24.2752C5.17124 24.0459 5.63218 23.8682 5.96015 23.7142C6.66862 23.3814 7.33752 22.9387 8.04124 22.6398C8.65444 22.3795 9.23857 21.9864 9.88415 21.7519C11.1868 21.2785 12.3243 20.5105 13.6742 20.1204C14.3612 19.9218 14.9639 19.7281 15.3999 20.4121C15.7409 20.9465 15.7863 21.2667 15.9926 21.8414C16.0324 21.9522 16.1389 22.4369 16.2496 22.8139L16.2481 22.8142C16.3179 23.1005 15.8993 23.0378 15.7427 23.1346C15.5883 23.2301 15.4935 23.466 15.3745 23.6167C15.2471 23.7778 15.0803 23.9314 14.9777 24.108C14.8256 24.3699 14.9331 24.5712 14.857 24.8452C14.7519 25.2234 14.6471 24.9753 14.3746 24.9887C14.2259 24.9959 13.9911 25.1634 13.8856 25.2682C13.714 25.4386 13.7441 25.5499 13.4661 25.5892C13.2109 25.6252 12.9568 25.631 12.6993 25.6464C12.2156 25.6756 11.7697 25.7457 11.2848 25.8251C11.0256 25.8674 10.7623 25.9917 10.5071 26.0407C10.2521 26.0895 10.0161 26.068 9.77535 26.1901C9.28088 26.4403 8.59241 27.1593 8.55744 27.8204L8.55471 27.8206C8.55485 27.8468 8.55571 27.8715 8.55643 27.8964C8.55658 27.9006 8.55672 27.9047 8.55672 27.9089C8.57485 28.4132 8.72049 28.6718 9.12171 29.0498C9.49329 29.3995 9.97999 29.5401 10.3932 29.8008C10.6529 29.9645 10.5507 30.0683 10.7046 30.2885C10.7988 30.4233 11.0291 30.5413 11.1667 30.6176C11.5547 30.8329 11.9045 31.0606 12.2739 31.3091C12.5036 31.4635 12.631 31.3661 12.8687 31.4236C13.0813 31.475 13.1528 31.6432 13.381 31.711C13.6595 31.7936 13.5777 31.8749 13.7843 32.0184C14.025 32.1858 14.1922 31.9945 14.3462 32.2838C14.3894 32.3652 14.3562 32.472 14.4236 32.5484C14.4927 32.6267 14.6031 32.5979 14.6853 32.6551C14.8731 32.7855 14.9106 33.0524 15.1065 33.177C15.306 33.3038 15.5496 33.2347 15.7656 33.313C15.9623 33.3843 16.1778 33.5079 16.3613 33.6053C16.7323 33.8025 17.0651 34.0612 17.4407 34.2497C17.6612 34.3605 17.8491 34.3922 18.0647 34.4564C18.2833 34.5213 18.5354 34.7186 18.7749 34.6573C19.0449 34.5881 18.9705 34.3931 18.8253 34.2012C18.6901 34.0225 18.635 33.8724 18.5123 33.6918C18.2997 33.3789 17.8242 33.1995 17.5478 32.9487C17.1716 32.6072 17.26 32.2609 17.3256 31.8251C17.3996 31.3353 17.3119 31.0994 16.9517 30.7746C16.7547 30.5969 16.7046 30.5043 16.4187 30.4806C16.2007 30.4625 15.9366 30.5761 15.7647 30.5593C15.3889 30.5226 15.3707 29.9156 15.0912 29.7298C15.0108 29.6764 14.88 29.7169 14.7934 29.6596C14.6863 29.5888 14.666 29.4657 14.6087 29.3643C14.5759 29.3061 14.5457 29.2477 14.5166 29.1894C14.5347 29.1916 14.5533 29.1932 14.573 29.1942C15.0344 29.2153 15.4856 29.2071 15.9359 29.2572C16.3847 29.3069 16.8629 29.2635 17.2978 29.2217C17.7287 29.1799 18.1683 29.1114 18.5697 28.9869C18.7743 28.9235 18.902 28.8027 19.1438 28.7931C19.3616 28.7845 19.6044 28.853 19.8252 28.8859C19.9933 28.9111 20.2524 28.977 20.4775 28.9823C21.524 29.1589 22.6107 29.1468 23.6769 28.8833C23.5681 29.0104 23.3157 29.2549 23.1681 29.3295C22.9362 29.4465 22.8018 29.3421 22.8302 29.7042C22.379 29.6705 22.334 30.1211 21.9336 30.1661C21.713 30.191 20.9028 29.9854 20.9842 30.4187C20.609 30.5226 20.6702 30.9979 20.7399 31.2756C20.8264 31.6202 20.8632 31.9662 20.6705 32.3061C20.5129 32.5843 19.4182 33.783 19.1793 33.6607C19.0489 33.8032 18.802 34.1519 18.9515 34.3365C19.1154 34.5389 19.4591 34.2824 19.6259 34.2221C19.865 34.1358 19.9495 34.0393 20.1438 33.9203C20.3238 33.8101 20.5949 33.8266 20.7918 33.7422C20.9767 33.6629 21.1965 33.5629 21.3652 33.4626C21.4561 33.4086 21.5235 33.3161 21.615 33.2552C21.7465 33.168 21.7317 33.1995 21.8677 33.1703C22.0207 33.1373 22.0084 33.1906 22.1467 33.1059C22.2108 33.0667 22.2714 32.9364 22.3589 32.8842C22.5566 32.7653 22.7293 32.7964 22.9125 32.6195C22.9916 32.5431 23.0404 32.4412 23.1191 32.3685C23.2508 32.2468 23.2592 32.2985 23.4022 32.2262C23.4978 32.178 23.5634 32.0722 23.6358 32.0317C23.7362 31.9757 23.8465 32.0163 23.9493 31.9472C24.1517 31.8112 24.0994 31.5388 24.259 31.3688C24.474 31.1397 24.6722 31.1709 24.9063 31.2314C25.2333 31.3157 25.2601 31.2861 25.4244 31.0305C25.5868 30.7778 25.719 30.7447 25.9844 30.6514C26.2456 30.5596 26.2405 30.483 26.4181 30.2826C26.6418 30.03 26.8075 30.1566 27.0945 30.0824C27.5921 29.9534 27.7526 29.3413 28.1151 29.0494C28.5093 28.7319 28.9558 28.5456 29.2861 28.1426C29.785 27.5336 30.1173 26.2948 29.2513 25.7826C28.8262 25.5312 28.1543 25.6412 27.6877 25.4757C27.2442 25.3185 26.7729 25.2178 26.2981 25.1954C25.7725 25.1703 25.2501 25.1581 24.7285 25.1585L24.7367 25.046C24.4845 24.4814 24.0901 24.6506 23.6191 24.4985C23.3821 24.4221 23.2592 24.2546 22.9906 24.2284C22.7398 24.204 22.5467 24.3033 22.3167 24.3089C22.103 23.9328 22.4571 23.6473 22.3528 23.2855C22.2892 23.0639 21.9704 22.7916 21.7631 22.6782C21.7539 22.5178 21.7628 22.3392 21.7891 22.154C21.8015 22.0996 21.8108 22.0443 21.817 21.9887C22.0132 20.9814 22.7045 19.8714 23.7902 20.3362C24.9428 20.8297 25.959 21.8348 27.0256 22.4389C27.8421 22.9014 28.6605 23.3789 29.4113 23.9429C29.7229 24.1768 30.0399 24.4283 30.3567 24.6701C30.4165 24.7158 30.4817 24.7708 30.5498 24.8295L30.5706 24.8526C30.5727 24.8526 30.5747 24.8528 30.5768 24.8528C30.7013 24.9611 30.8349 25.0801 30.9653 25.1812C31.0801 25.2826 31.1931 25.3837 31.3106 25.4801C31.5341 25.6632 31.9361 25.9565 31.9764 26.2688C32.0191 26.5989 31.8953 26.9857 31.9122 27.3413C31.9211 27.531 31.9637 27.7156 31.9392 27.9042C31.925 28.0134 31.7994 28.4644 31.9058 28.5493C32.1498 28.7439 32.3563 27.9558 32.3818 27.8349C32.4019 27.7381 32.4166 27.3903 32.5465 27.4473C32.6289 27.4835 32.6805 27.9376 32.7053 28.0226C32.8928 28.6663 32.1886 29.1955 32.2347 29.8271C32.4648 29.8647 32.7716 29.1638 32.9502 29.0167C33.0738 29.266 33.0567 29.7556 33.3333 29.8914C33.4589 29.574 33.3431 29.1622 33.3768 28.822C33.4097 28.4871 33.4111 28.1539 33.4935 27.8404Z" fill="#EB0029"/>
<path d="M13.6958 9.91028C13.8449 10.0768 13.9977 10.2312 14.1185 10.3653C14.0006 10.2085 13.8486 10.0607 13.6958 9.91028Z" fill="#EB0029"/>
<path d="M20.606 3.15435C20.606 3.16457 20.6061 3.17465 20.6061 3.18501C20.6084 3.1781 20.6096 3.1699 20.6083 3.15838C20.6075 3.1237 20.6068 3.12226 20.606 3.15435Z" fill="#EB0029"/>
</svg>
