<svg width="40" height="34" viewBox="0 0 40 34" fill="none" xmlns="http://www.w3.org/2000/svg">
<path d="M16.5226 26.9994C16.2598 26.858 16.0344 26.7412 15.8151 26.6165C15.0737 26.1968 14.637 25.5019 14.2509 24.7836C14.0034 24.3239 13.8674 23.8048 13.6391 23.333C13.425 22.8922 13.6767 22.5244 13.7518 22.1278C13.8393 21.6545 14.2926 21.3917 14.4338 20.9426C14.501 20.7293 14.6182 20.532 14.7166 20.3294C14.7541 20.2537 14.7864 20.1316 14.8454 20.1146C15.2427 20.0012 15.2394 19.625 15.3629 19.3366C15.4865 19.0481 15.5883 18.7555 15.7054 18.467C15.785 18.2739 15.8181 18.1011 15.7223 17.8882C15.6165 17.6405 15.5691 17.3715 15.5837 17.1023C15.5946 16.8312 15.6589 16.5439 15.4579 16.2978C15.3888 16.2131 15.4561 16.1204 15.4868 16.0271C15.5751 15.7571 15.5864 15.4774 15.4087 15.2407C15.3235 15.1273 15.3103 15.0339 15.3625 14.9186C15.5083 14.5957 15.479 14.3931 15.1413 14.1477C14.6805 13.8132 14.4432 13.2616 14.246 12.7228C14.0462 12.1769 13.8013 11.6579 13.4645 11.183C13.3796 11.0639 13.303 10.9641 13.1415 10.9562C12.9454 10.946 12.8865 10.8193 12.8624 10.6322C12.7956 10.1082 13.0093 9.73807 13.4964 9.46398C13.0003 9.21749 12.5575 9.03148 12.0279 9.18384C11.7455 9.26512 11.4958 9.24357 11.3144 8.89538C11.1773 8.63301 10.8078 8.57025 10.5531 8.39861C10.3068 8.23264 10.0949 8.05344 10.0649 7.73512C10.0349 7.41679 10.0119 7.05462 10.2185 6.80586C9.98952 7.07572 9.85215 7.41216 9.82642 7.76612C9.7006 7.76083 9.44372 7.55138 9.2935 7.4856C9.03812 7.37219 8.78048 7.26633 8.5221 7.16123C8.0226 6.95783 7.5186 6.76502 7.01535 6.57146C6.00885 6.18395 5.0016 5.79304 4.03341 5.31404C3.90159 5.24901 3.78178 5.19646 3.64696 5.29854C3.62367 5.31631 3.5756 5.33256 3.55795 5.32084C3.18239 5.0649 2.63595 5.24296 2.3186 4.79534C2.1789 4.59838 1.87883 4.53751 1.68015 4.40027C1.52242 4.29215 1.64936 3.94358 1.46871 3.733C1.20958 3.43056 1.04283 3.03964 0.750645 2.76706C0.477237 2.51187 0.235753 2.27294 0.0562356 1.93534C0.0130462 1.85405 -0.025638 1.75274 0.0216825 1.6741C0.413767 1.94933 0.809232 2.21989 1.20808 2.48579C1.0556 2.32776 0.980111 2.10509 0.970722 1.88506C0.967681 1.66402 1.00722 1.44448 1.08715 1.23858C1.11869 1.51872 1.30159 1.73308 1.45181 1.95689C1.62821 2.22823 1.82628 2.48464 2.04407 2.72359C2.23749 2.93114 2.4617 3.09295 2.6983 3.24606C2.8534 3.34625 3.13394 3.5039 3.22107 3.67176C3.26802 3.76173 3.20267 3.99575 3.27929 4.04717C3.33525 4.08497 3.38595 4.04112 3.41073 3.99575C3.56809 3.70691 3.78629 3.79689 4.01801 3.87855C5.38843 4.36285 6.76711 4.81689 8.21001 5.04184C8.9754 5.16093 9.68483 5.47093 10.4018 5.74994C10.5332 5.80098 10.6414 5.83614 10.7398 5.70042C10.7574 5.67584 10.7931 5.64446 10.8149 5.64711C11.4301 5.71365 11.9926 5.32802 12.6093 5.43653C12.8061 5.47093 13.0142 5.49324 13.1689 5.65013C13.1974 5.67924 13.2587 5.72007 13.2759 5.70911C13.5937 5.50798 14.0101 5.69928 14.3091 5.44976C14.4541 5.32916 14.6261 5.33068 14.7906 5.29854C15.0726 5.24523 15.3674 5.23805 15.6386 5.15223C16.0318 5.02785 16.375 5.11178 16.7112 5.30534C16.8148 5.36007 16.9255 5.39991 17.0402 5.42367C17.3211 5.49437 17.5382 5.64144 17.6651 5.9246C17.9171 6.48753 18.5266 6.72268 19.1027 6.50605C19.2297 6.45804 19.3142 6.38319 19.3033 6.25087C19.2282 5.35411 19.754 4.65698 20.0683 3.8899C20.406 3.07858 20.7893 2.28728 21.2164 1.51985C21.5544 0.90097 22.0584 0.478681 22.6168 0.108184C22.9406 -0.106931 23.3338 0.032574 23.573 0.232567C24.3215 0.863545 25.094 1.4915 25.4944 2.43702C25.5208 2.48373 25.5424 2.533 25.559 2.58408C25.6889 3.24758 26.0731 3.7693 26.4648 4.29593C27.0184 5.04108 27.0199 5.91704 26.976 6.79451C26.9715 6.87958 26.9493 6.96388 26.9384 7.04932C26.9159 7.2289 26.8257 7.44364 26.8926 7.5786C26.9677 7.73285 27.1983 7.56802 27.3605 7.61414C27.7361 7.72 28.091 7.86139 28.3535 8.16422C28.4925 8.32489 28.6112 8.32905 28.7494 8.17253C28.9991 7.88861 29.3052 7.82586 29.6766 7.87311C29.9853 7.91092 30.2775 7.73058 30.6012 7.72189C30.7571 7.71735 30.8893 7.70904 31.0177 7.7907C31.4042 8.03606 31.5627 8.01753 31.9056 7.67728C32.12 7.46443 32.4156 7.30791 32.6706 7.31736C32.9684 7.32833 33.2587 7.54004 33.5832 7.39865C34.3719 7.79674 35.2176 7.67048 36.0408 7.63834C36.6357 7.61566 37.234 7.6251 37.8293 7.5476C38.2007 7.49959 38.5744 7.47577 38.924 7.33627C39.1452 7.2478 39.3048 7.30942 39.416 7.49656C39.4739 7.59269 39.5263 7.69202 39.573 7.7941C39.5997 7.85458 39.5936 7.99069 39.6751 7.99749C39.7127 8.00052 39.7503 7.98615 39.7878 7.98653C39.814 7.9885 39.8396 7.99594 39.8628 8.00837C39.886 8.0208 39.9064 8.03795 39.9226 8.05873C39.9548 8.10056 39.9808 8.14677 40 8.19598C39.9249 8.22773 39.8396 8.23378 39.7626 8.26214C39.6124 8.31771 39.5933 8.49463 39.475 8.5952C39.3022 8.74188 39.1062 8.76911 38.9255 8.59974C38.8286 8.50863 38.7253 8.53546 38.6251 8.56722C37.708 8.85946 36.7473 8.97515 35.8279 9.25529C35.3825 9.47948 34.7974 9.48213 34.3163 9.57399C34.3026 9.57868 34.2882 9.58044 34.2738 9.57913C34.2594 9.57783 34.2455 9.57351 34.2329 9.56643C34.222 9.55461 34.2138 9.54053 34.2089 9.52519C34.204 9.50984 34.2024 9.4936 34.2044 9.47759C34.1968 9.26235 34.1259 9.0542 34.0008 8.8795C34.1056 9.30859 34.0861 9.78684 33.8506 10.1607C33.8042 10.2397 33.7425 10.3085 33.6692 10.363C33.5981 10.4079 33.5213 10.443 33.4408 10.4673C33.2054 10.5501 32.9526 10.6908 32.6999 10.6617C32.6348 10.6581 32.5707 10.6779 32.5188 10.7176C32.0787 11.0617 31.5567 11.1365 31.029 11.2401C30.6872 11.3074 30.3812 11.5123 30.018 11.5883C29.6339 11.6661 29.2449 11.7167 28.8538 11.7395C28.5263 11.7599 28.2829 11.9225 27.99 11.9766C27.8022 12.0113 27.6201 12.0684 27.4266 12.0654C26.6894 12.0548 26.0799 12.2888 25.7085 12.9792C25.5899 13.1984 25.431 13.3929 25.2401 13.5523C24.7042 13.9995 24.7549 14.5655 24.9209 15.133C25.049 15.57 25.0584 15.9783 24.8507 16.3805C24.7444 16.5866 24.676 16.7945 24.6922 17.0278C24.6948 17.0701 24.7046 17.1246 24.6843 17.1548C24.4109 17.5601 24.6437 17.9328 24.7508 18.3147C24.9525 19.033 25.0306 19.7679 25.0264 20.5135C25.0264 20.7369 25.005 20.9634 25.1789 21.1531C25.2277 21.2065 25.2262 21.3153 25.2311 21.3996C25.2518 21.7561 25.156 21.8299 24.827 21.7172C24.7696 21.6975 24.7143 21.673 24.6017 21.6287C24.6952 21.851 24.7519 22.0321 24.8439 22.1958C24.9904 22.4624 25.1068 22.7251 25.0862 23.0453C25.0711 23.2555 25.2416 23.3655 25.4095 23.4464C25.6882 23.5814 25.9728 23.7035 26.2538 23.8351C26.493 23.9485 26.6158 24.1424 26.5722 24.4022C26.5347 24.623 26.6425 24.733 26.795 24.8558C26.9621 24.9893 27.0702 24.8683 27.1979 24.8063C27.2265 24.7923 27.2531 24.7625 27.2817 24.7606C27.5517 24.7432 27.7778 24.6562 27.8657 24.3186C27.9637 24.5224 27.8165 24.6211 27.8281 24.7704C28.0305 24.7534 28.2101 24.8271 28.3915 24.9216C28.9762 25.2241 29.6154 25.2528 30.2512 25.235C30.8957 25.2173 31.5281 25.2449 32.1459 25.4483C32.5241 25.573 32.7408 25.8104 32.7844 26.238C32.885 27.2161 32.5275 27.7147 31.586 28.0402C31.0614 28.2272 30.4918 28.2441 29.9572 28.0886C29.0059 27.824 28.026 27.7593 27.0552 27.6304C27.0342 27.6278 27.0128 27.6274 26.9914 27.6251C26.4141 27.5665 26.3657 27.6149 26.4693 28.2213C26.5347 28.6024 26.5903 28.9907 26.7104 29.3555C26.9767 30.163 26.8678 30.9256 26.6158 31.7202C26.416 32.3501 26.0284 32.7077 25.4407 32.8631C24.9525 32.992 24.456 32.9641 23.9508 32.8654C22.9533 32.6703 22.0486 32.2454 21.1368 31.8253C20.7698 31.6563 20.3939 31.4961 19.9842 31.4473C19.846 31.4288 19.7169 31.3677 19.6146 31.2722C19.3371 31.0303 18.9886 30.9603 18.6382 30.904C18.5319 30.887 18.4173 30.8915 18.352 31C18.1815 31.2836 17.9231 31.4711 17.6677 31.6665C17.1224 32.0824 16.8584 32.7073 16.5305 33.2812C16.4389 33.4412 16.36 33.609 16.2106 33.7179C15.666 34.1141 15.266 34.1307 14.907 33.524C14.439 32.7327 14.3534 31.9592 14.928 31.1826C15.0996 30.9509 15.2533 30.7074 15.4298 30.4779C15.6528 30.188 15.6551 29.8156 15.5898 29.4572C15.5417 29.1827 15.4632 28.9098 15.4805 28.6304C15.5398 27.658 15.6168 27.5404 16.5226 26.9994ZM17.101 27.173C17.2418 27.3525 17.3669 27.4641 17.4319 27.6043C17.5892 27.9446 17.7857 28.1117 18.18 27.948C18.3261 27.8871 18.518 27.9302 18.687 27.9351C18.782 27.9378 18.8819 27.9752 18.9694 27.9223C19.2699 27.7408 19.5793 27.7642 19.8967 27.8591C20.0093 27.8928 20.1175 27.8735 20.2347 27.8319C20.2052 27.7646 20.1624 27.704 20.1089 27.6539C20.0553 27.6037 19.9922 27.5651 19.9233 27.5404C19.5108 27.3698 19.1139 27.1633 18.7369 26.9234C18.6881 26.8924 18.6415 26.8664 18.5905 26.8958C18.1488 27.1522 17.6535 27.1461 17.101 27.173Z" fill="#EB0029"/>
</svg>
