<svg width="81" height="63" viewBox="0 0 81 63" fill="none" xmlns="http://www.w3.org/2000/svg">
<g clip-path="url(#clip0_278_3651)">
<path d="M31.0531 50.0295C30.5592 49.7675 30.1358 49.551 29.7237 49.3198C28.3307 48.5422 27.5101 47.2546 26.7847 45.9236C26.3197 45.0717 26.0642 44.1099 25.6352 43.2356C25.233 42.4188 25.7057 41.7371 25.8469 41.0023C26.0113 40.1252 26.863 39.6383 27.1283 38.8061C27.2546 38.4109 27.4748 38.0453 27.6597 37.6698C27.7302 37.5297 27.7909 37.3034 27.9017 37.2719C28.6483 37.0617 28.6419 36.3647 28.8741 35.8301C29.1062 35.2956 29.2975 34.7534 29.5176 34.2189C29.6672 33.8609 29.7293 33.5408 29.5494 33.1464C29.3506 32.6873 29.2615 32.1888 29.289 31.6899C29.3095 31.1876 29.4301 30.6552 29.0526 30.1992C28.9228 30.0423 29.0491 29.8706 29.1069 29.6976C29.2728 29.1974 29.2939 28.679 28.9602 28.2404C28.8 28.0303 28.7753 27.8572 28.8734 27.6436C29.1472 27.0453 29.0921 26.6698 28.4577 26.2152C27.5919 25.5952 27.146 24.5731 26.7755 23.5748C26.4001 22.5632 25.94 21.6014 25.3071 20.7215C25.1476 20.5008 25.0036 20.3159 24.7002 20.3012C24.3319 20.2823 24.2211 20.0476 24.1759 19.7008C24.0503 18.7298 24.4518 18.044 25.367 17.5361C24.4349 17.0794 23.6029 16.7347 22.608 17.017C22.0773 17.1676 21.6081 17.1277 21.2672 16.4825C21.0097 15.9963 20.3153 15.88 19.8369 15.562C19.374 15.2544 18.976 14.9224 18.9196 14.3325C18.8631 13.7427 18.8201 13.0715 19.2082 12.6106C18.778 13.1107 18.5198 13.7341 18.4715 14.39C18.2351 14.3802 17.7524 13.9921 17.4702 13.8702C16.9904 13.66 16.5063 13.4638 16.0208 13.2691C15.0823 12.8922 14.1353 12.5349 13.1898 12.1762C11.2986 11.4582 9.4061 10.7338 7.58696 9.84623C7.33928 9.72574 7.11417 9.62837 6.86085 9.81752C6.8171 9.85044 6.72678 9.88056 6.69361 9.85885C5.98797 9.38458 4.96126 9.71453 4.36499 8.88509C4.10249 8.5201 3.53869 8.40732 3.1654 8.15302C2.86903 7.95267 3.10754 7.30676 2.76813 6.91656C2.28123 6.35612 1.96793 5.63176 1.41894 5.12666C0.905231 4.6538 0.451504 4.21105 0.114207 3.58546C0.0330576 3.43485 -0.0396266 3.24711 0.0492843 3.10139C0.785975 3.61139 1.52902 4.11275 2.27841 4.60546C1.99192 4.31263 1.85009 3.90001 1.83244 3.49229C1.82673 3.0827 1.90102 2.6759 2.0512 2.29436C2.11047 2.81347 2.45412 3.21068 2.73637 3.6254C3.0678 4.1282 3.43997 4.60334 3.84917 5.0461C4.21258 5.4307 4.63385 5.73054 5.0784 6.01426C5.36983 6.1999 5.89694 6.49203 6.06065 6.80307C6.14886 6.9698 6.02608 7.40343 6.17003 7.49871C6.27517 7.56876 6.37043 7.4875 6.41701 7.40343C6.71267 6.86822 7.12264 7.03495 7.55802 7.18627C10.1329 8.08366 12.7233 8.92502 15.4344 9.34184C16.8725 9.56252 18.2055 10.137 19.5525 10.654C19.7995 10.7485 20.0027 10.8137 20.1876 10.5622C20.2208 10.5167 20.2878 10.4585 20.3287 10.4634C21.4846 10.5867 22.5416 9.87215 23.7003 10.0732C24.0701 10.137 24.461 10.1783 24.7517 10.469C24.8053 10.523 24.9204 10.5986 24.9528 10.5783C25.5498 10.2056 26.3323 10.5601 26.894 10.0977C27.1664 9.87426 27.4896 9.87706 27.7987 9.81752C28.3286 9.71874 28.8825 9.70543 29.392 9.54641C30.1308 9.31593 30.7758 9.47144 31.4073 9.83012C31.602 9.93154 31.8101 10.0053 32.0255 10.0494C32.5533 10.1804 32.9612 10.4529 33.1997 10.9776C33.6731 12.0207 34.8184 12.4565 35.9009 12.0551C36.1394 11.9661 36.2981 11.8274 36.2777 11.5822C36.1365 9.92049 37.1244 8.62869 37.7151 7.20729C38.3495 5.70391 39.0698 4.23763 39.8722 2.81557C40.5073 1.66877 41.4543 0.886268 42.5036 0.199734C43.1118 -0.198876 43.8506 0.0596276 44.3001 0.430216C45.7065 1.59943 47.158 2.76303 47.9102 4.51509C47.9598 4.60165 48.0004 4.69295 48.0316 4.7876C48.2757 6.01706 48.9976 6.98381 49.7336 7.95967C50.7737 9.34044 50.7765 10.9636 50.694 12.5896C50.6855 12.7472 50.6439 12.9034 50.6234 13.0617C50.581 13.3945 50.4117 13.7924 50.5373 14.0425C50.6784 14.3283 51.1117 14.0229 51.4165 14.1083C52.1222 14.3045 52.789 14.5665 53.2823 15.1276C53.5433 15.4254 53.7663 15.4331 54.026 15.1431C54.4952 14.6169 55.0703 14.5007 55.7682 14.5882C56.3483 14.6583 56.8973 14.3241 57.5055 14.308C57.7984 14.2996 58.0467 14.2842 58.2881 14.4355C59.0142 14.8902 59.312 14.8558 59.9562 14.2253C60.3591 13.8309 60.9145 13.5409 61.3936 13.5584C61.9532 13.5787 62.4986 13.971 63.1083 13.709C64.5902 14.4467 66.1793 14.2127 67.726 14.1532C68.8438 14.1112 69.9679 14.1287 71.0863 13.985C71.7842 13.8961 72.4863 13.8519 73.1433 13.5934C73.5589 13.4295 73.8588 13.5437 74.0676 13.8905C74.1763 14.0686 74.2748 14.2527 74.3626 14.4418C74.4127 14.5539 74.4014 14.8061 74.5546 14.8187C74.6251 14.8243 74.6957 14.7977 74.7662 14.7984C74.8155 14.802 74.8635 14.8158 74.9071 14.8389C74.9507 14.8619 74.989 14.8937 75.0196 14.9322C75.0799 15.0097 75.1289 15.0953 75.1649 15.1865C75.0238 15.2453 74.8636 15.2565 74.719 15.3091C74.4367 15.4121 74.4007 15.7399 74.1784 15.9263C73.8538 16.1981 73.4855 16.2485 73.1461 15.9347C72.964 15.7658 72.77 15.8156 72.5816 15.8744C70.8584 16.4159 69.0534 16.6303 67.3259 17.1494C66.4891 17.5648 65.3897 17.5697 64.4857 17.74C64.4601 17.7487 64.4329 17.7519 64.4059 17.7495C64.3789 17.7471 64.3527 17.7391 64.3291 17.726C64.3086 17.7041 64.2932 17.678 64.2839 17.6495C64.2747 17.6211 64.2718 17.591 64.2755 17.5613C64.2612 17.1625 64.1281 16.7768 63.893 16.4531C64.0899 17.2482 64.0532 18.1344 63.6107 18.8272C63.5237 18.9736 63.4077 19.1011 63.2699 19.202C63.1362 19.2852 62.992 19.3502 62.8409 19.3954C62.3984 19.5488 61.9235 19.8094 61.4487 19.7554C61.3265 19.7488 61.2059 19.7856 61.1085 19.8591C60.2815 20.4966 59.3007 20.6353 58.3092 20.8273C57.6671 20.952 57.092 21.3317 56.4097 21.4725C55.688 21.6168 54.9571 21.7104 54.2222 21.7527C53.6068 21.7905 53.1496 22.0918 52.5992 22.1919C52.2464 22.2564 51.9041 22.3622 51.5407 22.3566C50.1555 22.3369 49.0103 22.7706 48.3124 24.0498C48.0897 24.456 47.791 24.8165 47.4325 25.1118C46.4255 25.9406 46.5208 26.9893 46.8327 28.0408C47.0733 28.8506 47.0909 29.6072 46.7007 30.3526C46.501 30.7344 46.3726 31.1197 46.4029 31.5519C46.4079 31.6304 46.4262 31.7313 46.3881 31.7873C45.8744 32.5383 46.3119 33.229 46.513 33.9366C46.8919 35.2676 47.0387 36.6295 47.031 38.0109C47.031 38.425 46.9907 38.8446 47.3175 39.1963C47.4092 39.295 47.4064 39.4968 47.4155 39.653C47.4543 40.3136 47.2744 40.4502 46.6563 40.2415C46.5483 40.205 46.4446 40.1595 46.2329 40.0775C46.4086 40.4895 46.5151 40.825 46.688 41.1284C46.9632 41.6222 47.182 42.1091 47.1432 42.7025C47.1149 43.092 47.4353 43.2958 47.7507 43.4458C48.2743 43.6959 48.8092 43.9221 49.337 44.1659C49.7865 44.3761 50.0172 44.7355 49.9354 45.2167C49.8648 45.6259 50.0673 45.8297 50.3538 46.0574C50.6678 46.3047 50.8711 46.0805 51.111 45.9656C51.1646 45.9397 51.2147 45.8844 51.2683 45.8809C51.7757 45.8486 52.2005 45.6875 52.3656 45.0619C52.5498 45.4395 52.2732 45.6224 52.2951 45.8991C52.6754 45.8675 53.0127 46.0042 53.3535 46.1793C54.4522 46.7397 55.6532 46.793 56.8479 46.76C58.0587 46.7271 59.247 46.7783 60.4078 47.1551C61.1184 47.3863 61.5256 47.8263 61.6074 48.6186C61.7965 50.4309 61.1248 51.3549 59.3557 51.9581C58.3701 52.3046 57.2999 52.336 56.2953 52.0478C54.5079 51.5574 52.6669 51.4376 50.8428 51.1987C50.8033 51.1938 50.7631 51.1931 50.7229 51.1889C49.6383 51.0803 49.5473 51.17 49.742 52.2937C49.8648 52.9998 49.9693 53.7193 50.1951 54.3953C50.6954 55.8916 50.4907 57.3046 50.0172 58.7772C49.6418 59.9443 48.9136 60.607 47.8093 60.8949C46.8919 61.1338 45.9591 61.082 45.01 60.8992C43.1358 60.5377 41.4359 59.7503 39.7226 58.972C39.0332 58.6588 38.3269 58.3618 37.557 58.2714C37.2973 58.2372 37.0547 58.1239 36.8627 57.947C36.3412 57.4987 35.6863 57.3691 35.028 57.2647C34.8283 57.2332 34.6131 57.2416 34.4903 57.4427C34.1699 57.9681 33.6844 58.3155 33.2046 58.6777C32.18 59.4483 31.6839 60.6063 31.0679 61.6698C30.8957 61.9661 30.7476 62.2771 30.4667 62.4789C29.4435 63.213 28.692 63.2439 28.0174 62.1195C27.1382 60.6533 26.9773 59.2199 28.0569 57.781C28.3794 57.3516 28.668 56.9004 28.9997 56.4752C29.4188 55.9379 29.4231 55.2478 29.3003 54.5837C29.21 54.0751 29.0625 53.5693 29.0949 53.0516C29.2064 51.2498 29.3511 51.032 31.0531 50.0295ZM32.1398 50.351C32.4044 50.6838 32.6394 50.8905 32.7615 51.1504C33.0571 51.7808 33.4262 52.0905 34.1671 51.7872C34.4416 51.6744 34.8022 51.7542 35.1197 51.7633C35.2982 51.7682 35.486 51.8376 35.6504 51.7395C36.2149 51.4033 36.7963 51.4467 37.3926 51.6225C37.6043 51.6849 37.8075 51.6491 38.0277 51.5721C37.9723 51.4473 37.8919 51.335 37.7913 51.2421C37.6907 51.1493 37.5721 51.0778 37.4427 51.032C36.6677 50.7158 35.9218 50.3332 35.2136 49.8887C35.1218 49.8312 35.0343 49.7829 34.9384 49.8375C34.1085 50.3125 33.1778 50.3013 32.1398 50.351Z" fill="#EB0029"/>
<path d="M75.0691 9.47408C75.0331 9.12381 74.9788 8.76793 74.9322 8.41556C74.9205 8.36996 74.9257 8.3217 74.947 8.27965C74.9648 8.25754 74.9893 8.24171 75.0169 8.23452C75.0445 8.22733 75.0737 8.22915 75.1001 8.23972C75.1525 8.26253 75.198 8.2985 75.2321 8.3441C75.5934 8.76443 75.6555 9.36059 75.6971 9.91332L75.7564 10.6601C75.7409 10.4639 75.8559 10.1473 75.9469 9.97566C76.0379 9.80403 76.1861 9.66323 76.2701 9.47408C76.3816 9.22328 76.5319 8.98369 76.661 8.74411C76.7653 8.55882 76.8432 8.36008 76.8925 8.15355C76.9291 7.97351 77.0089 7.81378 77.0668 7.63794C77.2079 7.21762 77.2622 6.77557 77.3427 6.34194C77.3511 6.2978 77.3751 6.24176 77.4196 6.24947C77.4333 6.25287 77.4459 6.25961 77.4563 6.26909C77.7061 6.46664 77.783 6.72444 77.7752 7.03198C77.7682 7.29048 77.7484 7.54898 77.716 7.80258C77.914 7.28426 77.9738 6.72392 77.8895 6.17591C77.8834 6.15599 77.8816 6.13501 77.8843 6.11435C77.887 6.0937 77.894 6.07384 77.9051 6.05612C77.9207 6.04199 77.9405 6.03336 77.9616 6.03159C77.9827 6.02982 78.0037 6.03499 78.0215 6.04631C78.056 6.07025 78.0842 6.10225 78.1033 6.13949C78.4463 6.70903 78.3905 7.49224 78.1866 8.10101C78.2518 7.98035 78.3036 7.85304 78.3411 7.72131C78.4286 7.40116 78.5091 7.07961 78.579 6.75456C78.6036 6.63827 78.6008 6.38957 78.7158 6.35945C78.8309 6.32933 78.9981 6.51428 79.0468 6.60184C79.1167 6.75264 79.1438 6.91955 79.1251 7.08452C79.1032 7.41728 79.0016 7.76615 78.9304 8.0912C78.8379 8.51153 78.7292 8.92695 78.6954 9.35218C78.67 9.67514 78.6763 10.0023 78.6093 10.3189C78.5564 10.5683 78.459 10.8093 78.3814 11.0496C78.2544 11.4495 78.1816 11.8643 78.1647 12.2833C78.1556 12.5102 78.1365 12.9838 78.4202 13.0658C79.0059 13.2423 79.4554 13.7425 80.1102 13.7488C80.2311 13.7592 80.3499 13.7865 80.463 13.8301C80.6698 13.8945 80.8864 14.0045 80.957 14.2217C80.9881 14.3358 81.0029 14.4537 81.0007 14.5719C80.6677 14.4185 80.1476 14.4725 79.7877 14.4823C79.3479 14.4993 78.9102 14.5514 78.4788 14.6378C77.6278 14.7982 76.7852 15.0336 75.9229 15.1058C75.7373 15.1212 75.5531 15.1506 75.3704 15.1835C75.2427 15.2066 75.0543 15.2655 74.9244 15.2424C74.8654 15.2278 74.8089 15.2041 74.7572 15.1723C74.6465 15.1222 74.547 15.0508 74.4643 14.9622C74.3944 14.8669 74.3475 14.7568 74.3275 14.6406C74.3139 14.6036 74.3087 14.5641 74.3122 14.5248C74.3157 14.4856 74.3279 14.4476 74.3479 14.4136C74.37 14.3904 74.3935 14.3686 74.4185 14.3485C74.4561 14.3077 74.4819 14.2576 74.4932 14.2035C74.5045 14.1493 74.5009 14.0932 74.4827 14.0409C74.4121 13.8182 74.1786 13.6423 74.0127 13.491C73.7735 13.2717 73.7876 13.1407 74.0791 13.0237C74.6436 12.7898 74.8849 12.3421 74.9371 11.7628C74.9858 11.2254 75.1093 10.7 75.1072 10.1578C75.1059 9.92941 75.0932 9.70122 75.0691 9.47408Z" fill="#EB0029"/>
</g>
<defs>
<clipPath id="clip0_278_3651">
<rect width="81" height="63" fill="white"/>
</clipPath>
</defs>
</svg>
