<svg width="78" height="63" viewBox="0 0 78 63" fill="none" xmlns="http://www.w3.org/2000/svg">
<path d="M53.3181 10.9512C53.3512 10.8239 53.5628 10.7487 53.7646 10.725C53.9664 10.7012 54.1754 10.704 54.3593 10.6497C54.5995 10.5796 54.8514 10.4139 55.0737 10.5044C55.18 10.5474 55.2702 10.6469 55.3862 10.6175C55.4541 10.5994 55.4755 10.5462 55.5139 10.5072C55.647 10.38 55.9747 10.4258 56.1667 10.333C56.4453 10.1984 56.2989 9.85572 56.6132 9.75336C56.7918 9.87721 56.9829 10.0045 57.2266 10.0729C57.4704 10.1413 57.7874 10.1357 57.9723 10.0163C58.1777 9.88174 58.1902 9.63517 58.4625 9.56391C58.5621 9.54341 58.6674 9.53666 58.7715 9.54411C59.3339 9.55741 59.8967 9.52453 60.4458 9.44627C61.2209 9.33317 61.579 9.07415 61.7593 8.58666C61.7838 8.54022 61.7838 8.49001 61.7593 8.44358C61.7386 8.42114 61.7159 8.39942 61.6915 8.37854C61.4897 8.16477 61.9531 7.79434 62.0817 7.61224C62.2996 7.30176 62.3299 6.94717 62.3201 6.6118C62.3139 6.39859 62.2933 6.17804 62.4139 5.9784C62.4451 5.93714 62.4662 5.89308 62.4764 5.84776C62.4748 5.79862 62.4587 5.75011 62.4291 5.70469C62.1549 5.16121 62.2228 4.55325 62.0228 3.99733C61.9674 3.84294 61.879 3.6942 61.8067 3.5449C61.5986 3.10774 61.5665 2.68528 61.2227 2.27414C60.8789 1.86299 60.3529 1.64017 59.8832 1.31273C59.3573 0.942864 58.859 0.577524 58.1446 0.347916C57.5695 0.161855 56.9293 0.0798513 56.2908 0.0363049C55.38 -0.0259041 54.6692 -0.0270338 53.8021 0.186174C53.4628 0.269873 53.1226 0.355836 52.7958 0.455936C52.0599 0.68724 51.5393 1.03505 50.9089 1.34892C50.1794 1.71256 49.457 2.08808 48.739 2.46416C48.3926 2.65552 48.023 2.8293 47.6335 2.98388C47.2219 3.13714 46.7557 3.22311 46.3628 3.38429C46.0646 3.50588 45.711 3.58901 45.4699 3.75584C45.4464 3.76921 45.4299 3.78676 45.4225 3.80617C45.4118 3.85085 45.4877 3.88253 45.5529 3.90232C45.9573 4.01775 46.3243 4.17979 46.6352 4.3802C46.9462 4.58312 47.1392 4.84693 47.1826 5.1284C47.0576 4.93725 46.8254 4.78229 46.5798 4.646C46.1253 4.39546 45.577 4.23994 45.0323 4.08499C44.5099 3.93625 44.0286 3.73718 43.4911 3.61955C42.5649 3.41075 41.5923 3.29622 40.6095 3.28023C40.1675 3.26812 39.7248 3.27757 39.2852 3.30851C38.8271 3.35149 38.3538 3.54546 37.9323 3.66536C37.5305 3.77846 37.1063 3.89723 36.6679 3.87235C36.562 3.85845 36.4525 3.8596 36.3473 3.87574C36.2631 3.90545 36.1817 3.93831 36.1035 3.97414C35.8089 4.06971 35.4874 3.95095 35.1802 3.97414C34.873 3.99732 34.6962 4.13758 34.4614 4.27274C34.4221 4.30149 34.3692 4.32134 34.3105 4.3293C34.2451 4.32844 34.1821 4.31348 34.1319 4.28688C33.9015 4.19017 33.6184 4.09799 33.3613 4.16133C33.1827 4.20545 33.0487 4.31912 32.8576 4.33438C32.5004 4.36379 32.3049 4.0437 31.9522 3.99506C31.6646 3.95265 31.2485 4.05162 30.9494 4.06123C30.536 4.07341 30.1217 4.05978 29.7126 4.02052C29.534 4.00298 29.3447 3.97753 29.2117 3.89949C29.0572 3.80957 29.0036 3.66479 28.8455 3.5777C28.4562 3.36336 27.9231 3.61389 27.4838 3.48269C27.2507 3.41313 27.0301 3.31303 26.7694 3.29946C26.255 3.2774 25.9077 3.60937 25.4889 3.79995C24.8808 4.07763 24.0289 4.06915 23.4351 4.35757C23.2966 4.42431 23.1672 4.52723 23.21 4.63356C22.7877 4.75458 22.2635 4.6149 21.8 4.60246C21.203 4.58612 20.6049 4.60639 20.0141 4.66296C18.6747 4.79134 17.4129 4.99267 16.052 5.03961C15.2671 5.06676 14.4867 5.12614 13.7053 5.17647C13.3133 5.20192 12.9222 5.22567 12.5293 5.24207C12.3918 5.24829 11.6488 5.35518 11.5747 5.30768C11.5561 5.29282 11.5388 5.27734 11.5229 5.2613C11.4274 5.18382 11.2354 5.22172 11.097 5.26583C11.0158 5.28727 10.9434 5.32015 10.8853 5.36197C10.8572 5.38343 10.8412 5.41023 10.8399 5.4381C10.8386 5.46597 10.8521 5.49332 10.8782 5.51579C10.5264 5.67358 10.0683 5.6289 9.64857 5.69111C9.27888 5.74767 8.9342 5.86077 8.56183 5.90262C7.95194 5.97614 7.4358 5.81666 6.93307 5.61986C6.43033 5.42305 5.88472 5.13349 5.29894 5.31333C5.26822 5.32088 5.24199 5.33433 5.22393 5.35179C5.19625 5.38572 5.23197 5.42588 5.26768 5.45698C5.57486 5.72391 5.97402 6.04457 6.51069 6.11583C5.25058 6.08465 4.01931 5.86778 2.91472 5.48243C2.65576 5.39138 2.31376 5.2941 2.09319 5.41852C2.02837 5.46166 1.98613 5.51642 1.97223 5.57532C1.95833 5.63422 1.97344 5.6944 2.01551 5.74767C2.10399 5.85291 2.23415 5.94178 2.39323 6.00555C2.78524 6.18369 3.29959 6.20914 3.71839 6.35958C4.07558 6.48682 4.54528 6.75884 4.95426 6.7973C5.38466 6.83745 6.03206 6.64121 6.40443 6.51905C6.16848 6.73273 5.83466 6.89539 5.44806 6.98506C4.93729 7.1106 4.31043 7.11909 3.77018 7.17338C3.39203 7.21677 3.01001 7.24529 2.62629 7.25878C2.01015 7.27292 1.39668 7.21014 0.78768 7.14567L0.162604 7.0812C-0.202619 7.04388 0.150996 7.44484 0.225112 7.51271C0.479607 7.74514 0.869832 7.73327 1.28953 7.76211C1.62122 7.78479 1.94813 7.82992 2.26464 7.89671C1.85388 7.8854 1.5208 7.89671 1.1154 7.85373C0.859008 7.82764 0.605936 7.78984 0.358164 7.74062C0.232256 7.94534 0.42335 8.18456 0.707313 8.31011C1.08682 8.47977 1.5342 8.48713 1.96371 8.56065C2.81203 8.70486 3.68357 8.81513 4.56581 8.81004C5.34359 8.80552 6.14011 8.6483 6.90806 8.67771C7.29237 8.6999 7.67261 8.74458 8.04391 8.81118L8.69131 8.91354C8.85294 9.01703 8.79311 9.11204 8.8574 9.25286C8.8847 9.29785 8.88628 9.34747 8.86187 9.39312C8.82434 9.42337 8.77556 9.44727 8.71989 9.46268L8.22608 9.68493C8.12267 9.72539 8.03187 9.77753 7.95819 9.83876C7.66708 10.1119 7.86889 10.5519 8.39842 10.6271C8.63805 10.6526 8.884 10.6388 9.11279 10.587C9.20062 10.5743 9.28201 10.5479 9.34943 10.5101C9.43873 10.4495 9.45658 10.3568 9.49588 10.2754C9.56229 10.1379 9.70884 10.0216 9.90575 9.95017C10.6514 9.68097 11.1104 9.25908 11.7738 8.91411C12.048 8.77159 12.3328 8.62003 12.5293 8.43114C12.6186 8.34461 12.7436 8.22415 12.7516 8.11726C12.7588 8.03073 12.623 7.93685 12.7052 7.85485C12.7343 7.82855 12.7776 7.80986 12.8269 7.80226C12.8762 7.79466 12.9281 7.79868 12.9731 7.81357C13.0034 7.82903 13.0375 7.84126 13.074 7.84976C13.1201 7.8512 13.1655 7.84196 13.2017 7.82375L13.6098 7.66427C13.6174 7.62811 13.6123 7.59134 13.5946 7.55661C13.577 7.52188 13.5474 7.49008 13.508 7.4635C14.8474 7.15925 16.1717 7.27801 17.5513 7.40412C18.5863 7.49856 19.6051 7.63712 20.6356 7.76041C21.0226 7.81 21.4147 7.84194 21.809 7.85598C22.0197 7.86164 22.2438 7.81809 22.434 7.89105C22.6796 7.98436 22.7118 8.19983 22.9207 8.32651C23.3217 8.57026 23.9699 8.66584 24.5048 8.68676C24.9567 8.70486 25.4076 8.72182 25.8595 8.71956C26.1747 8.71956 26.5497 8.568 26.8319 8.60023C26.9293 8.61785 27.0204 8.64745 27.0998 8.68733C27.7713 8.97009 28.6544 8.91976 29.4394 8.80779C29.5277 8.79136 29.6198 8.78466 29.7117 8.78799C29.8398 8.80429 29.9598 8.83978 30.0618 8.89148C30.8288 9.21497 31.5798 9.37841 32.4603 9.5328C32.5701 9.5526 32.6915 9.57635 32.7505 9.63856C32.8782 9.77315 32.6192 9.92132 32.3995 9.99145C32.0816 9.88674 31.7289 9.83161 31.3706 9.83063C31.0123 9.82964 30.6588 9.88284 30.3395 9.9858C30.2215 10.033 30.095 10.0709 29.9626 10.0989C29.7358 10.134 29.4894 10.087 29.2697 10.1357C29.1072 10.1719 28.9759 10.2567 28.8071 10.2782C28.366 10.3347 28.0178 9.93886 27.5766 9.99541C27.3204 10.0276 27.1748 10.2001 27.1078 10.3596C27.0409 10.5191 27.0105 10.695 26.8399 10.8211C26.6908 10.9342 26.4622 10.9828 26.2631 11.0564C25.8461 11.2113 25.521 11.5783 25.3835 11.8645C25.3424 11.9482 25.3147 12.0432 25.2049 12.0975C24.8951 12.2525 24.3745 12.3299 24.0003 12.4097C23.0913 12.6025 22.334 13.0227 21.4205 13.2077C21.3943 13.1715 21.3506 13.1416 21.2956 13.1224C21.2406 13.1032 21.1774 13.0956 21.1151 13.1008C20.9913 13.1127 20.8721 13.1396 20.7642 13.1799C20.396 13.2945 20.0058 13.3779 19.6033 13.4282C19.2863 13.4684 18.8827 13.4237 18.6782 13.6109C18.1835 13.2393 17.3281 13.1341 16.803 12.7801C16.5217 12.5907 16.3565 12.3452 16.1985 12.1054C15.9993 11.8029 15.8413 11.4879 15.5654 11.2091C15.4475 11.0914 15.2689 10.9093 15.0296 10.8799C14.8438 10.8567 14.4045 10.9619 14.4349 11.1112C14.454 11.1621 14.4934 11.209 14.5492 11.2475C14.8805 11.5246 15.16 11.7921 15.326 12.1281C15.4055 12.2898 15.7225 12.6088 15.4153 12.7434C15.3138 12.7802 15.2 12.8013 15.0832 12.805C14.5768 12.3791 13.9902 11.994 13.4053 11.61C13.2057 11.4738 12.9946 11.3445 12.7731 11.2226C12.6335 11.1386 12.4607 11.08 12.273 11.053C12.0837 11.0343 11.864 11.0875 11.7953 11.2011C11.7319 11.3063 11.814 11.4274 11.9346 11.5088C12.3569 11.7989 12.7856 11.9686 13.0954 12.3345C13.1352 12.3882 13.1837 12.4392 13.2401 12.4866C13.3981 12.6059 13.6455 12.6506 13.8035 12.7694C13.9584 12.8999 14.0918 13.0402 14.2018 13.1879L13.9687 13.3632L12.3275 12.7745C11.7158 12.555 11.0987 12.3333 10.5781 12.0342C10.5134 11.9895 10.4316 11.9562 10.3406 11.9375C10.1388 11.9098 9.96022 12.0455 9.94682 12.1761C9.92718 12.3571 10.1174 12.5222 10.3379 12.6376C10.5585 12.753 10.8201 12.8361 11.03 12.96C11.2711 13.1019 11.4229 13.2993 11.7211 13.3977C12.2033 13.5543 12.6614 13.7274 13.132 13.8914C13.2794 13.9429 13.4294 14.0045 13.4937 14.1057C13.558 14.207 13.4937 14.3421 13.3285 14.3664C12.8472 14.4377 12.3775 14.4083 11.8837 14.423C11.7367 14.4309 11.5887 14.4287 11.4425 14.4162C11.2909 14.3942 11.1418 14.3658 10.9961 14.3314C10.6192 14.255 10.0781 14.1368 9.67447 14.2302C8.98867 14.3891 9.43783 14.8098 9.99593 14.8426C10.3674 14.8647 10.7505 14.9654 11.1211 15.0366C11.5283 15.1147 11.9247 15.1067 12.3141 15.1995C12.6829 15.2866 12.9856 15.282 13.3856 15.2804C13.7922 15.2805 14.1938 15.3368 14.5624 15.4455C14.9311 15.5541 15.2578 15.7124 15.5198 15.9092C15.4525 15.7411 15.3485 15.5796 15.2109 15.4297C15.4466 15.6299 15.6886 15.8414 15.7422 16.0885C15.7984 16.347 15.6377 16.6037 15.452 16.8367C15.2662 17.0697 15.0501 17.3005 14.9823 17.5578C14.9144 17.8151 15.0367 18.1143 15.3921 18.2466C15.5243 18.2958 15.5707 18.3427 15.7145 18.3099C15.9467 18.2573 15.9315 18.052 15.9324 17.8954C15.9337 17.7659 15.9758 17.6379 16.0561 17.5189C16.1365 17.3999 16.2535 17.2921 16.4003 17.202C16.5494 17.1116 16.7262 17.0409 16.87 16.947C17.0923 16.8022 17.2272 16.6077 17.4388 16.4606C17.6504 16.3136 18.7559 15.8629 18.9926 16.0681C19.0756 16.1411 19.1158 16.2423 19.2453 16.2785C19.3103 16.2938 19.3808 16.2973 19.4489 16.2887C19.9337 16.2474 20.3463 16.0376 20.824 15.9709C21.0919 15.9335 21.3741 15.9426 21.6465 15.9143C21.9188 15.886 22.2019 15.812 22.3367 15.6598C22.3992 15.5891 22.426 15.5049 22.5153 15.4466C22.6004 15.4004 22.7028 15.3687 22.8127 15.3544C24.432 15.0574 26.1007 14.8817 27.7847 14.8308C27.9972 14.9105 28.2231 14.9868 28.4366 15.066C28.7366 15.1791 29.0456 15.2922 29.3893 15.3296C29.7331 15.3669 30.1225 15.3149 30.3395 15.1418C30.4288 15.0705 30.4841 14.984 30.5645 14.9082C30.6001 14.8684 30.6498 14.8343 30.7098 14.8088C30.7698 14.7833 30.8384 14.767 30.9101 14.7612C31.0297 14.7612 31.1431 14.8019 31.2628 14.7991C31.4539 14.794 31.5834 14.6792 31.6923 14.5797C31.9691 14.3274 31.8879 13.862 32.0495 13.5515C32.2522 13.1556 32.5567 12.7892 32.8594 12.4244C32.754 12.6951 32.6484 12.9662 32.5424 13.2376C32.3218 13.8032 32.0959 14.3845 32.1665 14.9682C32.2093 15.3386 32.3174 15.73 32.3629 16.0992C32.3924 16.2599 32.3924 16.4221 32.3629 16.5828C32.304 16.8282 32.1129 17.0522 31.995 17.2891C31.6271 18.0323 32.0102 18.8472 31.7807 19.6129C31.4396 20.7531 31.7566 21.8129 31.7745 22.9733C31.7816 23.4597 31.8405 23.941 31.6852 24.416C31.6634 24.4647 31.6576 24.5156 31.6682 24.5657C31.6788 24.6158 31.7055 24.664 31.7468 24.7073C31.9093 24.8475 32.3147 24.8605 32.5594 24.899C32.938 24.9556 33.33 25.0014 33.705 25.0738C33.901 25.117 34.1004 25.1536 34.3024 25.1835C34.9436 25.2615 35.6589 25.1269 36.2295 25.3277C36.6831 25.4872 36.9081 25.7473 37.1492 26.0386C37.2342 26.1301 37.2886 26.2318 37.3091 26.3372C37.3296 26.5204 37.1733 26.698 37.1921 26.8818C37.2171 27.1176 37.5234 27.3065 37.6011 27.5384C37.6787 27.7702 37.5207 28.0507 37.7421 28.2487C37.8564 28.351 38.0556 28.4104 38.1484 28.5218C38.2869 28.6875 38.1359 28.8979 38.2288 29.0766C38.3386 29.2859 38.7235 29.369 39.0039 29.4996C39.234 29.6079 39.4051 29.759 39.4932 29.9317C39.6139 30.1526 39.8048 30.3554 40.054 30.5278C40.1916 30.6273 40.7336 30.8886 40.4335 31.0452C40.6255 31.328 41.3703 31.2681 41.6319 31.5282C41.6863 31.5971 41.7337 31.6681 41.7739 31.7409C41.9284 31.9495 42.2856 32.0604 42.616 32.1554C42.474 32.2487 42.6713 32.3997 42.8678 32.4382C43.0642 32.4766 43.3142 32.4868 43.4035 32.6027C43.4518 32.6633 43.4437 32.7402 43.5116 32.7928C43.5795 32.8454 43.6902 32.8544 43.7857 32.8782C44.0358 32.9387 44.1947 33.0914 44.3367 33.2356L45.5868 34.5035C45.5586 34.715 45.6071 34.9278 45.7288 35.1256L48.5551 39.7438C48.6604 39.9134 48.3461 40.0266 48.547 40.1611C48.9194 40.411 49.1407 40.736 49.1721 41.079C49.1953 41.3442 49.4275 41.5812 49.6525 41.8052C49.6704 41.8232 49.6016 41.8391 49.6159 41.8199C49.2034 41.843 49.0614 42.0845 48.9328 42.3334C48.8042 42.5822 48.6649 42.8695 48.2916 42.9775C47.7791 43.1251 47.621 43.5306 47.2629 43.8049C46.7691 44.1821 45.911 44.2941 45.4395 44.6849C45.2082 44.876 45.0823 45.0683 44.7876 45.2391C44.493 45.4099 44.1474 45.5694 43.8875 45.7735C43.7195 45.9164 43.5702 46.0677 43.441 46.226C42.8044 46.9397 42.0382 47.6025 41.2747 48.2619C41.1551 48.366 41.0202 48.4762 40.8282 48.5107L41.047 48.4055C40.8729 48.5356 40.6684 48.4921 40.4219 48.5526C39.9755 48.6589 39.762 48.9665 39.4397 49.1882C39.0093 49.4868 38.3726 49.635 37.9163 49.9172C37.727 50.0337 37.5725 50.1711 37.3885 50.291C37.1622 50.4305 36.9162 50.5566 36.6536 50.6677C36.058 50.9375 35.4597 51.2083 34.8079 51.4198C34.4667 51.5301 34.1015 51.6291 33.8435 51.8089C33.5854 51.9888 33.4702 52.2812 33.7024 52.4746C33.1169 52.3645 32.5686 52.1867 32.0852 51.9503C31.9812 51.8899 31.8541 51.8478 31.7164 51.8282C31.194 51.7903 30.7342 52.3937 30.51 52.6199C30.1234 53.0203 29.8608 53.4626 29.6171 53.9037C29.184 54.6836 29.0447 55.5081 28.6803 56.3033C28.3029 57.1277 27.8043 57.9278 27.1909 58.6932C27.056 58.8629 26.9105 59.0325 26.6837 59.1547C26.5703 59.2163 26.4363 59.265 26.3497 59.3425C26.1916 59.4833 26.2336 59.6727 26.23 59.8458C26.2202 60.3842 25.7157 60.8637 25.2308 61.3049L24.5075 61.9649C24.3191 62.1345 24.1244 62.3217 24.1244 62.5304C24.1244 62.8986 24.6325 62.8578 25.0638 62.885L26.6551 62.9851C26.9953 63.006 27.3695 63.023 27.6507 62.9042C27.9713 62.7702 28.0812 62.5083 28.3053 62.3115C28.7402 61.9287 29.5465 61.8218 30.2127 61.6108C31.5414 61.1889 32.4013 60.2971 33.7702 59.9295C33.7577 60.0483 33.5916 60.1314 33.4613 60.2179C33.3309 60.3044 33.2398 60.4509 33.372 60.5346C33.5041 60.6183 33.7399 60.5567 33.8908 60.4814C34.158 60.3567 34.3864 60.2015 34.5641 60.0239C34.6998 59.8741 34.7427 59.6614 35.0999 59.6597C35.3338 59.6597 35.5463 59.826 35.4472 59.9606C35.4133 60.0075 35.3508 60.0443 35.3168 60.0912C35.2994 60.1202 35.292 60.1512 35.2952 60.1822C35.2983 60.2131 35.312 60.2433 35.3352 60.2706C35.3584 60.2979 35.3907 60.3217 35.4297 60.3405C35.4688 60.3592 35.5137 60.3724 35.5615 60.3791C35.6603 60.3865 35.7596 60.369 35.8382 60.3303C35.9167 60.2917 35.9681 60.2351 35.9812 60.1727C35.9973 60.0799 35.958 59.9521 36.0973 59.9221C36.15 59.915 36.2049 59.9176 36.2554 59.9295C37.1921 60.0822 38.2654 59.7395 38.628 59.1711C38.9016 59.0994 39.1658 59.0141 39.4182 58.916C39.0845 58.8983 38.7503 58.9467 38.4619 59.0546C38.392 59.0888 38.3072 59.1086 38.219 59.1111C38.1297 59.1072 38.0627 59.067 37.9797 59.0518C37.8466 59.0286 37.7118 59.0727 37.5894 59.1157L36.4911 59.5031C36.3509 59.5528 36.1839 59.6037 36.0375 59.5596C35.9722 59.5366 35.9156 59.505 35.8714 59.4669L35.5079 59.1965C35.758 59.1351 36.0044 59.0684 36.2473 58.9964C36.459 58.9347 36.6751 58.8651 36.817 58.7486C36.959 58.6321 37.0037 58.4546 36.8572 58.3398C36.7242 58.2351 36.4652 58.2001 36.392 58.0745C36.3188 57.949 36.4652 57.8291 36.6027 57.7352C36.876 57.5474 37.2001 57.3857 37.4671 57.1962C37.7055 57.0266 37.8118 56.918 38.1592 57.1063C38.4592 57.2686 38.7691 57.4309 39.1307 57.5316C39.4924 57.6323 39.9192 57.6651 40.2817 57.565C40.3612 57.5441 40.4343 57.5146 40.4978 57.4779C40.5486 57.4449 40.5955 57.4095 40.638 57.3721C40.9452 57.1255 41.4346 57.0107 41.8516 56.849C42.3248 56.6658 42.8231 56.4916 43.1803 56.2156C43.425 56.0261 43.5893 55.8005 43.8197 55.6037C44.0956 55.3679 44.4608 55.1801 44.785 54.9697C45.2654 54.657 45.6547 54.2945 46.0414 53.9337C46.5262 53.4812 47.1861 53.134 47.68 52.6895C48.8774 51.6104 50.1383 50.5614 51.3107 49.4614C51.5697 49.2188 51.8313 48.9739 52.1698 48.7743C52.8172 48.392 53.7048 48.1991 54.3325 47.8038C54.8844 47.4566 55.1916 46.9804 55.7193 46.6162C56.1542 46.3181 56.7194 46.11 57.1865 45.8324C58.0848 45.2979 58.5679 44.5316 58.7509 43.758C59.2349 41.7147 58.4947 39.4763 57.8356 37.476C57.3252 35.9267 56.6558 34.4001 55.8318 32.9059C55.2175 31.7923 54.7022 30.7122 54.3754 29.5551C54.3687 29.4887 54.3239 29.4261 54.2495 29.3792C54.1102 29.3091 53.9066 29.3645 53.7557 29.4239C52.7457 29.8179 51.8451 30.3147 51.0902 30.8943C52.1421 30.0855 52.9172 29.2389 54.1932 28.536C55.4184 27.8602 56.7909 27.3031 58.3482 27.0017C59.8591 26.7098 61.2119 26.2574 62.6594 25.8627C63.7355 25.5697 64.8392 25.2643 65.6661 24.7384C66.0661 24.4839 66.0965 24.1056 66.1884 23.7515C66.2128 23.6139 66.2583 23.4781 66.3242 23.346C66.4447 23.1402 66.6814 22.9722 66.9189 22.8099C67.5797 22.353 68.2699 21.8824 69.1736 21.6449C68.0217 22.4367 66.8519 23.2499 66.192 24.243C66.3796 24.0427 66.6382 23.8728 66.9474 23.7468C67.2566 23.6207 67.6079 23.542 67.9735 23.5168C67.355 23.697 66.8289 23.9837 66.4554 24.3442C65.9143 24.8639 66.2036 25.2276 66.4438 25.7954C66.7331 26.474 67.0234 27.1634 67.0618 27.8675C67.0716 28.0338 67.0618 28.2068 66.9519 28.3567C66.8537 28.4896 66.6778 28.5982 66.6099 28.7384C66.526 28.916 66.6305 29.1043 66.7233 29.2796C67.0652 29.9241 67.2682 30.5949 67.327 31.2737C67.3448 31.4847 67.4431 31.8212 67.2832 32.0214C67.0841 32.2713 66.5465 32.3205 66.3206 32.5502C66.2744 32.6038 66.2458 32.6629 66.2367 32.7238C66.1299 33.1623 66.1862 33.6106 66.401 34.033C66.5421 34.3078 66.8733 34.7184 66.6483 35.0102C66.4358 35.2862 65.7643 35.2998 65.8107 35.6968C65.8259 35.8206 65.9322 35.9428 65.8884 36.0644C65.8357 36.2109 65.5928 36.2906 65.3758 36.3523L64.3516 36.6463C64.048 36.7317 63.6997 36.8556 63.6747 37.0654C63.6734 37.1461 63.7 37.226 63.7524 37.2995C64.4507 38.4787 65.7946 39.431 66.96 40.4303C67.5431 40.9303 68.0387 41.4664 68.5387 41.9997C68.9682 42.4578 69.529 42.8169 69.9835 43.262C71.0551 44.3122 72.3945 45.2216 73.7858 46.1044C74.1671 46.347 74.5761 46.5975 75.0993 46.6846C75.6226 46.7717 76.2825 46.6281 76.4227 46.295C76.3334 46.2531 76.3852 46.1609 76.4379 46.0965C76.9469 45.471 76.2495 44.7488 75.7619 44.1171C74.885 42.9803 74.6671 41.6547 75.0708 40.4156C75.2613 40.5723 75.5105 40.6963 75.7958 40.7764C76.1102 40.4332 75.2654 40.0215 75.4824 39.6493C75.6235 39.4062 76.1879 39.2167 75.9887 38.9905C75.886 38.874 75.6226 38.8491 75.5056 38.7383C75.3663 38.6059 75.4958 38.4329 75.5771 38.2824C75.6583 38.132 75.6181 37.9086 75.369 37.8894C75.0252 37.8634 74.9136 38.2683 74.5653 38.2547C74.2912 37.7684 73.7456 36.9144 74.435 36.4699C74.4878 36.4331 74.5545 36.4053 74.6287 36.389C74.7346 36.3754 74.8441 36.3785 74.9475 36.3981C75.749 36.5005 76.5748 36.4993 77.3755 36.3947C77.5755 36.3687 77.7916 36.3285 77.9113 36.2216C78.0309 36.1147 78.0113 35.9711 77.9586 35.8455C77.7309 35.3043 76.9371 34.8474 77.054 34.292C77.0933 34.1071 77.2326 33.9385 77.3362 33.7644C77.6246 33.2791 77.5014 32.6582 77.5505 32.1418C77.605 31.5763 77.6595 31.0023 77.5505 30.4373C77.4612 30.0024 77.2826 29.5777 77.1469 29.1468C76.958 28.5005 76.8499 27.8459 76.8237 27.1889C76.7147 25.27 77.4175 23.4365 76.4513 21.5753L74.9332 18.6498C74.852 18.4926 74.7672 18.332 74.6037 18.2031C74.4478 18.092 74.2637 17.9981 74.059 17.9254C72.0052 17.1042 69.4049 17.1336 67.0377 17.2139C63.2498 17.3439 59.5 17.7604 55.8684 18.4547C55.4092 18.5355 54.9612 18.6401 54.529 18.7675C54.0352 18.9201 53.4905 19.1871 52.9217 19.2097C52.3528 19.2323 51.8349 18.9942 51.2295 19.0497C50.841 19.0853 50.4892 19.2086 50.1472 19.3324L49.064 19.717C49.5597 19.2908 50.2186 18.9515 50.9786 18.7313C51.1402 18.6843 51.3179 18.6419 51.4938 18.6617C51.7242 18.6877 51.893 18.8116 52.1028 18.8777C52.6788 19.0593 53.3244 18.7759 53.9334 18.6447C54.612 18.4988 55.4461 18.5203 55.9113 18.1753C55.9435 18.1516 55.9801 18.1244 56.0292 18.1239C56.0783 18.1233 56.1122 18.1748 56.0658 18.1849C55.3475 16.0368 54.4558 13.9135 53.394 11.8232C53.2958 11.6309 53.1958 11.4336 53.2154 11.2317C53.2351 11.0298 53.0252 11.032 53.3181 10.9512Z" fill="#EB0029"/>
</svg>
