<svg width="33" height="40" viewBox="0 0 33 40" fill="none" xmlns="http://www.w3.org/2000/svg">
<path d="M14.1426 6.83594C14.4662 6.83594 14.7285 6.57367 14.7285 6.25V6.01562C14.7285 5.69195 14.4662 5.42969 14.1426 5.42969C13.819 5.42969 13.5566 5.69195 13.5566 6.01562V6.25C13.5566 6.57367 13.819 6.83594 14.1426 6.83594Z" fill="white"/>
<path d="M16.3301 6.83594C16.6537 6.83594 16.916 6.57367 16.916 6.25V6.01562C16.916 5.69195 16.6538 5.42969 16.3301 5.42969C16.0064 5.42969 15.7441 5.69195 15.7441 6.01562V6.25C15.7441 6.57367 16.0065 6.83594 16.3301 6.83594Z" fill="white"/>
<path d="M31.0093 7.53906H27.0249C26.7012 7.53906 26.4389 7.80133 26.4389 8.125C26.4389 8.44867 26.7012 8.71094 27.0249 8.71094H31.0093C31.4401 8.71094 31.7906 9.06141 31.7906 9.49219C31.7906 9.92297 31.4401 10.2734 31.0108 10.2734L20.5125 10.2476L20.3103 8.71094H24.2906C24.6143 8.71094 24.8765 8.44867 24.8765 8.125C24.8765 7.80133 24.6143 7.53906 24.2906 7.53906H18.87C19.1163 7.01891 19.2547 6.43813 19.2547 5.82539V4.86867H21.361C21.6846 4.86867 21.9469 4.60641 21.9469 4.28273C21.9469 3.95906 21.6846 3.6968 21.361 3.6968H19.2546V3.04367C19.2546 1.36539 17.8892 0 16.2109 0H14.2616C13.3382 0 12.5101 0.413906 11.9514 1.06531L9.43832 1.63563C9.12269 1.70727 8.92496 2.02117 8.9966 2.3368C9.05832 2.60867 9.29988 2.7932 9.56746 2.7932C9.61035 2.7932 9.65402 2.78836 9.69769 2.77852L11.2828 2.41883C11.2405 2.62063 11.218 2.82953 11.218 3.04375V4.03578L7.96769 4.77336C7.67644 4.83953 7.44402 5.05875 7.36113 5.3457C7.27824 5.63266 7.35792 5.94211 7.56917 6.15344L9.53261 8.11688C9.47699 8.39375 9.44691 8.67781 9.44691 8.96625C9.44691 9.16524 9.46105 9.36227 9.48792 9.55625L9.40355 10.1974L5.25855 6.05242C4.88738 5.68125 4.74722 5.13727 4.89285 4.63289C5.03847 4.12852 5.44707 3.74297 5.95902 3.62688L7.03074 3.38367C7.34628 3.31203 7.5441 2.99813 7.47246 2.6825C7.40082 2.36695 7.08699 2.16945 6.77136 2.24078L5.69972 2.48398C4.7716 2.69461 4.03105 3.39344 3.76699 4.30773C3.50292 5.22211 3.75699 6.20813 4.42988 6.88109L9.21074 11.6619L9.19222 11.8027C9.09769 12.5213 9.31753 13.2461 9.7955 13.7909C10.0586 14.0909 10.3861 14.32 10.7482 14.4658L11.0013 18.0859H5.11089C3.70863 18.0859 2.57183 19.2227 2.57183 20.625V29.2969C2.57183 29.3634 2.57824 29.4282 2.58746 29.4922H1.80097C0.849096 29.4922 0.0372993 30.2309 0.00128363 31.1821C-0.0365289 32.1821 0.765971 33.0078 1.75785 33.0078H5.89222C6.4316 33.0078 6.86878 32.5706 6.86878 32.0313V30.5302C7.32988 30.3102 7.65003 29.8409 7.65003 29.2969V23.9453H13.9384V26.4979C13.9384 26.8188 14.1856 27.0985 14.5063 27.1081C14.8381 27.1181 15.1103 26.8521 15.1103 26.5224V23.9453H16.2415C16.8216 23.9453 17.3678 23.7976 17.8446 23.5378V34.5313C17.8446 34.6252 17.7779 34.7038 17.6893 34.7223C17.6882 34.7225 17.6871 34.7227 17.686 34.7228C17.6741 34.7251 17.6618 34.7265 17.6493 34.7265H15.3796C15.2308 34.7265 15.1103 34.6059 15.1103 34.4572V29.2813C15.1103 28.9605 14.8631 28.6807 14.5424 28.6711C14.2106 28.6611 13.9384 28.9271 13.9384 29.2568V34.4572C13.9384 34.9179 14.1565 35.3278 14.4941 35.5918L13.1166 36.9694C12.7902 37.2958 12.5853 37.7311 12.5726 38.1925C12.5575 38.7454 12.7956 39.2636 13.2323 39.6157C13.4796 39.8152 13.7797 39.9441 14.0949 39.9848C14.6503 40.0563 15.1858 39.872 15.5727 39.4851L18.496 36.5617C18.6805 36.3773 18.7821 36.132 18.7821 35.8711C18.7821 35.7153 18.7451 35.5654 18.6767 35.4303C18.8876 35.1897 19.0165 34.8755 19.0165 34.5312V22.4784C19.3863 21.9385 19.6032 21.286 19.6032 20.5837V19.0625C19.6032 18.6209 19.3082 18.2472 18.9051 18.127L19.1611 14.4659C19.5232 14.3201 19.8507 14.091 20.1139 13.791C20.5918 13.2461 20.8118 12.5214 20.7171 11.8028L20.6668 11.4199L31.0093 11.4453C32.0863 11.4453 32.9625 10.5691 32.9625 9.49219C32.9625 8.41524 32.0863 7.53906 31.0093 7.53906ZM5.69683 31.8359H1.75777C1.43464 31.8359 1.17183 31.5731 1.17183 31.25C1.17183 30.9269 1.43464 30.6641 1.75777 30.6641H5.69683V31.8359ZM8.43121 22.7734H7.45464C6.91613 22.7734 6.47808 23.2115 6.47808 23.75V29.2969C6.47808 29.4046 6.39042 29.4922 6.28277 29.4922H3.93902C3.83136 29.4922 3.74371 29.4046 3.74371 29.2969V20.625C3.74371 19.8712 4.35707 19.2578 5.11089 19.2578H8.43121V22.7734ZM10.4625 22.7734H9.60308V19.2578H10.4625V22.7734ZM14.7439 38.6566C14.6332 38.7672 14.4861 38.8281 14.3296 38.8281C14.1732 38.8281 14.026 38.7672 13.9153 38.6565C13.8046 38.5459 13.7437 38.3987 13.7437 38.2422C13.7437 38.0857 13.8046 37.9385 13.9153 37.8279L15.8448 35.8984H17.5021L14.7439 38.6566ZM12.3898 3.04367C12.3898 2.01156 13.2295 1.17188 14.2616 1.17188H16.2109C17.243 1.17188 18.0827 2.01156 18.0827 3.04367V3.6968H12.3897V3.04367H12.3898ZM12.3898 4.86867H18.0828V5.82539C18.0828 7.39492 16.8058 8.67188 15.2363 8.67188C13.6668 8.67188 12.3898 7.39492 12.3898 5.82539V4.86867ZM11.3732 6.92899C11.6541 7.91047 12.2985 8.73984 13.1521 9.25977C13.0689 10.1452 12.6142 10.9554 11.8929 11.4878C11.0925 10.8969 10.6187 9.9643 10.6187 8.96609C10.6187 8.20899 10.8921 7.49031 11.3732 6.92899ZM8.84824 5.77516L11.2179 5.23742V5.48867C10.6973 5.86844 10.2757 6.35211 9.97503 6.90188L8.84824 5.77516ZM18.4312 20.5838C18.4312 21.7912 17.4489 22.7734 16.2415 22.7734H11.6343V19.2578H18.4312V20.5838ZM11.9357 14.6484H17.9735L17.7332 18.0859H12.176L11.9357 14.6484ZM18.928 13.2766C18.7092 13.4128 18.4528 13.4766 18.1949 13.4766H11.7141C11.4564 13.4766 11.2 13.4129 10.9813 13.2766C10.5196 12.9891 10.2865 12.4695 10.3541 11.9557L10.3932 11.6587C10.6626 11.9945 10.9841 12.2925 11.3515 12.5398C11.5159 12.6505 11.7043 12.7058 11.8928 12.7058C12.0813 12.7058 12.2698 12.6505 12.4343 12.5398C13.4132 11.881 14.0673 10.8629 14.2707 9.72578C14.5802 9.80242 14.9035 9.84383 15.2363 9.84383C16.3205 9.84383 17.3051 9.41149 18.0287 8.71102H19.1282L19.5553 11.9557C19.6228 12.4695 19.3897 12.9891 18.928 13.2766Z" fill="white"/>
<path d="M14.9551 16.2891C14.6315 16.2891 14.3691 16.5513 14.3691 16.875V16.9531C14.3691 17.2768 14.6315 17.5391 14.9551 17.5391C15.2787 17.5391 15.541 17.2768 15.541 16.9531V16.875C15.541 16.5513 15.2787 16.2891 14.9551 16.2891Z" fill="white"/>
</svg>
