<svg width="32" height="40" viewBox="0 0 32 40" fill="none" xmlns="http://www.w3.org/2000/svg">
<path fill-rule="evenodd" clip-rule="evenodd" d="M21.426 15.3618V13.6343C21.426 13.2735 21.5547 12.9771 21.8196 12.7283C23.8078 10.8593 25.0193 10.0139 26.6719 7.45337C26.8646 7.15461 27.6969 6.25622 27.9233 5.8795C28.3146 5.22878 28.8166 2.85303 27.8444 2.08771L27.7622 2.0231C27.2869 1.64903 26.7191 1.50737 26.1205 1.61366C25.4981 1.72406 25.2625 2.4531 24.8999 3.73214C24.8245 3.99818 24.7215 4.36138 24.6733 4.45853C23.4894 6.39532 20.7349 8.69951 18.3988 9.70683C15.5099 10.9522 9.33881 10.3947 6.13293 9.75171C6.04302 9.72913 5.73418 9.58958 5.50868 9.48758C4.36917 8.97259 3.7008 8.69749 3.21494 9.03327C2.74278 9.35918 2.44832 9.82857 2.36314 10.3904L2.34654 10.5003C2.18286 11.5817 2.90832 12.5859 3.99824 12.7864C6.97119 13.3336 10.0884 13.7982 13.263 14.1674C13.4537 14.1895 13.592 14.343 13.592 14.5323V15.7513C10.1204 18.1827 7.76479 21.2263 6.39672 25.0472C6.27187 25.3958 6.49191 25.7743 6.86015 25.8442C7.40015 25.9466 7.85951 25.9901 8.25436 25.9901C10.4482 25.9901 10.5513 24.7051 11.4843 24.6473C11.9063 24.6214 12.3816 24.7726 12.7487 24.9079L12.7488 24.9076C14.0134 25.3754 14.7297 25.8235 16.1155 25.6716L16.5961 25.5898L16.6617 27.0941C16.6658 27.1881 16.6111 27.2618 16.5191 27.2862C14.9446 27.7045 13.3179 28.9028 11.3912 29.5252C9.82505 30.0311 9.58637 28.6306 6.24183 31.0953C5.87665 31.3645 5.72603 31.716 5.54946 32.0332C5.10789 32.8265 5.73539 33.7841 6.64929 33.7139C10.3225 33.432 12.8746 32.7773 16.4085 31.5972C16.3846 32.1453 16.3287 32.7054 16.1576 33.2746C15.9478 33.9725 15.7149 34.066 15.4895 34.1565C15.0779 34.3217 14.6353 34.6192 14.8458 35.4595C14.8548 35.6509 14.7965 36.3786 14.7536 36.9149C14.6052 38.7686 14.6021 39.1127 14.7313 39.3688C15.1396 40.1785 16.2953 40.2176 16.7589 39.4375C17.236 38.6348 17.6861 37.8094 18.0965 36.9838C19.2163 34.732 19.9824 32.339 20.638 30.0736C21.1204 29.7473 21.4247 29.2142 21.4437 28.6137L21.5718 24.5743C22.2916 24.8307 23.0027 24.6813 23.5969 24.2319C24.1031 23.8492 24.4291 23.353 25.0564 23.2396C25.7085 23.1217 26.1407 23.7155 27.1594 23.6522C27.6976 23.6186 28.2003 23.3961 28.6531 22.9907C28.8247 22.8374 28.8941 22.6019 28.8329 22.3817C27.7635 18.5365 25.3374 16.2366 21.426 15.3618ZM13.4071 12.9636C10.2597 12.5977 7.16992 12.1371 4.22375 11.5948C3.78737 11.5145 3.4968 11.1124 3.56233 10.6795C3.59736 10.4483 3.62758 10.2866 3.8098 10.1147C4.3397 10.2386 5.45909 10.8534 5.88239 10.9383C9.3743 11.6386 15.7205 12.1843 18.8914 10.8174C21.4737 9.70409 24.4138 7.23631 25.7303 5.07735C25.971 4.6828 26.2333 3.33166 26.5024 2.79217C26.6819 2.7929 26.8444 2.85185 26.9952 2.97057L27.0658 3.02613C27.2793 3.3195 27.1495 4.79001 26.8659 5.2615C26.7207 5.50314 25.8259 6.50654 25.6347 6.80265C24.4144 8.69274 23.6149 9.42333 22.1637 10.7496C21.813 11.0702 21.4154 11.4336 20.971 11.8512C20.4643 12.3275 20.1966 12.9441 20.1966 13.6345V15.2672L20.0844 15.2664L20.0802 15.2709L14.8211 15.44V14.5324C14.8212 13.7318 14.2133 13.0576 13.4071 12.9636ZM20.2017 22.4807C19.9158 22.4536 19.6497 22.4818 19.372 22.5508C19.209 22.5934 19.0579 22.6509 18.9162 22.7199L18.8215 22.7238L18.8233 22.7676C18.3815 23.004 17.9955 23.3695 17.6175 23.6918L17.6934 16.5604L17.911 16.5535C18.8284 18.2873 19.8715 20.3448 20.2062 22.4812C20.2049 22.4809 20.2033 22.4809 20.2017 22.4807ZM9.84812 24.1681C9.43168 24.5298 9.03386 24.8745 7.81836 24.76C9.14407 21.4671 11.3066 18.8125 14.4083 16.6659L14.6892 16.6569C12.8662 18.9337 11.6392 21.1887 10.9575 23.5098C10.453 23.6439 10.1237 23.9287 9.84812 24.1681ZM13.7898 24.0114C13.3045 23.8156 12.7602 23.5962 12.2449 23.4982C12.9868 21.1824 14.3287 18.918 16.3244 16.6042L16.4637 16.5997L16.3809 24.3905C16.0397 24.4813 15.6778 24.5012 15.3236 24.4773C14.8668 24.4464 14.3437 24.2351 13.7898 24.0114ZM9.27105 32.1985C8.42389 32.3258 7.55744 32.4253 6.69322 32.4943C6.78443 32.3229 6.87721 32.1399 6.97777 32.0659C8.86007 30.6789 9.41221 30.7432 10.0516 30.8177C10.4726 30.8667 10.9964 30.9277 11.7741 30.6767C12.8617 30.3254 13.8079 29.8403 14.6429 29.4124C15.4194 29.0145 16.1527 28.6385 16.8394 28.4562C17.4868 28.2841 17.9189 27.7025 17.8902 27.0417L17.8042 25.0729C18.1206 24.8689 18.3948 24.635 18.6748 24.3915C19.0865 24.0334 19.5901 23.5855 20.1531 23.6967L20.3677 23.7788L20.2157 28.5756C20.2071 28.8484 20.0457 29.0645 19.7841 29.1538C16.3619 30.3211 12.8397 31.662 9.27105 32.1985ZM16.9929 36.4499C16.6464 37.147 16.2706 37.8441 15.8737 38.5266C15.9098 37.6982 16.1286 35.6188 16.0557 35.2369C16.421 35.0821 16.9931 34.7614 17.3366 33.6187C17.599 32.7455 17.635 31.917 17.652 31.1745L19.1907 30.6418C18.6089 32.5779 17.9253 34.575 16.9929 36.4499ZM21.5177 23.1209C21.335 20.7044 20.2757 18.4353 19.2726 16.5095L19.623 16.4983C21.7951 18.5141 23.1788 20.2926 24.116 22.283C23.7696 22.4551 23.4825 22.7062 23.2016 22.9648C22.7923 23.3415 22.5784 23.5203 22.1802 23.4772C21.9262 23.4492 21.7748 23.335 21.5177 23.1209ZM27.0818 22.4422C26.5365 22.4759 26.1256 22.0483 25.341 22.0136C24.3414 19.802 22.9391 18.0668 21.5193 16.6308C24.6411 17.4266 26.5697 19.2502 27.5305 22.3072C27.3836 22.3881 27.235 22.4327 27.0818 22.4422ZM0.272752 3.70024C-0.280315 3.33531 0.0763467 2.47814 0.729887 2.60134C2.17387 2.8736 3.41829 2.9097 4.53462 2.71192C7.01086 2.27315 8.58053 0.0561491 11.1254 0.00122217C13.4981 -0.0515113 14.5188 1.61119 15.202 3.25215C17.213 2.35513 19.5247 3.80662 19.5247 6.00562C19.5247 7.67152 18.1502 9.02687 16.4607 9.02687C14.7129 9.02687 13.3144 7.58205 13.4007 5.85245C13.3652 5.82539 13.3324 5.79432 13.3033 5.75968C12.6312 4.96064 12.289 4.46913 11.3933 4.44793C9.97242 4.41429 9.42287 6.22067 7.28299 6.67489C4.71258 7.22041 2.252 5.00642 0.272752 3.70024ZM18.2954 6.00553C18.2954 7.00308 17.4723 7.81464 16.4606 7.81464C15.449 7.81464 14.6259 7.00308 14.6259 6.00553C14.6259 5.00798 15.449 4.19641 16.4606 4.19641C17.4723 4.19641 18.2954 5.00789 18.2954 6.00553ZM4.75197 3.90478C7.50999 3.41601 9.07029 1.2543 11.1515 1.2129C12.7022 1.18375 13.4209 2.15598 14.0768 3.74091C14.1118 3.82572 14.1442 3.91081 14.1754 3.99599C14.0415 4.14386 13.9224 4.3048 13.8197 4.47662C13.2585 3.83614 12.6031 3.26375 11.4224 3.23615C9.36958 3.18881 8.77388 5.11902 7.02449 5.48989C5.70174 5.77001 4.25517 4.96923 2.90026 4.04817C3.54944 4.05814 4.16415 4.00897 4.75197 3.90478ZM31.5215 12.5292C32.1595 12.6687 32.1595 13.5729 31.5215 13.7126C30.3123 13.9771 29.3723 14.9653 29.1825 16.1716C29.0756 16.8507 28.0747 16.8506 27.9678 16.1716C27.7779 14.9653 26.8379 13.977 25.6289 13.7126C24.9909 13.5731 24.9909 12.6689 25.6289 12.5292C26.8379 12.2646 27.7779 11.2765 27.9678 10.0703C28.0747 9.39125 29.0756 9.39135 29.1825 10.0704C29.3723 11.2765 30.3123 12.2646 31.5215 12.5292ZM28.5751 14.3965C28.2491 13.889 27.8156 13.4526 27.3066 13.1209C27.8157 12.7892 28.2492 12.3528 28.5751 11.8453C28.9011 12.3529 29.3346 12.7893 29.8436 13.1209C29.3346 13.4526 28.9011 13.889 28.5751 14.3965ZM7.03635 18.7679C7.03635 19.052 6.83624 19.298 6.55484 19.3596C5.34573 19.6242 4.40569 20.6123 4.21587 21.8186C4.109 22.4978 3.10797 22.4977 3.0012 21.8186C2.81137 20.6123 1.87143 19.624 0.662318 19.3596C0.0242567 19.2202 0.0242567 18.3159 0.662318 18.1763C1.87134 17.9117 2.81137 16.9236 3.0012 15.7174C3.10807 15.0382 4.109 15.0383 4.21587 15.7173C4.40579 16.9235 5.34582 17.9118 6.55484 18.1762C6.83624 18.2378 7.03635 18.4838 7.03635 18.7679ZM3.60849 20.0435C3.2825 19.5359 2.8491 19.0996 2.33996 18.7679C2.84919 18.4363 3.2826 18 3.60849 17.4924C3.93447 17.9998 4.36806 18.4364 4.8771 18.7679C4.36788 19.0996 3.93456 19.5359 3.60849 20.0435ZM28.2709 30.0408C28.909 30.1803 28.909 31.0845 28.2709 31.2242C27.0618 31.4888 26.1218 32.4769 25.9319 33.6831C25.8251 34.3623 24.8241 34.3622 24.7173 33.6831C24.5273 32.4769 23.5874 31.4886 22.3784 31.2241C21.7403 31.0845 21.7403 30.1804 22.3784 30.0408C23.5874 29.7762 24.5273 28.7881 24.7172 27.5819C24.824 26.9028 25.825 26.903 25.9318 27.5818C26.1218 28.7881 27.0618 29.7764 28.2709 30.0408ZM25.3245 31.9082C24.9986 31.4006 24.5651 30.9642 24.056 30.6325C24.5652 30.3009 24.9986 29.8646 25.3245 29.357C25.6505 29.8645 26.0841 30.301 26.5932 30.6326C26.084 30.9642 25.6505 31.4005 25.3245 31.9082Z" fill="white"/>
</svg>
