<svg width="31" height="40" viewBox="0 0 31 40" fill="none" xmlns="http://www.w3.org/2000/svg">
<path d="M29.0804 30.4194L28.0763 30.1143L28.2766 29.1694C29.9129 28.1675 30.8925 26.3707 30.8035 24.4635C30.6418 21.9284 29.8408 19.4472 28.5058 17.2876C28.374 15.0793 28.1083 13.157 27.6936 11.4167C27.6186 11.102 27.3028 10.9077 26.9878 10.9826C26.673 11.0576 26.4786 11.3736 26.5536 11.6884C26.8305 12.8502 27.0385 14.1003 27.1827 15.4719H26.7075C25.47 15.4719 24.2955 14.9353 23.4854 13.9998L23.0725 13.523C22.6743 12.0251 22.5286 10.4781 22.6713 8.93406L22.6971 8.64344C22.7176 8.41281 22.6003 8.1918 22.3979 8.07938C22.1953 7.96695 21.9458 7.9843 21.7609 8.12359L21.4042 8.39227C20.4658 9.0957 19.3503 9.48977 18.1788 9.5318L16.002 9.60836C15.165 9.63813 14.3611 9.84406 13.614 10.2198C13.061 10.5209 12.3326 10.2929 12.0358 9.74211C13.3426 8.94187 14.0072 8.6982 14.9629 8.34781C15.2021 8.26008 15.4493 8.16937 15.7315 8.06141C18.2801 7.08617 21.9335 5.75617 21.9722 5.74203C22.6932 5.47656 23.5039 5.57375 24.1411 6.0018C24.3793 6.16211 24.5902 6.35984 24.7668 6.58828C24.9426 6.81711 25.0796 7.07133 25.1738 7.34383L25.7879 9.12039C25.8936 9.42625 26.2272 9.58859 26.5331 9.48273C26.839 9.37703 27.0012 9.04336 26.8954 8.7375L26.2814 6.96094C26.1458 6.56898 25.949 6.20336 25.6951 5.87289C25.4405 5.54367 25.1378 5.25992 24.795 5.0293C23.8464 4.39195 22.6397 4.24734 21.5694 4.64164C21.5449 4.65055 19.8971 5.25047 18.0431 5.93961V0.585938C18.0431 0.262344 17.7808 0 17.4572 0C17.1336 0 16.8712 0.262344 16.8712 0.585938V6.37719C16.3504 6.5725 15.8367 6.76664 15.3597 6.94898V0.585938C15.3597 0.262344 15.0974 0 14.7738 0C14.4502 0 14.1879 0.262344 14.1879 0.585938V4.61273C13.2924 4.2468 12.0771 3.75578 10.8796 3.27656C10.5793 3.15633 10.2382 3.30242 10.1179 3.60281C9.99763 3.9032 10.1437 4.24422 10.4441 4.36453C11.8517 4.92789 13.284 5.5075 14.1878 5.8793V7.38469C13.7832 7.53555 13.4022 7.68609 12.9721 7.89055C11.8127 7.74664 10.7193 7.30688 9.83185 6.53641L8.17849 5.12125C7.55193 4.58359 6.80036 4.17961 6.0056 3.95328C5.78974 3.89672 5.59521 3.77531 5.44279 3.60891C5.20294 3.35141 5.0938 2.99117 5.15099 2.64305L5.16888 2.53336C6.51646 2.79812 7.16732 3.0393 7.90372 3.33969C8.20318 3.4618 8.54536 3.3182 8.66755 3.01844C8.78974 2.71883 8.64599 2.37687 8.3463 2.25461C7.47818 1.90055 6.66763 1.60367 4.82724 1.27773C4.07622 1.08766 3.37466 0.763594 2.742 0.314063C2.08036 -0.155937 1.17357 -0.0910156 0.585832 0.468672L0.523254 0.528203C-0.149793 1.16906 -0.177215 2.23914 0.462238 2.91359L3.57513 6.19688C3.94622 6.58828 4.44927 6.78609 4.95349 6.78609C5.41529 6.78609 5.87802 6.62008 6.24083 6.28469L6.92872 5.64875C7.09888 5.75922 7.26255 5.87937 7.41591 6.01094L9.06958 7.42641C9.76466 8.02195 10.5621 8.4668 11.4202 8.745C10.6269 9.28289 9.69872 9.63461 8.74208 9.75125C7.93685 9.8532 7.31341 10.5149 7.25974 11.3248L7.25403 11.4109C7.19255 12.3383 7.89685 13.1444 8.82396 13.2078C8.96732 13.2132 13.3304 13.5249 13.4672 13.5214C13.7204 13.5214 13.964 13.4701 14.1875 13.3774V15.5478C14.1875 15.8714 14.4498 16.1337 14.7734 16.1337C15.097 16.1337 15.3593 15.8714 15.3593 15.5478V11.7746L15.435 10.8429C15.6351 10.8091 15.8377 10.7868 16.0433 10.7795L16.871 10.7503V33.3493C16.871 33.3556 16.8718 33.3617 16.8719 33.368L16.2789 34.0116C15.9548 34.0386 15.6412 34.1357 15.3593 34.293V18.282C15.3593 17.9584 15.097 17.6961 14.7734 17.6961C14.4498 17.6961 14.1875 17.9584 14.1875 18.282V35.3745C13.8943 35.764 13.7355 36.2355 13.7355 36.7316C13.7355 37.2277 13.8944 37.6994 14.1876 38.0888V39.4138C14.1876 39.7374 14.45 39.9998 14.7736 39.9998C15.0972 39.9998 15.3595 39.7374 15.3595 39.4138V38.8989C15.8509 39.0477 16.4004 39.0167 16.871 38.8177V39.4138C16.871 39.7374 17.1333 39.9998 17.4569 39.9998C17.7805 39.9998 18.0429 39.7374 18.0429 39.4138V37.8865C18.3498 37.5871 18.5669 37.2109 18.6661 36.7981C18.7615 37.002 18.8778 37.1984 19.0155 37.3819C19.6193 38.1857 20.5124 38.6231 21.3651 38.6231C21.871 38.6229 22.3712 38.4679 22.7743 38.1422L24.3601 38.8957C24.8363 39.122 25.3462 39.2359 25.8583 39.2359C26.2533 39.2359 26.6496 39.1681 27.0328 39.0319C27.9127 38.7188 28.6181 38.0818 29.0189 37.2383L29.1485 36.9656C29.3925 36.4523 29.1733 35.8362 28.66 35.5922C28.7028 35.5022 28.739 35.4255 28.7656 35.3682L29.2786 35.0077C29.8198 34.6295 29.989 33.91 29.6816 33.3271L30.0305 32.5958C30.2263 32.1854 30.2347 31.7109 30.0538 31.2938C29.8729 30.8767 29.5205 30.5588 29.0804 30.4194ZM5.44552 5.42422C5.15513 5.69258 4.69771 5.6775 4.42575 5.39062L1.31286 2.10734C1.11708 1.90078 1.12544 1.5732 1.33146 1.37703L1.39404 1.31742C1.57646 1.14367 1.85802 1.12352 2.06349 1.26945C2.66833 1.69914 3.32693 2.03063 4.02591 2.26203L3.99458 2.45375C3.87825 3.16219 4.1031 3.89687 4.59599 4.41891C4.91505 4.76687 5.33286 4.99328 5.78372 5.11148L5.44552 5.42422ZM14.1893 11.6972C14.1499 12.0837 13.807 12.3748 13.418 12.3479L8.90427 12.0387C8.62036 12.0192 8.40466 11.7723 8.42349 11.4885L8.42919 11.4023C8.44591 11.1509 8.63943 10.9454 8.8895 10.9137C9.62685 10.8203 10.3372 10.6179 11.0093 10.3142L11.1172 10.4776C11.5107 11.0777 12.1736 11.4664 12.8854 11.517C13.3551 11.5591 13.817 11.4425 14.2283 11.2254C14.2284 11.2255 14.1903 11.6805 14.1893 11.6972ZM27.7134 28.1404C27.8174 27.3586 27.5461 26.5857 26.9716 26.0448C26.4149 25.5189 25.6621 25.2883 24.9057 25.4119C24.697 25.4463 24.4946 25.5088 24.3032 25.5948C24.4193 25.1365 24.5714 24.6869 24.7575 24.2484C26.036 24.6863 27.3681 24.9088 28.7243 24.9088H29.6312C29.5629 26.2194 28.8467 27.4252 27.7134 28.1404ZM27.7408 18.2887C28.7038 19.9602 29.324 21.8221 29.5588 23.7369H28.7244C27.4873 23.7369 26.2724 23.5322 25.107 23.1295C25.236 22.4071 25.1897 21.6591 24.963 20.9495L24.7331 20.2295L27.7408 18.2887ZM22.5638 14.7257C23.5967 15.9421 25.1116 16.6443 26.7075 16.6437H27.2882C27.3011 16.8148 27.3131 16.9879 27.3243 17.1627L24.0546 19.2727L23.298 18.7338C22.569 18.288 22.0919 17.5448 22.0025 16.6934C21.9247 15.9904 22.1317 15.2839 22.5638 14.7257ZM21.4504 9.76648C21.4206 10.9895 21.5526 12.2117 21.8379 13.4048L18.6797 10.6709C19.6614 10.5706 20.6018 10.2635 21.4504 9.76648ZM17.742 36.0484C17.634 36.1417 17.5638 36.2713 17.5446 36.4128C17.5122 36.6514 17.4057 36.8669 17.2366 37.0359L16.7694 37.5031C16.4612 37.821 15.9618 37.9075 15.5597 37.7302C15.4356 37.6761 15.3236 37.5998 15.227 37.5031C15.021 37.2971 14.9076 37.0232 14.9076 36.7319C14.9076 36.4405 15.0211 36.1666 15.227 35.9606L15.6937 35.4939C15.9125 35.2756 16.2039 35.1632 16.5154 35.177C16.6883 35.1845 16.8554 35.1157 16.9726 34.9886L20.3132 31.3628C20.5325 31.1248 20.5173 30.7541 20.2793 30.5348C20.0413 30.3156 19.6706 30.3308 19.4513 30.5688L18.0431 32.0972V11.6698L21.3125 14.4998C20.9184 15.196 20.7505 16.0152 20.8372 16.8177C20.9643 18.0106 21.6183 19.0595 22.6322 19.6984L23.5398 20.3448L23.8468 21.3059C24.0963 22.0873 24.0525 22.9313 23.7238 23.6827C23.2852 24.6848 23.0091 25.7419 22.9008 26.8252L21.3053 28.5571C21.086 28.7951 21.1012 29.1658 21.3392 29.3851C21.5772 29.6044 21.9479 29.5891 22.1672 29.3511L24.3712 26.9587C24.5608 26.7527 24.8183 26.614 25.0956 26.5683C25.4876 26.5041 25.8782 26.6238 26.1669 26.8966C26.4636 27.1756 26.6032 27.5737 26.5524 27.9843C26.5172 28.3038 26.3646 28.595 26.1226 28.8045C24.3924 30.3 19.5377 34.4963 17.742 36.0484ZM19.9528 36.6784C19.7925 36.4649 19.6762 36.2275 19.6095 35.9831L20.5804 35.1439C20.6927 35.9979 21.0908 36.7979 21.7067 37.403C21.1425 37.5788 20.4203 37.3009 19.9528 36.6784ZM27.9606 36.7355C27.694 37.2964 27.2251 37.7199 26.6401 37.928C26.0551 38.1362 25.424 38.104 24.8632 37.8375L23.2409 37.0666C22.133 36.5402 21.5243 35.3045 21.7754 34.111L23.1907 32.8877C23.3911 33.316 23.7458 33.6995 24.1986 33.9577C24.7192 34.1972 25.0865 34.677 25.1643 35.2466L25.2811 36.0836C25.3072 36.2706 25.4218 36.4335 25.5889 36.5214C25.756 36.6091 25.9551 36.611 26.124 36.5264L26.748 36.2135C26.8992 36.1378 27.0735 36.1359 27.2261 36.2084L28.0297 36.5902L27.9606 36.7355ZM28.973 32.0913L28.5033 33.076C28.4268 33.2362 28.4272 33.4223 28.504 33.5823L28.6484 33.8824C28.6768 33.9413 28.6585 34.0114 28.605 34.049L28.0918 34.4095C27.9293 34.5238 27.7981 34.6788 27.7125 34.8581C27.6832 34.9195 27.6444 35.0005 27.5993 35.0952C27.1872 34.9386 26.7365 34.9456 26.3295 35.1168C26.2081 34.1689 25.6213 33.3495 24.7634 32.9306C24.3945 32.7142 24.2061 32.3866 24.1829 32.1552C24.1751 32.077 24.1888 32.026 24.205 32.011L26.3822 30.1291L26.9328 29.8578L26.8777 30.1175C26.7847 30.578 27.0535 31.0284 27.503 31.165L28.733 31.5387C28.8839 31.5864 28.9518 31.6981 28.9788 31.7604C29.0059 31.8227 29.0411 31.9484 28.973 32.0913Z" fill="white"/>
</svg>
