<svg width="30" height="30" viewBox="0 0 30 30" fill="none" xmlns="http://www.w3.org/2000/svg">
<g clip-path="url(#clip0_1240_79)">
<path d="M29 7.5H8.5C8.22386 7.5 8 7.72386 8 8C8 8.27614 8.22386 8.5 8.5 8.5H11.5225C9.30354 9.91197 7.97145 12.3701 8 15C7.97145 17.6299 9.30354 20.088 11.5225 21.5H1V8.5H6C6.27614 8.5 6.5 8.27614 6.5 8C6.5 7.72386 6.27614 7.5 6 7.5H1C0.447715 7.5 0 7.94772 0 8.5V21.5C0 22.0523 0.447715 22.5 1 22.5H29C29.5523 22.5 30 22.0523 30 21.5V8.5C30 7.94772 29.5523 7.5 29 7.5ZM9 15C9 11.416 11.6915 8.5 15 8.5C18.3085 8.5 21 11.416 21 15C21 18.584 18.3085 21.5 15 21.5C11.6915 21.5 9 18.584 9 15ZM29 21.5H18.4775C20.6965 20.088 22.0285 17.6299 22 15C22.0285 12.3701 20.6965 9.91197 18.4775 8.5H29V21.5Z" fill="#EB0029"/>
<path d="M26.3682 2.10476C26.1315 1.9863 25.8575 1.96652 25.6062 2.04976L14.8362 5.65926C14.5738 5.74707 14.4324 6.03092 14.5202 6.29326C14.608 6.55559 14.8918 6.69707 15.1542 6.60926L25.9212 2.99976L27.0262 6.29426C27.0829 6.46396 27.2258 6.59051 27.4012 6.62624C27.5765 6.66198 27.7576 6.60146 27.8762 6.46749C27.9948 6.33353 28.0329 6.14646 27.9762 5.97676L26.8707 2.68426C26.7883 2.43116 26.6071 2.22214 26.3682 2.10476Z" fill="#EB0029"/>
<path d="M14.846 23.391L4.07901 27L2.97401 23.7055C2.88633 23.4432 2.60259 23.3016 2.34026 23.3892C2.07792 23.4769 1.93633 23.7607 2.02401 24.023L3.12751 27.3145C3.20929 27.5671 3.38957 27.7761 3.62751 27.894C3.76594 27.9628 3.9184 27.9988 4.07301 27.999C4.18049 27.9991 4.28731 27.9823 4.38951 27.949L15.1595 24.3395C15.4218 24.2517 15.5633 23.9678 15.4755 23.7055C15.3877 23.4432 15.1038 23.3017 14.8415 23.3895L14.846 23.391Z" fill="#EB0029"/>
<path d="M16.5 13.25C16.5 13.5261 16.7239 13.75 17 13.75C17.2761 13.75 17.5 13.5261 17.5 13.25C17.4517 12.1292 16.6108 11.2023 15.5 11.0455V11C15.5 10.7239 15.2761 10.5 15 10.5C14.7239 10.5 14.5 10.7239 14.5 11V11.0455C13.3892 11.2023 12.5483 12.1292 12.5 13.25C12.5483 14.3708 13.3892 15.2977 14.5 15.4545V17.923C13.9436 17.7968 13.5366 17.3194 13.5 16.75C13.5 16.4739 13.2761 16.25 13 16.25C12.7239 16.25 12.5 16.4739 12.5 16.75C12.5483 17.8708 13.3892 18.7977 14.5 18.9545V19C14.5 19.2761 14.7239 19.5 15 19.5C15.2761 19.5 15.5 19.2761 15.5 19V18.9545C16.6108 18.7977 17.4517 17.8708 17.5 16.75C17.4517 15.6292 16.6108 14.7023 15.5 14.5455V12.077C16.0564 12.2032 16.4634 12.6806 16.5 13.25ZM13.5 13.25C13.5366 12.6806 13.9436 12.2032 14.5 12.077V14.423C13.9436 14.2968 13.5366 13.8194 13.5 13.25ZM16.5 16.75C16.4634 17.3194 16.0564 17.7968 15.5 17.923V15.577C16.0564 15.7032 16.4634 16.1806 16.5 16.75Z" fill="#EB0029"/>
<path d="M25.5 20.5H27.5C27.7761 20.5 28 20.2761 28 20V18C28 17.7239 27.7761 17.5 27.5 17.5C27.2239 17.5 27 17.7239 27 18V19.5H25.5C25.2239 19.5 25 19.7239 25 20C25 20.2761 25.2239 20.5 25.5 20.5Z" fill="#EB0029"/>
<path d="M2.5 17.5C2.22386 17.5 2 17.7239 2 18V20C2 20.2761 2.22386 20.5 2.5 20.5H4.5C4.77614 20.5 5 20.2761 5 20C5 19.7239 4.77614 19.5 4.5 19.5H3V18C3 17.7239 2.77614 17.5 2.5 17.5Z" fill="#EB0029"/>
<path d="M4.5 9.5H2.5C2.22386 9.5 2 9.72386 2 10V12C2 12.2761 2.22386 12.5 2.5 12.5C2.77614 12.5 3 12.2761 3 12V10.5H4.5C4.77614 10.5 5 10.2761 5 10C5 9.72386 4.77614 9.5 4.5 9.5Z" fill="#EB0029"/>
<path d="M25.5 10.5H27V12C27 12.2761 27.2239 12.5 27.5 12.5C27.7761 12.5 28 12.2761 28 12V10C28 9.72386 27.7761 9.5 27.5 9.5H25.5C25.2239 9.5 25 9.72386 25 10C25 10.2761 25.2239 10.5 25.5 10.5Z" fill="#EB0029"/>
</g>
<defs>
<clipPath id="clip0_1240_79">
<rect width="30" height="30" fill="white"/>
</clipPath>
</defs>
</svg>
