<svg width="15" height="30" viewBox="0 0 15 30" fill="none" xmlns="http://www.w3.org/2000/svg">
<path d="M14.9043 6.0613C14.9043 6.0613 15.0085 5.96337 14.9847 5.8604C14.9608 5.75743 14.8427 5.7344 14.8427 5.7344C14.8427 5.7344 14.9418 5.56658 14.923 5.48691C14.9062 5.41703 14.8673 5.36197 14.7103 5.40353L14.7288 0.00185307L14.109 0L14.0884 5.87813C14.0599 5.86918 14.0303 5.86367 14.0005 5.86172C13.9533 5.86172 13.8871 5.88978 13.7928 6.09995C13.6985 6.31012 13.7215 6.58117 13.698 6.73046C13.646 7.04803 13.5251 7.35071 13.3435 7.61772L13.2467 7.75854C13.2505 7.40782 13.015 7.1733 12.5903 7.03724C12.1237 6.88795 11.0334 6.78816 10.4849 6.71961C9.93644 6.65105 9.06666 6.51367 8.43028 6.37735C7.79389 6.24103 7.78129 6.16559 7.49726 6.01604C7.21323 5.86649 6.91714 5.84769 6.69661 5.71111C6.47609 5.57453 6.19876 5.68596 5.99056 5.55494C5.78236 5.42391 5.68188 5.63646 5.68188 5.63646C5.68188 5.63646 5.60631 5.64255 5.59399 5.75452C5.58166 5.86649 5.70117 5.96628 5.70117 5.96628C5.65642 6.00969 5.68188 6.09651 5.81451 6.28947C5.94715 6.48244 6.37132 6.69869 6.63472 7.0428C6.76361 7.20956 6.81317 7.37473 6.87775 7.5002C6.43589 7.18256 5.72421 6.67805 5.21644 6.41494C4.48493 6.03457 3.02298 5.54911 2.60631 5.51179C2.18964 5.47447 1.97608 5.68014 1.85015 5.88528C1.72421 6.09042 1.50984 7.73498 1.33326 8.7808C1.15668 9.82662 0.835674 11.2372 0.797357 11.4807C0.759039 11.7242 0.423832 12.1716 0.244036 12.6618C0.064239 13.152 0.0457484 13.6661 0.00769904 13.867C-0.0303503 14.0679 0.0835269 14.1846 0.11193 14.2312C0.140333 14.2778 0.0457453 14.3432 0.0647699 14.4504C0.0837946 14.5576 0.239744 14.5721 0.400248 14.4554C0.560752 14.3387 0.499396 14.0819 0.499396 14.0819C0.574959 14.0443 0.537175 13.9837 0.537175 13.9837C0.674099 13.9464 0.632031 13.8437 0.632031 13.8437C0.745376 13.8063 0.759575 13.6054 0.830314 13.5308C0.901054 13.4562 1.10497 13.1615 1.18053 13.0729C1.25609 12.9842 1.58246 12.9098 2.05513 12.6104C2.5278 12.3111 2.02646 11.9198 2.03584 11.6769C2.04521 11.4339 2.26279 10.4907 2.70706 9.57543C3.15133 8.6601 3.27431 7.68522 3.27431 7.68522C3.27431 7.68522 4.44688 8.83083 5.12748 9.27976C5.80808 9.72869 5.73306 10.3385 6.23708 10.811C6.7411 11.2835 7.69903 11.4839 8.13954 11.7203C8.58006 11.9566 8.63097 13.3643 8.8456 13.9617C9.06023 14.5591 9.35015 15.6682 9.35015 15.6682C9.35015 15.6682 8.47985 15.88 7.90026 16.6394C7.7145 16.8888 7.57671 17.1698 7.49377 17.4684C7.46458 17.5649 7.4273 17.6589 7.38231 17.7493C7.35926 17.7964 7.33756 17.8448 7.31773 17.8933C7.23735 18.0825 7.18884 18.2803 7.13847 18.4719C7.1087 18.6589 7.06499 18.8434 7.00771 19.0241C6.94769 19.2022 6.86409 19.3817 6.82309 19.5765C6.78392 19.7689 6.77641 19.9664 6.80085 20.1612C6.82415 20.3528 6.8625 20.5424 6.91554 20.7282C6.87622 20.5383 6.85194 20.3456 6.84292 20.1519C6.83349 19.9608 6.85566 19.7695 6.90857 19.5855C6.96216 19.405 7.05808 19.2361 7.13418 19.0516C7.19939 18.8858 7.25311 18.7158 7.29495 18.5428C7.26628 18.7498 7.23654 18.9513 7.19394 19.1424C7.19312 19.1504 7.19159 19.1584 7.18938 19.1662C7.12749 19.3155 7.02164 19.4478 6.98118 19.613C6.95209 19.7457 6.94252 19.8818 6.95278 20.0172C6.96028 20.1288 6.97559 20.2397 6.9986 20.3491C7.02917 20.4833 7.04889 20.6196 7.05755 20.7568C7.06112 20.8455 7.05401 20.9344 7.03638 21.0215C7.01843 21.1104 6.9911 21.1991 6.96752 21.2909C6.91656 21.475 6.90039 21.6667 6.91982 21.8566C6.93991 22.0441 6.99526 22.2262 7.08301 22.3937C7.00324 22.2086 6.96249 22.0095 6.96323 21.8084C6.96808 21.8418 6.97488 21.8748 6.9836 21.9074C7.00803 21.9821 7.0442 22.0526 7.09078 22.1163C7.13239 22.1709 7.16637 22.2308 7.1918 22.2944C7.23387 22.4193 7.20358 22.5657 7.17866 22.7071C7.1642 22.7787 7.15658 22.8516 7.15589 22.9246C7.15436 22.9977 7.17348 23.0698 7.21109 23.1327C7.18023 23.0674 7.16863 22.9948 7.17759 22.9233C7.18578 22.8516 7.20048 22.7807 7.22154 22.7116C7.24326 22.6406 7.26115 22.5686 7.27513 22.4958C7.29051 22.4187 7.28942 22.3393 7.27191 22.2626C7.24936 22.189 7.21758 22.1185 7.17733 22.0527C7.14291 21.995 7.11914 21.9318 7.10712 21.8659C7.10345 21.8424 7.10139 21.8187 7.10096 21.7949C7.11026 21.87 7.13227 21.943 7.16607 22.0109C7.24217 22.1642 7.35364 22.2798 7.38927 22.4217C7.42491 22.5636 7.37293 22.7195 7.34828 22.8773C7.33467 22.9574 7.33722 23.0395 7.35578 23.1187C7.36372 23.1579 7.37989 23.195 7.40324 23.2277C7.42659 23.2604 7.45661 23.2879 7.49137 23.3085C7.45927 23.2855 7.43242 23.2561 7.41257 23.2222C7.39272 23.1883 7.38031 23.1507 7.37615 23.1118C7.36529 23.0345 7.3704 22.9558 7.39115 22.8804C7.39651 22.8577 7.40401 22.8344 7.41098 22.8119C7.41301 22.8563 7.41811 22.9005 7.42626 22.9442C7.43975 23.0088 7.4623 23.0711 7.49324 23.1295C7.52299 23.1859 7.55648 23.2354 7.58193 23.2883C7.60883 23.3371 7.62327 23.3916 7.624 23.4472C7.62067 23.5064 7.61305 23.5653 7.60122 23.6234C7.58835 23.6847 7.58936 23.7479 7.60417 23.8087C7.61972 23.8688 7.65776 23.9268 7.71779 23.9458C7.69151 23.9314 7.66926 23.9108 7.65303 23.8858C7.6368 23.8608 7.6271 23.8322 7.62481 23.8026C7.6179 23.7438 7.6244 23.6842 7.64383 23.6282C7.66373 23.5683 7.67852 23.5068 7.68804 23.4445C7.69343 23.3845 7.68557 23.3241 7.665 23.2674C7.70095 23.3232 7.74271 23.3751 7.7896 23.4223C7.69933 23.2883 7.64409 23.1343 7.62882 22.9741C7.64729 23.0154 7.67317 23.0529 7.70519 23.085C7.75718 23.138 7.81237 23.1811 7.85766 23.2301C7.90416 23.2761 7.93134 23.3377 7.93376 23.4027C7.93751 23.5319 7.84694 23.6745 7.70385 23.7047C7.85069 23.6888 7.96778 23.5499 7.97663 23.3992C7.97964 23.3483 7.96891 23.2975 7.94555 23.2521C7.97871 23.2943 8.00718 23.3399 8.03049 23.3881C8.0538 23.4414 8.06706 23.4985 8.0696 23.5565C8.07764 23.6772 8.05272 23.8032 8.04978 23.9323C8.04683 24.0615 8.06773 24.1986 8.15696 24.2937C8.08032 24.1878 8.07658 24.0554 8.09373 23.9318C8.11087 23.8082 8.1508 23.6843 8.15643 23.548V23.5406C8.17607 23.5998 8.18283 23.6624 8.17626 23.7243C8.19831 23.6451 8.20006 23.5618 8.18135 23.4818C8.16288 23.4012 8.13369 23.3233 8.09453 23.2502C8.05728 23.1769 8.01575 23.1075 7.97904 23.0385C7.94625 22.9771 7.91829 22.9133 7.89544 22.8476C7.91637 22.8639 7.93566 22.8822 7.95305 22.9021C7.99646 22.9707 8.09453 23.0477 8.13419 23.1187C8.17597 23.1873 8.21105 23.2597 8.23895 23.3349C8.25635 23.3851 8.26248 23.4384 8.25691 23.4911C8.24655 23.5474 8.22927 23.6022 8.20546 23.6544C8.17878 23.7128 8.15917 23.7741 8.14705 23.837C8.1363 23.9042 8.15233 23.9729 8.19179 24.0287C8.22824 24.0816 8.27539 24.1224 8.3113 24.17C8.34721 24.2177 8.37454 24.2783 8.35739 24.3402C8.38204 24.2796 8.3598 24.2111 8.32818 24.1571C8.29657 24.1031 8.25316 24.0557 8.22636 24.0035C8.20025 23.9547 8.19476 23.8976 8.21109 23.8447C8.23011 23.7888 8.25518 23.735 8.28585 23.6843C8.32031 23.6272 8.34665 23.5656 8.36409 23.5014C8.37514 23.4482 8.37659 23.3934 8.36838 23.3397C8.39715 23.3812 8.41468 23.4293 8.41929 23.4794C8.43215 23.6049 8.37883 23.7388 8.37266 23.881C8.36681 23.9524 8.38347 24.0239 8.42036 24.0856C8.45841 24.1449 8.52218 24.1915 8.59158 24.1915C8.55806 24.1862 8.52645 24.1726 8.49969 24.1519C8.47294 24.1313 8.45191 24.1043 8.43858 24.0734C8.41081 24.0128 8.40276 23.9452 8.41554 23.8799C8.42727 23.8159 8.44366 23.7529 8.46457 23.6912C8.46997 23.745 8.48029 23.7981 8.49539 23.85C8.51507 23.9114 8.54416 23.9694 8.58167 24.0221C8.62153 24.0691 8.6584 24.1185 8.69207 24.17C8.7085 24.196 8.71859 24.2254 8.72157 24.2559C8.72455 24.2864 8.72032 24.3172 8.70921 24.3458C8.74405 24.2902 8.73601 24.2185 8.71055 24.1605C8.68199 24.1043 8.65032 24.0497 8.6157 23.9969C8.5608 23.8908 8.53677 23.7717 8.5463 23.6528C8.55244 23.552 8.56425 23.4516 8.58167 23.3521C8.58958 23.39 8.59415 23.4286 8.59533 23.4673C8.60203 23.5964 8.58917 23.741 8.64303 23.8728C8.66779 23.9389 8.71431 23.9948 8.77513 24.0316C8.80422 24.0499 8.83726 24.0611 8.87157 24.0644C8.90588 24.0678 8.94049 24.063 8.97261 24.0507C8.94055 24.0595 8.90682 24.0606 8.87421 24.0541C8.8416 24.0475 8.81104 24.0333 8.78505 24.0128C8.73349 23.9729 8.6972 23.9169 8.68215 23.854C8.64785 23.7328 8.67143 23.6065 8.68027 23.4726C8.71587 23.5078 8.73648 23.5551 8.73789 23.6049C8.73789 23.6507 8.74029 23.6968 8.74083 23.7426C8.75155 23.6716 8.762 23.6004 8.77058 23.5289C8.77379 23.5289 8.7762 23.5313 8.77861 23.5319C8.78103 23.5324 8.78236 23.5319 8.7837 23.5319C8.7838 23.5765 8.78937 23.6209 8.80031 23.6642C8.83461 23.7934 8.91634 23.8879 8.96832 23.9924C8.99539 24.0446 9.01126 24.1017 9.01495 24.1602C9.01749 24.1899 9.01407 24.2198 9.00487 24.2481C8.99567 24.2765 8.98088 24.3027 8.96135 24.3254C8.98465 24.304 9.00336 24.2782 9.01638 24.2495C9.02941 24.2208 9.03648 24.1898 9.03719 24.1584C9.04017 24.0952 9.02977 24.0321 9.00664 23.9731C8.96323 23.8556 8.89464 23.7502 8.88338 23.6412C8.87936 23.605 8.87936 23.5685 8.88338 23.5324C8.90879 23.527 8.93195 23.5142 8.94983 23.4956C8.93117 23.5108 8.90867 23.5208 8.88472 23.5244C8.8971 23.4493 8.91428 23.3751 8.93617 23.3021C8.94233 23.2783 8.94849 23.2537 8.95412 23.2285C8.9635 23.2402 8.97261 23.2513 8.98091 23.2629C9.02641 23.3189 9.05302 23.3876 9.05702 23.4593C9.05764 23.5361 9.05308 23.6129 9.04335 23.6891C9.03853 23.7685 9.04147 23.8524 9.08193 23.9241C9.12239 23.9959 9.19903 24.0478 9.27781 24.0337C9.19742 24.0398 9.12963 23.9808 9.09989 23.9125C9.07015 23.8442 9.0731 23.7651 9.08622 23.6891C9.10385 23.6107 9.11541 23.531 9.12079 23.4509C9.12206 23.3642 9.09613 23.2793 9.04657 23.2079C9.0051 23.1413 8.98124 23.0655 8.97717 22.9874C8.9769 22.9838 8.9769 22.9801 8.97717 22.9765C9.02413 23.0613 9.07866 23.1419 9.14008 23.2171C9.17181 23.2849 9.19571 23.3559 9.21136 23.4289C9.23386 23.5348 9.2411 23.6494 9.26843 23.7645C9.28163 23.8229 9.30309 23.8791 9.3322 23.9315C9.36268 23.9824 9.40071 24.0284 9.44501 24.0681C9.48706 24.1047 9.52272 24.1479 9.55058 24.196C9.56483 24.2203 9.57308 24.2477 9.57466 24.2758C9.57625 24.3039 9.57112 24.3319 9.5597 24.3577C9.59399 24.3082 9.59025 24.2415 9.56961 24.1862C9.54635 24.1319 9.51432 24.0816 9.47476 24.0374C9.43878 23.9963 9.40957 23.9499 9.38821 23.8998C9.36869 23.8495 9.35634 23.7967 9.3515 23.7431C9.34346 23.6666 9.3448 23.5869 9.34212 23.5049C9.3601 23.538 9.37507 23.5726 9.38687 23.6084C9.40536 23.6645 9.41098 23.7288 9.42518 23.7936C9.43626 23.8626 9.46725 23.9269 9.51441 23.9789C9.56191 24.0267 9.61957 24.0635 9.68323 24.0867C9.74425 24.11 9.80694 24.1289 9.87079 24.143C9.74914 24.0988 9.61838 24.048 9.54469 23.9482C9.50943 23.8986 9.48959 23.8399 9.48762 23.7793C9.48503 23.7125 9.47841 23.6458 9.46779 23.5798C9.4463 23.4891 9.41097 23.4021 9.36302 23.322L9.3933 23.3537C9.46591 23.4273 9.52487 23.4964 9.55648 23.5901C9.5881 23.6838 9.61007 23.7897 9.66849 23.8828C9.69666 23.9289 9.73505 23.968 9.78076 23.9972C9.82486 24.0267 9.87885 24.0382 9.93135 24.0292C9.8801 24.0313 9.83005 24.0135 9.79201 23.9795C9.75428 23.9466 9.72444 23.9058 9.70466 23.8601C9.66795 23.7762 9.66125 23.6806 9.64062 23.5821C9.66125 23.5938 9.68162 23.6049 9.70198 23.6152C9.70654 23.6301 9.71136 23.6446 9.71645 23.6586C9.7561 23.7614 9.83542 23.8444 9.93698 23.8895C9.89175 23.8623 9.85249 23.8265 9.82151 23.7842C9.79054 23.7418 9.76848 23.6937 9.75664 23.6428L9.76039 23.6446C9.83033 23.6803 9.90295 23.724 9.93751 23.7997C9.91072 23.7203 9.83703 23.6674 9.76843 23.625L9.75155 23.6147C9.74488 23.5751 9.74533 23.5347 9.75289 23.4953C9.76146 23.4469 9.78317 23.3974 9.79174 23.3365C9.79671 23.3031 9.79424 23.2691 9.78451 23.2367C9.77303 23.2057 9.75647 23.1767 9.73547 23.151C9.71699 23.1277 9.7001 23.1081 9.68778 23.0895C9.6765 23.0725 9.66809 23.0537 9.66286 23.034C9.6425 22.9545 9.66848 22.8595 9.71136 22.7693C9.71564 22.7558 9.71993 22.7428 9.72502 22.7277C9.74053 22.7734 9.75999 22.8177 9.78317 22.8601C9.8298 22.9463 9.87374 23.021 9.87803 23.1073C9.88232 23.1936 9.86248 23.291 9.86195 23.3895C9.86145 23.4391 9.86961 23.4884 9.88606 23.5353C9.90171 23.5814 9.9322 23.6212 9.97288 23.6486C9.89919 23.5829 9.8925 23.4789 9.90456 23.3895C9.91661 23.3 9.9568 23.2076 9.9635 23.1017C9.96565 23.0781 9.96565 23.0544 9.9635 23.0308C9.98922 22.9616 10.0014 22.8882 9.9994 22.8145C10.0396 22.8741 10.0763 22.9291 10.0854 22.9958C10.0964 23.0654 10.0867 23.1365 10.0574 23.2007C10.0281 23.2649 9.98062 23.3192 9.92063 23.3572C9.98804 23.3221 10.0436 23.2684 10.0804 23.2025C10.1172 23.1367 10.1337 23.0616 10.1278 22.9866C10.1232 22.9072 10.083 22.836 10.0501 22.7748C10.0151 22.7186 9.99762 22.6534 9.99994 22.5874C10.0061 22.4657 10.0718 22.3555 10.1339 22.233C10.1416 22.2981 10.141 22.3639 10.132 22.4289C10.1232 22.4779 10.1099 22.5261 10.0924 22.5729C10.0702 22.6297 10.0638 22.6914 10.0736 22.7515C10.1047 22.8759 10.1982 22.944 10.2534 23.0271C10.2838 23.0675 10.3002 23.1165 10.3001 23.1668C10.3001 23.193 10.2925 23.2187 10.2783 23.2408C10.264 23.2629 10.2437 23.2805 10.2197 23.2915C10.2754 23.278 10.3113 23.2224 10.3207 23.1679C10.3278 23.1109 10.3162 23.0533 10.2877 23.0033C10.2609 22.9538 10.2296 22.909 10.2041 22.8653C10.1779 22.8256 10.1615 22.7802 10.1564 22.733C10.158 22.6876 10.1707 22.6433 10.1934 22.6038C10.1956 22.6682 10.2045 22.7322 10.2202 22.7947C10.2411 22.8782 10.2832 22.9552 10.3424 23.0183C10.2443 22.8757 10.2467 22.7007 10.2792 22.54C10.3033 22.4238 10.3453 22.3097 10.3802 22.188C10.3954 22.2164 10.4032 22.2482 10.4029 22.2804C10.4043 22.3698 10.3534 22.4657 10.3397 22.5715C10.3313 22.6251 10.3414 22.68 10.3684 22.7272C10.3806 22.75 10.3989 22.7691 10.4213 22.7825C10.4436 22.7959 10.4692 22.803 10.4954 22.8031C10.4709 22.7997 10.4478 22.7897 10.4286 22.7743C10.4093 22.7588 10.3947 22.7385 10.3863 22.7155C10.369 22.671 10.3677 22.6219 10.3826 22.5766C10.4067 22.4829 10.4731 22.3984 10.4884 22.2801C10.4945 22.2201 10.4833 22.1597 10.4563 22.1057C10.4482 22.0885 10.4397 22.0731 10.4295 22.0578C10.4855 22.13 10.5385 22.1999 10.561 22.2838C10.574 22.3324 10.5713 22.3837 10.5535 22.4307C10.545 22.4554 10.5309 22.478 10.5123 22.4966C10.4938 22.5153 10.4712 22.5296 10.4464 22.5384C10.4737 22.5321 10.4992 22.5199 10.5211 22.5025C10.543 22.4851 10.5607 22.4631 10.5728 22.4381C10.5997 22.3876 10.6099 22.33 10.602 22.2735C10.5884 22.1742 10.5375 22.0882 10.4922 22.0088C10.5739 22.0957 10.6847 22.1505 10.8041 22.1631C10.6012 22.1176 10.4514 21.9328 10.4439 21.7473C10.437 21.6345 10.4756 21.5225 10.5064 21.4008C10.5029 21.4447 10.4973 21.4895 10.4892 21.5331C10.534 21.4487 10.5699 21.36 10.5964 21.2684C10.5969 21.2919 10.596 21.3154 10.5937 21.3388C10.5819 21.4527 10.5275 21.572 10.5286 21.7017C10.53 21.7666 10.5519 21.8293 10.5913 21.8812C10.6087 21.9065 10.6324 21.9269 10.6601 21.9405C10.6877 21.9542 10.7185 21.9605 10.7494 21.959C10.7198 21.9574 10.6912 21.9482 10.6664 21.9321C10.6416 21.9161 10.6215 21.8939 10.6082 21.8677C10.578 21.8171 10.5653 21.7582 10.572 21.6999C10.5838 21.5869 10.6452 21.4834 10.6757 21.3595C10.6769 21.3821 10.6769 21.4049 10.6757 21.4275C10.6757 21.4942 10.6733 21.5683 10.7116 21.6303C10.7306 21.6599 10.7577 21.6835 10.7899 21.6983C10.8051 21.7057 10.822 21.7094 10.839 21.709C10.856 21.7087 10.8727 21.7044 10.8877 21.6964C10.8725 21.7026 10.856 21.7051 10.8397 21.7037C10.8233 21.7023 10.8075 21.6971 10.7936 21.6885C10.766 21.6715 10.7437 21.6473 10.729 21.6186C10.7022 21.5604 10.7106 21.4932 10.7186 21.4265C10.7291 21.3569 10.7304 21.2862 10.7223 21.2163C10.7129 21.1461 10.6957 21.0771 10.6709 21.0106C10.6596 20.9799 10.6473 20.9505 10.6337 20.9217C10.6232 20.8796 10.6106 20.838 10.5964 20.797C10.6101 20.8086 10.6232 20.8203 10.6374 20.8306C10.5951 20.7711 10.5601 20.7067 10.5332 20.639C10.5727 20.6995 10.62 20.7546 10.6738 20.8031C10.7218 20.8468 10.7626 20.8976 10.7947 20.9537C10.8251 21.0113 10.8439 21.0743 10.8499 21.139C10.8647 21.2735 10.8263 21.4085 10.7427 21.5157C10.8408 21.412 10.8946 21.2748 10.8928 21.1329C10.8923 21.0686 10.8808 21.0049 10.8587 20.9444C10.9072 20.9785 10.9638 20.9998 11.023 21.0061C10.9499 20.9881 10.8843 20.9479 10.8354 20.8912C10.8145 20.8507 10.7895 20.8123 10.7609 20.7766C10.7201 20.6821 10.7004 20.58 10.7033 20.4772C10.7033 20.3658 10.7189 20.253 10.7274 20.135C10.7318 20.077 10.7331 20.0187 10.7312 19.9606C10.756 20.0062 10.7756 20.0544 10.7896 20.1043C10.8047 20.1651 10.8053 20.2285 10.7912 20.2896C10.7808 20.3539 10.7628 20.4219 10.7802 20.491C10.7884 20.5242 10.8046 20.5548 10.8274 20.5805C10.8381 20.5927 10.8513 20.6026 10.8661 20.6096C10.8809 20.6165 10.897 20.6203 10.9134 20.6207C10.8459 20.6122 10.8081 20.545 10.8006 20.4849C10.7931 20.4248 10.8161 20.3595 10.8341 20.2951C10.8563 20.2276 10.8622 20.1559 10.8515 20.0858C10.8386 20.017 10.8176 19.95 10.7888 19.8862C10.762 19.8237 10.7352 19.7631 10.7156 19.7035C10.6969 19.643 10.6833 19.581 10.6749 19.5182L10.6704 19.486C10.6293 19.2041 10.5545 18.928 10.4474 18.6635C10.4206 18.5955 10.4003 18.5484 10.4003 18.5484C10.4596 18.5379 10.5182 18.5238 10.5758 18.5063C10.6462 18.483 10.7076 18.3758 10.7633 18.2961C10.8191 18.2165 10.8389 18.2406 10.9474 18.2032C11.0559 18.1659 11.132 18.1426 11.132 18.1426C11.2039 18.2286 11.2702 18.319 11.3306 18.4131C11.4581 18.6048 11.7277 18.9219 12.0396 19.2207C12.3515 19.5196 12.4276 19.7906 12.5168 20.0895C12.6061 20.3883 12.9426 21.5236 13.0704 21.9484C13.1982 22.3733 13.2735 22.6157 13.3778 23.0549C13.482 23.494 13.7601 24.1801 13.822 24.255C13.8791 24.3246 13.9654 24.5279 14.0259 24.6388L14.008 29.9981L14.6278 30L14.6441 25.2283C14.6497 25.2236 14.6546 25.2183 14.6588 25.2124C14.7036 25.1452 14.6819 25.0766 14.6446 25.0208L14.6471 24.3638C14.6747 24.3613 14.7013 24.3523 14.7246 24.3375C14.7479 24.3228 14.7673 24.3026 14.781 24.2788C14.8282 24.1899 14.8989 24.0448 14.8475 23.966C14.796 23.8871 14.7055 23.7651 14.7055 23.7651C14.7055 23.7651 14.7952 23.6946 14.8127 23.5128C14.8301 23.3309 14.7703 23.2232 14.7703 23.2232C14.7703 23.2232 14.7971 23.0506 14.7183 23.0408C14.7059 23.038 14.693 23.0386 14.6808 23.0425C14.6687 23.0463 14.6579 23.0534 14.6495 23.0628L14.7047 6.93692C14.7195 6.92619 14.7338 6.91461 14.7473 6.90225C14.8228 6.83237 14.8515 6.69208 14.9464 6.55205C15.0412 6.41203 14.9555 6.3088 14.9555 6.3088C15.0798 6.16401 14.9043 6.0613 14.9043 6.0613ZM9.0613 8.17544C8.83461 8.22494 8.25423 8.41182 8.10927 8.34935C7.96431 8.28688 7.42867 7.88269 7.26522 7.77681C7.24726 7.76516 7.21805 7.74504 7.17947 7.71751C7.19876 7.71937 7.21805 7.72043 7.23975 7.72043C7.64946 7.72043 8.00878 7.53381 8.41232 7.60846C8.81586 7.6831 9.43939 8.08783 9.43939 8.08783C9.43939 8.08783 9.28826 8.12515 9.0613 8.17544ZM11.3448 11.581C11.3448 11.581 11.2108 11.3881 10.9903 11.1266C10.7698 10.865 10.1647 10.1427 10.1647 10.1427C10.1647 10.1427 11.6583 9.53387 12.1436 9.22735C12.2423 9.16439 12.3366 9.09478 12.4257 9.01903C12.2285 9.33455 12.0643 9.61381 12.0066 9.75092C11.8504 10.1194 11.7984 10.5492 11.6615 10.8015C11.5246 11.0538 11.3448 11.581 11.3448 11.581ZM14.0348 22.2862C13.9941 21.7197 13.9314 20.7332 13.903 20.5844C13.8652 20.3857 13.8842 19.8062 13.5626 19.4388C13.2411 19.0714 12.0117 17.3477 12.0117 17.3477C12.0541 17.3202 12.0862 17.2799 12.1034 17.2328C12.1205 17.1856 12.1216 17.1343 12.1066 17.0865C12.0565 16.912 11.6969 16.6444 11.6969 16.6444C11.6969 16.6444 11.7411 15.947 11.8228 15.5301C11.9046 15.1132 12.2202 14.9819 12.3397 14.3098C12.4592 13.6377 12.2529 12.6052 12.2628 12.5255C12.2727 12.4458 12.6361 11.4932 12.7872 11.0683C12.9383 10.6435 13.1232 10.415 13.2508 10.1064C13.3783 9.79777 13.7987 8.43484 13.8507 8.32288C13.8737 8.27311 13.9742 8.08783 14.0833 7.88269L14.0348 22.2862Z" fill="#EB0029"/>
</svg>
