<svg width="30" height="30" viewBox="0 0 30 30" fill="none" xmlns="http://www.w3.org/2000/svg">
<path d="M29.9988 10.8668C29.9988 10.8668 29.9768 10.1753 29.9505 9.98205C29.9242 9.78883 29.9372 9.75873 29.6558 9.74575C29.3743 9.73276 29.2019 9.56963 28.7723 9.29468C28.3427 9.01973 27.6115 8.19521 27.2069 7.94592C26.8023 7.69663 26.3014 7.30163 25.7479 6.76916C25.1945 6.23668 23.6904 4.33803 23.2332 3.88284C22.7761 3.42766 22.5034 2.79192 21.545 2.69721C20.5866 2.6025 20.4284 2.95505 20.0766 3.63355C19.7248 4.31205 19.0563 7.12139 19.0037 7.82587C18.9512 8.53034 18.9859 10.0077 18.8092 10.085C18.7661 10.1023 18.7207 10.1134 18.6743 10.1183V0H17.8106V10.1445H17.7947C17.2977 10.1762 16.7659 10.3723 16.1019 10.5785C15.4379 10.7847 14.4004 10.9479 13.785 11.0166C13.1696 11.0853 12.3387 11.1667 11.9869 11.1582C11.6351 11.1496 11.71 11.1366 11.3935 11.0166C11.0771 10.8965 10.0218 10.5785 9.16451 10.4923C8.30726 10.4062 7.37058 10.6083 7.37058 10.6083C7.37058 10.6083 7.21236 10.4838 7.0496 10.3764C7.00597 10.3454 6.95392 10.3276 6.89998 10.3253C6.84605 10.3231 6.79263 10.3364 6.74645 10.3637C6.61903 10.2304 6.43001 10.3894 6.43001 10.3894C6.3068 10.2991 6.17484 10.3935 6.11324 10.4923C6.09119 10.5278 6.06493 10.5785 6.06493 10.5785C5.97744 10.5905 5.88932 10.5975 5.80101 10.5997C5.62982 10.5997 5.56368 10.6314 5.49786 10.6685C5.43204 10.7055 5.50662 10.8902 5.50662 10.8902C5.50662 10.8902 5.41421 10.8902 4.99661 10.7952C4.57901 10.7001 4.49536 10.4258 4.30212 10.2884C4.10889 10.1509 3.88874 10.0394 3.15016 10.1509C2.41158 10.2624 1.04854 10.022 0.758359 9.98775C0.468179 9.95354 0.494765 9.89272 0.459425 10.0736C0.424085 10.2545 0.415655 10.2453 0.705835 10.3055C0.996015 10.3656 2.69981 10.7207 2.68068 10.8189C2.65118 10.9735 2.1295 11.199 1.74757 11.2624C1.36563 11.3257 0.507735 11.2174 0.336544 11.199C0.165354 11.1807 0 11.9979 0 12.3077C0 12.6175 0.0791106 12.7394 0.263918 12.8231C0.448726 12.9067 1.0025 13.1968 1.16721 13.2162C1.33191 13.2355 1.75437 12.952 1.99171 12.6751C2.22904 12.3983 2.75007 12.5009 3.30416 12.4303C3.85826 12.3596 4.59652 12.1981 5.2427 12.1981C5.88888 12.1981 8.13121 12.5465 8.13121 12.5465C8.13121 12.5465 8.48785 12.9716 8.75112 13.2165C9.01439 13.4613 9.73385 14.0084 10.0636 14.1699C10.3933 14.3315 10.5911 14.608 10.8151 14.8595C11.0392 15.111 12.1474 15.5881 12.3066 15.7164C12.4658 15.8446 12.5838 16.0835 12.8539 16.3863C13.1239 16.6891 13.5201 16.8117 13.6968 16.8567C13.8735 16.9017 14.0956 17.0854 14.0956 17.0854C14.0126 17.1522 13.9261 17.2145 13.8362 17.2723C13.7636 17.3109 13.632 17.4012 13.477 17.494C13.322 17.5868 13.0085 17.4972 12.824 17.4649C12.6395 17.4326 12.3377 17.494 12.3095 17.6613C12.2813 17.8285 12.2998 17.9191 12.1743 18.048C12.0488 18.1769 12.1581 18.2349 12.1581 18.2349C12.1581 18.2349 12.0358 18.2381 12.0987 18.4475C12.1425 18.5941 12.102 18.6343 12.102 18.6343C12.102 18.6343 11.7359 18.673 11.8643 18.9147C11.9927 19.1564 12.1448 19.227 12.1811 19.4332C12.2174 19.6394 12.0987 19.75 12.125 20.2064C12.1441 20.5406 12.3387 20.7003 12.4421 20.762C12.4165 20.7997 12.3922 20.838 12.3695 20.8776C12.2324 21.1193 12.134 21.3801 12.0777 21.6508C11.9875 22.0668 11.983 22.4893 11.9804 22.9055C11.9804 23.1364 11.9866 23.3674 11.993 23.5983C11.9973 23.7535 11.9963 23.9084 11.9862 24.0627C11.969 24.3195 11.9262 24.5787 11.8909 24.84C11.8556 25.1013 11.8261 25.3674 11.8413 25.6319C11.8496 25.8971 11.9159 26.1575 12.0358 26.3956C11.935 26.1504 11.8896 25.8869 11.9026 25.623C11.9091 25.3604 11.957 25.1013 12.0128 24.8425C12.0282 24.7716 12.0437 24.7005 12.0595 24.6293C12.054 24.7085 12.0527 24.7877 12.055 24.866C12.0613 25.0067 12.0522 25.1478 12.0277 25.2866C12.0159 25.3445 12.0071 25.403 12.0015 25.4618C11.9827 25.6613 12.008 25.8736 12.1185 26.0408C12.0251 25.8615 12.0235 25.6547 12.0614 25.464C12.0748 25.3998 12.0915 25.3364 12.1117 25.2739V25.3154C12.1094 25.4016 12.102 25.4874 12.0916 25.5733C12.0799 25.6683 12.0702 25.7633 12.0644 25.8606C12.0809 25.7972 12.1007 25.7364 12.1192 25.6746C12.1261 25.7771 12.1354 25.878 12.147 25.9775C12.1703 26.1696 12.1827 26.3628 12.184 26.5562C12.1856 26.7503 12.1527 26.9432 12.0867 27.1264C12.1728 26.9459 12.226 26.7522 12.244 26.554C12.2586 26.4212 12.2631 26.2882 12.2644 26.1555C12.3028 26.357 12.3245 26.5613 12.3293 26.7662C12.334 26.9792 12.295 27.191 12.2145 27.389C12.3153 27.1936 12.3746 26.9804 12.3889 26.7621C12.4038 26.5443 12.4007 26.3256 12.3795 26.1083C12.3627 25.8923 12.3426 25.6784 12.3451 25.4684C12.3451 25.3927 12.3513 25.3173 12.3588 25.242C12.3967 25.4836 12.4492 25.719 12.4628 25.949C12.4667 26.0142 12.4709 26.0795 12.4765 26.145C12.503 26.4719 12.4641 26.8162 12.4703 27.1631C12.4771 27.5432 12.5482 27.9197 12.6807 28.2771C12.5864 27.9118 12.555 27.5337 12.588 27.1583C12.6142 26.8612 12.6762 26.5638 12.6953 26.2521C12.7063 26.3633 12.7144 26.4846 12.7183 26.6202C12.7183 26.6408 12.7183 26.6604 12.7209 26.6794C12.7305 26.8111 12.7315 26.9432 12.7238 27.075V27.0934C12.7101 27.3038 12.7337 27.5149 12.7935 27.7174C12.8558 27.9293 12.9271 28.1292 12.9427 28.3367C12.9583 28.4824 12.9193 28.6332 12.92 28.7941C12.919 28.8745 12.9376 28.9539 12.9741 29.026C12.991 29.0615 13.015 29.0934 13.0448 29.1197C13.0745 29.146 13.1094 29.1661 13.1473 29.179C13.1126 29.1623 13.0817 29.139 13.0565 29.1103C13.0313 29.0817 13.0123 29.0484 13.0007 29.0123C12.9755 28.9412 12.9684 28.8651 12.98 28.7906C12.9985 28.643 13.0584 28.491 13.0617 28.324C13.0636 28.279 13.0617 28.2344 13.0617 28.19L13.0993 28.2566C13.1813 28.4 13.2569 28.5416 13.2669 28.6927C13.277 28.8438 13.2131 29.0095 13.2231 29.185C13.2291 29.2733 13.2658 29.3569 13.3272 29.4219C13.3849 29.4853 13.4796 29.5252 13.56 29.4929C13.4751 29.515 13.3943 29.4653 13.3486 29.4013C13.3024 29.3385 13.2795 29.2622 13.2838 29.185C13.3527 29.1937 13.4227 29.1842 13.4865 29.1575C13.5504 29.1308 13.6057 29.0879 13.6469 29.0332C13.7008 29.1186 13.7397 29.2122 13.762 29.3101C13.7879 29.4349 13.7789 29.5765 13.6946 29.687C13.7957 29.5888 13.8301 29.4377 13.8204 29.2987C13.8144 29.2142 13.796 29.131 13.7659 29.0516C13.7399 28.9745 13.7248 28.8942 13.7208 28.8131C13.7329 28.8443 13.7467 28.8747 13.7623 28.9043C13.8077 28.9924 13.8596 29.0728 13.904 29.1577C13.9503 29.24 13.9792 29.3305 13.989 29.4238C13.9948 29.4711 13.9911 29.519 13.9779 29.5648C13.9647 29.6107 13.9423 29.6535 13.9121 29.6908C13.9474 29.6548 13.9749 29.6123 13.9932 29.5657C14.0114 29.5192 14.02 29.4695 14.0185 29.4197C14.0178 29.3195 13.9965 29.2205 13.9559 29.1286C13.88 28.9455 13.7811 28.7783 13.7876 28.5968C13.7874 28.5612 13.7894 28.5256 13.7938 28.4903C13.797 28.4986 13.7996 28.5071 13.8029 28.515C13.8732 28.6851 13.9578 28.8413 14.024 29.0025C14.0576 29.0822 14.0846 29.1644 14.1047 29.2483C14.1223 29.3338 14.1337 29.4204 14.1391 29.5074C14.1447 29.597 14.1583 29.6859 14.1796 29.7732C14.2007 29.8609 14.2489 29.9401 14.3177 30C14.2572 29.9345 14.2189 29.8523 14.2081 29.7646C14.1971 29.6769 14.1938 29.5884 14.1984 29.5002V29.4599C14.2004 29.4634 14.202 29.4672 14.2042 29.471C14.2528 29.5557 14.3199 29.629 14.4007 29.6855C14.4798 29.7415 14.5747 29.7722 14.6724 29.7732C14.4779 29.7542 14.3265 29.6041 14.2548 29.4397C14.1832 29.2753 14.1835 29.0833 14.2052 28.9012C14.2211 28.7621 14.25 28.6215 14.2671 28.4751C14.272 28.4993 14.2746 28.5239 14.2749 28.5486C14.2629 28.7599 14.2629 28.987 14.3553 29.1894C14.4016 29.2888 14.4719 29.3758 14.5602 29.4428C14.6463 29.5099 14.7537 29.5451 14.8637 29.5423C14.756 29.5356 14.6543 29.4917 14.5768 29.4184C14.5 29.3476 14.4422 29.2595 14.4082 29.1619C14.3813 29.0788 14.367 28.9924 14.3657 28.9053C14.3956 28.9806 14.435 29.052 14.4831 29.1178C14.5264 29.1744 14.5773 29.225 14.6345 29.2683C14.6918 29.3094 14.7554 29.3414 14.8229 29.3633C14.76 29.3333 14.7025 29.2938 14.6523 29.2461C14.6045 29.1979 14.5639 29.1434 14.5314 29.0842C14.4697 28.9661 14.4339 28.8366 14.4263 28.7041C14.4072 28.44 14.5032 28.1872 14.6108 27.9366C14.6228 27.8923 14.6358 27.8473 14.6488 27.802L14.6546 27.84C14.6222 28.0009 14.5875 28.1631 14.5677 28.3307C14.5303 28.5959 14.5748 28.866 14.6954 29.1064C14.7433 29.197 14.804 29.2806 14.8757 29.3548C14.9626 29.4447 15.0553 29.5179 15.1027 29.6196C15.1265 29.671 15.1344 29.7282 15.1254 29.784C15.1217 29.8133 15.111 29.8414 15.0941 29.8659C15.0771 29.8904 15.0545 29.9106 15.0281 29.9249C15.0587 29.9137 15.0861 29.8956 15.1082 29.872C15.1302 29.8485 15.1462 29.8201 15.1549 29.7894C15.175 29.7267 15.176 29.6597 15.1578 29.5964C15.1189 29.4697 15.0281 29.3719 14.9633 29.2765C14.8336 29.0865 14.7846 28.86 14.7814 28.6338V28.4811C14.7821 28.3271 14.7988 28.1735 14.8313 28.0228V28.0206C14.8478 28.0462 14.8637 28.0716 14.8793 28.0972C14.8948 28.1229 14.9117 28.1403 14.925 28.1606C14.8799 28.3937 14.7953 28.6357 14.8225 28.8891C14.8323 29.0278 14.8933 29.1584 14.9941 29.2566C15.0403 29.301 15.0955 29.3356 15.1562 29.3579C15.2486 29.5793 15.4229 29.7586 15.6444 29.8603C15.459 29.7502 15.3187 29.5802 15.2479 29.3798C15.289 29.3853 15.3307 29.3828 15.3708 29.3725C15.329 29.3798 15.2862 29.3791 15.2447 29.3703C15.204 29.2549 15.1892 29.1323 15.2012 29.0108C15.2106 28.8524 15.2437 28.694 15.244 28.5188C15.2713 28.6354 15.2956 28.7551 15.3287 28.8746C15.3747 29.0466 15.447 29.2205 15.5644 29.3595C15.6817 29.4986 15.8425 29.6088 16.0225 29.6196C15.8429 29.5879 15.7009 29.4653 15.6094 29.3212C15.5497 29.2268 15.506 29.1237 15.4797 29.0158C15.4865 29.0358 15.4927 29.0557 15.4998 29.0757C15.435 28.7745 15.412 28.4707 15.3844 28.1637C15.4012 28.2239 15.4147 28.2849 15.4249 28.3465C15.4528 28.5011 15.4736 28.668 15.5378 28.8264C15.6034 28.9815 15.7083 29.1177 15.8425 29.2224C15.9711 29.3229 16.1078 29.4131 16.2514 29.4919C16.1187 29.3968 15.9945 29.2908 15.8802 29.1752C15.7693 29.0648 15.6893 28.9286 15.6477 28.7795C15.6277 28.6942 15.6157 28.6072 15.6117 28.5198C15.6275 28.6087 15.6483 28.6966 15.6739 28.7833C15.7007 28.8754 15.744 28.9622 15.8017 29.0396C15.8585 29.1166 15.9323 29.1801 16.0176 29.2255C16.0602 29.2469 16.1059 29.2616 16.1532 29.2689C16.1999 29.2745 16.2472 29.2717 16.2929 29.2607C16.2003 29.273 16.1064 29.2503 16.0303 29.1973C15.9554 29.146 15.8933 29.0791 15.8484 29.0013C15.755 28.8476 15.7427 28.6652 15.7265 28.4821C15.719 28.3899 15.7116 28.2955 15.694 28.1995C15.6763 28.102 15.6464 28.0069 15.6052 27.9164L15.6023 27.91C15.624 27.9322 15.6461 27.9544 15.6671 27.9769C15.7884 28.1004 15.8807 28.2482 15.9377 28.41C15.9948 28.5719 16.0152 28.7439 15.9975 28.9142C16.0356 28.7389 16.0337 28.5577 15.992 28.3833C15.9481 28.206 15.8665 28.0397 15.7527 27.8951C15.6859 27.8052 15.6149 27.7209 15.5498 27.636C15.7297 27.8052 15.9171 27.9528 16.0436 28.1428C16.0892 28.211 16.1233 28.2859 16.1447 28.3646C16.1639 28.4474 16.1772 28.5315 16.1846 28.6161C16.1916 28.7036 16.207 28.7902 16.2306 28.8749C16.2478 28.9331 16.2774 28.9871 16.3175 29.0332C16.3028 29.0713 16.2848 29.1081 16.2637 29.1432C16.2873 29.112 16.3083 29.0789 16.3263 29.0443C16.3414 29.0606 16.3582 29.0753 16.3762 29.0884C16.3593 29.0727 16.3438 29.0555 16.3302 29.0371C16.3687 28.9612 16.3951 28.88 16.4086 28.7963C16.4247 28.8643 16.4444 28.9314 16.4676 28.9975C16.521 29.1544 16.6106 29.2973 16.7296 29.4149C16.6268 29.2866 16.5563 29.1364 16.5237 28.9765C16.4914 28.8172 16.4731 28.6553 16.4693 28.4929C16.4612 28.3288 16.4582 28.1631 16.4368 27.9936C16.4336 27.9693 16.4294 27.9449 16.4255 27.9205C16.5281 28.0503 16.6012 28.2 16.6401 28.3595C16.6803 28.5385 16.6771 28.7336 16.7128 28.9256C16.7484 29.1175 16.8305 29.3123 16.9978 29.4175C16.8415 29.2946 16.786 29.0972 16.7708 28.9107C16.7556 28.7241 16.7808 28.5306 16.7559 28.3269C16.7403 28.2105 16.7068 28.097 16.6563 27.9905C16.765 28.1318 16.8875 28.2566 16.9559 28.4111C16.9923 28.4892 17.0126 28.5735 17.0156 28.6592C17.019 28.7471 16.9916 28.8336 16.9381 28.9043C17.0017 28.8365 17.0396 28.7494 17.0454 28.6576C17.0519 28.5656 17.0398 28.4732 17.0098 28.3858C16.9517 28.2071 16.834 28.0617 16.7458 27.9107C16.701 27.8395 16.665 27.7633 16.6385 27.6839C16.6154 27.6056 16.6035 27.5246 16.6032 27.4431C16.5999 27.2765 16.6291 27.1026 16.6324 26.9138C16.6324 26.91 16.6324 26.9062 16.6307 26.9024C16.6453 26.9179 16.6599 26.9341 16.6745 26.9483C16.7251 27.1612 16.7747 27.376 16.8366 27.5882C16.8782 27.735 16.9277 27.8796 16.9851 28.0212C16.9646 28.0395 16.9418 28.0552 16.9173 28.0681C16.9423 28.0574 16.9658 28.0438 16.9874 28.0275C17.049 28.1809 17.125 28.3284 17.2143 28.4681C17.1392 28.3122 17.0799 28.1495 17.0373 27.9822C17.0895 27.9254 17.1266 27.8568 17.1453 27.7827C17.177 27.6582 17.1686 27.5273 17.1213 27.4076C17.0633 27.2693 16.9829 27.141 16.8833 27.0275C16.8713 26.9144 16.8587 26.8007 16.8447 26.6867C16.8519 26.7009 16.8587 26.7155 16.8661 26.7295C16.9411 26.8638 17.0318 26.9891 17.1365 27.1029C17.2338 27.2154 17.3327 27.3246 17.3978 27.4514C17.463 27.5781 17.4977 27.7292 17.451 27.873C17.5159 27.7349 17.5029 27.5689 17.451 27.4247C17.3991 27.2806 17.3087 27.1495 17.2267 27.0253C17.1887 26.9696 17.1544 26.9138 17.1229 26.8571C17.1992 26.9372 17.2937 26.9988 17.3988 27.0367C17.2578 26.9684 17.1423 26.8585 17.0688 26.7225C17.18 26.8498 17.3309 26.9381 17.4984 26.9737C17.3823 26.9315 17.2795 26.8603 17.2004 26.7672C17.1225 26.6766 17.0621 26.5729 17.0224 26.4612C16.9806 26.3386 16.9505 26.2125 16.9326 26.0845V26.0814C16.9371 25.8644 16.9741 25.6474 16.9919 25.4222C16.9945 25.3943 16.9961 25.3661 16.9984 25.3382C16.9984 25.3468 17.0007 25.3554 17.0013 25.3639C17.0172 25.5248 17.0046 25.6895 17.0013 25.8628C16.9981 26.0361 17.0143 26.2192 17.1086 26.3728C17.1537 26.4483 17.2153 26.5132 17.2889 26.5628C17.3614 26.6118 17.449 26.6349 17.5369 26.6281C17.4512 26.6253 17.3692 26.5935 17.3048 26.5381C17.242 26.4839 17.1923 26.4165 17.1595 26.3411C17.0915 26.1919 17.1002 26.0243 17.121 25.86L17.1582 25.6065C17.1715 25.5204 17.1741 25.4314 17.18 25.3427V25.3373C17.1792 25.0405 17.1274 24.746 17.0269 24.4659L17.0146 24.4307C17.0645 24.5343 17.1158 24.6338 17.1547 24.7364C17.316 25.1609 17.316 25.6278 17.1547 26.0522C17.3589 25.6246 17.3971 25.1391 17.2623 24.686C17.1942 24.4586 17.085 24.2511 17.05 24.0417C17.0205 23.8767 17.0441 23.7057 17.0707 23.5251C17.0903 23.4057 17.0983 23.2848 17.0947 23.164C17.0926 23.1141 17.0876 23.0644 17.0798 23.0151C17.0589 22.893 17.0227 22.7739 16.9721 22.6604C16.9297 22.5631 16.8969 22.4554 16.8629 22.3484C16.9277 22.4187 16.9909 22.4839 17.047 22.552C17.1209 22.636 17.1761 22.7341 17.2091 22.84C17.2397 22.9499 17.2523 23.0639 17.2464 23.1776C17.2406 23.4117 17.1816 23.6486 17.1657 23.8929C17.1565 24.0147 17.1632 24.1372 17.1855 24.2575C17.2081 24.3771 17.2598 24.4896 17.3362 24.5856C17.2684 24.4848 17.2265 24.3693 17.2143 24.2492C17.2027 24.1299 17.2065 24.0097 17.2257 23.8913C17.2604 23.6544 17.3411 23.4219 17.3664 23.1707C17.3821 23.0421 17.3763 22.9119 17.3492 22.7852C17.3163 22.6567 17.2578 22.5358 17.177 22.4294C17.0263 22.2232 16.8528 22.0493 16.8175 21.8495C16.7556 21.6486 16.8298 21.2555 16.7906 20.992C16.7637 20.8345 16.7212 20.68 16.6638 20.5305C16.6807 20.5574 16.6962 20.584 16.7147 20.61C16.7702 20.6858 16.8108 20.7711 16.8343 20.8615C16.8616 20.9739 16.8561 21.1013 16.846 21.233C16.8303 21.3707 16.8275 21.5095 16.8376 21.6477C16.8555 21.7887 16.9002 21.9252 16.9692 22.0503C17.0989 22.2958 17.2808 22.4991 17.3965 22.7364C17.456 22.8547 17.494 22.9823 17.5087 23.1133C17.5245 23.2467 17.4948 23.3814 17.4244 23.4966C17.5052 23.3827 17.5452 23.246 17.5382 23.1076C17.5323 22.9695 17.5017 22.8335 17.4478 22.7057C17.3421 22.4478 17.1715 22.2277 17.0704 21.9857C17.0173 21.8688 16.9879 21.7429 16.9838 21.6151C16.9878 21.484 17.0019 21.3535 17.026 21.2245C17.0451 21.0889 17.062 20.9426 17.0324 20.7889C17.0029 20.6353 16.9177 20.5016 16.8522 20.3879C16.7777 20.2859 16.7227 20.1715 16.6901 20.0503C16.6554 19.927 16.6359 19.7927 16.609 19.6556C16.5835 19.5149 16.541 19.3778 16.4822 19.247C16.4233 19.1177 16.3502 18.9951 16.2644 18.8811C16.1414 18.7199 16 18.5729 15.8429 18.443C15.9726 18.406 16.3704 18.2926 16.6709 18.2232C16.8791 18.175 17.287 18.0439 17.8103 17.8691V29.6443H18.675V17.5757L19.1243 17.4234C20.2452 17.0433 21.0826 16.6245 21.3005 16.3733C21.5184 16.1221 21.5314 15.877 21.3861 15.7081C21.2409 15.5393 20.7662 14.9862 20.7662 14.9862C20.9814 14.6931 21.1711 14.3828 21.3333 14.0587C21.5709 13.569 22.4681 12.2158 22.4807 11.1208C22.4933 10.0258 21.8741 9.14929 21.9532 8.64659C22.0323 8.14389 21.9532 5.87621 21.9532 5.87621C21.9532 5.87621 22.3747 6.44321 22.6392 6.70517C22.9038 6.96713 23.5581 7.31937 24.1252 7.55567C24.6922 7.79197 25.3692 8.23005 25.5274 8.36753C25.6857 8.505 25.532 8.68967 25.5145 9.02892C25.497 9.36817 25.6461 9.54872 26.0008 9.87499C26.3555 10.2012 26.9942 12.0312 27.0558 12.1043C27.1174 12.1775 27.38 12.0657 27.3476 12.0093C27.3152 11.9529 26.8156 10.3384 26.7964 10.2095C26.7773 10.0806 26.8535 10.0764 26.9988 10.059C27.144 10.0416 27.4076 10.2095 27.689 10.4458C27.9705 10.6821 28.1831 11.4154 28.368 11.6872C28.5528 11.9589 28.9921 11.7689 29.5199 11.4382C30.0478 11.1075 29.9988 10.8668 29.9988 10.8668ZM12.4521 20.8491C12.4629 20.828 12.4738 20.8077 12.4846 20.7883C12.4972 20.7943 12.505 20.7972 12.505 20.7972C12.4863 20.8134 12.4686 20.8307 12.4521 20.8491ZM13.2789 29.1856C13.2877 29.0272 13.3762 28.8742 13.382 28.6858C13.383 28.6496 13.3811 28.6134 13.3765 28.5774C13.3801 28.586 13.3827 28.5945 13.3865 28.6028C13.4491 28.7472 13.5383 28.8682 13.6135 28.9895C13.5828 29.0501 13.5349 29.1007 13.4756 29.1355C13.4163 29.1702 13.348 29.1876 13.2789 29.1856ZM15.0155 29.2357C14.9293 29.1364 14.8832 29.0098 14.8858 28.8796C14.8809 28.6813 14.949 28.4935 15.009 28.2965C15.0411 28.366 15.0622 28.4399 15.0715 28.5157C15.092 28.674 15.0754 28.846 15.0855 29.0225C15.088 29.131 15.11 29.2382 15.1503 29.3392C15.0988 29.3131 15.053 29.2774 15.0155 29.2341V29.2357ZM14.6264 14.4829C14.5142 14.7211 14.402 15.0239 14.3022 15.0885C14.2023 15.1532 13.6641 14.6359 13.3661 14.507C13.0682 14.378 12.3507 14.0366 11.8559 13.7661C11.5822 13.6118 11.298 13.4762 11.0051 13.3603C10.8537 13.2969 10.4445 12.8576 10.4445 12.8576C10.4445 12.8576 10.9591 12.9092 11.2227 13.0508C11.4863 13.1924 11.8225 13.2054 12.0602 13.244C12.2978 13.2827 12.5877 13.3666 12.8976 13.386C13.2076 13.4053 13.4647 13.4632 13.834 13.5792C14.2033 13.6951 15.2978 13.8757 15.2978 13.8757C15.2978 13.8757 14.7392 14.2428 14.627 14.4813L14.6264 14.4829ZM17.0717 27.4475C17.1234 27.5545 17.1396 27.6745 17.118 27.7909C17.106 27.8588 17.078 27.9231 17.0363 27.9788C17.001 27.8422 16.9738 27.7041 16.9524 27.567C16.9332 27.4457 16.9199 27.3234 16.9044 27.2008C16.9716 27.2746 17.0282 27.3571 17.0723 27.446L17.0717 27.4475ZM16.3649 28.6275C16.3833 28.7633 16.369 28.9015 16.323 29.031C16.2911 28.983 16.2697 28.9291 16.2601 28.8727C16.2471 28.7874 16.242 28.7012 16.2449 28.6151C16.2468 28.5336 16.2435 28.452 16.2349 28.3709C16.2344 28.3074 16.2303 28.2439 16.2225 28.1808C16.2952 28.3204 16.3436 28.4708 16.3655 28.6259L16.3649 28.6275Z" fill="#EB0029"/>
</svg>
