<svg width="21" height="30" viewBox="0 0 21 30" fill="none" xmlns="http://www.w3.org/2000/svg">
<path d="M16.0834 26.5353C16.0862 26.5389 16.0898 26.5423 16.0926 26.5462C16.1239 26.5865 16.1475 26.6322 16.1622 26.6809C16.1953 26.782 16.202 26.8994 16.2463 27.01C16.2686 27.0644 16.3018 27.1136 16.3439 27.1546C16.385 27.1953 16.4403 27.2186 16.4981 27.2195C16.4429 27.2116 16.393 27.1822 16.3593 27.1378C16.3257 27.0947 16.3014 27.0451 16.2881 26.9921C16.2617 26.8868 16.271 26.7725 16.2488 26.6524C16.2374 26.5902 16.2148 26.5306 16.1821 26.4765C16.1504 26.423 16.1139 26.3756 16.0814 26.3306C16.0499 26.2902 16.0236 26.2461 16.0032 26.1992C15.9869 26.1608 15.9828 26.1184 15.9914 26.0776C15.9918 26.0619 15.9934 26.0463 15.9964 26.0309L16.05 26.0771C16.1045 26.1206 16.1543 26.1698 16.1984 26.2238C16.2375 26.2758 16.2598 26.3384 16.2623 26.4034C16.2659 26.4717 16.2547 26.5457 16.2528 26.6224C16.2482 26.7015 16.2652 26.7803 16.3021 26.8504C16.3804 26.9879 16.5116 27.0697 16.6364 27.1473C16.5186 27.0574 16.3966 26.9588 16.3411 26.8269C16.3157 26.7613 16.3088 26.69 16.3212 26.6207C16.3304 26.5493 16.3492 26.4759 16.3532 26.3939C16.355 26.347 16.3485 26.3003 16.3338 26.2558C16.3672 26.2813 16.3975 26.3106 16.4241 26.3432C16.4372 26.3598 16.4465 26.3791 16.4514 26.3997C16.4562 26.4203 16.4565 26.4417 16.4522 26.4625C16.4449 26.5078 16.4241 26.5557 16.4109 26.609C16.3978 26.6633 16.3999 26.7201 16.4168 26.7734C16.4519 26.8753 16.5227 26.961 16.6162 27.0148C16.7065 27.0655 16.8025 27.1052 16.9023 27.133C16.8049 27.0976 16.7121 27.0506 16.626 26.993C16.5425 26.9369 16.4825 26.852 16.4578 26.7546C16.4473 26.708 16.4503 26.6595 16.4665 26.6146C16.4871 26.5653 16.5048 26.5149 16.5195 26.4636C16.5258 26.433 16.5257 26.4015 16.5191 26.3709C16.5126 26.3404 16.4997 26.3116 16.4813 26.2863C16.4475 26.2431 16.41 26.203 16.3691 26.1664C16.2483 26.0544 16.2244 25.8799 16.2539 25.7183C16.261 25.7347 16.2683 25.751 16.2758 25.767C16.3375 25.8989 16.4135 26.0174 16.4704 26.1367C16.5411 26.2394 16.5873 26.3568 16.6053 26.4801C16.626 26.607 16.6255 26.7538 16.6967 26.889C16.7321 26.9545 16.7849 27.0089 16.8493 27.0465C16.9093 27.0834 16.9707 27.1103 17.0265 27.145C17.0831 27.1766 17.1278 27.2258 17.1538 27.2851C17.1818 27.3431 17.1818 27.4212 17.1302 27.4702C17.1584 27.4482 17.1773 27.4164 17.1833 27.3812C17.1889 27.3457 17.1859 27.3094 17.1746 27.2753C17.1522 27.2063 17.1082 27.1464 17.0489 27.1044C16.9928 27.0613 16.9334 27.0268 16.8835 26.9862C16.8344 26.9495 16.7969 26.8995 16.7752 26.8423C16.7529 26.7739 16.742 26.7024 16.743 26.6305C16.7623 26.6698 16.7851 26.7073 16.8111 26.7426C16.8693 26.8235 16.9507 26.885 17.0444 26.919C16.9598 26.8727 16.8913 26.8018 16.8481 26.7157C16.8049 26.6322 16.7784 26.541 16.7702 26.4473C16.7654 26.3979 16.7637 26.3483 16.7648 26.2986C16.7636 26.3206 16.7636 26.3427 16.7648 26.3647C16.7728 26.4668 16.8014 26.5662 16.849 26.6569C16.9391 26.8373 17.0968 26.975 17.2879 27.04C17.1975 27.0018 17.1157 26.9461 17.047 26.8762C16.9783 26.8062 16.9242 26.7234 16.8877 26.6325C16.8507 26.5438 16.8322 26.4485 16.8335 26.3524C16.8335 26.2586 16.8616 26.1664 16.884 26.067C16.8888 26.0443 16.8933 26.0211 16.8972 25.9975C16.9057 26.0479 16.9104 26.0988 16.9115 26.1499C16.9138 26.2238 16.9115 26.3011 16.9205 26.3812C16.9262 26.4649 16.9523 26.5458 16.9965 26.6171C17.0955 26.7624 17.2564 26.8025 17.333 26.9252C17.3729 26.9879 17.3929 27.0612 17.3904 27.1354C17.3879 27.2097 17.363 27.2815 17.319 27.3414C17.3716 27.2814 17.4046 27.2068 17.4137 27.1276C17.4227 27.0484 17.4074 26.9683 17.3697 26.898C17.3296 26.8246 17.2657 26.7722 17.2085 26.7227C17.1513 26.6731 17.0963 26.6246 17.0683 26.565C17.0122 26.4487 17.0335 26.3067 17.0444 26.1583C17.0712 26.2923 17.1148 26.4223 17.1743 26.5454C17.1534 26.4678 17.1394 26.3885 17.1322 26.3084C17.1347 26.3185 17.1367 26.3286 17.1398 26.339C17.1639 26.4194 17.2085 26.4922 17.2693 26.5501C17.3244 26.5998 17.3767 26.6526 17.4258 26.7081C17.4687 26.7653 17.495 26.8331 17.5021 26.9042C17.5092 26.9795 17.5207 27.0543 17.5366 27.1282C17.5562 27.2013 17.5947 27.2753 17.6606 27.3128C17.5983 27.268 17.5703 27.1935 17.5582 27.121C17.5503 27.0457 17.5465 26.97 17.5467 26.8944C17.5455 26.8122 17.5215 26.7321 17.4774 26.6627C17.4323 26.5941 17.3754 26.5398 17.331 26.4829C17.2868 26.431 17.2577 26.3679 17.2469 26.3006C17.2373 26.2287 17.234 26.156 17.2371 26.0835C17.237 26.0813 17.237 26.079 17.2371 26.0768C17.2336 25.8265 17.187 25.5786 17.0994 25.3441V25.3413C17.1331 25.3785 17.1656 25.4138 17.1945 25.4502C17.2502 25.5159 17.2894 25.5939 17.3089 25.6777C17.3515 25.8496 17.3299 26.0485 17.3728 26.2471C17.3945 26.3471 17.4395 26.4407 17.5041 26.5202C17.5523 26.5804 17.6056 26.6322 17.6561 26.6882C17.6676 26.7244 17.6825 26.7593 17.7007 26.7927C17.7413 26.8697 17.7918 26.9353 17.8341 27.0036C17.8408 27.0429 17.8401 27.0831 17.8319 27.1221C17.8216 27.1695 17.7966 27.2124 17.7604 27.2448C17.8005 27.2142 17.83 27.1718 17.8445 27.1235C17.8521 27.0969 17.8563 27.0696 17.8569 27.042C17.8647 27.0563 17.8731 27.07 17.8799 27.0851C17.9042 27.1352 17.9195 27.1891 17.925 27.2445C17.9305 27.3013 17.9162 27.3582 17.8846 27.4058C17.9239 27.3603 17.9461 27.3026 17.9474 27.2425C17.9491 27.1824 17.9402 27.1225 17.9211 27.0655C17.8846 26.9504 17.8176 26.8518 17.7809 26.7493C17.7619 26.7016 17.7524 26.6507 17.7528 26.5994C17.755 26.5516 17.7694 26.5051 17.7946 26.4644C17.8002 26.4544 17.8064 26.444 17.8126 26.4336C17.8588 26.4699 17.8997 26.5125 17.934 26.5602C17.9713 26.6162 17.978 26.6851 17.9704 26.7613C17.9629 26.8375 17.9486 26.9176 17.964 27.0005C17.9816 27.0808 18.0275 27.1522 18.0933 27.2016C18.1555 27.2493 18.223 27.2898 18.2943 27.3223C18.2267 27.2829 18.1637 27.2359 18.1067 27.1823C18.0513 27.132 18.0163 27.0631 18.0083 26.9888C18.003 26.9159 18.0248 26.842 18.0389 26.7619C18.0469 26.72 18.0496 26.6773 18.0467 26.6347C18.0428 26.5894 18.0293 26.5454 18.0072 26.5056C17.969 26.4431 17.9227 26.3859 17.8695 26.3356C17.874 26.3272 17.8787 26.3188 17.8829 26.3098C17.8994 26.2738 17.9121 26.2363 17.9211 26.1978C17.9864 26.3042 18.0448 26.4023 18.0579 26.5199C18.077 26.6468 18.063 26.7865 18.0969 26.9238C18.1139 26.9915 18.1455 27.0547 18.1895 27.1089C18.2321 27.1632 18.2945 27.1985 18.363 27.2069C18.3308 27.1996 18.3004 27.1859 18.2735 27.1666C18.2467 27.1474 18.2239 27.123 18.2066 27.0949C18.1714 27.0394 18.1488 26.9769 18.1407 26.9117C18.1345 26.8478 18.1345 26.7835 18.1407 26.7196C18.152 26.7595 18.168 26.798 18.1883 26.8341C18.2371 26.9161 18.3063 26.9842 18.3891 27.0317C18.472 27.0792 18.5657 27.1045 18.6612 27.1053C18.6683 27.1221 18.6745 27.1393 18.6797 27.1568C18.6976 27.2195 18.6988 27.2859 18.683 27.3492C18.6676 27.4154 18.6275 27.4732 18.5709 27.5108C18.6335 27.4773 18.681 27.4212 18.7038 27.354C18.7282 27.2863 18.7343 27.2133 18.7214 27.1425C18.7189 27.1285 18.7153 27.1145 18.7116 27.1011C18.728 27.099 18.7442 27.0959 18.7601 27.0918C18.7438 27.0948 18.7273 27.0967 18.7108 27.0977C18.6774 26.9742 18.6037 26.8666 18.5347 26.7669C18.4573 26.6549 18.3821 26.5448 18.3614 26.4277C18.3502 26.3641 18.3489 26.2991 18.3577 26.235C18.3764 26.2791 18.3943 26.3236 18.4113 26.3684C18.4043 26.2785 18.3936 26.1883 18.381 26.0981C18.3841 26.0835 18.3872 26.0701 18.3905 26.0541C18.3964 25.9958 18.4034 25.9351 18.4076 25.8729C18.4329 25.9253 18.4573 25.9776 18.4797 26.0292C18.5093 26.0968 18.5316 26.1673 18.5465 26.2395C18.5588 26.3127 18.5613 26.3872 18.554 26.4611C18.5458 26.5429 18.5514 26.6256 18.5706 26.7056C18.5947 26.7842 18.6357 26.8566 18.6906 26.9179C18.7977 27.0386 18.9335 27.1207 19.0681 27.198C18.9402 27.107 18.8123 27.0098 18.7231 26.8854C18.6791 26.8251 18.6492 26.7557 18.6356 26.6823C18.6266 26.6076 18.6299 26.5319 18.6455 26.4583C18.6477 26.4445 18.6494 26.4303 18.6513 26.4157C18.7365 26.6186 18.8451 26.8108 18.975 26.9885C18.7932 26.6627 18.7105 26.3051 18.6258 25.9438C18.7099 26.0911 18.8521 26.1726 18.9525 26.2829C19.0103 26.34 19.0494 26.4133 19.0647 26.493C19.077 26.572 19.0577 26.6639 18.989 26.7171C19.0633 26.6695 19.0933 26.5742 19.0871 26.488C19.0774 26.3997 19.041 26.3165 18.9828 26.2493C18.9293 26.1807 18.8662 26.1222 18.8109 26.0611C18.7555 26.0054 18.7126 25.9386 18.685 25.8651C18.6626 25.7945 18.6642 25.7146 18.6637 25.6292C18.6641 25.5844 18.6614 25.5395 18.6555 25.4951C18.6485 25.4477 18.6354 25.4013 18.6166 25.3573C18.6084 25.3388 18.5995 25.3214 18.5902 25.3043C18.5958 25.3102 18.6006 25.3164 18.6062 25.322C18.6191 25.3321 18.632 25.3416 18.6446 25.35C18.6446 25.3735 18.6466 25.397 18.6474 25.4211C18.6665 25.5514 18.6841 25.6897 18.7315 25.8244C18.756 25.8922 18.7897 25.9563 18.8317 26.0149C18.8732 26.0705 18.9202 26.122 18.9719 26.1684C19.0706 26.2603 19.1744 26.3398 19.2495 26.4448C19.2871 26.4966 19.3163 26.5569 19.3555 26.6129C19.3903 26.6639 19.4416 26.7123 19.5036 26.7199C19.5005 26.7266 19.4977 26.7336 19.4941 26.7403C19.4984 26.7339 19.5023 26.7271 19.5058 26.7202C19.5092 26.7202 19.5123 26.7202 19.5154 26.7202L19.5067 26.7179C19.5362 26.6545 19.5401 26.5822 19.5176 26.516C19.4941 26.4414 19.4541 26.3731 19.4007 26.316C19.3505 26.258 19.2955 26.2059 19.2501 26.1499C19.205 26.0959 19.171 26.0336 19.15 25.9664C19.1256 25.8922 19.1127 25.8124 19.0939 25.7298C19.1512 25.739 19.2065 25.7579 19.2574 25.7858C19.2938 25.8092 19.3207 25.8447 19.3334 25.8861C19.345 25.9326 19.3527 25.98 19.3564 26.0278C19.3603 26.0798 19.3768 26.1302 19.4043 26.1745C19.4328 26.2175 19.4713 26.253 19.5165 26.2779C19.5598 26.3032 19.6087 26.3175 19.6588 26.3195C19.7089 26.3215 19.7588 26.3111 19.8039 26.2894C19.7585 26.3075 19.7093 26.314 19.6607 26.3083C19.6121 26.3027 19.5658 26.285 19.5257 26.2569C19.486 26.2308 19.4535 26.1953 19.431 26.1535C19.4105 26.1112 19.4001 26.0647 19.4007 26.0177C19.401 25.9657 19.3958 25.9138 19.3852 25.8628C19.3821 25.8508 19.3779 25.8391 19.3729 25.8278C19.4574 25.9231 19.5176 26.0373 19.5485 26.1608C19.5287 25.9553 19.4329 25.7645 19.2798 25.6259C19.2683 25.6149 19.2562 25.6049 19.2442 25.5942C19.3003 25.6275 19.3564 25.6567 19.4054 25.69C19.46 25.7244 19.5068 25.7699 19.5426 25.8236C19.5786 25.8814 19.6114 25.9411 19.6407 26.0026C19.6716 26.0663 19.7135 26.1242 19.7644 26.1734C19.789 26.1983 19.8183 26.2181 19.8506 26.2317C19.8829 26.2452 19.9175 26.2523 19.9526 26.2524C19.9187 26.2487 19.886 26.2382 19.8562 26.2217C19.8264 26.2051 19.8003 26.1828 19.7793 26.1561C19.7361 26.1036 19.7026 26.0438 19.6803 25.9796C19.6567 25.9127 19.6292 25.8472 19.5978 25.7835C19.5711 25.7333 19.5361 25.6879 19.4943 25.6491C19.5277 25.6621 19.5619 25.6729 19.5967 25.6816C19.6295 25.6897 19.6623 25.6959 19.6954 25.7012C19.7076 25.7143 19.7187 25.7283 19.7285 25.7432C19.7689 25.8001 19.7965 25.8651 19.8094 25.9336C19.8223 26.0022 19.8203 26.0727 19.8034 26.1404C19.8282 26.0719 19.838 25.9988 19.8322 25.9262C19.8263 25.8536 19.8049 25.7831 19.7694 25.7194L19.7666 25.7152C19.821 25.7219 19.8754 25.7267 19.9301 25.7315C19.874 25.7225 19.8152 25.7135 19.7582 25.7034C19.6811 25.5782 19.5409 25.5124 19.4638 25.4194C19.3768 25.325 19.3993 25.1954 19.4021 25.0436C19.4028 24.9641 19.3904 24.8851 19.3653 24.8097C19.3406 24.7361 19.308 24.6654 19.268 24.5988C19.2663 24.5963 19.2644 24.594 19.2624 24.5915C19.3248 24.6245 19.3847 24.6619 19.4416 24.7035C19.491 24.7394 19.5256 24.7919 19.5389 24.8514C19.5485 24.9046 19.5213 24.9727 19.4929 25.0475C19.4772 25.0883 19.4667 25.1309 19.4618 25.1744C19.4579 25.2203 19.4641 25.2666 19.48 25.3099C19.5127 25.3898 19.5679 25.4586 19.6388 25.5079C19.7041 25.5556 19.7756 25.5942 19.8513 25.6225C19.9242 25.6522 19.9972 25.6785 20.0661 25.7155C20.1363 25.7493 20.1978 25.7985 20.2462 25.8594C20.2029 25.791 20.1443 25.7335 20.0751 25.6914C20.0075 25.6474 19.9349 25.6127 19.8656 25.576C19.7968 25.5423 19.7331 25.4992 19.6763 25.4477C19.6225 25.4011 19.5835 25.3398 19.5642 25.2713C19.5485 25.2057 19.5681 25.1458 19.6026 25.0752C19.6216 25.0381 19.6385 24.9999 19.6533 24.9609C19.6668 24.9241 19.6738 24.8851 19.6738 24.8458C19.7324 24.9181 19.786 24.9968 19.8421 25.0738C19.8473 25.0877 19.8532 25.1014 19.8597 25.1147C19.9052 25.2002 19.968 25.2751 20.0443 25.3349C20.1937 25.455 20.3727 25.5172 20.5471 25.5782C20.4338 25.5312 20.3241 25.4757 20.219 25.4124C20.2302 25.4169 20.2411 25.4222 20.2526 25.4262C20.3418 25.4581 20.4394 25.4581 20.5286 25.4262C20.4385 25.4504 20.3428 25.4421 20.2582 25.4026C20.1745 25.3649 20.1003 25.3091 20.0409 25.2391C19.9938 25.1836 19.9511 25.1245 19.9133 25.0623C19.8889 24.9819 19.8768 24.8982 19.8777 24.8142C19.8764 24.7651 19.8719 24.7161 19.8639 24.6677C19.864 24.6669 19.864 24.6662 19.8639 24.6654C19.8693 24.6789 19.8746 24.6935 19.8802 24.7058C19.9171 24.7934 19.9669 24.875 20.028 24.9478C20.1486 25.0931 20.2983 25.2046 20.4464 25.3144C20.3062 25.1917 20.166 25.0668 20.0608 24.9161C20.0086 24.842 19.9681 24.7603 19.9408 24.6738C19.9163 24.5819 19.8862 24.4916 19.8508 24.4033C19.8449 24.3904 19.8373 24.3784 19.8303 24.3658L20.5412 25.1609L20.4453 25.0181C20.457 24.9758 20.4639 24.9324 20.466 24.8887C20.4666 24.8385 20.4616 24.7885 20.4512 24.7394C20.428 24.6414 20.3883 24.548 20.334 24.4632C20.2288 24.2935 20.0743 24.1633 19.9268 24.0389C20.079 24.1145 20.2285 24.1918 20.3595 24.3025C20.2982 24.2374 20.2312 24.1779 20.1592 24.1249C20.2563 24.1638 20.3494 24.2022 20.4156 24.2742C20.4818 24.3461 20.5277 24.4422 20.569 24.536C20.6102 24.6299 20.6531 24.7321 20.7226 24.8136C20.7922 24.8951 20.8853 24.9621 20.9916 24.9601C20.8845 24.9539 20.7967 24.8814 20.7392 24.7974C20.6817 24.7133 20.6447 24.6139 20.6093 24.5134C20.574 24.4128 20.5353 24.3092 20.4604 24.2215C20.3856 24.1338 20.2782 24.0815 20.1848 24.0369C20.0914 23.9924 20.0016 23.9434 19.9495 23.8689C19.9433 23.8599 19.9376 23.8505 19.9324 23.8409L19.9341 23.8426C20.0636 23.9479 20.2193 23.9991 20.3713 24.0476C20.2229 23.9851 20.0718 23.9168 19.9607 23.8059C19.9067 23.7523 19.8674 23.6857 19.8466 23.6126C19.83 23.5372 19.8243 23.4597 19.8297 23.3827V23.3471C19.8743 23.484 19.927 23.6238 20.0131 23.7459C20.0992 23.868 20.2246 23.9588 20.3497 24.0319C20.4747 24.105 20.606 24.1669 20.7229 24.2501C20.8399 24.3333 20.9473 24.4363 21 24.5733C20.9543 24.4333 20.8483 24.3187 20.733 24.2291C20.6178 24.1394 20.4862 24.0686 20.3662 23.9885C20.2462 23.9084 20.1346 23.8171 20.0628 23.6972C19.9937 23.5729 19.9426 23.4395 19.9111 23.3009C19.8738 23.1608 19.841 23.0166 19.7821 22.8751C19.7523 22.8029 19.7133 22.7348 19.666 22.6726C19.6507 22.6512 19.6334 22.6312 19.6144 22.613C19.5776 22.5752 19.5375 22.5407 19.4946 22.5099C19.4256 22.4615 19.3544 22.42 19.2958 22.3755C19.1687 22.2532 19.0948 22.0859 19.0899 21.9097C19.0899 21.9016 19.0899 21.8932 19.0899 21.885C19.0863 21.829 19.0843 21.7699 19.0818 21.7103C19.0893 21.7857 19.1016 21.8605 19.1185 21.9343C19.1473 22.0535 19.2056 22.1636 19.2879 22.2546C19.3702 22.3456 19.4741 22.4144 19.59 22.455C19.4852 22.4041 19.3951 22.3275 19.3281 22.2324C19.261 22.1373 19.2192 22.0267 19.2066 21.9111C19.2041 21.889 19.203 21.8666 19.2018 21.8441C19.2176 21.9222 19.2444 21.9977 19.2815 22.0682C19.3496 22.194 19.4607 22.2808 19.5619 22.3564C19.6632 22.432 19.7666 22.5065 19.8311 22.6085C19.8956 22.7105 19.9153 22.8373 19.936 22.9634C19.9458 23.0267 19.9562 23.0905 19.9719 23.1535C19.9883 23.217 20.0148 23.2774 20.0502 23.3325C20.085 23.3876 20.1314 23.4344 20.1862 23.4698C20.2406 23.5049 20.3063 23.5181 20.3701 23.5067C20.3064 23.5142 20.2423 23.4972 20.1907 23.4591C20.1397 23.4214 20.0977 23.3729 20.0675 23.3171C20.003 23.2068 19.9921 23.0785 19.9801 22.9496C19.968 22.8208 19.9543 22.6847 19.883 22.5631C19.8118 22.4416 19.703 22.3578 19.6057 22.2752C19.5084 22.1926 19.4178 22.1071 19.3735 21.9996C19.3292 21.892 19.3135 21.7691 19.3101 21.6428C19.3067 21.5164 19.3101 21.3859 19.2975 21.2506C19.2877 21.1064 19.2405 20.9673 19.1606 20.8468C19.0695 20.7286 18.9556 20.6485 18.8521 20.5695L18.8381 20.5588C18.9433 20.6113 19.0411 20.6772 19.1292 20.7549L19.1371 20.7619C19.1157 20.7372 19.0958 20.7118 19.0756 20.6866C19.1344 20.7221 19.1892 20.7638 19.2391 20.8109C19.1947 20.7512 19.1437 20.6966 19.0871 20.6482C18.9966 20.5701 18.9187 20.4786 18.8561 20.3768L18.8432 20.3558C18.9834 20.4737 19.1326 20.5706 19.2453 20.7011C19.3324 20.7922 19.3892 20.9079 19.408 21.0325C19.4225 21.1574 19.3942 21.2876 19.3698 21.4176C19.3454 21.5475 19.3258 21.6859 19.3639 21.8173C19.383 21.882 19.4181 21.941 19.466 21.9887C19.5128 22.0367 19.5755 22.0659 19.6424 22.0707C19.5765 22.0623 19.516 22.0298 19.4727 21.9794C19.4293 21.9305 19.399 21.8713 19.3847 21.8075C19.3566 21.6795 19.3847 21.5473 19.4158 21.419C19.4469 21.2907 19.4856 21.1563 19.4741 21.0131C19.4626 20.87 19.3917 20.7372 19.3042 20.63C19.1272 20.4123 18.8835 20.2737 18.7467 20.0656C18.6808 19.9605 18.6369 19.8431 18.6177 19.7205C18.5991 19.5921 18.5897 19.4624 18.5896 19.3326C18.5784 19.1985 18.5689 19.0604 18.5434 18.9212C18.5201 18.7789 18.4721 18.6418 18.4017 18.5159C18.3288 18.3918 18.2391 18.2876 18.1606 18.1798C18.0819 18.0736 18.0147 17.9593 17.9603 17.8389C17.9211 17.7549 17.886 17.6684 17.8515 17.581L17.8473 17.5639C17.7997 17.0488 17.2752 16.4273 17.1431 15.9192C17.0127 15.4184 16.5713 15.3414 16.5713 15.3414C16.5713 15.3414 16.5245 15.2613 16.4676 15.1733C16.4106 15.0854 16.2337 14.8728 16.08 14.7695C15.9263 14.6661 15.8192 14.7661 15.6352 14.6558C15.5651 14.614 15.5211 14.5297 15.4513 14.4689C15.3391 14.3701 15.2208 14.2729 15.1372 14.2085C15.0536 14.144 14.9633 14.332 14.9633 14.332C14.9207 14.2974 14.8805 14.26 14.843 14.2199C14.7726 14.1398 14.6624 14.2132 14.6624 14.2132C14.6122 14.0732 14.4784 14.1597 14.378 14.1365C14.2776 14.1132 14.074 13.9124 13.8699 14.1163C13.6657 14.3202 13.6525 14.6572 13.6394 14.7574C13.6262 14.8577 13.4711 14.9412 13.3082 14.9815C13.1452 15.0218 13.0575 15.105 12.9506 15.1717C12.8438 15.2383 12.4893 15.559 12.4492 15.559C12.4091 15.559 12.155 15.3389 12.0111 15.1851C11.8673 15.0313 11.2958 14.4306 11.0882 14.2101C10.9559 14.0701 10.5663 13.8404 10.2525 13.5923C10.0756 13.4522 9.90479 13.2581 9.85992 13.1884C9.73961 12.9948 9.24492 12.3736 9.07105 12.1131C8.89718 11.8527 8.79341 11.3785 8.71321 11.1889C8.633 10.9992 7.80712 9.54587 7.58669 9.18877C7.36627 8.83166 6.91364 7.90653 6.80147 7.76957C6.68929 7.63261 6.35277 6.90467 6.30678 6.8114C6.26079 6.71813 6.03588 6.5442 5.96885 6.45065C5.95641 6.43506 5.94166 6.42146 5.92511 6.41032L5.9338 0H5.34208L5.33366 6.22126C5.23551 6.25515 5.17522 6.30781 5.15643 6.40472C5.14989 6.43216 5.15382 6.46105 5.16746 6.48575C5.18109 6.51045 5.20346 6.52919 5.23018 6.53832C5.23018 6.53832 5.11296 6.57164 5.08295 6.66855C5.05295 6.76546 5.12305 6.85873 5.12305 6.85873C5.10303 6.88787 5.08937 6.92089 5.08295 6.95564C5.07622 7.00578 5.14325 7.10605 5.14325 7.10605C5.11937 7.13025 5.10511 7.16231 5.10314 7.19624C5.09305 7.2629 5.18728 7.33628 5.25682 7.40322C5.26888 7.4147 5.29608 7.44271 5.3317 7.48052L5.31375 20.5843C5.14549 20.6905 5.01593 20.8199 4.96265 20.9098C4.83561 21.1235 4.4343 21.8982 4.4343 21.8982C4.4343 21.8982 3.67207 21.7302 2.97014 21.7778C2.26821 21.8254 1.98861 22.5259 1.89354 22.8463C1.79847 23.1667 1.96702 23.4675 2.10079 23.8482C2.1723 24.0512 2.40758 24.2403 2.65577 24.4691C2.87255 24.6705 3.11036 24.9301 3.11036 24.9301C2.89639 25.4575 2.05395 26.339 1.91345 26.5527C1.77295 26.7664 1.27826 27.4276 1.15796 27.701C1.03765 27.9744 0.730008 28.4488 0.242048 28.6959C-0.245913 28.9429 0.0737863 29.0499 0.58306 29.13C1.09233 29.2101 1.84671 29.1367 1.98048 29.0031C2.11425 28.8695 2.71606 28.0228 2.77608 28.0228C2.83609 28.0228 2.72924 28.9911 2.72924 28.9911L2.89751 29.0247C2.89751 29.0247 2.97799 28.5766 3.05147 28.4102C3.12494 28.2438 3.53298 27.729 3.59972 27.3618C3.66646 26.9946 3.41239 26.7608 3.45249 26.647C3.49259 26.5333 4.215 25.632 4.215 25.632C4.51249 25.8148 4.82058 25.9798 5.13764 26.1261C5.18447 26.1479 5.24196 26.1762 5.3059 26.2101L5.30225 28.955C5.04986 28.979 4.91161 29.0449 4.85075 29.174C4.77055 29.3443 4.82046 29.4541 5.59783 29.4541C6.37521 29.4541 6.37521 29.2689 6.34015 29.1488C6.31211 29.0519 6.25069 28.9782 5.89398 28.9527L5.89734 26.5303C6.60657 26.9302 7.48938 27.4641 7.57716 27.561C7.7042 27.701 7.6439 27.7747 7.63717 27.955C7.63044 28.1354 7.59707 28.8163 7.59034 29.0835C7.58361 29.3507 6.8483 29.4443 6.73444 29.6244C6.62059 29.8045 6.92178 30.0652 7.75776 29.9851C8.59375 29.905 8.60692 29.6846 8.70704 29.4249C8.80716 29.1653 9.09489 28.4166 9.29596 28.3699C9.49703 28.3231 9.72391 29.4182 9.72391 29.4182L9.90451 29.3247C9.90451 29.3247 9.77747 28.5502 9.79233 28.283C9.80719 28.0158 9.91264 27.5285 9.90451 27.4016C9.89637 27.2747 9.57023 27.4817 9.57023 27.4817C9.57023 27.4817 9.69727 27.2478 9.6824 27.121C9.66754 26.9941 9.57555 26.8271 9.57555 26.8271C9.73596 26.8739 10.1238 26.7736 10.3913 26.5868C10.6589 26.4 11.2139 26.0659 11.4144 25.2984C11.6149 24.531 11.4679 23.4499 11.4679 23.4499C11.4679 23.4499 11.5681 23.43 11.7018 23.3899C11.8356 23.3499 12.026 23.2964 12.6982 23.2463C13.0964 23.2166 13.6211 23.1272 13.9829 23.0592C13.9829 23.0774 13.9829 23.0953 13.9829 23.1135C13.988 23.301 14.0208 23.4867 14.0802 23.6647C14.0944 23.7098 14.111 23.754 14.1301 23.7972C14.1479 23.8412 14.168 23.8842 14.1904 23.926C14.2331 24.012 14.2821 24.0873 14.3177 24.1635C14.3546 24.2203 14.3794 24.284 14.3907 24.3506C14.3884 24.3778 14.3876 24.4051 14.3881 24.4324C14.3857 24.4459 14.3824 24.4592 14.378 24.4722C14.3635 24.5106 14.3465 24.548 14.3273 24.5842C14.3049 24.6265 14.2862 24.6705 14.2712 24.7159C14.2542 24.7679 14.2518 24.8236 14.2642 24.8769C14.2785 24.9277 14.3051 24.9743 14.3416 25.0125C14.3744 25.048 14.4092 25.0772 14.4409 25.106C14.5042 25.1605 14.554 25.2291 14.586 25.3062C14.6181 25.3834 14.6317 25.4669 14.6257 25.5502C14.618 25.6368 14.5901 25.7204 14.5442 25.7942C14.4983 25.868 14.4357 25.9301 14.3615 25.9754C14.4431 25.934 14.5138 25.8738 14.5676 25.7999C14.6215 25.7259 14.6571 25.6403 14.6714 25.55C14.6845 25.4563 14.6756 25.3609 14.6453 25.2713C14.6149 25.1817 14.564 25.1005 14.4967 25.034C14.435 24.9693 14.3766 24.9072 14.3736 24.843C14.3674 24.7898 14.3957 24.7329 14.4324 24.671C14.4541 24.9083 14.5596 25.1301 14.73 25.2968C14.6721 25.2043 14.631 25.1022 14.6088 24.9954C14.6699 25.0999 14.7156 25.2126 14.7446 25.3301C14.7612 25.4018 14.763 25.4761 14.7499 25.5486C14.7317 25.6222 14.7025 25.6928 14.6632 25.7578C14.6268 25.8267 14.5878 25.9003 14.5791 25.9818C14.5704 26.0634 14.5844 26.1499 14.6453 26.2C14.5892 26.1421 14.5844 26.0564 14.6018 25.9832C14.6216 25.9133 14.654 25.8475 14.6975 25.7891C14.6935 25.8105 14.6928 25.8323 14.6955 25.8538C14.7048 25.9027 14.7238 25.9492 14.7516 25.9905C14.7745 26.0236 14.7933 26.0594 14.8077 26.097C14.8191 26.1342 14.8208 26.1737 14.8127 26.2118C14.8045 26.253 14.7865 26.2916 14.7602 26.3244C14.734 26.3572 14.7002 26.3832 14.6618 26.4003C14.7065 26.3887 14.7478 26.3664 14.7819 26.3354C14.8161 26.3043 14.8423 26.2655 14.8581 26.2222C14.8761 26.1766 14.8818 26.1272 14.8747 26.0788C14.8656 26.033 14.8514 25.9885 14.8323 25.946C14.8167 25.9133 14.8089 25.8775 14.8094 25.8412C14.813 25.8125 14.8272 25.7862 14.8492 25.7673C14.8925 25.7315 14.9383 25.6989 14.9863 25.6696C15.0507 25.6261 15.0983 25.5618 15.1209 25.4875C15.1352 25.5029 15.149 25.5183 15.1633 25.5329C15.144 25.5933 15.1135 25.6497 15.0735 25.699C15.0511 25.7508 15.004 25.8065 14.9686 25.8819C14.9497 25.9213 14.9394 25.9642 14.9384 26.0079C14.9391 26.0476 14.9457 26.0869 14.958 26.1247C14.9796 26.1944 15.0059 26.2544 15.0012 26.3179C14.9992 26.3496 14.9858 26.3795 14.9633 26.402C14.9518 26.4146 14.9372 26.4242 14.921 26.4297C14.9047 26.4352 14.8874 26.4364 14.8705 26.4333C14.8882 26.4403 14.9075 26.4426 14.9264 26.44C14.9453 26.4375 14.9632 26.4302 14.9785 26.4188C15.0115 26.3963 15.0355 26.3627 15.046 26.3241C15.0682 26.2471 15.0508 26.1687 15.046 26.1031C15.0429 26.0732 15.0448 26.0431 15.0514 26.0138C15.058 25.9882 15.0698 25.9643 15.0861 25.9435C15.1218 25.8975 15.1778 25.8541 15.2289 25.7861C15.2489 25.7454 15.2645 25.7026 15.2754 25.6586C15.2931 25.6818 15.3059 25.7083 15.3132 25.7364C15.3204 25.7646 15.322 25.794 15.3178 25.8228C15.3147 25.8471 15.3122 25.8718 15.3108 25.8964C15.3079 25.9416 15.2904 25.9845 15.2609 26.0188C15.2297 26.0527 15.2028 26.0904 15.1809 26.1309C15.159 26.1741 15.1503 26.2228 15.156 26.2709C15.1683 26.3615 15.2146 26.4441 15.2855 26.502C15.3446 26.5502 15.4095 26.5909 15.4788 26.623C15.4717 26.6432 15.4613 26.6622 15.4479 26.679C15.4344 26.6976 15.4159 26.7121 15.3946 26.7208C15.3734 26.7296 15.35 26.7323 15.3273 26.7286C15.3513 26.7361 15.3769 26.7368 15.4013 26.7306C15.4256 26.7244 15.4478 26.7116 15.4653 26.6935C15.5032 26.6584 15.5287 26.6121 15.5382 26.5613C15.5548 26.4544 15.5102 26.358 15.4821 26.2717C15.4466 26.1744 15.4375 26.0695 15.4558 25.9676C15.482 25.9237 15.5023 25.8766 15.5163 25.8275C15.518 25.8805 15.4956 25.9463 15.4768 26.0199C15.4647 26.0637 15.4607 26.1092 15.465 26.1544C15.4714 26.2025 15.4922 26.2475 15.5247 26.2835C15.5848 26.349 15.6532 26.3846 15.6866 26.4426C15.703 26.4737 15.7127 26.508 15.7151 26.5431C15.7174 26.5782 15.7123 26.6135 15.7 26.6465C15.6749 26.7177 15.6292 26.7799 15.5688 26.8252C15.5069 26.8722 15.4393 26.911 15.3674 26.9406C15.4436 26.9174 15.5164 26.8843 15.5839 26.842C15.6547 26.7982 15.7105 26.7341 15.744 26.658C15.7625 26.6182 15.772 26.5748 15.772 26.531C15.772 26.4871 15.7625 26.4438 15.744 26.4039C15.7009 26.3216 15.6265 26.2754 15.5918 26.2202C15.5783 26.1997 15.5699 26.1763 15.5673 26.152C15.5647 26.1276 15.568 26.103 15.5769 26.0802C15.5947 26.1377 15.6214 26.1921 15.656 26.2415C15.6238 26.1676 15.6069 26.0879 15.6061 26.0073C15.6178 26.0312 15.6318 26.0539 15.6479 26.0751C15.714 26.1659 15.7979 26.2308 15.8722 26.2992C15.8803 26.3065 15.8874 26.3143 15.8952 26.3219C15.9212 26.3565 15.9493 26.3894 15.9793 26.4205C16.0054 26.4572 16.0261 26.4975 16.0408 26.5401C16.0566 26.5861 16.0591 26.6357 16.048 26.6832C16.0356 26.7312 16.0074 26.7738 15.9681 26.8042C15.8882 26.8669 15.7819 26.8882 15.6804 26.9039C15.7839 26.8955 15.8927 26.8829 15.9844 26.8199C16.0307 26.7876 16.0651 26.7411 16.0823 26.6874C16.0957 26.6376 16.0961 26.5852 16.0834 26.5353ZM9.96985 15.8156C9.91629 16.4166 8.88652 16.5637 8.73929 17.1779C8.69891 17.346 8.67198 17.7686 8.6459 18.4335C8.62291 19.0144 8.49307 19.7303 8.47203 19.8359C8.37837 20.3034 8.2045 21.7526 8.2045 21.7526C8.2045 21.7526 7.83684 21.452 7.69634 21.3719C7.55585 21.2918 6.57291 20.6437 6.1116 20.4504C6.04576 20.4234 5.97574 20.408 5.90463 20.4048L5.92146 8.14881C5.92728 8.15646 5.93271 8.16441 5.93773 8.17261C6.00475 8.28269 6.09197 8.28829 6.16516 8.39948C6.31211 8.62355 7.28831 11.4149 7.42208 11.7754C7.55584 12.1358 7.95715 12.5968 8.37837 13.2245C8.79959 13.8522 9.60191 14.8006 9.74241 15.061C9.84786 15.2571 9.94629 15.2851 9.96985 15.5218C9.98026 15.6195 9.97979 15.718 9.96845 15.8156H9.96985ZM17.7068 26.3331C17.7007 26.3465 17.6945 26.3611 17.6883 26.3748C17.683 26.3468 17.6782 26.3188 17.6732 26.2908C17.6827 26.3076 17.6942 26.3205 17.7054 26.3331H17.7068ZM17.4648 26.221C17.4474 26.0916 17.4623 25.9566 17.4595 25.8146C17.5279 26.0057 17.6039 26.1924 17.6875 26.3748C17.6816 26.3885 17.6757 26.4028 17.6701 26.4177C17.6491 26.4711 17.6396 26.5284 17.642 26.5857C17.614 26.549 17.584 26.5126 17.5579 26.4737C17.507 26.3989 17.4747 26.3132 17.4634 26.2236L17.4648 26.221ZM18.0226 26.0989C17.9947 26.0421 17.9725 25.9826 17.9564 25.9213C17.9435 25.8611 17.9376 25.7995 17.939 25.7379C17.9362 25.7141 17.934 25.6894 17.9317 25.6642L17.9643 25.6838C18.0548 25.7399 18.137 25.7995 18.1774 25.8835C18.2178 25.9676 18.2155 26.0712 18.1948 26.1754C18.1796 26.2535 18.1572 26.3328 18.1409 26.4151C18.1337 26.3726 18.1224 26.3309 18.1073 26.2905C18.0809 26.2236 18.0492 26.1608 18.0212 26.1L18.0226 26.0989ZM18.4713 26.8299C18.5448 26.914 18.6168 26.9997 18.6598 27.0988C18.5685 27.0918 18.4807 27.0612 18.4048 27.0101C18.329 26.959 18.2677 26.8891 18.227 26.8073C18.1811 26.712 18.1699 26.6037 18.1953 26.5011C18.2015 26.4706 18.2094 26.4403 18.2178 26.4101C18.2226 26.4324 18.2287 26.4545 18.236 26.4762C18.2854 26.6235 18.3832 26.7302 18.4707 26.8311L18.4713 26.8299ZM19.2094 26.2048C19.2655 26.2589 19.3233 26.3042 19.3777 26.3546C19.4322 26.4027 19.4751 26.4625 19.5033 26.5294C19.5305 26.59 19.5331 26.6588 19.5106 26.7213C19.4497 26.7064 19.4085 26.6552 19.3799 26.6017C19.3513 26.5482 19.3266 26.4815 19.2921 26.4205C19.2231 26.2992 19.1225 26.2028 19.0381 26.1031C18.996 26.0557 18.959 26.004 18.9278 25.9488C18.8992 25.8947 18.8779 25.8369 18.8648 25.7771C18.8554 25.7339 18.8489 25.6901 18.8451 25.646C18.8825 25.671 18.9235 25.6899 18.9668 25.702C19.003 25.7984 19.0285 25.9076 19.0756 26.0121C19.1069 26.0847 19.152 26.1506 19.2086 26.2059L19.2094 26.2048ZM19.0627 25.5995C19.1076 25.6275 19.1519 25.6516 19.1943 25.6785C19.1544 25.6637 19.1146 25.653 19.0765 25.6421C19.0717 25.6289 19.0683 25.6149 19.0622 25.6007L19.0627 25.5995ZM19.2896 25.2777C19.3042 25.3581 19.3451 25.4315 19.4057 25.4864C19.498 25.5679 19.602 25.6116 19.6791 25.6824C19.6545 25.6763 19.6298 25.6693 19.6054 25.6614C19.501 25.6306 19.4056 25.575 19.3275 25.4993C19.2903 25.4621 19.2603 25.4184 19.2389 25.3704C19.219 25.3219 19.2069 25.2706 19.203 25.2183C19.2007 25.1962 19.1996 25.1735 19.1985 25.1503C19.2172 25.1925 19.2374 25.2343 19.259 25.2758C19.247 25.2379 19.2358 25.2001 19.2251 25.1637C19.2074 25.0971 19.1934 25.0294 19.1833 24.9612C19.1789 24.9333 19.1723 24.9058 19.1637 24.8789C19.1557 24.8543 19.1457 24.8304 19.1337 24.8074C19.1275 24.7828 19.1216 24.7584 19.1152 24.7338C19.1087 24.7091 19.102 24.6851 19.0956 24.6607C19.1059 24.6769 19.1166 24.6932 19.1264 24.71C19.2038 24.817 19.2588 24.931 19.2666 25.0604C19.2697 25.1336 19.2772 25.2065 19.2891 25.2788L19.2896 25.2777ZM20.2992 24.4974C20.3568 24.5741 20.4008 24.6601 20.4293 24.7517C20.4556 24.8387 20.4606 24.9307 20.4436 25.02L19.8056 24.0697L19.7989 24.0621C19.8236 24.0801 19.8482 24.098 19.8729 24.1154C20.0302 24.2296 20.1867 24.3431 20.2992 24.4985V24.4974ZM11.3532 22.3323C11.3532 22.3323 11.6643 21.0602 11.9049 20.6294C12.1455 20.1986 13.5698 19.4575 13.5698 19.4575C13.5468 19.8447 13.5502 20.2329 13.5799 20.6196C13.6301 21.2106 13.7403 21.3408 13.8604 21.6814C13.8784 21.735 13.8922 21.79 13.9016 21.8458C13.6854 21.915 13.3878 22.0058 12.998 22.1122C12.2257 22.3236 11.3524 22.3335 11.3524 22.3335L11.3532 22.3323ZM15.3004 26.4812C15.2404 26.423 15.2051 26.344 15.202 26.2605C15.202 26.1975 15.2317 26.1485 15.2754 26.1006C15.2629 26.1398 15.257 26.1808 15.2581 26.2219C15.2601 26.2757 15.2751 26.3283 15.3018 26.3751C15.3429 26.4512 15.4112 26.509 15.4931 26.537C15.4931 26.5429 15.4931 26.5487 15.4931 26.5546C15.4919 26.5762 15.4876 26.5976 15.4802 26.6179C15.4144 26.5806 15.3538 26.535 15.2996 26.4824L15.3004 26.4812ZM15.4925 26.5283C15.4221 26.4909 15.3683 26.4286 15.3416 26.3535C15.3259 26.3109 15.3206 26.2652 15.3262 26.2202C15.3289 26.2011 15.3336 26.1823 15.3402 26.1642C15.355 26.2145 15.3755 26.2629 15.4014 26.3084C15.4401 26.3841 15.4835 26.4546 15.4917 26.5294L15.4925 26.5283Z" fill="#EB0029"/>
</svg>
