<svg width="20" height="18" viewBox="0 0 20 18" fill="none" xmlns="http://www.w3.org/2000/svg">
<path d="M9.53125 1.78125L9.96094 2.25L10.4297 1.78125C11.1068 1.13021 11.862 0.674479 12.6953 0.414062C13.5547 0.153646 14.4401 0.0885417 15.3516 0.21875C16.7057 0.479167 17.8125 1.11719 18.6719 2.13281C19.5312 3.1224 19.974 4.32031 20 5.72656V5.96094C19.974 7.65365 19.349 9.07292 18.125 10.2188L11.0938 16.8203C10.7812 17.1068 10.4167 17.25 10 17.25C9.58333 17.25 9.21875 17.1068 8.90625 16.8203L1.875 10.2188C0.651042 9.07292 0.0260417 7.65365 0 5.96094V5.72656C0.0260417 4.32031 0.46875 3.1224 1.32812 2.13281C2.1875 1.11719 3.29427 0.479167 4.64844 0.21875C5.53385 0.0885417 6.40625 0.153646 7.26562 0.414062C8.125 0.674479 8.88021 1.13021 9.53125 1.78125C9.50521 1.78125 9.50521 1.78125 9.53125 1.78125ZM9.96094 4.90625L8.20312 3.07031C7.29167 2.23698 6.21094 1.89844 4.96094 2.05469C4.04948 2.23698 3.30729 2.66667 2.73438 3.34375C2.1875 4.02083 1.90104 4.8151 1.875 5.72656V5.96094C1.90104 7.10677 2.31771 8.07031 3.125 8.85156L10 15.2578L16.875 8.85156C17.6823 8.07031 18.099 7.10677 18.125 5.96094V5.72656C18.099 4.8151 17.7995 4.02083 17.2266 3.34375C16.6797 2.66667 15.9505 2.23698 15.0391 2.05469C13.7891 1.89844 12.7083 2.23698 11.7969 3.07031L9.96094 4.90625Z" fill="#6B2AE6"/>
</svg>
