<svg width="21" height="16" viewBox="0 0 21 16" fill="none" xmlns="http://www.w3.org/2000/svg">
<path d="M4.5 6.5C5.78125 6.53125 6.84375 6.96875 7.6875 7.8125C8.53125 8.65625 8.96875 9.71875 9 11C8.96875 12.2812 8.53125 13.3438 7.6875 14.1875C6.84375 15.0312 5.78125 15.4688 4.5 15.5C3.21875 15.4688 2.15625 15.0312 1.3125 14.1875C0.46875 13.3438 0.03125 12.2812 0 11V6.5C0.03125 4.8125 0.625 3.40625 1.78125 2.28125C2.90625 1.125 4.3125 0.53125 6 0.5C6.4375 0.5 6.79688 0.640625 7.07812 0.921875C7.35938 1.20312 7.5 1.5625 7.5 2C7.5 2.4375 7.35938 2.79688 7.07812 3.07812C6.79688 3.35938 6.4375 3.5 6 3.5C5.15625 3.53125 4.45312 3.82812 3.89062 4.39062C3.32812 4.95312 3.03125 5.65625 3 6.5V6.78125C3.46875 6.59375 3.96875 6.5 4.5 6.5ZM16.5 6.5C17.7812 6.53125 18.8438 6.96875 19.6875 7.8125C20.5312 8.65625 20.9688 9.71875 21 11C20.9688 12.2812 20.5312 13.3438 19.6875 14.1875C18.8438 15.0312 17.7812 15.4688 16.5 15.5C15.2188 15.4688 14.1562 15.0312 13.3125 14.1875C12.4688 13.3438 12.0312 12.2812 12 11V6.5C12.0312 4.8125 12.625 3.40625 13.7812 2.28125C14.9062 1.125 16.3125 0.53125 18 0.5C18.4375 0.5 18.7969 0.640625 19.0781 0.921875C19.3594 1.20312 19.5 1.5625 19.5 2C19.5 2.4375 19.3594 2.79688 19.0781 3.07812C18.7969 3.35938 18.4375 3.5 18 3.5C17.1562 3.53125 16.4531 3.82812 15.8906 4.39062C15.3281 4.95312 15.0312 5.65625 15 6.5V6.78125C15.4688 6.59375 15.9688 6.5 16.5 6.5Z" fill="white"/>
</svg>
