<svg width="77" height="55" viewBox="0 0 77 55" fill="none" xmlns="http://www.w3.org/2000/svg">
<path opacity="0.2" d="M14.3683 35.4858C12.6827 39.7393 10.0184 43.9502 6.45039 48.0031C5.31497 49.2927 5.17083 51.1337 6.09196 52.5837C6.8013 53.6991 7.99437 54.3345 9.25764 54.3345C9.61355 54.3345 9.97575 54.2844 10.3329 54.1803C17.8949 51.9709 35.5342 44.1231 36.008 19.0384C36.1909 9.35213 29.1064 1.03067 19.8813 0.0932321C14.7969 -0.415601 9.71006 1.23618 5.94033 4.64373C2.16559 8.05503 0 12.9251 0 18.007C0 26.4851 6.01802 33.8992 14.3683 35.4858ZM9.38171 8.45229C11.7791 6.28545 14.7969 5.13121 17.9965 5.13121C18.4489 5.13121 18.905 5.15377 19.3625 5.20138C25.9507 5.86934 31.0076 11.9049 30.8747 18.9406C30.5476 36.2979 21.1496 44.1118 13.367 47.6071C15.8296 44.276 17.7646 40.8497 19.1407 37.3769C19.677 36.0247 19.5881 34.5133 18.8975 33.23C18.1744 31.884 16.8848 30.9291 15.3621 30.6095C9.43435 29.37 5.13325 24.0688 5.13325 18.0069C5.13325 14.3751 6.68223 10.8924 9.38171 8.45229Z" fill="#6B2AE6"/>
<path opacity="0.2" d="M47.0819 52.5835C47.7912 53.6989 48.9843 54.3343 50.2476 54.3343C50.6035 54.3343 50.9644 54.2841 51.3229 54.1801C58.8849 51.9707 76.5229 44.1229 76.9966 19.0382C77.1771 9.35192 70.0938 1.03044 60.8675 0.0930295C55.7769 -0.424556 50.6988 1.23472 46.929 4.64353C43.1543 8.05483 40.9887 12.9249 40.9887 18.0068C40.9887 26.4849 47.0068 33.899 55.3558 35.4856C53.6689 39.7429 51.0046 43.9537 47.4379 48.0042C46.3024 49.295 46.1595 51.1348 47.0819 52.5835ZM60.1281 37.3793C60.6644 36.027 60.5767 34.5156 59.8874 33.2323C59.1631 31.8851 57.8747 30.9301 56.3508 30.6093C50.423 29.3698 46.1219 24.0687 46.1219 18.0068C46.1219 14.3736 47.6709 10.8922 50.3704 8.45209C52.7665 6.28524 55.7843 5.131 58.9851 5.131C59.4363 5.131 59.8925 5.15357 60.3511 5.20118C66.9382 5.86914 71.9962 11.9047 71.8634 18.9404C71.5375 36.2989 62.1383 44.1116 54.3557 47.6069C56.817 44.2783 58.7495 40.852 60.1281 37.3793Z" fill="#6B2AE6"/>
</svg>
