<svg width="50" height="36" viewBox="0 0 50 36" fill="none" xmlns="http://www.w3.org/2000/svg">
<path opacity="0.2" d="M9.33014 23.2162C8.23558 25.9782 6.50547 28.7126 4.18859 31.3444C3.4513 32.1818 3.3577 33.3772 3.95584 34.3188C4.41646 35.0431 5.19118 35.4557 6.01149 35.4557C6.2426 35.4557 6.4778 35.4231 6.70973 35.3556C11.6202 33.9208 23.0743 28.8249 23.3819 12.536C23.5007 6.24615 18.9004 0.842573 12.91 0.233846C9.60845 -0.0965677 6.30527 0.976022 3.85738 3.18873C1.40624 5.40388 0 8.56628 0 11.8662C0 17.3715 3.90783 22.1859 9.33014 23.2162ZM6.09206 5.66184C7.64884 4.25479 9.60846 3.50528 11.6861 3.50528C11.9799 3.50528 12.2761 3.51993 12.5731 3.55085C16.8512 3.98459 20.1349 7.90383 20.0486 12.4725C19.8362 23.7435 13.7336 28.8175 8.67993 31.0872C10.279 28.9241 11.5355 26.6992 12.4291 24.4442C12.7774 23.5661 12.7196 22.5847 12.2712 21.7514C11.8016 20.8774 10.9642 20.2572 9.97548 20.0497C6.12624 19.2449 3.3333 15.8025 3.3333 11.8662C3.3333 9.50783 4.33914 7.24631 6.09206 5.66184Z" fill="#EB0029" fill-opacity="0.4"/>
<path opacity="0.2" d="M30.5726 34.3187C31.0332 35.043 31.8079 35.4556 32.6283 35.4556C32.8594 35.4556 33.0938 35.423 33.3265 35.3555C38.2369 33.9207 49.6903 28.8248 49.9979 12.5359C50.1151 6.24605 45.5155 0.842459 39.5244 0.233749C36.2187 -0.102348 32.9212 0.975108 30.4733 3.18864C28.0222 5.40378 26.616 8.56618 26.616 11.8661C26.616 17.3714 30.5238 22.1858 35.9453 23.2161C34.8499 25.9806 33.1198 28.7149 30.8038 31.3451C30.0664 32.1833 29.9736 33.3779 30.5726 34.3187ZM39.0442 24.4457C39.3925 23.5676 39.3355 22.5862 38.8879 21.7529C38.4176 20.8781 37.581 20.258 36.5914 20.0496C32.7422 19.2448 29.9492 15.8024 29.9492 11.8661C29.9492 9.50692 30.9551 7.24621 32.708 5.66174C34.264 4.25469 36.2236 3.50518 38.302 3.50518C38.595 3.50518 38.8912 3.51983 39.1891 3.55075C43.4664 3.98449 46.7508 7.90374 46.6646 12.4724C46.453 23.7442 40.3495 28.8174 35.2959 31.0871C36.8942 28.9257 38.149 26.7008 39.0442 24.4457Z" fill="#EB0029" fill-opacity="0.4"/>
</svg>
