<svg width="200" height="141" viewBox="0 0 200 141" fill="none" xmlns="http://www.w3.org/2000/svg">
<g opacity="0.2">
<path d="M37.2459 91.987C32.8764 103.013 25.9698 113.928 16.7208 124.435C13.7776 127.778 13.4039 132.55 15.7917 136.309C17.6305 139.2 20.7232 140.847 23.9978 140.847C24.9205 140.847 25.8594 140.717 26.7852 140.447C46.3877 134.72 92.1126 114.377 93.3406 49.3516C93.8149 24.2427 75.4502 2.67159 51.5368 0.241553C38.3569 -1.07746 25.1706 3.20432 15.3986 12.0375C5.61369 20.8803 0 33.5046 0 46.6779C0 68.6551 15.6 87.8742 37.2459 91.987ZM24.3195 21.9101C30.5341 16.2931 38.3569 13.3011 46.6508 13.3011C47.8236 13.3011 49.0061 13.3596 50.1919 13.483C67.2701 15.2145 80.3784 30.8601 80.0341 49.0981C79.1862 94.0921 54.8245 114.348 34.6502 123.408C41.0339 114.773 46.0498 105.891 49.6168 96.8892C51.0072 93.3839 50.7766 89.466 48.9866 86.1394C47.1121 82.6504 43.7692 80.1749 39.8221 79.3464C24.4559 76.1335 13.3065 62.3917 13.3065 46.6779C13.3065 37.2633 17.3218 28.2353 24.3195 21.9101Z" fill="#525960"/>
<path d="M122.046 136.308C123.885 139.199 126.977 140.847 130.252 140.847C131.175 140.847 132.11 140.717 133.039 140.447C152.642 134.72 198.364 114.376 199.592 49.3512C200.059 24.2423 181.698 2.67112 157.781 0.241153C144.585 -1.10054 131.422 3.20066 121.65 12.0371C111.865 20.8799 106.251 33.5042 106.251 46.6775C106.251 68.6547 121.851 87.8738 143.494 91.9866C139.121 103.022 132.214 113.938 122.969 124.438C120.025 127.784 119.655 132.553 122.046 136.308ZM155.864 96.8953C157.255 93.39 157.027 89.4722 155.241 86.1455C153.363 82.6532 150.023 80.1777 146.073 79.3461C130.707 76.1332 119.557 62.3913 119.557 46.6775C119.557 37.2596 123.573 28.2349 130.57 21.9097C136.782 16.2927 144.605 13.3007 152.902 13.3007C154.071 13.3007 155.254 13.3592 156.443 13.4826C173.518 15.2141 186.629 30.8597 186.285 49.0977C185.44 94.0949 161.075 114.347 140.901 123.408C147.281 114.779 152.291 105.897 155.864 96.8953Z" fill="#525960"/>
</g>
</svg>
