<svg width="44" height="56" viewBox="0 0 44 56" fill="none" xmlns="http://www.w3.org/2000/svg">
<g clip-path="url(#clip0_606_2)">
<path d="M3.84034 0.084035C3.07845 0.45576 2.46343 1.2564 2.08708 2.38587L1.86678 3.02924L1.83924 21.6012C1.82088 37.8856 1.83924 40.2732 1.95857 40.9309C2.14216 41.9174 2.83979 43.1184 3.49152 43.5759L3.97803 43.919L10.477 43.9619L16.9668 44.0048V46.7069V49.4234H16.104C15.6266 49.4234 15.1768 49.4663 15.0942 49.5092C14.9749 49.5806 14.9474 49.838 14.9474 50.8674V52.1398L7.49372 52.1684C0.104341 52.2113 0.0309067 52.2113 0.0309067 52.4973C0.0309067 52.7832 0.0951621 52.7832 22.0155 52.7832C43.9357 52.7832 44 52.7832 44 52.4973C44 52.2113 43.9266 52.2113 36.73 52.1684L29.4507 52.1398V50.8674C29.4507 49.838 29.4232 49.5806 29.3039 49.5092C29.2212 49.4663 28.7715 49.4234 28.2941 49.4234H27.4313V46.7069V44.0048L33.9302 43.9619L40.4201 43.919L40.9066 43.5759C41.5583 43.1184 42.2559 41.9174 42.4395 40.9309C42.5588 40.2732 42.5772 37.8856 42.5588 21.6012L42.5313 3.02924L42.2835 2.31438C41.9989 1.45656 41.5766 0.827485 41.0167 0.369977L40.6036 0.0268465L22.3367 -0.00174773C12.2945 -0.0160448 3.96885 0.0268465 3.84034 0.084035ZM40.6954 1.02764C41.1544 1.31359 41.5766 1.97125 41.8061 2.7433L42.0264 3.45815V21.9443C42.0264 37.2994 42.0081 40.502 41.8979 40.9023C41.7235 41.56 41.237 42.3892 40.7964 42.7466L40.4201 43.0612L22.5203 43.1041C9.87117 43.1327 4.48289 43.0898 4.13408 42.9754C3.48234 42.7752 2.94076 42.1033 2.61948 41.1311L2.37164 40.359L2.39 21.7585L2.41754 3.14362L2.69292 2.44306C2.86733 2.01415 3.14271 1.58523 3.41809 1.31359L3.86788 0.884673L21.7309 0.813188C31.5528 0.770297 39.7775 0.770297 40.007 0.798891C40.2365 0.827485 40.5486 0.927565 40.6954 1.02764ZM26.9723 46.7069V49.4234H22.199H17.4258V46.7069V43.9905H22.199H26.9723V46.7069ZM28.9 51.139V51.9969H22.7498H16.5996V51.2391C16.5996 50.8102 16.6272 50.4242 16.6639 50.3813C16.6914 50.3241 19.4636 50.2812 22.8141 50.2812H28.9V51.139Z" fill="#EB0029"/>
<path d="M4.24423 2.39975C3.84034 2.58561 3.5007 3.1289 3.39055 3.78657C3.31712 4.18689 3.28958 9.26236 3.30794 20.5857C3.33547 36.7557 3.33547 36.8272 3.52824 37.2275C3.62921 37.442 3.8587 37.7422 4.03311 37.8709C4.32684 38.1139 5.38247 38.1282 22.1807 38.1282C41.8061 38.1282 40.4568 38.1854 40.8331 37.2418C41.0167 36.77 41.0167 36.5699 41.0167 20.1997C41.0167 3.95813 41.0167 3.6293 40.8331 3.17179C40.4659 2.24248 41.8704 2.31396 22.3367 2.28537C11.9732 2.27107 4.40946 2.31396 4.24423 2.39975ZM40.2548 3.44344L40.5118 3.78657L40.5394 19.928C40.5486 28.7922 40.5394 36.1981 40.5118 36.384C40.4843 36.5556 40.3833 36.8272 40.2824 36.9845C40.0988 37.2704 39.9427 37.2704 31.9842 37.2704H23.8605L23.7962 36.9559C23.7687 36.7843 23.6127 36.4841 23.4658 36.2696L23.1996 35.8836L23.5117 32.7811C23.7962 29.9789 23.8146 29.5929 23.7136 28.9781C23.6494 28.5921 23.5668 27.7628 23.53 27.1338C23.4658 26.0186 23.475 25.9757 23.6586 25.9757C24.0257 25.9757 24.0166 25.5897 23.6127 22.187C23.1721 18.484 23.1445 18.0408 23.3556 17.9121C23.4291 17.8692 24.3286 18.1838 25.3476 18.627C27.5598 19.5849 27.9086 19.6421 28.2207 19.0702C28.5053 18.5555 28.5144 17.8263 28.2391 17.3259C28.0646 17.04 27.7158 16.8255 26.394 16.2679C25.4944 15.8819 24.7234 15.5245 24.6775 15.453C24.6407 15.3815 24.4939 14.7668 24.3654 14.0948C24.0533 12.4935 23.9431 12.3362 23.0068 12.2648L22.2725 12.2219L22.6213 11.9073C23.2271 11.3783 23.6586 10.0201 23.5209 9.0622C23.3189 7.561 22.658 6.67459 21.7401 6.67459C21.1251 6.67459 20.7579 6.93193 20.3448 7.64679C19.7849 8.61899 19.7482 10.063 20.2622 11.1782C20.7028 12.1361 20.6661 12.2505 19.8767 12.2505C19.2708 12.2505 19.1699 12.2076 18.7384 11.7501L18.2703 11.264L18.307 8.5761C18.3437 6.50302 18.3254 5.80246 18.2336 5.53082C17.9306 4.64439 17.1045 4.58721 16.7832 5.43074C16.618 5.84535 16.5996 6.17418 16.5996 9.26236C16.5996 12.565 16.5996 12.6365 16.8108 12.9224C17.0678 13.3084 18.7017 14.9669 18.8119 14.9669C18.8578 14.9669 18.8945 15.5674 18.8945 16.3108C18.8945 17.5261 18.9128 17.6834 19.0872 17.8835C19.3351 18.1552 19.3167 18.5269 18.8486 22.5873C18.5365 25.2751 18.5089 25.7183 18.6191 25.8327C18.6925 25.9185 19.0505 25.9757 19.4177 25.9757H20.0786L20.7212 27.5913C21.0792 28.492 21.3729 29.264 21.3729 29.3212C21.3729 29.3784 20.868 30.5651 20.253 31.9519C18.8761 35.0258 18.4355 36.1981 18.4355 36.7986V37.2704H11.4225C4.47371 37.2704 4.40946 37.2704 4.1708 36.9702L3.93213 36.6842V20.1997C3.93213 4.67299 3.94131 3.70079 4.09736 3.50063C4.17998 3.37195 4.31767 3.24328 4.3911 3.20039C4.46453 3.15749 12.5056 3.1146 22.2633 3.1146L39.9978 3.10031L40.2548 3.44344ZM17.6828 5.84535C17.7471 5.94543 17.793 6.13129 17.793 6.27427C17.793 6.47443 17.7195 6.53161 17.4717 6.53161C17.2238 6.53161 17.1504 6.47443 17.1504 6.27427C17.1504 5.98832 17.3156 5.67379 17.4717 5.67379C17.5267 5.67379 17.6185 5.74527 17.6828 5.84535ZM17.793 9.41963C17.7838 10.5491 17.7838 11.5356 17.7838 11.6214C17.793 11.7215 18.0408 12.036 18.3437 12.3362C18.8761 12.8795 18.8945 12.9224 18.8945 13.5086V14.1091L18.0592 13.2656C17.591 12.808 17.1871 12.3362 17.1504 12.2362C17.1229 12.1218 17.1137 10.9923 17.132 9.70557L17.1688 7.38944H17.49H17.8021L17.793 9.41963ZM22.5754 8.06141C23.1078 8.87634 23.0803 10.1345 22.5295 10.9208C22.2633 11.3068 22.1256 11.3926 21.786 11.3926C21.0057 11.3926 20.455 10.6063 20.455 9.49112C20.455 8.26156 21.0057 7.47522 21.8135 7.5753C22.2082 7.61819 22.3551 7.71827 22.5754 8.06141ZM21.3545 12.6508C21.3729 12.8652 21.3362 12.9653 21.2444 12.9653C21.1434 12.9653 21.0975 12.8366 21.0975 12.5936C21.0975 12.1504 21.3086 12.1933 21.3545 12.6508ZM20.6936 13.4657C20.8497 13.7374 20.9965 13.8231 21.2719 13.8231C21.5473 13.8231 21.6758 13.7374 21.8135 13.4657C21.9696 13.1655 22.0705 13.1083 22.5111 13.1083H23.0252V15.1099V17.1115H21.2352H19.4452V15.1099V13.1083H19.9593C20.3999 13.1083 20.51 13.1655 20.6936 13.4657ZM23.9431 14.8096L24.2277 16.2108L25.4852 16.754C26.1737 17.0543 26.7795 17.3402 26.8254 17.4117C26.8713 17.4832 26.8713 17.6977 26.8254 17.9407L26.7428 18.3553L25.2374 17.6977C24.0441 17.183 23.7136 16.9828 23.6586 16.754C23.5851 16.4538 23.5484 13.3942 23.6218 13.3942C23.6402 13.3942 23.7871 14.0233 23.9431 14.8096ZM27.8627 17.9121C27.9178 18.1552 27.8076 18.5698 27.6516 18.6413C27.468 18.7271 27.3303 18.4411 27.3946 18.0694C27.4588 17.6262 27.7709 17.5404 27.8627 17.9121ZM22.658 18.1838C22.658 18.3696 22.4377 18.3982 21.2352 18.3982C20.0327 18.3982 19.8124 18.3696 19.8124 18.1838C19.8124 17.9979 20.0327 17.9693 21.2352 17.9693C22.4377 17.9693 22.658 17.9979 22.658 18.1838ZM23.0252 21.9296C23.1904 23.4022 23.3465 24.7175 23.374 24.8605C23.4107 25.1036 23.3006 25.1179 21.2903 25.1179C19.3167 25.1179 19.1699 25.1036 19.1699 24.8605C19.1699 24.6175 19.6655 20.2568 19.7665 19.5706C19.8124 19.256 19.8399 19.256 21.2627 19.256H22.7131L23.0252 21.9296ZM22.0246 26.376C22.1072 26.5905 22.4193 27.4054 22.7314 28.1917L23.2914 29.6215L22.9793 32.5953C22.8141 34.2394 22.658 35.6119 22.6305 35.6405C22.5662 35.7406 21.7401 35.5262 21.7401 35.3975C21.7401 35.326 21.8686 34.0536 22.0155 32.5667L22.2908 29.8502L21.9879 29.0925C21.8135 28.6778 21.4647 27.8057 21.1985 27.1481L20.7303 25.9757H21.2995C21.8319 25.9757 21.8869 26.0043 22.0246 26.376ZM22.9334 26.4046C22.9334 26.6334 22.915 26.8335 22.8875 26.8335C22.8691 26.8335 22.7865 26.6334 22.7039 26.4046C22.5662 25.99 22.5662 25.9757 22.7498 25.9757C22.8967 25.9757 22.9334 26.0758 22.9334 26.4046ZM21.4739 32.0806C21.3362 33.4245 21.2627 33.7819 20.9965 34.3967C20.6661 35.183 20.6018 35.1973 19.9868 34.797L19.7298 34.6254L20.6661 32.5238C21.1801 31.38 21.6116 30.4507 21.6207 30.465C21.6299 30.4793 21.5657 31.2084 21.4739 32.0806ZM19.8583 35.6834C20.2438 35.9122 20.3081 36.0123 20.2897 36.2839C20.2622 36.5127 20.3356 36.7128 20.5192 36.9416L20.7762 37.2704H19.8858C19.0505 37.2704 18.9863 37.2561 18.9863 36.9845C18.9863 36.7843 19.3443 35.4118 19.3902 35.4118C19.3993 35.4118 19.6105 35.5405 19.8583 35.6834ZM21.0975 36.2267C21.0975 36.5127 21.07 36.5699 20.9965 36.4555C20.9323 36.3554 20.9139 36.1838 20.9415 36.0695C21.0333 35.7263 21.0975 35.7978 21.0975 36.2267ZM22.4377 36.5699C22.7865 36.6699 23.0711 36.8272 23.1721 36.9988C23.3281 37.2704 23.3097 37.2704 22.4928 37.2704H21.6483V36.8415C21.6483 36.3554 21.6483 36.3554 22.4377 36.5699Z" fill="#EB0029"/>
<path d="M21.7676 39.0575C21.1985 39.4436 20.9506 40.5444 21.2352 41.4166C21.6116 42.546 22.7865 42.546 23.1629 41.4166C23.4566 40.5301 23.1996 39.4293 22.6121 39.0432C22.2266 38.8002 22.144 38.8002 21.7676 39.0575ZM22.5846 40.0869C22.7865 40.3729 22.7957 40.6874 22.6029 41.102C22.3367 41.7025 21.6483 41.3308 21.6483 40.573C21.6483 39.944 22.2633 39.6294 22.5846 40.0869Z" fill="#EB0029"/>
<path d="M0.0125496 55.5144C-0.0149885 55.6287 0.00337021 55.8003 0.049267 55.8718C0.0951637 55.9433 0.875409 55.9862 1.92185 55.9719C3.69347 55.929 3.70265 55.929 3.73019 55.6001L3.75773 55.2856H1.91268C0.324648 55.2856 0.0676257 55.3142 0.0125496 55.5144Z" fill="#EB0029"/>
<path d="M5.18052 55.4138C5.1438 55.4853 5.15298 55.6426 5.18052 55.7712C5.2356 55.9857 6.75937 56 22.0155 56C37.2715 56 38.7953 55.9857 38.8504 55.7712C38.8779 55.6426 38.8871 55.4853 38.8504 55.4138C38.7861 55.2423 5.24478 55.2423 5.18052 55.4138Z" fill="#EB0029"/>
<path d="M40.3007 55.5999L40.3283 55.9287H42.1641C43.9357 55.9287 44 55.9144 44 55.6428C44 55.3711 43.9266 55.3568 42.1366 55.3139L40.2732 55.2853L40.3007 55.5999Z" fill="#EB0029"/>
</g>
<defs>
<clipPath id="clip0_606_2">
<rect width="44" height="56" fill="white"/>
</clipPath>
</defs>
</svg>
