<svg width="44" height="56" viewBox="0 0 44 56" fill="none" xmlns="http://www.w3.org/2000/svg">
<g clip-path="url(#clip0_578_2)">
<path d="M2.0192 0.0861253C1.06356 0.359998 0.164132 1.31308 0.0404604 2.20042C0.00673185 2.44143 -0.0157538 14.2289 0.00673185 28.3936C0.0404604 52.7683 0.0517032 54.1596 0.242832 54.4882C0.51266 54.9812 1.10853 55.5399 1.6257 55.7919C2.05293 56 2.50264 56 22.0202 56C41.5378 56 41.9875 56 42.4148 55.7919C42.9319 55.5399 43.5278 54.9812 43.7976 54.4882C43.9888 54.1596 44 52.7902 44 28.0102C44 3.23019 43.9888 1.86082 43.7976 1.53217C43.5278 1.0392 42.9319 0.480502 42.4148 0.228539C41.9875 0.0203958 41.5153 0.0203958 22.1889 -0.00151399C9.66434 -0.0124689 2.26654 0.0203958 2.0192 0.0861253ZM41.6165 1.95942C41.7514 2.02514 41.9201 2.1566 41.9988 2.2552C42.2011 2.50716 42.2011 53.5132 41.9988 53.7652C41.9201 53.8638 41.7514 53.9953 41.6165 54.061C41.268 54.2472 2.77247 54.2472 2.42394 54.061C2.28903 53.9953 2.12039 53.8638 2.04169 53.7652C1.83932 53.5132 1.83932 2.50716 2.04169 2.2552C2.12039 2.16756 2.27779 2.02514 2.40146 1.95942C2.7275 1.77318 41.268 1.77318 41.6165 1.95942Z" fill="#EB0029"/>
<path d="M4.41394 3.7999C4.27902 3.85468 4.08789 4.00805 3.98671 4.15046C3.81807 4.36956 3.80682 6.49481 3.80682 28.0322V51.6619L4.07665 51.9687L4.34648 52.2754H22.0202H39.694L39.9638 51.9687L40.2337 51.6619V28.0103V4.3586L39.9638 4.05186L39.694 3.74513L22.1664 3.72322C12.4413 3.71226 4.53761 3.74513 4.41394 3.7999ZM38.3224 28.0103V50.4678H22.0202H5.71811V28.0103V5.55269H22.0202H38.3224V28.0103Z" fill="#EB0029"/>
<path d="M14.9935 7.74321C14.8698 7.78703 13.1609 9.40836 11.2046 11.3255C8.03414 14.4148 7.62939 14.853 7.62939 15.1597C7.62939 15.3459 7.66312 15.5869 7.69685 15.6855C7.80928 15.9484 8.39391 16.2004 8.74244 16.1237C8.94481 16.0799 10.2152 14.9187 12.6662 12.5305C15.8929 9.38645 16.2864 8.95921 16.2864 8.65247C16.2864 8.01709 15.5556 7.50221 14.9935 7.74321Z" fill="#EB0029"/>
<path d="M31.1832 17.8767C30.6435 18.1396 11.5869 36.7739 11.5082 37.1245C11.3508 37.7489 12.0253 38.4062 12.6662 38.2529C13.0484 38.1652 32.1725 19.5747 32.4311 19.0489C32.656 18.5888 32.4873 18.1068 32.0151 17.8767C31.6329 17.6795 31.5991 17.6795 31.1832 17.8767Z" fill="#EB0029"/>
<path d="M35.1182 40.4985C34.9945 40.5423 33.2856 42.1636 31.3293 44.0807C28.1026 47.2358 27.7541 47.6082 27.7541 47.9259C27.7541 48.4298 28.1813 48.8242 28.7322 48.8242C29.137 48.8242 29.3056 48.6818 32.7796 45.2858C36.0176 42.1308 36.4111 41.7145 36.4111 41.4077C36.4111 40.7724 35.6803 40.2575 35.1182 40.4985Z" fill="#EB0029"/>
</g>
<defs>
<clipPath id="clip0_578_2">
<rect width="44" height="56" fill="white"/>
</clipPath>
</defs>
</svg>
