<svg width="45" height="57" viewBox="0 0 45 57" fill="none" xmlns="http://www.w3.org/2000/svg">
<path d="M4.13831 0.875148C2.90743 1.34605 1.91537 2.71495 1.16214 4.949C0.464029 7.00782 0.105787 9.44994 0.0323011 12.6258C-0.059556 16.5573 0.00474381 16.7325 2.72371 20.0836L4.68945 22.5147V28.4722V34.4296L3.00847 36.4666C2.08071 37.5836 1.21726 38.7225 1.08866 38.9963C0.427286 40.3542 0.252758 42.1831 0.647743 43.6067C1.03354 45.0085 1.9613 46.2898 3.07277 46.9359C3.88111 47.4068 4.64353 47.5382 6.72868 47.5382H8.63012L8.65768 51.0207C8.68524 54.4265 8.68524 54.5032 8.90569 54.985C9.19964 55.6531 9.60381 56.1568 10.1549 56.4963C10.5407 56.7372 10.7336 56.792 11.3491 56.792C12.5432 56.792 13.3516 56.1787 13.866 54.8865L14.1048 54.2732L14.1324 50.6812C14.1507 48.71 14.1967 47.1002 14.2334 47.1002C14.2793 47.1002 14.4998 46.9031 14.7294 46.6621C15.6847 45.6546 15.9328 44.1762 15.3541 42.7854C15.1336 42.2488 14.9315 41.9531 14.6008 41.6465L14.1507 41.2522L14.1691 36.149L14.1967 31.0567L16.392 29.6768C17.5954 28.9212 18.7252 28.1655 18.8997 27.9903C19.607 27.3223 19.8826 25.7563 19.4784 24.7269C19.3498 24.3983 18.5139 23.3251 16.833 21.332C13.5445 17.4334 13.7466 17.5429 9.76915 17.5319C8.44641 17.5319 7.44517 17.4881 7.28901 17.4224C7.15122 17.3567 6.50822 16.6777 5.86523 15.9112L4.68945 14.5203V13.2062C4.68945 10.2056 5.23141 7.71965 6.32451 5.71558C7.38087 3.78817 7.13285 1.84981 5.72744 1.05037C5.34164 0.820392 4.49655 0.732783 4.13831 0.875148ZM5.18548 2.86827C5.58047 3.24061 5.48861 3.82102 4.82724 5.06946C4.68027 5.36514 4.52411 5.59512 4.47818 5.59512C4.44144 5.59512 4.0832 5.398 3.67903 5.15707L2.94417 4.71902L3.183 4.24812C3.65147 3.35012 4.3404 2.63829 4.74457 2.63829C4.8548 2.63829 5.0477 2.73685 5.18548 2.86827ZM3.86274 7.43492C3.86274 7.47872 3.77088 7.82916 3.66984 8.22341C3.5688 8.61765 3.42183 9.27472 3.34834 9.70182C3.16463 10.7312 3.06358 14.6189 3.21056 15.1336C3.28404 15.3964 3.7617 16.0426 4.71701 17.1705C5.47943 18.0685 6.17754 18.857 6.26021 18.9118C6.3337 18.9665 6.89402 19.985 7.4911 21.1677C8.40048 22.9747 8.63012 23.358 8.89651 23.5113C9.30068 23.7413 9.87019 23.6537 10.1549 23.3361C10.2744 23.1937 10.7796 22.2848 11.2756 21.2991C12.0564 19.7331 12.2034 19.5031 12.4054 19.5031C13.0025 19.5141 13.4434 19.9412 15.7858 22.7118C17.8801 25.2087 18.1006 25.5044 18.1006 25.8329C18.1006 26.0301 18.0638 26.2929 18.0087 26.4024C17.9077 26.6324 15.4735 28.1984 15.3541 28.1108C15.2622 28.0341 14.61 26.7528 14.61 26.6324C14.61 26.5886 14.7754 26.4572 14.9866 26.3476C15.1887 26.2381 15.4551 25.9972 15.5837 25.822C15.9879 25.2525 15.9144 25.0664 14.7202 23.6427C13.5353 22.23 13.324 22.1095 12.828 22.5804C12.5892 22.7995 12.5892 22.8214 12.5892 24.2669V25.7344L11.8359 26.2053C10.9174 26.7747 10.4581 27.2456 10.1917 27.8918C9.95286 28.4941 9.92531 29.5563 10.1274 30.1258C10.4673 31.0567 11.2389 31.7466 12.0839 31.8452C12.5708 31.9109 12.5892 31.9218 12.5892 32.2175V32.5351H9.42009H6.25102V27.1033V21.6605L4.11075 19.076C2.31954 16.9296 1.93374 16.404 1.78677 15.944C1.63061 15.4622 1.61224 15.1008 1.61224 13.0967C1.62143 11.4321 1.66736 10.4684 1.78677 9.59231C1.97049 8.26721 2.16339 7.17209 2.30117 6.74499L2.39303 6.47121L3.12788 6.90926C3.53206 7.15019 3.86274 7.39111 3.86274 7.43492ZM10.2927 19.4922C10.2927 19.5579 10.0907 19.9959 9.84264 20.4888L9.40172 21.3648L8.92407 20.423C8.66687 19.9083 8.45559 19.4703 8.45559 19.4374C8.45559 19.4155 8.86895 19.3936 9.37417 19.3936C9.88857 19.3936 10.2927 19.4374 10.2927 19.4922ZM13.572 28.286L13.9578 29.0745L13.2505 29.5454C12.8647 29.7973 12.4238 30.0163 12.286 30.0163C12.0013 30.0163 11.5879 29.6002 11.5695 29.2826C11.5512 28.9321 11.5971 28.6474 11.6981 28.505C11.79 28.3736 13.0393 27.4975 13.1403 27.4975C13.1679 27.4975 13.3608 27.8589 13.572 28.286ZM12.4973 37.6821V40.9675H11.3491H10.2009V39.3139C10.2009 37.5398 10.1182 37.0908 9.70485 36.7732C9.40172 36.5323 8.97918 36.4556 8.67605 36.587C8.31781 36.7513 5.16711 40.4857 4.99258 40.9566C4.76294 41.5917 5.01095 42.3474 5.5621 42.654C5.8193 42.8073 6.37044 42.8292 9.51195 42.8292C13.6823 42.8292 13.6731 42.8292 13.9854 43.6725C14.2977 44.5047 13.9303 45.3589 13.1679 45.578C12.681 45.7094 5.20385 45.6984 4.58841 45.567C3.58717 45.337 2.80638 44.6471 2.32873 43.5739C2.09909 43.0482 2.07153 42.884 2.07153 41.8984C2.07153 40.3104 2.18176 40.1024 4.42307 37.3974C6.13161 35.3495 6.25102 35.1743 6.25102 34.802V34.3968H9.37417H12.4973V37.6821ZM8.63931 40.0367V40.9675H7.84015H7.03181L7.8126 40.0367C8.24432 39.5219 8.60257 39.1058 8.61175 39.1058C8.63012 39.1058 8.63931 39.5219 8.63931 40.0367ZM12.5892 50.4622C12.5892 52.083 12.5432 53.5942 12.4973 53.8352C12.4054 54.328 12.0013 54.8317 11.6063 54.9412C11.2297 55.0617 10.651 54.766 10.4121 54.3389C10.2009 53.9775 10.2009 53.9228 10.2009 50.7579V47.5382H11.395H12.5892V50.4622Z" fill="#EB0029"/>
<path d="M21.9586 2.62777C21.0125 2.98916 20.3511 3.92001 20.25 5.02608C20.2133 5.39842 20.5164 7.72008 21.3523 13.5352C22.6108 22.2195 22.6659 22.4933 23.5753 26.2933C24.1632 28.7354 24.1907 28.9216 24.1999 30.0715C24.2091 31.0571 24.1723 31.4075 23.9978 32.0098C23.6304 33.2802 23.217 33.8825 21.3523 35.9194C20.397 36.9598 19.5427 37.9673 19.4509 38.1535C19.2396 38.5915 19.2764 39.599 19.5152 40.0261C19.5979 40.1904 19.9928 40.6065 20.397 40.946L21.1135 41.5702L21.1411 47.9219L21.1778 54.2736L21.4166 54.876C21.7014 55.5987 22.1974 56.2011 22.7761 56.5405C23.4099 56.9129 24.4938 56.891 25.1277 56.4967C25.6788 56.1573 26.083 55.6535 26.3769 54.9855L26.5974 54.4927L26.6249 49.0937L26.6525 43.7057H28.2508C29.9134 43.7057 31.4015 43.5305 32.8436 43.1582C33.2937 43.0377 33.6887 42.972 33.7255 43.0268C33.7622 43.0706 34.9472 45.5127 36.371 48.4695C37.7947 51.4154 39.0716 53.9999 39.2093 54.2079C39.3471 54.416 39.687 54.7336 39.9626 54.9198C40.4219 55.2264 40.5413 55.2593 41.2945 55.2593C42.259 55.2593 42.6081 55.084 43.2511 54.3175C43.9216 53.5071 44.1972 52.0834 43.8757 51.0321C43.8114 50.8131 42.6999 48.4476 41.4047 45.7646C40.1095 43.0925 39.044 40.8475 39.044 40.7818C39.044 40.7161 39.1726 40.6065 39.3196 40.5299C39.6962 40.3437 40.1187 39.7414 40.2381 39.2157C40.3759 38.6134 40.2198 38.0111 39.7972 37.4307C39.6135 37.1788 38.897 36.237 38.2173 35.3281C37.5375 34.4191 36.9129 33.5868 36.8211 33.4664C36.6741 33.2473 36.6833 33.2473 37.1517 33.2364C38.0152 33.2035 38.7317 32.6231 39.1726 31.5828C39.3379 31.1885 39.8707 26.2276 39.8707 25.0887C39.8707 24.1031 39.5768 23.2927 38.9613 22.5699C38.4837 22.0114 38.2265 21.8471 35.4616 20.3359C33.8173 19.4379 32.2925 18.6275 32.0629 18.5508C31.4474 18.3208 30.7217 18.4304 29.0867 18.9998C27.5711 19.5364 27.2771 19.5583 27.1026 19.1641C27.0475 19.0436 26.5239 15.8021 25.9544 11.9691C25.3757 8.13622 24.8521 4.78515 24.797 4.52232C24.6684 3.95286 24.0805 3.14247 23.5845 2.83584C23.1803 2.59491 22.326 2.4854 21.9586 2.62777ZM22.9506 4.56613C23.0609 4.65374 23.1895 4.81801 23.2354 4.92752C23.2813 5.02608 23.8049 8.31144 24.3928 12.232C24.9807 16.1416 25.4951 19.4926 25.5502 19.6678C25.7707 20.533 26.7443 21.3653 27.5159 21.3653C27.718 21.3653 28.6182 21.1134 29.5276 20.8068C30.5931 20.4454 31.2729 20.2702 31.4566 20.303C31.6128 20.3359 33.0641 21.0805 34.6808 21.9566C37.8499 23.6869 38.1438 23.9169 38.2724 24.7492C38.3551 25.253 37.8682 30.5205 37.7029 30.9038C37.5651 31.2214 37.115 31.4732 36.8578 31.3637C36.7751 31.3309 36.6098 31.1995 36.4996 31.079C36.2332 30.7943 36.2332 30.5533 36.4812 28.1003C36.6925 25.9319 36.6557 25.5596 36.1781 25.012C36.0035 24.8149 35.2319 24.3221 34.3225 23.8293C32.8988 23.0518 32.7242 22.9861 32.3017 23.0408C31.971 23.0737 31.7322 23.0299 31.429 22.8656C31.1627 22.7232 30.7309 22.6356 30.2257 22.5918C29.5643 22.548 29.3439 22.5809 28.7927 22.8108C28.2141 23.0408 28.1038 23.0518 27.8466 22.9313C27.6905 22.8546 27.2496 22.7342 26.8729 22.6685C26.2208 22.548 25.5869 22.6028 24.6133 22.8546C24.3744 22.9204 24.3744 22.9094 24.1723 21.7814C23.9335 20.4344 21.7749 5.51888 21.7749 5.23415C21.7749 4.94942 22.2709 4.39091 22.5281 4.39091C22.6475 4.39091 22.8404 4.46757 22.9506 4.56613ZM27.5068 24.7602C28.1498 25.0339 28.1589 25.0339 28.9948 24.6944C29.7756 24.3659 30.4921 24.3659 31.0708 24.6944L31.3831 24.8697L32.0077 27.5856C32.3568 29.0749 32.7059 30.4876 32.7977 30.7286C32.8896 30.9914 34.1205 32.7107 35.8198 34.9448C37.3906 37.0255 38.6766 38.7558 38.6766 38.7886C38.6766 39.0186 34.8186 40.6832 33.0274 41.2308C30.2625 42.0521 26.8821 42.0631 24.4571 41.2308C23.4926 40.9022 22.1423 40.1466 21.3891 39.5224L20.8287 39.0515L21.83 37.9673C22.3811 37.365 23.2538 36.3684 23.7682 35.7552C24.5765 34.7915 24.751 34.5067 25.1185 33.6087C25.9819 31.4951 26.037 29.7758 25.3206 26.7861C25.0909 25.8224 24.898 24.9792 24.898 24.9025C24.898 24.7821 25.2563 24.6068 25.7247 24.4973C26.1197 24.4097 26.9648 24.5411 27.5068 24.7602ZM34.148 25.8005L35.0482 26.2824L35.0207 26.6985C35.0023 26.9285 34.9288 27.706 34.8553 28.4288C34.7818 29.1516 34.7267 29.9182 34.7267 30.1481C34.7267 30.6409 34.644 30.6738 34.3868 30.2577C34.2307 29.9948 33.1651 25.8115 33.1651 25.4282C33.1651 25.2639 33.1376 25.253 34.148 25.8005ZM39.9901 46.5859C42.7918 52.3791 42.7458 52.2477 42.0845 53.0252C41.7813 53.3866 41.6711 53.4523 41.3312 53.4523C41.0832 53.4523 40.8168 53.3647 40.6607 53.2442C40.4678 53.0909 39.6686 51.5358 37.8315 47.7467C36.4261 44.8447 35.287 42.4463 35.3054 42.4354C35.3513 42.3806 37.3446 41.5264 37.4365 41.5264C37.4916 41.5155 38.6398 43.8043 39.9901 46.5859ZM23.612 42.8734C23.9886 43.0268 24.4755 43.202 24.6959 43.2677L25.0817 43.3881V48.6776V53.967L24.8705 54.3394C24.6224 54.7774 24.0529 55.0621 23.6579 54.9417C23.5202 54.8979 23.263 54.7007 23.0884 54.4927L22.7853 54.1313V48.3709C22.7853 45.206 22.8129 42.6106 22.8496 42.6106C22.8955 42.6106 23.2354 42.7311 23.612 42.8734Z" fill="#EB0029"/>
<path d="M8.77709 6.5151C6.87565 7.08456 5.51617 9.14339 5.51617 11.4322C5.52535 12.9654 5.89278 14.0495 6.76542 15.0899C8.44641 17.1159 11.0368 17.1378 12.7821 15.1556C14.1415 13.6115 14.4722 11.2679 13.6363 9.231C12.7453 7.06266 10.7245 5.93468 8.77709 6.5151ZM10.6418 8.38775C11.2664 8.61773 12.038 9.45002 12.3044 10.2057C12.5708 10.9394 12.58 12.0674 12.3228 12.7573C11.6981 14.4547 9.98961 15.2323 8.62094 14.4328C7.71155 13.9072 7.1696 12.9325 7.09611 11.7169C7.041 10.7751 7.24308 10.0523 7.73911 9.37336C8.49234 8.3549 9.53951 8.00446 10.6418 8.38775Z" fill="#EB0029"/>
<path d="M30.2992 7.34761C28.0303 7.76375 26.3585 10.4906 26.726 13.1736C27.075 15.7362 28.8203 17.5322 30.9514 17.5322C32.2466 17.5322 33.2386 17.0175 34.1021 15.9005C34.8829 14.893 35.2779 13.7431 35.2779 12.4399C35.2779 9.30787 32.9079 6.87671 30.2992 7.34761ZM32.0261 9.41738C32.5681 9.71307 33.1376 10.3592 33.4223 11.0053C33.6152 11.4543 33.6612 11.7171 33.6612 12.3852C33.6704 13.4474 33.404 14.1702 32.7885 14.8382C31.4015 16.3276 29.2245 15.7581 28.4529 13.7103C28.1589 12.9327 28.1865 11.8376 28.508 11.0382C28.8111 10.3263 29.4266 9.62546 29.9777 9.38453C30.538 9.15456 31.5668 9.16551 32.0261 9.41738Z" fill="#EB0029"/>
</svg>
