<svg width="211" height="60" viewBox="0 0 211 60" fill="none" xmlns="http://www.w3.org/2000/svg">
<mask id="mask0_1_6931" style="mask-type:alpha" maskUnits="userSpaceOnUse" x="0" y="0" width="62" height="60">
<ellipse cx="31" cy="30" rx="31" ry="30" fill="#D9D9D9"/>
</mask>
<g mask="url(#mask0_1_6931)">
<path fill-rule="evenodd" clip-rule="evenodd" d="M23.8546 0.675638C6.78767 4.96294 -3.57864 22.2005 1.14236 38.4417C3.188 45.4775 10.1141 53.4965 17.413 57.279C21.81 59.5572 23.9186 59.9726 31.2347 59.9991C38.239 60.0234 40.7621 59.5877 44.6055 57.6914C49.4139 55.3176 58.6131 47.8908 55.3629 49.005C53.9551 49.4885 52.9902 48.2747 50.6693 43.1028C46.0742 32.8604 45.9838 32.2743 48.5729 29.5177C50.843 27.1013 50.847 27.0515 48.9223 24.7794C47.8537 23.5169 46.4216 22.1264 45.74 21.6896C44.9752 21.198 44.7325 19.7455 45.1052 17.8807C45.6232 15.2947 45.4018 14.8661 43.5502 14.8661C42.0906 14.8661 41.3918 15.505 41.3918 16.8376C41.3918 17.9223 40.95 19.0823 40.4106 19.4154C39.3045 20.099 33.2661 12.2618 33.2661 10.143C33.2661 9.38838 32.8091 8.77184 32.2504 8.77184C31.6918 8.77184 31.2347 9.57628 31.2347 10.5585C31.2347 11.5417 30.2922 12.9342 29.1403 13.6543C27.4157 14.731 27.1171 15.7579 27.4492 19.4703C27.7773 23.1411 27.6005 23.7688 26.4965 22.8526C25.4066 21.9476 25.1405 22.4798 25.1405 25.5645C25.1405 30.2612 21.0238 36.1807 17.7248 36.2284C15.542 36.2599 15.536 36.2945 17.4628 37.752C18.5475 38.5717 20.2041 39.2431 21.1447 39.2431C22.2477 39.2431 23.0806 40.3705 23.49 42.4172C24.3655 46.7969 24.333 47.0153 22.5291 48.8202C21.1305 50.2178 21.1234 50.4158 22.4692 50.4158C23.3132 50.4158 24.3746 49.845 24.8266 49.1462C25.6676 47.8471 25.7458 47.3352 26.0059 41.4045C26.1369 38.4163 26.3593 38.1471 27.7468 39.2989C29.2683 40.5615 32.2504 45.575 32.2504 46.87C32.2504 47.2103 31.7934 47.2062 31.2347 46.8609C30.6588 46.5044 30.219 47.3586 30.219 48.8324C30.219 51.7017 32.2291 52.5011 32.286 49.6541C32.3144 48.2686 32.6191 48.4108 33.6653 50.299C34.4037 51.6316 35.2712 52.2949 35.5941 51.7738C35.9161 51.2528 35.8267 50.2574 35.3971 49.5606C34.485 48.0858 40.241 36.0405 42.1536 35.422C42.8524 35.1955 43.4232 35.5053 43.4232 36.1086C43.4232 38.8063 49.0868 49.3605 50.4143 49.135C53.5224 48.6079 52.4275 51.2701 48.7953 53.074C43.3714 55.7696 30.2119 55.7392 24.7312 53.0191C5.15746 43.3079 5.60234 15.7 25.4777 6.67542C33.4033 3.07677 47.287 4.50384 52.788 9.48182C53.7895 10.3878 54.8469 10.8916 55.1374 10.6001C55.9601 9.77739 48.9873 4.80957 43.7757 2.50391C38.363 0.109889 29.3882 -0.71385 23.8546 0.675638ZM37.2691 21.8176C39.2517 26.1171 38.7317 31.3642 35.8176 36.4854C31.508 44.0596 29.0631 39.9774 32.1062 30.2866C32.7918 28.1018 32.8253 26.0257 32.1997 24.3802C30.9128 20.9969 30.9737 20.6424 32.7258 21.3148C35.0792 22.2178 35.393 20.4779 33.2143 18.612C31.2317 16.9148 30.6659 14.7574 31.8848 13.5396C32.4973 12.9271 34.8121 16.4851 37.2691 21.8176ZM31.2347 28.5182C31.2347 30.4409 30.7777 32.2956 30.219 32.641C29.6055 33.0198 29.2033 31.6354 29.2033 29.1459C29.2033 26.8789 29.6604 25.0232 30.219 25.0232C30.7777 25.0232 31.2347 26.5955 31.2347 28.5182Z" fill="url(#paint0_linear_1_6931)"/>
</g>
<path d="M73.6 13.304C77.152 13.304 80.256 14.008 82.912 15.416C85.568 16.824 87.616 18.808 89.056 21.368C90.528 23.896 91.264 26.824 91.264 30.152C91.264 33.448 90.528 36.376 89.056 38.936C87.616 41.496 85.552 43.48 82.864 44.888C80.208 46.296 77.12 47 73.6 47H60.976V13.304H73.6ZM73.072 39.896C76.176 39.896 78.592 39.048 80.32 37.352C82.048 35.656 82.912 33.256 82.912 30.152C82.912 27.048 82.048 24.632 80.32 22.904C78.592 21.176 76.176 20.312 73.072 20.312H69.184V39.896H73.072ZM93.259 33.56C93.259 30.808 93.771 28.392 94.795 26.312C95.851 24.232 97.275 22.632 99.067 21.512C100.859 20.392 102.859 19.832 105.067 19.832C106.955 19.832 108.603 20.216 110.011 20.984C111.451 21.752 112.555 22.76 113.323 24.008V20.216H121.531V47H113.323V43.208C112.523 44.456 111.403 45.464 109.963 46.232C108.555 47 106.907 47.384 105.019 47.384C102.843 47.384 100.859 46.824 99.067 45.704C97.275 44.552 95.851 42.936 94.795 40.856C93.771 38.744 93.259 36.312 93.259 33.56ZM113.323 33.608C113.323 31.56 112.747 29.944 111.595 28.76C110.475 27.576 109.099 26.984 107.467 26.984C105.835 26.984 104.443 27.576 103.291 28.76C102.171 29.912 101.611 31.512 101.611 33.56C101.611 35.608 102.171 37.24 103.291 38.456C104.443 39.64 105.835 40.232 107.467 40.232C109.099 40.232 110.475 39.64 111.595 38.456C112.747 37.272 113.323 35.656 113.323 33.608ZM142.829 19.928C145.965 19.928 148.461 20.952 150.317 23C152.205 25.016 153.149 27.8 153.149 31.352V47H144.989V32.456C144.989 30.664 144.525 29.272 143.597 28.28C142.669 27.288 141.421 26.792 139.853 26.792C138.285 26.792 137.037 27.288 136.109 28.28C135.181 29.272 134.717 30.664 134.717 32.456V47H126.509V20.216H134.717V23.768C135.549 22.584 136.669 21.656 138.077 20.984C139.485 20.28 141.069 19.928 142.829 19.928ZM165.573 40.232H177.189V47H156.405V40.472L167.541 26.984H156.501V20.216H176.949V26.744L165.573 40.232ZM179.113 33.56C179.113 30.808 179.625 28.392 180.649 26.312C181.705 24.232 183.129 22.632 184.921 21.512C186.713 20.392 188.713 19.832 190.921 19.832C192.809 19.832 194.457 20.216 195.865 20.984C197.305 21.752 198.409 22.76 199.177 24.008V20.216H207.385V47H199.177V43.208C198.377 44.456 197.257 45.464 195.817 46.232C194.409 47 192.761 47.384 190.873 47.384C188.697 47.384 186.713 46.824 184.921 45.704C183.129 44.552 181.705 42.936 180.649 40.856C179.625 38.744 179.113 36.312 179.113 33.56ZM199.177 33.608C199.177 31.56 198.601 29.944 197.449 28.76C196.329 27.576 194.953 26.984 193.321 26.984C191.689 26.984 190.297 27.576 189.145 28.76C188.025 29.912 187.465 31.512 187.465 33.56C187.465 35.608 188.025 37.24 189.145 38.456C190.297 39.64 191.689 40.232 193.321 40.232C194.953 40.232 196.329 39.64 197.449 38.456C198.601 37.272 199.177 35.656 199.177 33.608Z" fill="white"/>
<defs>
<linearGradient id="paint0_linear_1_6931" x1="0" y1="0" x2="65.7423" y2="46.1966" gradientUnits="userSpaceOnUse">
<stop stop-color="#6B2AE6"/>
<stop offset="1" stop-color="#EB0029"/>
</linearGradient>
</defs>
</svg>
