<svg width="98" height="74" viewBox="0 0 98 74" fill="none" xmlns="http://www.w3.org/2000/svg">
<g opacity="0.5">
<path d="M89.2498 56.8369L72.7672 61.2512L68.6437 45.8622L53.2522 49.9842L49.1287 34.5952L33.7372 38.7172L29.6126 23.3242L14.2196 27.4487L9.80381 10.9687L26.2839 6.55287L30.4084 21.9458L45.8014 17.8213L49.926 33.2143L65.3164 29.0883L69.4409 44.4813L84.8315 40.3553L89.2498 56.8369Z" fill="#6B2AE6"/>
<path d="M12.4548 33.3896L7.73922 15.7914L25.3376 11.076L29.4621 26.469L44.8549 22.3443L48.9796 37.737L64.3699 33.6113L68.4946 49.004L83.885 44.8783L88.6029 62.4781L71.0022 67.1919L66.8787 51.8028L51.4872 55.9249L47.3637 40.5359L31.9722 44.6579L27.8477 29.2653L12.4548 33.3896ZM48.1903 39.1475L52.3059 54.5073L67.6684 50.3933L63.5515 35.0294L48.1903 39.1475ZM28.6747 27.8786L32.7909 43.2403L48.1534 39.1263L44.0365 23.7624L28.6747 27.8786ZM67.7053 50.4146L71.821 65.7743L87.1852 61.6596L83.0666 46.2964L67.7053 50.4146ZM9.15691 16.6099L13.2734 31.9719L28.6354 27.8558L24.5189 12.4939L9.15691 16.6099Z" fill="#6B2AE6"/>
</g>
</svg>
