<svg width="209" height="73" viewBox="0 0 209 73" fill="none" xmlns="http://www.w3.org/2000/svg">
<g opacity="0.5">
<path d="M2.0498 14.6153L0 12.5655L8.58478 3.98068C11.1514 1.41336 14.5646 0 18.1945 0C21.8244 0 25.2376 1.41336 27.8042 3.98068C31.9726 8.14912 38.7555 8.14985 42.9239 3.98068C45.4912 1.41336 48.9037 0 52.5336 0C56.1635 0 59.5767 1.41336 62.1433 3.98068C66.311 8.14912 73.0939 8.15057 77.2623 3.98068C79.8297 1.41336 83.2421 0 86.872 0C90.5019 0 93.9151 1.41336 96.4817 3.98068C100.65 8.14912 107.433 8.14985 111.601 3.98068C114.168 1.41336 117.581 0 121.211 0C124.841 0 128.254 1.41336 130.821 3.98068C132.84 5.9993 135.525 7.11125 138.381 7.11125C141.237 7.11125 143.921 5.9993 145.941 3.98068C148.508 1.41336 151.92 0 155.55 0C159.18 0 162.593 1.41336 165.16 3.98068C169.328 8.14912 176.111 8.15057 180.279 3.98068C182.846 1.41336 186.259 0 189.889 0C193.519 0 196.932 1.41336 199.498 3.98068L208.083 12.5655L206.033 14.6153L197.449 6.03047C195.429 4.01112 192.744 2.89928 189.889 2.89928C187.033 2.89928 184.348 4.01112 182.329 6.03047C177.03 11.3296 168.407 11.3289 163.109 6.03047C161.09 4.01112 158.405 2.89928 155.55 2.89928C152.694 2.89928 150.009 4.01112 147.99 6.03047C145.423 8.59706 142.01 10.0105 138.38 10.0105C134.75 10.0105 131.337 8.59706 128.77 6.03047C126.751 4.01112 124.066 2.89928 121.21 2.89928C118.355 2.89928 115.67 4.01112 113.651 6.03047C108.351 11.3296 99.7289 11.3296 94.4312 6.03047C92.4118 4.01112 89.7271 2.89928 86.8713 2.89928C84.0155 2.89928 81.3307 4.01112 79.3114 6.03047C74.0129 11.3296 65.3905 11.3289 60.092 6.03047C58.0727 4.01112 55.3879 2.89928 52.5321 2.89928C49.6764 2.89928 46.9916 4.01112 44.9723 6.03047C39.6731 11.3296 31.0506 11.3296 25.7529 6.03047C23.7336 4.01112 21.0488 2.89928 18.193 2.89928C15.3372 2.89928 12.6525 4.01112 10.6332 6.03047L2.0498 14.6153Z" fill="white"/>
<path d="M2.0498 33.7571L0 31.7073L8.58478 23.1225C11.1514 20.5552 14.5646 19.1417 18.1945 19.1417C21.8244 19.1417 25.2376 20.5552 27.8042 23.1225C31.9726 27.2909 38.7555 27.2917 42.9239 23.1225C45.4912 20.5552 48.9037 19.1417 52.5336 19.1417C56.1635 19.1417 59.5767 20.5552 62.1433 23.1225C66.311 27.2909 73.0939 27.2917 77.2623 23.1225C79.8297 20.5552 83.2421 19.1417 86.872 19.1417C90.5019 19.1417 93.9151 20.5552 96.4817 23.1225C100.65 27.2909 107.433 27.2917 111.601 23.1225C114.168 20.5552 117.581 19.1417 121.211 19.1417C124.841 19.1417 128.254 20.5552 130.821 23.1225C132.84 25.1411 135.525 26.253 138.381 26.253C141.237 26.253 143.921 25.1411 145.941 23.1225C148.508 20.5552 151.92 19.1417 155.55 19.1417C159.18 19.1417 162.593 20.5552 165.16 23.1225C169.328 27.2909 176.111 27.2917 180.279 23.1225C182.846 20.5552 186.259 19.1417 189.889 19.1417C193.519 19.1417 196.932 20.5552 199.498 23.1225L208.083 31.7073L206.033 33.7571L197.449 25.1723C195.429 23.1529 192.744 22.041 189.889 22.041C187.033 22.041 184.348 23.1529 182.329 25.1723C177.03 30.4715 168.407 30.4707 163.109 25.1723C161.09 23.1529 158.405 22.041 155.55 22.041C152.694 22.041 150.009 23.1529 147.99 25.1723C145.423 27.7389 142.01 29.1523 138.38 29.1523C134.75 29.1523 131.337 27.7389 128.77 25.1723C126.751 23.1529 124.066 22.041 121.21 22.041C118.355 22.041 115.67 23.1529 113.651 25.1723C108.351 30.4715 99.7289 30.4715 94.4312 25.1723C92.4118 23.1529 89.7271 22.041 86.8713 22.041C84.0155 22.041 81.3307 23.1529 79.3114 25.1723C74.0129 30.4715 65.3905 30.4707 60.092 25.1723C58.0727 23.1529 55.3879 22.041 52.5321 22.041C49.6764 22.041 46.9916 23.1529 44.9723 25.1723C39.6731 30.4715 31.0506 30.4715 25.7529 25.1723C23.7336 23.1529 21.0488 22.041 18.193 22.041C15.3372 22.041 12.6525 23.1529 10.6332 25.1723L2.0498 33.7571Z" fill="white"/>
<path d="M2.0498 52.8982L0 50.8484L8.58478 42.2636C13.8832 36.9644 22.5057 36.9644 27.8042 42.2636C31.9726 46.4321 38.7555 46.4328 42.9239 42.2636C48.2231 36.9637 56.8456 36.9637 62.1433 42.2636C66.3125 46.4313 73.0946 46.4313 77.263 42.2636C82.5622 36.9644 91.184 36.9644 96.4831 42.2636C100.652 46.4321 107.434 46.4328 111.603 42.2636C116.902 36.9644 125.524 36.9644 130.822 42.2636C132.842 44.2822 135.526 45.3942 138.382 45.3942C141.238 45.3942 143.923 44.2822 145.942 42.2636C151.241 36.9644 159.864 36.9644 165.161 42.2636C169.331 46.4313 176.113 46.4313 180.281 42.2636C185.58 36.9644 194.202 36.9644 199.501 42.2636L208.086 50.8484L206.036 52.8982L197.451 44.3134C193.283 40.1457 186.5 40.145 182.332 44.3134C177.033 49.6126 168.411 49.6126 163.112 44.3134C158.945 40.1457 152.162 40.145 147.993 44.3134C145.426 46.88 142.013 48.2935 138.383 48.2935C134.753 48.2935 131.34 46.88 128.773 44.3134C124.605 40.1464 117.823 40.1457 113.653 44.3134C108.354 49.6133 99.7318 49.6119 94.4341 44.3134C90.2656 40.1457 83.4835 40.145 79.3143 44.3134C74.0151 49.6126 65.3934 49.6126 60.0949 44.3134C55.9272 40.1457 49.1444 40.145 44.9752 44.3134C39.6767 49.6133 31.0542 49.6119 25.7558 44.3134C21.5873 40.1464 14.8052 40.1457 10.636 44.3134L2.0498 52.8982Z" fill="white"/>
<path d="M2.0498 72.0393L0 69.9895L8.58478 61.4047C13.8832 56.1056 22.5057 56.1056 27.8042 61.4047C31.9726 65.5732 38.7555 65.5739 42.9239 61.4047C48.2231 56.1048 56.8456 56.1048 62.1433 61.4047C66.3125 65.5725 73.0946 65.5732 77.263 61.4047C82.5622 56.1048 91.184 56.1056 96.4831 61.4047C100.652 65.5732 107.434 65.5739 111.603 61.4047C116.902 56.1056 125.524 56.1056 130.822 61.4047C132.842 63.4234 135.526 64.5352 138.382 64.5352C141.238 64.5352 143.923 63.4234 145.942 61.4047C151.241 56.1056 159.864 56.1056 165.161 61.4047C169.331 65.5725 176.113 65.5732 180.281 61.4047C185.58 56.1048 194.202 56.1056 199.501 61.4047L208.086 69.9895L206.036 72.0393L197.451 63.4545C193.283 59.2868 186.5 59.2861 182.332 63.4545C177.033 68.7537 168.411 68.7537 163.112 63.4545C158.945 59.2868 152.162 59.2861 147.993 63.4545C145.426 66.0211 142.013 67.4345 138.383 67.4345C134.753 67.4345 131.34 66.0211 128.773 63.4545C124.605 59.2875 117.823 59.2875 113.653 63.4545C108.354 68.7544 99.7318 68.753 94.4341 63.4545C90.2656 59.2868 83.4835 59.2861 79.3143 63.4545C74.0151 68.7537 65.3934 68.7537 60.0949 63.4545C55.9272 59.2868 49.1444 59.2861 44.9752 63.4545C39.6767 68.7544 31.0542 68.753 25.7558 63.4545C21.5873 59.2875 14.8052 59.2875 10.636 63.4545L2.0498 72.0393Z" fill="white"/>
</g>
</svg>
