<svg width="159" height="39" viewBox="0 0 159 39" fill="none" xmlns="http://www.w3.org/2000/svg">
<path d="M89.6584 24.9118C85.7302 23.3272 83.9397 20.1358 82.7707 16.4929C81.9848 14.0423 81.948 11.5451 82.8441 9.08896C84.0251 5.85167 88.5844 4.71157 90.6479 7.57015C91.1051 8.20398 91.674 8.75859 92.0841 9.4146C94.9224 13.8974 95.0708 21.4297 89.6544 24.9118M52.2755 9.90582C52.6609 8.67064 52.7383 7.42119 53.371 6.59087C54.8576 4.63946 56.8293 3.12302 59.2294 2.44878C60.0202 2.22694 61.2107 2.48206 61.8929 2.96932C64.9985 5.1806 66.9199 8.20478 67.4273 12.0117C67.9348 15.8607 64.4231 20.2872 60.5715 20.8228C59.5981 20.9583 58.8712 20.7934 58.2719 20.0178C56.8955 18.2359 55.3411 16.565 54.1706 14.6603C53.2865 13.2208 52.8867 11.4912 52.2755 9.90661M119.764 24.8848C119.199 24.5101 118.555 24.2819 118.216 23.8279C115.882 20.7023 113.5 17.6013 111.393 14.3268C110.823 13.4386 110.772 11.8509 111.14 10.8146C111.917 8.63577 112.881 6.43401 114.222 4.56104C116.015 2.05503 120.402 1.20568 123.176 4.86923C125.525 7.96708 126.312 11.4278 126.134 15.1357C125.927 19.5385 123.845 22.8399 119.764 24.8809M152.218 37.8728C151.314 36.9221 150.591 35.9785 149.686 35.2543C147.567 33.5604 145.541 31.8063 144.054 29.3486C145.032 28.3812 145.852 28.6355 146.722 29.45C149.261 31.8269 151.829 34.1744 154.376 36.5426C154.822 36.9562 155.193 37.4561 155.661 37.8404C157.024 38.9622 157.295 38.9202 159 37.407C158.094 36.0822 157.26 34.6688 156.236 33.4083C153.762 30.3635 154.027 27.2831 155.677 23.9713C156.704 21.905 157.387 19.67 158.303 17.3082C156.005 16.6926 154.724 17.946 153.552 19.0766C151.369 21.1817 149.366 23.4714 147.21 25.6066C146.602 26.208 145.72 26.5391 144.827 26.795C146.721 23.7685 150.84 22.6783 151.907 18.2819C150.905 18.6139 150.17 18.6257 149.928 18.9744C147.938 21.8519 144.443 23.0982 142.358 25.6961C140.447 28.073 138.108 28.0635 135.655 28.1815C130.811 28.4145 127.136 28.1815 122.192 25.9386C123.05 25.0251 123.89 24.1781 124.68 23.2884C129.563 17.7899 129.707 8.76649 125.011 3.09925C122.204 -0.29175 117.804 -0.747316 114.319 2.1485C111.317 4.64738 109.737 8.03126 109.015 11.7851C108.659 13.6383 109.156 15.4526 110.243 16.9905C112.292 19.8934 114.445 22.7219 116.546 25.5884C116.687 25.7809 116.758 26.0241 116.985 26.5138C108.521 29.6592 100.334 28.3876 91.8081 25.9544C92.7001 24.7097 93.3911 23.7519 94.0758 22.7853C97.846 17.4841 96.278 10.584 93.2914 6.68436C91.733 4.645 89.767 3.31952 86.9606 3.96523C83.8926 4.67275 81.672 6.39835 80.9052 9.45184C79.2614 16.0064 80.7456 21.6483 86.284 25.937C86.4907 26.0954 86.7141 26.2357 86.9415 26.3933C79.0021 33.0335 65.7908 28.4446 61.7317 23.0428C64.8836 21.867 66.5624 19.2659 68.2867 16.6339C69.7453 14.4076 69.932 12.0688 69.3767 9.6396C68.5508 6.02993 66.481 3.1769 63.5239 0.945811C61.9448 -0.242623 60.1774 -0.277479 58.5911 0.652668C56.5747 1.83397 54.5392 3.11353 52.8715 4.72029C50.4642 7.04169 50.149 10.1158 51.0762 13.1978C51.5198 14.6627 52.4032 16.0159 53.2051 17.351C53.9152 18.5338 54.7882 19.6217 55.8175 21.0747C43.1735 22.8336 30.8423 23.2781 18.2311 20.7459C18.3548 18.8072 18.5263 16.8399 18.5941 14.8695C18.658 13.0338 19.5844 11.2678 19.3625 9.46847C18.8598 9.34725 18.658 9.22445 18.5327 9.27833C15.6721 10.5404 12.7573 11.7019 9.98369 13.1328C7.04732 14.6485 4.23064 16.3954 1.40596 18.1139C0.87854 18.4348 0.564148 19.1003 0 19.7952C6.77283 23.015 10.7768 29.1981 16.7948 33.1128C17.6909 32.6184 18.1018 32.1501 17.9717 30.9142C17.7324 28.6268 17.9015 26.2959 17.9015 23.7043C18.9716 23.7511 19.8964 23.7431 20.8172 23.8398C27.9522 24.5845 35.0825 25.3301 42.2766 24.7177C46.8919 24.3215 51.5175 24.0466 56.1303 23.6306C57.557 23.5023 58.611 23.8485 59.6284 24.8833C63.3523 28.6664 67.9269 30.8119 73.1661 31.7286C78.2816 32.6223 82.9008 31.1938 87.2638 28.8431C88.8876 27.9716 90.2082 27.8559 91.9253 28.3764C98.4388 30.35 105.091 31.1748 111.867 29.9991C113.739 29.6758 115.672 29.2147 117.339 28.359C118.781 27.6182 119.893 27.7252 121.268 28.2687C125.427 29.9213 129.903 30.6433 134.375 30.3833C135.768 30.3041 137.154 30.0712 138.544 29.9079C140.165 29.7186 141.229 30.3493 142.249 31.6938C143.539 33.3901 145.238 34.7837 146.785 36.2819C147.532 37.0053 148.38 37.6288 149.11 38.3688C150.067 39.3449 150.903 39.1975 152.222 37.8665" fill="#EB0029"/>
</svg>
