<svg width="139" height="140" viewBox="0 0 139 140" fill="none" xmlns="http://www.w3.org/2000/svg">
<path d="M4.95673 9.91353C7.69429 9.91353 9.9136 7.69429 9.9136 4.95673C9.9136 2.21917 7.69429 0 4.95673 0C2.21917 0 0 2.21917 0 4.95673C0 7.69429 2.21917 9.91353 4.95673 9.91353Z" fill="white" fill-opacity="0.5"/>
<path d="M37.2233 9.91353C39.9609 9.91353 42.1802 7.69429 42.1802 4.95673C42.1802 2.21917 39.9609 0 37.2233 0C34.4858 0 32.2666 2.21917 32.2666 4.95673C32.2666 7.69429 34.4858 9.91353 37.2233 9.91353Z" fill="white" fill-opacity="0.5"/>
<path d="M69.4899 9.91353C72.2275 9.91353 74.4467 7.69429 74.4467 4.95673C74.4467 2.21917 72.2275 0 69.4899 0C66.7524 0 64.5332 2.21917 64.5332 4.95673C64.5332 7.69429 66.7524 9.91353 69.4899 9.91353Z" fill="white" fill-opacity="0.5"/>
<path d="M101.757 9.91353C104.494 9.91353 106.713 7.69429 106.713 4.95673C106.713 2.21917 104.494 0 101.757 0C99.019 0 96.7997 2.21917 96.7997 4.95673C96.7997 7.69429 99.019 9.91353 101.757 9.91353Z" fill="white" fill-opacity="0.5"/>
<path d="M134.023 9.91353C136.761 9.91353 138.98 7.69429 138.98 4.95673C138.98 2.21917 136.761 0 134.023 0C131.286 0 129.066 2.21917 129.066 4.95673C129.066 7.69429 131.286 9.91353 134.023 9.91353Z" fill="white" fill-opacity="0.5"/>
<path d="M4.95673 35.867C7.69429 35.867 9.9136 33.6477 9.9136 30.9102C9.9136 28.1726 7.69429 25.9534 4.95673 25.9534C2.21917 25.9534 0 28.1726 0 30.9102C0 33.6477 2.21917 35.867 4.95673 35.867Z" fill="white" fill-opacity="0.5"/>
<path d="M37.2233 35.867C39.9609 35.867 42.1802 33.6477 42.1802 30.9102C42.1802 28.1726 39.9609 25.9534 37.2233 25.9534C34.4858 25.9534 32.2666 28.1726 32.2666 30.9102C32.2666 33.6477 34.4858 35.867 37.2233 35.867Z" fill="white" fill-opacity="0.5"/>
<path d="M69.4899 35.867C72.2275 35.867 74.4467 33.6477 74.4467 30.9102C74.4467 28.1726 72.2275 25.9534 69.4899 25.9534C66.7524 25.9534 64.5332 28.1726 64.5332 30.9102C64.5332 33.6477 66.7524 35.867 69.4899 35.867Z" fill="white" fill-opacity="0.5"/>
<path d="M101.757 35.867C104.494 35.867 106.713 33.6477 106.713 30.9102C106.713 28.1726 104.494 25.9534 101.757 25.9534C99.019 25.9534 96.7997 28.1726 96.7997 30.9102C96.7997 33.6477 99.019 35.867 101.757 35.867Z" fill="white" fill-opacity="0.5"/>
<path d="M134.023 35.867C136.761 35.867 138.98 33.6477 138.98 30.9102C138.98 28.1726 136.761 25.9534 134.023 25.9534C131.286 25.9534 129.066 28.1726 129.066 30.9102C129.066 33.6477 131.286 35.867 134.023 35.867Z" fill="white" fill-opacity="0.5"/>
<path d="M4.95673 61.8196C7.69429 61.8196 9.9136 59.6004 9.9136 56.8628C9.9136 54.1252 7.69429 51.906 4.95673 51.906C2.21917 51.906 0 54.1252 0 56.8628C0 59.6004 2.21917 61.8196 4.95673 61.8196Z" fill="white" fill-opacity="0.5"/>
<path d="M37.2233 61.8196C39.9609 61.8196 42.1802 59.6004 42.1802 56.8628C42.1802 54.1252 39.9609 51.906 37.2233 51.906C34.4858 51.906 32.2666 54.1252 32.2666 56.8628C32.2666 59.6004 34.4858 61.8196 37.2233 61.8196Z" fill="white" fill-opacity="0.5"/>
<path d="M69.4899 61.8196C72.2275 61.8196 74.4467 59.6004 74.4467 56.8628C74.4467 54.1252 72.2275 51.906 69.4899 51.906C66.7524 51.906 64.5332 54.1252 64.5332 56.8628C64.5332 59.6004 66.7524 61.8196 69.4899 61.8196Z" fill="white" fill-opacity="0.5"/>
<path d="M101.757 61.8196C104.494 61.8196 106.713 59.6004 106.713 56.8628C106.713 54.1252 104.494 51.906 101.757 51.906C99.019 51.906 96.7997 54.1252 96.7997 56.8628C96.7997 59.6004 99.019 61.8196 101.757 61.8196Z" fill="white" fill-opacity="0.5"/>
<path d="M134.023 61.8196C136.761 61.8196 138.98 59.6004 138.98 56.8628C138.98 54.1252 136.761 51.906 134.023 51.906C131.286 51.906 129.066 54.1252 129.066 56.8628C129.066 59.6004 131.286 61.8196 134.023 61.8196Z" fill="white" fill-opacity="0.5"/>
<path d="M4.95673 87.7729C7.69429 87.7729 9.9136 85.5537 9.9136 82.8162C9.9136 80.0786 7.69429 77.8594 4.95673 77.8594C2.21917 77.8594 0 80.0786 0 82.8162C0 85.5537 2.21917 87.7729 4.95673 87.7729Z" fill="white" fill-opacity="0.5"/>
<path d="M37.2233 87.7729C39.9609 87.7729 42.1802 85.5537 42.1802 82.8162C42.1802 80.0786 39.9609 77.8594 37.2233 77.8594C34.4858 77.8594 32.2666 80.0786 32.2666 82.8162C32.2666 85.5537 34.4858 87.7729 37.2233 87.7729Z" fill="white" fill-opacity="0.5"/>
<path d="M69.4899 87.7729C72.2275 87.7729 74.4467 85.5537 74.4467 82.8162C74.4467 80.0786 72.2275 77.8594 69.4899 77.8594C66.7524 77.8594 64.5332 80.0786 64.5332 82.8162C64.5332 85.5537 66.7524 87.7729 69.4899 87.7729Z" fill="white" fill-opacity="0.5"/>
<path d="M101.757 87.7729C104.494 87.7729 106.713 85.5537 106.713 82.8162C106.713 80.0786 104.494 77.8594 101.757 77.8594C99.019 77.8594 96.7997 80.0786 96.7997 82.8162C96.7997 85.5537 99.019 87.7729 101.757 87.7729Z" fill="white" fill-opacity="0.5"/>
<path d="M134.023 87.7729C136.761 87.7729 138.98 85.5537 138.98 82.8162C138.98 80.0786 136.761 77.8594 134.023 77.8594C131.286 77.8594 129.066 80.0786 129.066 82.8162C129.066 85.5537 131.286 87.7729 134.023 87.7729Z" fill="white" fill-opacity="0.5"/>
<path d="M4.95673 113.726C7.69429 113.726 9.9136 111.506 9.9136 108.769C9.9136 106.031 7.69429 103.812 4.95673 103.812C2.21917 103.812 0 106.031 0 108.769C0 111.506 2.21917 113.726 4.95673 113.726Z" fill="white" fill-opacity="0.5"/>
<path d="M37.2233 113.726C39.9609 113.726 42.1802 111.506 42.1802 108.769C42.1802 106.031 39.9609 103.812 37.2233 103.812C34.4858 103.812 32.2666 106.031 32.2666 108.769C32.2666 111.506 34.4858 113.726 37.2233 113.726Z" fill="white" fill-opacity="0.5"/>
<path d="M69.4899 113.726C72.2275 113.726 74.4467 111.506 74.4467 108.769C74.4467 106.031 72.2275 103.812 69.4899 103.812C66.7524 103.812 64.5332 106.031 64.5332 108.769C64.5332 111.506 66.7524 113.726 69.4899 113.726Z" fill="white" fill-opacity="0.5"/>
<path d="M101.757 113.726C104.494 113.726 106.713 111.506 106.713 108.769C106.713 106.031 104.494 103.812 101.757 103.812C99.019 103.812 96.7997 106.031 96.7997 108.769C96.7997 111.506 99.019 113.726 101.757 113.726Z" fill="white" fill-opacity="0.5"/>
<path d="M134.023 113.726C136.761 113.726 138.98 111.506 138.98 108.769C138.98 106.031 136.761 103.812 134.023 103.812C131.286 103.812 129.066 106.031 129.066 108.769C129.066 111.506 131.286 113.726 134.023 113.726Z" fill="white" fill-opacity="0.5"/>
<path d="M4.95673 139.678C7.69429 139.678 9.9136 137.459 9.9136 134.722C9.9136 131.984 7.69429 129.765 4.95673 129.765C2.21917 129.765 0 131.984 0 134.722C0 137.459 2.21917 139.678 4.95673 139.678Z" fill="white" fill-opacity="0.5"/>
<path d="M37.2233 139.678C39.9609 139.678 42.1802 137.459 42.1802 134.722C42.1802 131.984 39.9609 129.765 37.2233 129.765C34.4858 129.765 32.2666 131.984 32.2666 134.722C32.2666 137.459 34.4858 139.678 37.2233 139.678Z" fill="white" fill-opacity="0.5"/>
<path d="M69.4899 139.678C72.2275 139.678 74.4467 137.459 74.4467 134.722C74.4467 131.984 72.2275 129.765 69.4899 129.765C66.7524 129.765 64.5332 131.984 64.5332 134.722C64.5332 137.459 66.7524 139.678 69.4899 139.678Z" fill="white" fill-opacity="0.5"/>
<path d="M101.757 139.678C104.494 139.678 106.713 137.459 106.713 134.722C106.713 131.984 104.494 129.765 101.757 129.765C99.019 129.765 96.7997 131.984 96.7997 134.722C96.7997 137.459 99.019 139.678 101.757 139.678Z" fill="white" fill-opacity="0.5"/>
<path d="M134.023 139.678C136.761 139.678 138.98 137.459 138.98 134.722C138.98 131.984 136.761 129.765 134.023 129.765C131.286 129.765 129.066 131.984 129.066 134.722C129.066 137.459 131.286 139.678 134.023 139.678Z" fill="white" fill-opacity="0.5"/>
</svg>
