<svg width="45" height="61" viewBox="0 0 45 61" fill="none" xmlns="http://www.w3.org/2000/svg">
<path d="M0.000671387 9L44.8442 34.8906L0.000669123 60.7812L0.000671387 9Z" fill="#6B2AE6"/>
<path d="M42.8773 28.3912C42.8697 28.3462 42.8648 28.3016 42.8648 28.2542C42.8648 27.8008 43.231 27.4346 43.6844 27.4346C43.8837 27.4346 44.0656 27.5044 44.2076 27.624L42.8773 28.3912Z" fill="white"/>
<path d="M39.7505 24.2678C39.7505 24.7209 40.1178 25.0883 40.571 25.0883C41.0241 25.0883 41.3915 24.7209 41.3915 24.2678C41.3915 23.8146 41.0241 23.4473 40.571 23.4473C40.1178 23.4473 39.7505 23.8146 39.7505 24.2678Z" fill="white"/>
<path d="M39.7505 28.2543C39.7505 28.7075 40.1178 29.0748 40.571 29.0748C41.0241 29.0748 41.3915 28.7075 41.3915 28.2543C41.3915 27.8012 41.0241 27.4338 40.571 27.4338C40.1178 27.4338 39.7505 27.8012 39.7505 28.2543Z" fill="white"/>
<path d="M37.4559 21.1013C37.0797 21.1013 36.7657 20.8496 36.6686 20.5059L37.6527 21.0764C37.5904 21.0938 37.5231 21.1013 37.4559 21.1013Z" fill="white"/>
<path d="M36.6363 24.2678C36.6363 24.7209 37.0037 25.0883 37.4568 25.0883C37.91 25.0883 38.2773 24.7209 38.2773 24.2678C38.2773 23.8146 37.91 23.4473 37.4568 23.4473C37.0037 23.4473 36.6363 23.8146 36.6363 24.2678Z" fill="white"/>
<path d="M36.6363 28.2543C36.6363 28.7075 37.0037 29.0748 37.4568 29.0748C37.91 29.0748 38.2773 28.7075 38.2773 28.2543C38.2773 27.8012 37.91 27.4338 37.4568 27.4338C37.0037 27.4338 36.6363 27.8012 36.6363 28.2543Z" fill="white"/>
<path d="M36.6861 31.9663C36.7957 31.6475 37.0997 31.4207 37.4559 31.4207C37.5082 31.4207 37.558 31.4255 37.6053 31.4356L36.6861 31.9663Z" fill="white"/>
<path d="M33.522 20.2817C33.522 20.7348 33.8893 21.1022 34.3425 21.1022C34.7956 21.1022 35.163 20.7348 35.163 20.2817C35.163 19.8285 34.7956 19.4612 34.3425 19.4612C33.8893 19.4612 33.522 19.8285 33.522 20.2817Z" fill="white"/>
<path d="M33.522 24.2678C33.522 24.7209 33.8893 25.0883 34.3425 25.0883C34.7956 25.0883 35.163 24.7209 35.163 24.2678C35.163 23.8146 34.7956 23.4473 34.3425 23.4473C33.8893 23.4473 33.522 23.8146 33.522 24.2678Z" fill="white"/>
<path d="M33.522 28.2543C33.522 28.7075 33.8893 29.0748 34.3425 29.0748C34.7956 29.0748 35.163 28.7075 35.163 28.2543C35.163 27.8012 34.7956 27.4338 34.3425 27.4338C33.8893 27.4338 33.522 27.8012 33.522 28.2543Z" fill="white"/>
<path d="M33.522 32.2402C33.522 32.6933 33.8893 33.0607 34.3425 33.0607C34.7956 33.0607 35.163 32.6933 35.163 32.2402C35.163 31.787 34.7956 31.4197 34.3425 31.4197C33.8893 31.4197 33.522 31.787 33.522 32.2402Z" fill="white"/>
<path d="M30.4076 20.2817C30.4076 20.7348 30.775 21.1022 31.2281 21.1022C31.6813 21.1022 32.0486 20.7348 32.0486 20.2817C32.0486 19.8285 31.6813 19.4612 31.2281 19.4612C30.775 19.4612 30.4076 19.8285 30.4076 20.2817Z" fill="white"/>
<path d="M30.4076 24.2678C30.4076 24.7209 30.775 25.0883 31.2281 25.0883C31.6813 25.0883 32.0486 24.7209 32.0486 24.2678C32.0486 23.8146 31.6813 23.4473 31.2281 23.4473C30.775 23.4473 30.4076 23.8146 30.4076 24.2678Z" fill="white"/>
<path d="M30.4076 28.2543C30.4076 28.7075 30.775 29.0748 31.2281 29.0748C31.6813 29.0748 32.0486 28.7075 32.0486 28.2543C32.0486 27.8012 31.6813 27.4338 31.2281 27.4338C30.775 27.4338 30.4076 27.8012 30.4076 28.2543Z" fill="white"/>
<path d="M30.4076 32.2402C30.4076 32.6933 30.775 33.0607 31.2281 33.0607C31.6813 33.0607 32.0486 32.6933 32.0486 32.2402C32.0486 31.787 31.6813 31.4197 31.2281 31.4197C30.775 31.4197 30.4076 31.787 30.4076 32.2402Z" fill="white"/>
<path d="M27.2933 16.2954C27.2933 16.7485 27.6606 17.1159 28.1138 17.1159C28.5669 17.1159 28.9343 16.7485 28.9343 16.2954C28.9343 15.8422 28.5669 15.4749 28.1138 15.4749C27.6606 15.4749 27.2933 15.8422 27.2933 16.2954Z" fill="white"/>
<path d="M27.2933 20.2817C27.2933 20.7348 27.6606 21.1022 28.1138 21.1022C28.5669 21.1022 28.9343 20.7348 28.9343 20.2817C28.9343 19.8285 28.5669 19.4612 28.1138 19.4612C27.6606 19.4612 27.2933 19.8285 27.2933 20.2817Z" fill="white"/>
<path d="M27.2933 24.2678C27.2933 24.7209 27.6606 25.0883 28.1138 25.0883C28.5669 25.0883 28.9343 24.7209 28.9343 24.2678C28.9343 23.8146 28.5669 23.4473 28.1138 23.4473C27.6606 23.4473 27.2933 23.8146 27.2933 24.2678Z" fill="white"/>
<path d="M27.2933 28.2543C27.2933 28.7075 27.6606 29.0748 28.1138 29.0748C28.5669 29.0748 28.9343 28.7075 28.9343 28.2543C28.9343 27.8012 28.5669 27.4338 28.1138 27.4338C27.6606 27.4338 27.2933 27.8012 27.2933 28.2543Z" fill="white"/>
<path d="M27.2933 32.2402C27.2933 32.6933 27.6606 33.0607 28.1138 33.0607C28.5669 33.0607 28.9343 32.6933 28.9343 32.2402C28.9343 31.787 28.5669 31.4197 28.1138 31.4197C27.6606 31.4197 27.2933 31.787 27.2933 32.2402Z" fill="white"/>
<path d="M27.2933 36.2268C27.2933 36.6799 27.6606 37.0473 28.1138 37.0473C28.5669 37.0473 28.9343 36.6799 28.9343 36.2268C28.9343 35.7736 28.5669 35.4062 28.1138 35.4062C27.6606 35.4062 27.2933 35.7736 27.2933 36.2268Z" fill="white"/>
<path d="M24.1791 16.2954C24.1791 16.7485 24.5465 17.1159 24.9996 17.1159C25.4528 17.1159 25.8201 16.7485 25.8201 16.2954C25.8201 15.8422 25.4528 15.4749 24.9996 15.4749C24.5465 15.4749 24.1791 15.8422 24.1791 16.2954Z" fill="white"/>
<path d="M24.1791 20.2817C24.1791 20.7348 24.5465 21.1022 24.9996 21.1022C25.4528 21.1022 25.8201 20.7348 25.8201 20.2817C25.8201 19.8285 25.4528 19.4612 24.9996 19.4612C24.5465 19.4612 24.1791 19.8285 24.1791 20.2817Z" fill="white"/>
<path d="M24.1791 24.2678C24.1791 24.7209 24.5465 25.0883 24.9996 25.0883C25.4528 25.0883 25.8201 24.7209 25.8201 24.2678C25.8201 23.8146 25.4528 23.4473 24.9996 23.4473C24.5465 23.4473 24.1791 23.8146 24.1791 24.2678Z" fill="white"/>
<path d="M24.1791 28.2543C24.1791 28.7075 24.5465 29.0748 24.9996 29.0748C25.4528 29.0748 25.8201 28.7075 25.8201 28.2543C25.8201 27.8012 25.4528 27.4338 24.9996 27.4338C24.5465 27.4338 24.1791 27.8012 24.1791 28.2543Z" fill="white"/>
<path d="M24.1791 32.2402C24.1791 32.6933 24.5465 33.0607 24.9996 33.0607C25.4528 33.0607 25.8201 32.6933 25.8201 32.2402C25.8201 31.787 25.4528 31.4197 24.9996 31.4197C24.5465 31.4197 24.1791 31.787 24.1791 32.2402Z" fill="white"/>
<path d="M24.1791 36.2268C24.1791 36.6799 24.5465 37.0473 24.9996 37.0473C25.4528 37.0473 25.8201 36.6799 25.8201 36.2268C25.8201 35.7736 25.4528 35.4062 24.9996 35.4062C24.5465 35.4062 24.1791 35.7736 24.1791 36.2268Z" fill="white"/>
<path d="M21.8844 13.1285C21.431 13.1285 21.0648 12.7623 21.0648 12.3089C21.0648 12.0498 21.1844 11.8206 21.3687 11.6736L22.6942 12.4385C22.6344 12.8296 22.2931 13.1285 21.8844 13.1285Z" fill="white"/>
<path d="M21.0647 16.2954C21.0647 16.7485 21.4321 17.1159 21.8852 17.1159C22.3384 17.1159 22.7057 16.7485 22.7057 16.2954C22.7057 15.8422 22.3384 15.4749 21.8852 15.4749C21.4321 15.4749 21.0647 15.8422 21.0647 16.2954Z" fill="white"/>
<path d="M21.0647 20.2817C21.0647 20.7348 21.4321 21.1022 21.8852 21.1022C22.3384 21.1022 22.7057 20.7348 22.7057 20.2817C22.7057 19.8285 22.3384 19.4612 21.8852 19.4612C21.4321 19.4612 21.0647 19.8285 21.0647 20.2817Z" fill="white"/>
<path d="M21.0647 24.2678C21.0647 24.7209 21.4321 25.0883 21.8852 25.0883C22.3384 25.0883 22.7057 24.7209 22.7057 24.2678C22.7057 23.8146 22.3384 23.4473 21.8852 23.4473C21.4321 23.4473 21.0647 23.8146 21.0647 24.2678Z" fill="white"/>
<path d="M21.0647 28.2543C21.0647 28.7075 21.4321 29.0748 21.8852 29.0748C22.3384 29.0748 22.7057 28.7075 22.7057 28.2543C22.7057 27.8012 22.3384 27.4338 21.8852 27.4338C21.4321 27.4338 21.0647 27.8012 21.0647 28.2543Z" fill="white"/>
<path d="M21.0647 32.2402C21.0647 32.6933 21.4321 33.0607 21.8852 33.0607C22.3384 33.0607 22.7057 32.6933 22.7057 32.2402C22.7057 31.787 22.3384 31.4197 21.8852 31.4197C21.4321 31.4197 21.0647 31.787 21.0647 32.2402Z" fill="white"/>
<path d="M21.0647 36.2268C21.0647 36.6799 21.4321 37.0473 21.8852 37.0473C22.3384 37.0473 22.7057 36.6799 22.7057 36.2268C22.7057 35.7736 22.3384 35.4062 21.8852 35.4062C21.4321 35.4062 21.0647 35.7736 21.0647 36.2268Z" fill="white"/>
<path d="M22.6891 40.0486C22.6891 40.0461 22.6891 40.0462 22.6891 40.0462C22.6119 39.6724 22.2804 39.3933 21.8844 39.3933C21.431 39.3933 21.0648 39.7595 21.0648 40.2129C21.0648 40.4571 21.1719 40.6788 21.3414 40.8257L22.6891 40.0486Z" fill="white"/>
<path d="M17.9504 12.3088C17.9504 12.7619 18.3177 13.1293 18.7709 13.1293C19.224 13.1293 19.5914 12.7619 19.5914 12.3088C19.5914 11.8556 19.224 11.4883 18.7709 11.4883C18.3177 11.4883 17.9504 11.8556 17.9504 12.3088Z" fill="white"/>
<path d="M17.9504 16.2954C17.9504 16.7485 18.3177 17.1159 18.7709 17.1159C19.224 17.1159 19.5914 16.7485 19.5914 16.2954C19.5914 15.8422 19.224 15.4749 18.7709 15.4749C18.3177 15.4749 17.9504 15.8422 17.9504 16.2954Z" fill="white"/>
<path d="M17.9504 20.2817C17.9504 20.7348 18.3177 21.1022 18.7709 21.1022C19.224 21.1022 19.5914 20.7348 19.5914 20.2817C19.5914 19.8285 19.224 19.4612 18.7709 19.4612C18.3177 19.4612 17.9504 19.8285 17.9504 20.2817Z" fill="white"/>
<path d="M17.9504 24.2678C17.9504 24.7209 18.3177 25.0883 18.7709 25.0883C19.224 25.0883 19.5914 24.7209 19.5914 24.2678C19.5914 23.8146 19.224 23.4473 18.7709 23.4473C18.3177 23.4473 17.9504 23.8146 17.9504 24.2678Z" fill="white"/>
<path d="M17.9504 28.2543C17.9504 28.7075 18.3177 29.0748 18.7709 29.0748C19.224 29.0748 19.5914 28.7075 19.5914 28.2543C19.5914 27.8012 19.224 27.4338 18.7709 27.4338C18.3177 27.4338 17.9504 27.8012 17.9504 28.2543Z" fill="white"/>
<path d="M17.9504 32.2402C17.9504 32.6933 18.3177 33.0607 18.7709 33.0607C19.224 33.0607 19.5914 32.6933 19.5914 32.2402C19.5914 31.787 19.224 31.4197 18.7709 31.4197C18.3177 31.4197 17.9504 31.787 17.9504 32.2402Z" fill="white"/>
<path d="M17.9504 36.2268C17.9504 36.6799 18.3177 37.0473 18.7709 37.0473C19.224 37.0473 19.5914 36.6799 19.5914 36.2268C19.5914 35.7736 19.224 35.4062 18.7709 35.4062C18.3177 35.4062 17.9504 35.7736 17.9504 36.2268Z" fill="white"/>
<path d="M17.9504 40.2131C17.9504 40.6662 18.3177 41.0336 18.7709 41.0336C19.224 41.0336 19.5914 40.6662 19.5914 40.2131C19.5914 39.7599 19.224 39.3926 18.7709 39.3926C18.3177 39.3926 17.9504 39.7599 17.9504 40.2131Z" fill="white"/>
<path d="M15.6559 9.14239C15.2025 9.14239 14.8362 8.77615 14.8362 8.32276C14.8362 8.19068 14.8687 8.06372 14.9259 7.9541L16.3434 8.77127C16.1964 8.99541 15.9425 9.14239 15.6559 9.14239Z" fill="white"/>
<path d="M14.8363 12.3088C14.8363 12.7619 15.2036 13.1293 15.6568 13.1293C16.1099 13.1293 16.4773 12.7619 16.4773 12.3088C16.4773 11.8556 16.1099 11.4883 15.6568 11.4883C15.2036 11.4883 14.8363 11.8556 14.8363 12.3088Z" fill="white"/>
<path d="M14.8363 16.2954C14.8363 16.7485 15.2036 17.1159 15.6568 17.1159C16.1099 17.1159 16.4773 16.7485 16.4773 16.2954C16.4773 15.8422 16.1099 15.4749 15.6568 15.4749C15.2036 15.4749 14.8363 15.8422 14.8363 16.2954Z" fill="white"/>
<path d="M14.8363 20.2817C14.8363 20.7348 15.2036 21.1022 15.6568 21.1022C16.1099 21.1022 16.4773 20.7348 16.4773 20.2817C16.4773 19.8285 16.1099 19.4612 15.6568 19.4612C15.2036 19.4612 14.8363 19.8285 14.8363 20.2817Z" fill="white"/>
<path d="M14.8363 24.2678C14.8363 24.7209 15.2036 25.0883 15.6568 25.0883C16.1099 25.0883 16.4773 24.7209 16.4773 24.2678C16.4773 23.8146 16.1099 23.4473 15.6568 23.4473C15.2036 23.4473 14.8363 23.8146 14.8363 24.2678Z" fill="white"/>
<path d="M14.8363 28.2543C14.8363 28.7075 15.2036 29.0748 15.6568 29.0748C16.1099 29.0748 16.4773 28.7075 16.4773 28.2543C16.4773 27.8012 16.1099 27.4338 15.6568 27.4338C15.2036 27.4338 14.8363 27.8012 14.8363 28.2543Z" fill="white"/>
<path d="M14.8363 32.2402C14.8363 32.6933 15.2036 33.0607 15.6568 33.0607C16.1099 33.0607 16.4773 32.6933 16.4773 32.2402C16.4773 31.787 16.1099 31.4197 15.6568 31.4197C15.2036 31.4197 14.8363 31.787 14.8363 32.2402Z" fill="white"/>
<path d="M14.8363 36.2268C14.8363 36.6799 15.2036 37.0473 15.6568 37.0473C16.1099 37.0473 16.4773 36.6799 16.4773 36.2268C16.4773 35.7736 16.1099 35.4062 15.6568 35.4062C15.2036 35.4062 14.8363 35.7736 14.8363 36.2268Z" fill="white"/>
<path d="M14.8363 40.2131C14.8363 40.6662 15.2036 41.0336 15.6568 41.0336C16.1099 41.0336 16.4773 40.6662 16.4773 40.2131C16.4773 39.7599 16.1099 39.3926 15.6568 39.3926C15.2036 39.3926 14.8363 39.7599 14.8363 40.2131Z" fill="white"/>
<path d="M14.911 44.5381C14.8636 44.4361 14.8363 44.3213 14.8363 44.1993C14.8363 43.7459 15.2025 43.3796 15.6559 43.3796C15.9325 43.3796 16.1766 43.5142 16.3212 43.7234L14.911 44.5381Z" fill="white"/>
<path d="M11.7219 8.3227C11.7219 8.77585 12.0893 9.14321 12.5424 9.14321C12.9956 9.14321 13.3629 8.77585 13.3629 8.3227C13.3629 7.86955 12.9956 7.5022 12.5424 7.5022C12.0893 7.5022 11.7219 7.86955 11.7219 8.3227Z" fill="white"/>
<path d="M11.7219 12.3088C11.7219 12.7619 12.0893 13.1293 12.5424 13.1293C12.9956 13.1293 13.3629 12.7619 13.3629 12.3088C13.3629 11.8556 12.9956 11.4883 12.5424 11.4883C12.0893 11.4883 11.7219 11.8556 11.7219 12.3088Z" fill="white"/>
<path d="M11.7219 16.2954C11.7219 16.7485 12.0893 17.1159 12.5424 17.1159C12.9956 17.1159 13.3629 16.7485 13.3629 16.2954C13.3629 15.8422 12.9956 15.4749 12.5424 15.4749C12.0893 15.4749 11.7219 15.8422 11.7219 16.2954Z" fill="white"/>
<path d="M11.7219 20.2817C11.7219 20.7348 12.0893 21.1022 12.5424 21.1022C12.9956 21.1022 13.3629 20.7348 13.3629 20.2817C13.3629 19.8285 12.9956 19.4612 12.5424 19.4612C12.0893 19.4612 11.7219 19.8285 11.7219 20.2817Z" fill="white"/>
<path d="M11.7219 24.2678C11.7219 24.7209 12.0893 25.0883 12.5424 25.0883C12.9956 25.0883 13.3629 24.7209 13.3629 24.2678C13.3629 23.8146 12.9956 23.4473 12.5424 23.4473C12.0893 23.4473 11.7219 23.8146 11.7219 24.2678Z" fill="white"/>
<path d="M11.7219 28.2543C11.7219 28.7075 12.0893 29.0748 12.5424 29.0748C12.9956 29.0748 13.3629 28.7075 13.3629 28.2543C13.3629 27.8012 12.9956 27.4338 12.5424 27.4338C12.0893 27.4338 11.7219 27.8012 11.7219 28.2543Z" fill="white"/>
<path d="M11.7219 32.2402C11.7219 32.6933 12.0893 33.0607 12.5424 33.0607C12.9956 33.0607 13.3629 32.6933 13.3629 32.2402C13.3629 31.787 12.9956 31.4197 12.5424 31.4197C12.0893 31.4197 11.7219 31.787 11.7219 32.2402Z" fill="white"/>
<path d="M11.7219 36.2268C11.7219 36.6799 12.0893 37.0473 12.5424 37.0473C12.9956 37.0473 13.3629 36.6799 13.3629 36.2268C13.3629 35.7736 12.9956 35.4062 12.5424 35.4062C12.0893 35.4062 11.7219 35.7736 11.7219 36.2268Z" fill="white"/>
<path d="M11.7219 40.2131C11.7219 40.6662 12.0893 41.0336 12.5424 41.0336C12.9956 41.0336 13.3629 40.6662 13.3629 40.2131C13.3629 39.7599 12.9956 39.3926 12.5424 39.3926C12.0893 39.3926 11.7219 39.7599 11.7219 40.2131Z" fill="white"/>
<path d="M11.7219 44.1992C11.7219 44.6523 12.0893 45.0197 12.5424 45.0197C12.9956 45.0197 13.3629 44.6523 13.3629 44.1992C13.3629 43.746 12.9956 43.3787 12.5424 43.3787C12.0893 43.3787 11.7219 43.746 11.7219 44.1992Z" fill="white"/>
<path d="M9.42737 5.15605C8.97398 5.15605 8.60775 4.78982 8.60775 4.33643C8.60775 4.32642 8.60775 4.31642 8.61019 4.30664L9.8634 5.02909C9.73621 5.10869 9.5868 5.15605 9.42737 5.15605Z" fill="white"/>
<path d="M8.60753 8.3227C8.60753 8.77585 8.97486 9.14321 9.42802 9.14321C9.88117 9.14321 10.2485 8.77585 10.2485 8.3227C10.2485 7.86955 9.88117 7.5022 9.42802 7.5022C8.97486 7.5022 8.60753 7.86955 8.60753 8.3227Z" fill="white"/>
<path d="M8.60753 12.3088C8.60753 12.7619 8.97486 13.1293 9.42802 13.1293C9.88117 13.1293 10.2485 12.7619 10.2485 12.3088C10.2485 11.8556 9.88117 11.4883 9.42802 11.4883C8.97486 11.4883 8.60753 11.8556 8.60753 12.3088Z" fill="white"/>
<path d="M8.60753 16.2954C8.60753 16.7485 8.97486 17.1159 9.42802 17.1159C9.88117 17.1159 10.2485 16.7485 10.2485 16.2954C10.2485 15.8422 9.88117 15.4749 9.42802 15.4749C8.97486 15.4749 8.60753 15.8422 8.60753 16.2954Z" fill="white"/>
<path d="M8.60753 20.2817C8.60753 20.7348 8.97486 21.1022 9.42802 21.1022C9.88117 21.1022 10.2485 20.7348 10.2485 20.2817C10.2485 19.8285 9.88117 19.4612 9.42802 19.4612C8.97486 19.4612 8.60753 19.8285 8.60753 20.2817Z" fill="white"/>
<path d="M8.60753 24.2678C8.60753 24.7209 8.97486 25.0883 9.42802 25.0883C9.88117 25.0883 10.2485 24.7209 10.2485 24.2678C10.2485 23.8146 9.88117 23.4473 9.42802 23.4473C8.97486 23.4473 8.60753 23.8146 8.60753 24.2678Z" fill="white"/>
<path d="M8.60753 28.2543C8.60753 28.7075 8.97486 29.0748 9.42802 29.0748C9.88117 29.0748 10.2485 28.7075 10.2485 28.2543C10.2485 27.8012 9.88117 27.4338 9.42802 27.4338C8.97486 27.4338 8.60753 27.8012 8.60753 28.2543Z" fill="white"/>
<path d="M8.60753 32.2402C8.60753 32.6933 8.97486 33.0607 9.42802 33.0607C9.88117 33.0607 10.2485 32.6933 10.2485 32.2402C10.2485 31.787 9.88117 31.4197 9.42802 31.4197C8.97486 31.4197 8.60753 31.787 8.60753 32.2402Z" fill="white"/>
<path d="M8.60753 36.2268C8.60753 36.6799 8.97486 37.0473 9.42802 37.0473C9.88117 37.0473 10.2485 36.6799 10.2485 36.2268C10.2485 35.7736 9.88117 35.4062 9.42802 35.4062C8.97486 35.4062 8.60753 35.7736 8.60753 36.2268Z" fill="white"/>
<path d="M8.60753 40.2131C8.60753 40.6662 8.97486 41.0336 9.42802 41.0336C9.88117 41.0336 10.2485 40.6662 10.2485 40.2131C10.2485 39.7599 9.88117 39.3926 9.42802 39.3926C8.97486 39.3926 8.60753 39.7599 8.60753 40.2131Z" fill="white"/>
<path d="M8.60753 44.1992C8.60753 44.6523 8.97486 45.0197 9.42802 45.0197C9.88117 45.0197 10.2485 44.6523 10.2485 44.1992C10.2485 43.746 9.88117 43.3787 9.42802 43.3787C8.97486 43.3787 8.60753 43.746 8.60753 44.1992Z" fill="white"/>
<path d="M8.60753 48.1756C8.61242 47.7271 8.97621 47.366 9.42715 47.366C9.57413 47.366 9.70865 47.4033 9.82828 47.4707L8.60753 48.1756Z" fill="white"/>
<path d="M5.49339 4.33637C5.49339 4.78953 5.86073 5.15688 6.31388 5.15688C6.76703 5.15688 7.1344 4.78953 7.1344 4.33637C7.1344 3.88322 6.76703 3.51587 6.31388 3.51587C5.86073 3.51587 5.49339 3.88322 5.49339 4.33637Z" fill="white"/>
<path d="M5.49339 8.3227C5.49339 8.77585 5.86073 9.14321 6.31388 9.14321C6.76703 9.14321 7.1344 8.77585 7.1344 8.3227C7.1344 7.86955 6.76703 7.5022 6.31388 7.5022C5.86073 7.5022 5.49339 7.86955 5.49339 8.3227Z" fill="white"/>
<path d="M5.49339 12.3088C5.49339 12.7619 5.86073 13.1293 6.31388 13.1293C6.76703 13.1293 7.1344 12.7619 7.1344 12.3088C7.1344 11.8556 6.76703 11.4883 6.31388 11.4883C5.86073 11.4883 5.49339 11.8556 5.49339 12.3088Z" fill="white"/>
<path d="M5.49339 16.2954C5.49339 16.7485 5.86073 17.1159 6.31388 17.1159C6.76703 17.1159 7.1344 16.7485 7.1344 16.2954C7.1344 15.8422 6.76703 15.4749 6.31388 15.4749C5.86073 15.4749 5.49339 15.8422 5.49339 16.2954Z" fill="white"/>
<path d="M5.49339 20.2817C5.49339 20.7348 5.86073 21.1022 6.31388 21.1022C6.76703 21.1022 7.1344 20.7348 7.1344 20.2817C7.1344 19.8285 6.76703 19.4612 6.31388 19.4612C5.86073 19.4612 5.49339 19.8285 5.49339 20.2817Z" fill="white"/>
<path d="M5.49339 24.2678C5.49339 24.7209 5.86073 25.0883 6.31388 25.0883C6.76703 25.0883 7.1344 24.7209 7.1344 24.2678C7.1344 23.8146 6.76703 23.4473 6.31388 23.4473C5.86073 23.4473 5.49339 23.8146 5.49339 24.2678Z" fill="white"/>
<path d="M5.49339 28.2543C5.49339 28.7075 5.86073 29.0748 6.31388 29.0748C6.76703 29.0748 7.1344 28.7075 7.1344 28.2543C7.1344 27.8012 6.76703 27.4338 6.31388 27.4338C5.86073 27.4338 5.49339 27.8012 5.49339 28.2543Z" fill="white"/>
<path d="M5.49339 32.2402C5.49339 32.6933 5.86073 33.0607 6.31388 33.0607C6.76703 33.0607 7.1344 32.6933 7.1344 32.2402C7.1344 31.787 6.76703 31.4197 6.31388 31.4197C5.86073 31.4197 5.49339 31.787 5.49339 32.2402Z" fill="white"/>
<path d="M5.49339 36.2268C5.49339 36.6799 5.86073 37.0473 6.31388 37.0473C6.76703 37.0473 7.1344 36.6799 7.1344 36.2268C7.1344 35.7736 6.76703 35.4062 6.31388 35.4062C5.86073 35.4062 5.49339 35.7736 5.49339 36.2268Z" fill="white"/>
<path d="M5.49339 40.2131C5.49339 40.6662 5.86073 41.0336 6.31388 41.0336C6.76703 41.0336 7.1344 40.6662 7.1344 40.2131C7.1344 39.7599 6.76703 39.3926 6.31388 39.3926C5.86073 39.3926 5.49339 39.7599 5.49339 40.2131Z" fill="white"/>
<path d="M5.49339 44.1992C5.49339 44.6523 5.86073 45.0197 6.31388 45.0197C6.76703 45.0197 7.1344 44.6523 7.1344 44.1992C7.1344 43.746 6.76703 43.3787 6.31388 43.3787C5.86073 43.3787 5.49339 43.746 5.49339 44.1992Z" fill="white"/>
<path d="M5.49339 48.1857C5.49339 48.6389 5.86073 49.0062 6.31388 49.0062C6.76703 49.0062 7.1344 48.6389 7.1344 48.1857C7.1344 47.7326 6.76703 47.3652 6.31388 47.3652C5.86073 47.3652 5.49339 47.7326 5.49339 48.1857Z" fill="white"/>
<path d="M3.17374 1.16724C2.88978 1.15968 2.64051 1.00781 2.5011 0.781006L3.17374 1.16724Z" fill="white"/>
<path d="M2.37904 4.33637C2.37904 4.78953 2.74638 5.15688 3.19953 5.15688C3.65268 5.15688 4.02005 4.78953 4.02005 4.33637C4.02005 3.88322 3.65268 3.51587 3.19953 3.51587C2.74638 3.51587 2.37904 3.88322 2.37904 4.33637Z" fill="white"/>
<path d="M2.37904 8.3227C2.37904 8.77585 2.74638 9.14321 3.19953 9.14321C3.65268 9.14321 4.02005 8.77585 4.02005 8.3227C4.02005 7.86955 3.65268 7.5022 3.19953 7.5022C2.74638 7.5022 2.37904 7.86955 2.37904 8.3227Z" fill="white"/>
<path d="M2.37904 12.3088C2.37904 12.7619 2.74638 13.1293 3.19953 13.1293C3.65268 13.1293 4.02005 12.7619 4.02005 12.3088C4.02005 11.8556 3.65268 11.4883 3.19953 11.4883C2.74638 11.4883 2.37904 11.8556 2.37904 12.3088Z" fill="white"/>
<path d="M2.37904 16.2954C2.37904 16.7485 2.74638 17.1159 3.19953 17.1159C3.65268 17.1159 4.02005 16.7485 4.02005 16.2954C4.02005 15.8422 3.65268 15.4749 3.19953 15.4749C2.74638 15.4749 2.37904 15.8422 2.37904 16.2954Z" fill="white"/>
<path d="M2.37904 20.2817C2.37904 20.7348 2.74638 21.1022 3.19953 21.1022C3.65268 21.1022 4.02005 20.7348 4.02005 20.2817C4.02005 19.8285 3.65268 19.4612 3.19953 19.4612C2.74638 19.4612 2.37904 19.8285 2.37904 20.2817Z" fill="white"/>
<path d="M2.37904 24.2678C2.37904 24.7209 2.74638 25.0883 3.19953 25.0883C3.65268 25.0883 4.02005 24.7209 4.02005 24.2678C4.02005 23.8146 3.65268 23.4473 3.19953 23.4473C2.74638 23.4473 2.37904 23.8146 2.37904 24.2678Z" fill="white"/>
<path d="M2.37904 28.2543C2.37904 28.7075 2.74638 29.0748 3.19953 29.0748C3.65268 29.0748 4.02005 28.7075 4.02005 28.2543C4.02005 27.8012 3.65268 27.4338 3.19953 27.4338C2.74638 27.4338 2.37904 27.8012 2.37904 28.2543Z" fill="white"/>
<path d="M2.37904 32.2402C2.37904 32.6933 2.74638 33.0607 3.19953 33.0607C3.65268 33.0607 4.02005 32.6933 4.02005 32.2402C4.02005 31.787 3.65268 31.4197 3.19953 31.4197C2.74638 31.4197 2.37904 31.787 2.37904 32.2402Z" fill="white"/>
<path d="M2.37904 36.2268C2.37904 36.6799 2.74638 37.0473 3.19953 37.0473C3.65268 37.0473 4.02005 36.6799 4.02005 36.2268C4.02005 35.7736 3.65268 35.4062 3.19953 35.4062C2.74638 35.4062 2.37904 35.7736 2.37904 36.2268Z" fill="white"/>
<path d="M2.37904 40.2131C2.37904 40.6662 2.74638 41.0336 3.19953 41.0336C3.65268 41.0336 4.02005 40.6662 4.02005 40.2131C4.02005 39.7599 3.65268 39.3926 3.19953 39.3926C2.74638 39.3926 2.37904 39.7599 2.37904 40.2131Z" fill="white"/>
<path d="M2.37904 44.1992C2.37904 44.6523 2.74638 45.0197 3.19953 45.0197C3.65268 45.0197 4.02005 44.6523 4.02005 44.1992C4.02005 43.746 3.65268 43.3787 3.19953 43.3787C2.74638 43.3787 2.37904 43.746 2.37904 44.1992Z" fill="white"/>
<path d="M2.37904 48.1857C2.37904 48.6389 2.74638 49.0062 3.19953 49.0062C3.65268 49.0062 4.02005 48.6389 4.02005 48.1857C4.02005 47.7326 3.65268 47.3652 3.19953 47.3652C2.74638 47.3652 2.37904 47.7326 2.37904 48.1857Z" fill="white"/>
<path d="M2.54846 51.676C2.67298 51.5066 2.86733 51.3894 3.08902 51.3621L2.54846 51.676Z" fill="white"/>
</svg>
