<svg width="76" height="76" viewBox="0 0 76 76" fill="none" xmlns="http://www.w3.org/2000/svg">
<path d="M29.3727 16.3771L29.3727 12.9961L-5.14984e-05 12.9961L-5.14983e-05 16.3771L29.3727 16.3771Z" fill="white"/>
<path d="M12.9958 29.3728L16.3768 29.3728L16.3768 7.05719e-05L12.9958 7.05722e-05L12.9958 29.3728Z" fill="white"/>
<path d="M52.3835 39.3881L52.3835 36.0071L23.0108 36.0071L23.0108 39.3881L52.3835 39.3881Z" fill="white"/>
<path d="M36.0068 52.384L39.3878 52.384L39.3878 23.0113L36.0068 23.0113L36.0068 52.384Z" fill="white"/>
<path d="M75.3948 62.3993L75.3948 59.0183L46.022 59.0183L46.022 62.3993L75.3948 62.3993Z" fill="white"/>
<path d="M59.0176 75.395L62.3987 75.395L62.3987 46.0223L59.0176 46.0223L59.0176 75.395Z" fill="white"/>
</svg>
