<svg width="53" height="39" viewBox="0 0 53 39" fill="none" xmlns="http://www.w3.org/2000/svg">
<path d="M11.25 0.75C14.4531 0.828125 17.1094 1.92188 19.2188 4.03125C21.3281 6.14062 22.4219 8.79688 22.5 12V23.25C22.4219 27.4688 20.9375 30.9844 18.0469 33.7969C15.2344 36.6875 11.7188 38.1719 7.5 38.25C6.40625 38.25 5.50781 37.8984 4.80469 37.1953C4.10156 36.4922 3.75 35.5938 3.75 34.5C3.75 33.4062 4.10156 32.5078 4.80469 31.8047C5.50781 31.1016 6.40625 30.75 7.5 30.75C9.60938 30.6719 11.3672 29.9297 12.7734 28.5234C14.1797 27.1172 14.9219 25.3594 15 23.25V22.5469C13.8281 23.0156 12.5781 23.25 11.25 23.25C8.04688 23.1719 5.39062 22.0781 3.28125 19.9688C1.17188 17.8594 0.078125 15.2031 0 12C0.078125 8.79688 1.17188 6.14062 3.28125 4.03125C5.39062 1.92188 8.04688 0.828125 11.25 0.75ZM52.5 12V23.25C52.4219 27.4688 50.9375 30.9844 48.0469 33.7969C45.2344 36.6875 41.7188 38.1719 37.5 38.25C36.4062 38.25 35.5078 37.8984 34.8047 37.1953C34.1016 36.4922 33.75 35.5938 33.75 34.5C33.75 33.4062 34.1016 32.5078 34.8047 31.8047C35.5078 31.1016 36.4062 30.75 37.5 30.75C39.6094 30.6719 41.3672 29.9297 42.7734 28.5234C44.1797 27.1172 44.9219 25.3594 45 23.25V22.5469C43.8281 23.0156 42.5781 23.25 41.25 23.25C38.0469 23.1719 35.3906 22.0781 33.2812 19.9688C31.1719 17.8594 30.0781 15.2031 30 12C30.0781 8.79688 31.1719 6.14062 33.2812 4.03125C35.3906 1.92188 38.0469 0.828125 41.25 0.75C44.4531 0.828125 47.1094 1.92188 49.2188 4.03125C51.3281 6.14062 52.4219 8.79688 52.5 12Z" fill="#EB0029"/>
</svg>
