<svg width="53" height="39" viewBox="0 0 53 39" fill="none" xmlns="http://www.w3.org/2000/svg">
<path d="M11.25 15.75C14.4531 15.8281 17.1094 16.9219 19.2188 19.0312C21.3281 21.1406 22.4219 23.7969 22.5 27C22.4219 30.2031 21.3281 32.8594 19.2188 34.9688C17.1094 37.0781 14.4531 38.1719 11.25 38.25C8.04688 38.1719 5.39062 37.0781 3.28125 34.9688C1.17188 32.8594 0.078125 30.2031 0 27V15.75C0.078125 11.5312 1.5625 8.01562 4.45312 5.20312C7.26562 2.3125 10.7812 0.828125 15 0.75C16.0938 0.75 16.9922 1.10156 17.6953 1.80469C18.3984 2.50781 18.75 3.40625 18.75 4.5C18.75 5.59375 18.3984 6.49219 17.6953 7.19531C16.9922 7.89844 16.0938 8.25 15 8.25C12.8906 8.32813 11.1328 9.07031 9.72656 10.4766C8.32031 11.8828 7.57813 13.6406 7.5 15.75V16.4531C8.67188 15.9844 9.92188 15.75 11.25 15.75ZM41.25 15.75C44.4531 15.8281 47.1094 16.9219 49.2188 19.0312C51.3281 21.1406 52.4219 23.7969 52.5 27C52.4219 30.2031 51.3281 32.8594 49.2188 34.9688C47.1094 37.0781 44.4531 38.1719 41.25 38.25C38.0469 38.1719 35.3906 37.0781 33.2812 34.9688C31.1719 32.8594 30.0781 30.2031 30 27V15.75C30.0781 11.5312 31.5625 8.01562 34.4531 5.20312C37.2656 2.3125 40.7812 0.828125 45 0.75C46.0938 0.75 46.9922 1.10156 47.6953 1.80469C48.3984 2.50781 48.75 3.40625 48.75 4.5C48.75 5.59375 48.3984 6.49219 47.6953 7.19531C46.9922 7.89844 46.0938 8.25 45 8.25C42.8906 8.32813 41.1328 9.07031 39.7266 10.4766C38.3203 11.8828 37.5781 13.6406 37.5 15.75V16.4531C38.6719 15.9844 39.9219 15.75 41.25 15.75Z" fill="#EB0029"/>
</svg>
