<svg width="77" height="55" viewBox="0 0 77 55" fill="none" xmlns="http://www.w3.org/2000/svg">
<path opacity="0.2" d="M14.3571 35.4581C12.6728 39.7083 10.0105 43.9159 6.44535 47.9657C5.31082 49.2542 5.16679 51.0938 6.0872 52.5427C6.79599 53.6572 7.98813 54.2921 9.25041 54.2921C9.60604 54.2921 9.96796 54.242 10.3249 54.138C17.881 51.9303 35.5065 44.0887 35.9798 19.0235C36.1627 9.34483 29.0837 1.02986 19.8658 0.0931614C14.7854 -0.415275 9.70247 1.23521 5.93569 4.64011C2.1639 8.04874 0 12.915 0 17.9929C0 26.4644 6.01332 33.8728 14.3571 35.4581ZM9.37438 8.4457C11.7699 6.28054 14.7854 5.1272 17.9824 5.1272C18.4345 5.1272 18.8903 5.14975 19.3474 5.19732C25.9305 5.86476 30.9833 11.8956 30.8506 18.9258C30.5238 36.2696 21.1331 44.0774 13.3566 47.5699C15.8172 44.2414 17.7507 40.8178 19.1257 37.3478C19.6617 35.9966 19.5728 34.4864 18.8828 33.2041C18.1602 31.8591 16.8716 30.9049 15.3502 30.5856C9.42698 29.3471 5.12924 24.0501 5.12924 17.9929C5.12924 14.3639 6.67702 10.8839 9.37438 8.4457Z" fill="#525960"/>
<path opacity="0.2" d="M47.0445 52.5425C47.7533 53.657 48.9454 54.2919 50.2077 54.2919C50.5633 54.2919 50.924 54.2418 51.2821 54.1378C58.8383 51.9301 76.4625 44.0885 76.9359 19.0233C77.1162 9.34462 70.0384 1.02963 60.8193 0.0929569C55.7327 -0.424225 50.6585 1.23375 46.8917 4.6399C43.12 8.04854 40.9561 12.9148 40.9561 17.9927C40.9561 26.4642 46.9694 33.8726 55.3119 35.4579C53.6264 39.7118 50.9641 43.9194 47.4002 47.9667C46.2656 49.2565 46.1228 51.0949 47.0445 52.5425ZM60.0805 37.3501C60.6164 35.9989 60.5288 34.4887 59.84 33.2064C59.1162 31.8602 57.8289 30.906 56.3062 30.5854C50.383 29.3469 46.0852 24.0499 46.0852 17.9927C46.0852 14.3624 47.633 10.8836 50.3304 8.44549C52.7247 6.28034 55.7401 5.127 58.9384 5.127C59.3892 5.127 59.8451 5.14954 60.3034 5.19712C66.8852 5.86456 71.9393 11.8954 71.8066 18.9256C71.481 36.2706 62.0891 44.0772 54.3126 47.5697C56.772 44.2438 58.703 40.8201 60.0805 37.3501Z" fill="#525960"/>
</svg>
