<svg width="159" height="113" viewBox="0 0 159 113" fill="none" xmlns="http://www.w3.org/2000/svg">
<path d="M34.5 0.250732C44.1094 0.485107 52.0781 3.76636 58.4062 10.0945C64.7344 16.4226 68.0156 24.3914 68.25 34.0007V67.7507C68.0156 80.407 63.5625 90.9539 54.8906 99.3914C46.4531 108.063 35.9062 112.516 23.25 112.751C19.9688 112.751 17.2734 111.696 15.1641 109.587C13.0547 107.477 12 104.782 12 101.501C12 98.2195 13.0547 95.5242 15.1641 93.4148C17.2734 91.3054 19.9688 90.2507 23.25 90.2507C29.5781 90.0164 34.8516 87.7898 39.0703 83.571C43.2891 79.3523 45.5156 74.0789 45.75 67.7507V65.6414C42.2344 67.0476 38.4844 67.7507 34.5 67.7507C24.8906 67.5164 16.9219 64.2351 10.5938 57.907C4.26562 51.5789 0.984375 43.6101 0.75 34.0007C0.984375 24.3914 4.26562 16.4226 10.5938 10.0945C16.9219 3.76636 24.8906 0.485107 34.5 0.250732ZM158.25 34.0007V67.7507C158.016 80.407 153.562 90.9539 144.891 99.3914C136.453 108.063 125.906 112.516 113.25 112.751C109.969 112.751 107.273 111.696 105.164 109.587C103.055 107.477 102 104.782 102 101.501C102 98.2195 103.055 95.5242 105.164 93.4148C107.273 91.3054 109.969 90.2507 113.25 90.2507C119.578 90.0164 124.852 87.7898 129.07 83.571C133.289 79.3523 135.516 74.0789 135.75 67.7507V65.6414C132.234 67.0476 128.484 67.7507 124.5 67.7507C114.891 67.5164 106.922 64.2351 100.594 57.907C94.2656 51.5789 90.9844 43.6101 90.75 34.0007C90.9844 24.3914 94.2656 16.4226 100.594 10.0945C106.922 3.76636 114.891 0.485107 124.5 0.250732C134.109 0.485107 142.078 3.76636 148.406 10.0945C154.734 16.4226 158.016 24.3914 158.25 34.0007Z" fill="#6B2AE6" fill-opacity="0.08"/>
</svg>
