<svg width="48" height="48" viewBox="0 0 48 48" fill="none" xmlns="http://www.w3.org/2000/svg">
<g clip-path="url(#clip0_278_37032)">
<path d="M13.0007 6C19.3891 6 24.0007 11.2741 24.0005 19.0833C23.9596 30.4295 15.4301 38.4517 3.12492 39.9923C1.9833 40.1352 1.54311 38.5537 2.5944 38.0863C7.31598 35.9868 9.70062 33.3226 10.0086 30.6857C10.2388 28.7155 9.16776 26.9898 7.82296 26.6666C4.33659 25.8288 2.0007 21.4872 2.0007 17C2.0007 10.9249 6.92556 6 13.0007 6Z" fill="#EB0029"/>
<path d="M37.0007 6C43.3891 6 48.0007 11.2741 48.0005 19.0833C47.9596 30.4295 39.4301 38.4517 27.1249 39.9923C25.9833 40.1352 25.5431 38.5537 26.5944 38.0863C31.316 35.9868 33.7006 33.3226 34.0086 30.6857C34.2388 28.7155 33.1678 26.9898 31.823 26.6666C28.3366 25.8288 26.0007 21.4872 26.0007 17C26.0007 10.9249 30.9256 6 37.0007 6Z" fill="#EB0029"/>
</g>
<defs>
<clipPath id="clip0_278_37032">
<rect width="48" height="48" fill="white"/>
</clipPath>
</defs>
</svg>
